<svg id="Layer_1" data-name="Layer 1" xmlns="http://www.w3.org/2000/svg" viewBox="0 0 1920 1080"><defs><style>.cls-1{fill:#231f20;}.cls-2{fill:#e35e3a;}.cls-3{fill:#ff8500;}.cls-4{fill:#ff3b0b;}.cls-5{fill:#ffd836;}.cls-6{fill:#131e3a;}</style></defs><path class="cls-1" d="M559.15,978.68h14.74q12.68,0,17.1,1.12a19,19,0,0,1,10.36,6.47,18.8,18.8,0,0,1,4,12.32q0,7.47-3.92,12.31a19.25,19.25,0,0,1-10.82,6.52q-5,1.23-18.81,1.22h-5.28v34.73h-7.39Zm7.39,7.32v25.33l12.53.15q7.59,0,11.11-1.39a11.38,11.38,0,0,0,5.53-4.51,12.52,12.52,0,0,0,2-7,12.32,12.32,0,0,0-2-6.86,11.14,11.14,0,0,0-5.3-4.44q-3.3-1.3-10.79-1.31Z"/><path class="cls-1" d="M673.52,998.13v55.24h-6.94v-9.5a30.11,30.11,0,0,1-9.94,8.18,27.55,27.55,0,0,1-31.88-5.76,28.67,28.67,0,0,1-8.22-20.69,28.13,28.13,0,0,1,8.29-20.41,26.92,26.92,0,0,1,20-8.48A25.76,25.76,0,0,1,657,999.6a27.9,27.9,0,0,1,9.58,8.68V998.13Zm-28.14,5.44a21,21,0,0,0-10.85,2.91,21.2,21.2,0,0,0-7.91,8.19,22.57,22.57,0,0,0,0,22.31,21.8,21.8,0,0,0,8,8.3,20.6,20.6,0,0,0,10.72,3,21.83,21.83,0,0,0,10.95-2.94,20.51,20.51,0,0,0,8-8A22.9,22.9,0,0,0,667,1026a22.11,22.11,0,0,0-6.25-16A20.64,20.64,0,0,0,645.38,1003.57Z"/><path class="cls-1" d="M736.54,998.13h7v44q0,11.63-2,17a22.09,22.09,0,0,1-9.61,11.73,31.35,31.35,0,0,1-16.45,4.11,37.35,37.35,0,0,1-12.65-2,25.31,25.31,0,0,1-9.13-5.4,32.37,32.37,0,0,1-6.48-9.9h7.65a20.23,20.23,0,0,0,8.05,8.12,25.71,25.71,0,0,0,12.24,2.64,25,25,0,0,0,12.16-2.71,16.52,16.52,0,0,0,7.07-6.8q2.12-4.1,2.12-13.24v-2.84a26.59,26.59,0,0,1-9.72,7.79,28.59,28.59,0,0,1-26.38-1.06,26.79,26.79,0,0,1-10.27-10.18,28,28,0,0,1-3.62-14.07,28.36,28.36,0,0,1,3.77-14.29,28.63,28.63,0,0,1,24.52-14.34,25.85,25.85,0,0,1,11.45,2.57,31.5,31.5,0,0,1,10.25,8.45Zm-20.77,5.44a22.17,22.17,0,0,0-11.12,2.91,21.15,21.15,0,0,0-8,8.07,22.31,22.31,0,0,0-2.91,11.15,20.21,20.21,0,0,0,6,15q6,5.94,15.65,5.94t15.61-5.89q5.91-5.9,5.91-15.48a22.59,22.59,0,0,0-2.72-11.15,19.89,19.89,0,0,0-7.69-7.75A21.29,21.29,0,0,0,715.77,1003.57Z"/><path class="cls-1" d="M804.74,1035l5.93,3.15a32.54,32.54,0,0,1-6.75,9.34,26.77,26.77,0,0,1-8.6,5.41,29.71,29.71,0,0,1-10.83,1.85q-13.38,0-20.94-8.86a30.05,30.05,0,0,1-7.55-20,29.71,29.71,0,0,1,6.39-18.73q8.11-10.47,21.7-10.46,14,0,22.35,10.71,5.94,7.56,6,18.89H763.24q.21,9.63,6.1,15.78a19.32,19.32,0,0,0,14.55,6.15,23.13,23.13,0,0,0,8.13-1.46,21.22,21.22,0,0,0,6.72-3.9A33,33,0,0,0,804.74,1035Zm0-14.88a23.76,23.76,0,0,0-4.11-9.08,19.5,19.5,0,0,0-7.12-5.49,21.79,21.79,0,0,0-9.32-2.08,20,20,0,0,0-13.85,5.23q-4.23,3.81-6.39,11.42Z"/><path class="cls-1" d="M855.33,1053.37V978.68h1.61l49.24,57.25V978.68h7.29v74.69h-1.66L863,996.82v56.55Z"/><path class="cls-1" d="M956.22,996.71a27,27,0,0,1,21,9.24,29.86,29.86,0,0,1-.43,40.19q-8,8.65-20.53,8.65t-20.58-8.65a29.8,29.8,0,0,1-.43-40.14A27,27,0,0,1,956.22,996.71Zm0,7a20.25,20.25,0,0,0-15.09,6.54,22,22,0,0,0-6.31,15.85,22.64,22.64,0,0,0,2.88,11.17,20.53,20.53,0,0,0,7.77,8,21.92,21.92,0,0,0,21.51,0,20.53,20.53,0,0,0,7.77-8,22.74,22.74,0,0,0,2.87-11.17,22,22,0,0,0-6.33-15.85A20.25,20.25,0,0,0,956.19,1003.67Z"/><path class="cls-1" d="M1003.9,977.62h7v20.51h11.16v6.14h-11.16v49.1h-7v-49.1h-9.61v-6.14h9.61Z"/><path class="cls-1" d="M1062.34,978.68h37.06V986h-29.67v23.4h29.67v7.31h-29.67v36.66h-7.39Z"/><path class="cls-1" d="M1137,996.71a27,27,0,0,1,21,9.24,29.86,29.86,0,0,1-.43,40.19q-8,8.65-20.53,8.65t-20.58-8.65A29.83,29.83,0,0,1,1116,1006,27,27,0,0,1,1137,996.71Zm0,7a20.23,20.23,0,0,0-15.09,6.54,22,22,0,0,0-6.31,15.85,22.74,22.74,0,0,0,2.87,11.17,20.55,20.55,0,0,0,7.78,8,21.9,21.9,0,0,0,21.5,0,20.53,20.53,0,0,0,7.77-8,22.64,22.64,0,0,0,2.88-11.17,22,22,0,0,0-6.34-15.85A20.25,20.25,0,0,0,1137,1003.67Z"/><path class="cls-1" d="M1177.66,998.13h7v25.79q0,9.45,1,13a14.46,14.46,0,0,0,5.77,8,17.4,17.4,0,0,0,10.15,3,17,17,0,0,0,10-2.87,14.65,14.65,0,0,0,5.67-7.54q1.07-3.2,1.06-13.56V998.13h7.19v27.11q0,11.43-2.64,17.21a20.28,20.28,0,0,1-8,9.07q-5.29,3.27-13.3,3.27t-13.35-3.27a20.13,20.13,0,0,1-8-9.14q-2.64-5.87-2.64-17.64Z"/><path class="cls-1" d="M1241.18,998.13h7v9.9a29.47,29.47,0,0,1,9.36-8.5,22.8,22.8,0,0,1,11.17-2.82,19.33,19.33,0,0,1,10.88,3.14,18.72,18.72,0,0,1,7,8.49q2.26,5.32,2.26,16.6v28.43h-7V1027q0-9.54-.78-12.74a12.84,12.84,0,0,0-13.75-11,17.27,17.27,0,0,0-11.44,4.26,20,20,0,0,0-6.67,10.57q-1,4.11-1,15v20.26h-7Z"/><path class="cls-1" d="M1358.62,976.81v76.56h-6.94v-9.5a30.31,30.31,0,0,1-9.94,8.18,27.55,27.55,0,0,1-31.88-5.76,28.64,28.64,0,0,1-8.23-20.69,28.14,28.14,0,0,1,8.3-20.41,26.92,26.92,0,0,1,20-8.48,25.76,25.76,0,0,1,12.2,2.89,27.9,27.9,0,0,1,9.58,8.68V976.81Zm-28.14,26.76a21,21,0,0,0-10.85,2.91,21.3,21.3,0,0,0-7.92,8.19,22.6,22.6,0,0,0,0,22.31,21.77,21.77,0,0,0,8,8.3,20.66,20.66,0,0,0,10.73,3,21.83,21.83,0,0,0,11-2.94,20.51,20.51,0,0,0,8-8,22.9,22.9,0,0,0,2.79-11.31,22.12,22.12,0,0,0-6.26-16A20.6,20.6,0,0,0,1330.48,1003.57Z"/><path class="cls-2" d="M643.7,758h82.69v26.5H672.33v25.72h54.06v26H672.33V873.7h54.06v26.59H643.7Z"/><path class="cls-2" d="M755.23,758h30.54q25.1,0,35.75,4.21a36,36,0,0,1,17.12,14q6.48,9.78,6.48,23.11,0,14-7.15,23.46T816.4,837.05l35.88,63.24H820.76L786.69,840h-2.63v60.25H755.23Zm28.83,55.6h9q13.75,0,18.94-3.39T817.22,799a13.21,13.21,0,0,0-2.57-8.11,14.19,14.19,0,0,0-6.88-4.94q-4.31-1.51-15.81-1.51h-7.9Z"/><path class="cls-2" d="M877.56,758H908.1q25.11,0,35.75,4.21a36,36,0,0,1,17.12,14q6.48,9.78,6.48,23.11,0,14-7.15,23.46t-21.57,14.26l35.88,63.24H943.09L909,840h-2.64v60.25H877.56Zm28.83,55.6h9q13.76,0,19-3.39T939.55,799a13.21,13.21,0,0,0-2.57-8.11A14.14,14.14,0,0,0,930.1,786q-4.3-1.51-15.81-1.51h-7.9Z"/><path class="cls-2" d="M1069.45,754.46q32.15,0,55.28,21.86t23.14,53.28q0,31.14-22.83,52.7t-55.38,21.57q-34.11,0-56.68-22.15t-22.56-52.6a70.29,70.29,0,0,1,10.51-37.52,75.54,75.54,0,0,1,28.9-27.13A81.63,81.63,0,0,1,1069.45,754.46Zm-.3,26.5q-21,0-35.36,13.73t-14.33,34.91q0,23.6,18,37.33a51.48,51.48,0,0,0,32.16,10.73q20.52,0,34.94-13.93T1119,829.41A46,46,0,0,0,1104.5,795Q1090,781,1069.15,781Z"/><path class="cls-2" d="M1177,758h30.55q25.1,0,35.74,4.21a36,36,0,0,1,17.13,14q6.48,9.78,6.48,23.11,0,14-7.16,23.46t-21.56,14.26l35.88,63.24h-31.52L1208.48,840h-2.63v60.25H1177Zm28.84,55.6h9q13.75,0,18.94-3.39T1239,799a13.21,13.21,0,0,0-2.56-8.11,14.19,14.19,0,0,0-6.88-4.94c-2.88-1-8.14-1.51-15.81-1.51h-7.9Z"/><path class="cls-2" d="M389.67,619.31V543.48H185q-38.75,0-58.12-17.52t-19.36-47.69a46.06,46.06,0,0,1,2.86-15.69,81.31,81.31,0,0,1,8.56-16.7q5.72-8.78,11.82-16.92t15.1-20L361.94,120q21.19-28.52,34.85-41.36A46.22,46.22,0,0,1,429.61,65.8q61.93,0,61.94,71V452.46h17.54q31.4,0,50.35,8.53t19,37.38q0,23.58-15.5,34.35t-46.48,10.76H491.55v75.83q0,31.4-13.86,46.69t-37.08,15.28q-22.82,0-36.89-15.7T389.67,619.31ZM214.33,452.46H389.67V215.28Z"/><path class="cls-2" d="M1623.78,619.31V543.48h-204.7q-38.76,0-58.12-17.52t-19.36-47.69a46.06,46.06,0,0,1,2.86-15.69,81.23,81.23,0,0,1,8.55-16.7q5.73-8.78,11.83-16.92t15.09-20l216.12-289q21.2-28.52,34.85-41.36a46.22,46.22,0,0,1,32.82-12.84q61.92,0,61.94,71V452.46h17.54q31.4,0,50.35,8.53t19,37.38q0,23.58-15.5,34.35t-46.48,10.76h-24.87v75.83q0,31.4-13.86,46.69t-37.08,15.28q-22.83,0-36.89-15.7T1623.78,619.31ZM1448.44,452.46h175.34V215.28Z"/><circle class="cls-3" cx="962.4" cy="371.54" r="331.69" transform="translate(19.16 789.34) rotate(-45)"/><circle class="cls-4" cx="962.4" cy="371.54" r="312.02" transform="translate(19.16 789.34) rotate(-45)"/><circle class="cls-3" cx="962.4" cy="371.54" r="302.62" transform="translate(19.16 789.34) rotate(-45)"/><path class="cls-5" d="M762.74,170.58c-38.18,18-25.72,64.65-50.72,93.75-12.59,14.67-25.52,23.6-27.91,44.19-2.59,22.31,4.76,44.65,1.71,67.1-2.75,20.23-13.81,38.25-15.8,58.6-2.29,23.47,7,45.38,17.71,65.69,11.12,21.12,22.91,41.68,33.21,63.24,10.75,22.54,21.36,48.72,41.72,64.45,20.11,15.54,45.51,14.27,69.56,16.24,26.39,2.17,50,9.43,75.12,17,22.1,6.61,40.95,5.28,63.48,1.36,29.82-5.2,59.81-8,89.7-12.56,46.34-7,79.51-46.18,116.35-72.87,47.28-34.25,50.71-87.74,73.6-137.65,10.55-23,16-40.51,8.76-65.52-6.69-23.17-15.42-44.75-19.88-68.6-9.29-49.59-14.78-74.54-36.75-119,4.72-1.62-19.36-15.68-14.72-17.63-3.69-12.75-5.68-29.39-11-41.23-9-20.28-32.64-17.16-51.76-17.23-24.52-.09-43.59-13.15-66.59-33.12-23.35-20.26-60.08,27.66-89.45,15.56-13.85-5.71-27.57-16.53-43.36-16.78-14.19-.22-26.19,8.68-38.31,14.3C870.37,97.7,851,99.87,832.4,97.74c-9.53-1.1-30.22-5.07-38.22,3.72-7.45,8.19.25,23.59-6.22,32.38-4.68,6.36-12.11,6.86-18.76,10.22-7.72,3.91-13.72-.72-21.46,7.47-5.52,5.84,4.67,15.66,7.13,23.41"/><path class="cls-4" d="M838.57,172.4a30.09,30.09,0,1,1-37.8-19.55A30.1,30.1,0,0,1,838.57,172.4Z"/><path class="cls-4" d="M788.76,497A30.1,30.1,0,1,1,751,477.42,30.1,30.1,0,0,1,788.76,497Z"/><path class="cls-4" d="M1199.39,283a30.1,30.1,0,1,1-37.81-19.55A30.1,30.1,0,0,1,1199.39,283Z"/><path class="cls-4" d="M1141.87,519a30.09,30.09,0,1,1-37.81-19.55A30.09,30.09,0,0,1,1141.87,519Z"/><path class="cls-4" d="M969.45,424.37a30.1,30.1,0,1,1-37.81-19.55A30.1,30.1,0,0,1,969.45,424.37Z"/><path class="cls-4" d="M1127.05,170.39a30.1,30.1,0,1,1-37.81-19.54A30.1,30.1,0,0,1,1127.05,170.39Z"/><path class="cls-4" d="M1019.67,170.21a30.1,30.1,0,1,1-37.81-19.54A30.1,30.1,0,0,1,1019.67,170.21Z"/><path class="cls-4" d="M786.64,351.13a30.09,30.09,0,1,1-37.81-19.55A30.09,30.09,0,0,1,786.64,351.13Z"/><path class="cls-4" d="M841.38,280.64a30.1,30.1,0,1,1-37.81-19.55A30.1,30.1,0,0,1,841.38,280.64Z"/><path class="cls-4" d="M1078,353.34a30.09,30.09,0,1,1-37.81-19.55A30.1,30.1,0,0,1,1078,353.34Z"/><path class="cls-4" d="M946.39,577.32a30.1,30.1,0,1,1-37.81-19.54A30.1,30.1,0,0,1,946.39,577.32Z"/><path class="cls-4" d="M859.11,454.68a24.35,24.35,0,1,1-30.59-15.82A24.35,24.35,0,0,1,859.11,454.68Z"/><path class="cls-4" d="M991.5,264.5A30.09,30.09,0,1,1,953.69,245,30.09,30.09,0,0,1,991.5,264.5Z"/><path class="cls-4" d="M922.06,145.82a30.1,30.1,0,1,1-37.81-19.55A30.1,30.1,0,0,1,922.06,145.82Z"/><path class="cls-4" d="M1205.54,419.75a30.1,30.1,0,1,1-37.81-19.55A30.1,30.1,0,0,1,1205.54,419.75Z"/><path class="cls-4" d="M1053.48,558.6a30.09,30.09,0,1,1-37.8-19.54A30.08,30.08,0,0,1,1053.48,558.6Z"/><rect class="cls-6" x="958.67" y="40.22" width="5.74" height="663.3" transform="translate(-67.5 309.23) rotate(-17.66)"/><rect class="cls-6" x="631.07" y="369.37" width="663.3" height="5.75" transform="translate(-67.55 309.51) rotate(-17.66)"/><polygon class="cls-6" points="812.66 667.06 807.56 664.42 1112.22 75.13 1118.94 78 812.66 667.06"/><rect class="cls-6" x="959.28" y="40.32" width="5.75" height="663.36" transform="translate(189.82 1055.84) rotate(-62.66)"/><polygon class="cls-6" points="1127.95 58.64 962.01 371.93 1307.29 261.49 1127.95 58.64"/><path class="cls-3" d="M1363,199.29l-18.74,6a310.71,310.71,0,0,0-75.45-124.21c-1.88-8.71-3.87-17.58-7-24.71-8-17.85-27.19-17.56-44.72-17.29a317.52,317.52,0,0,0-28.69-16.51L1197.21,5A330.65,330.65,0,0,1,1363,199.29Z"/><path class="cls-4" d="M1217,39.05c-2.39,0-4.74.08-7,.07a67,67,0,0,1-13.19-1.36q-6.27-3.57-12.71-6.84l4.25-8.38A317.52,317.52,0,0,1,1217,39.05Z"/><path class="cls-4" d="M1344.23,205.26l-9,2.85a302.2,302.2,0,0,0-45.92-88.91q-.94-2-1.95-4c2.78-1-4.44-6.24-9.89-10.81q-2.67-3.14-5.42-6.18a.85.85,0,0,1,.59-.65c-1.47-5.07-2.67-10.76-3.91-16.52A310.71,310.71,0,0,1,1344.23,205.26Z"/><path class="cls-3" d="M1277.52,104.4c-3.09-2.59-5.61-5-5.42-6.18Q1274.85,101.27,1277.52,104.4Z"/><path class="cls-3" d="M1335.28,208.11,1320.07,213c-7-35.13-13.59-58.38-30.71-93.75A302.2,302.2,0,0,1,1335.28,208.11Z"/><path class="cls-3" d="M1196.78,37.76a71.2,71.2,0,0,1-13.92-4.47l1.21-2.37Q1190.5,34.19,1196.78,37.76Z"/><path class="cls-5" d="M1289.36,119.2q-5.7-7.61-11.84-14.8c5.45,4.57,12.67,9.85,9.89,10.81Q1288.42,117.24,1289.36,119.2Z"/><path class="cls-5" d="M1320.07,213c-7-35.13-13.59-58.38-30.71-93.75q-5.7-7.61-11.84-14.8c-3.09-2.59-5.61-5-5.42-6.18a.85.85,0,0,1,.59-.65c-1.47-5.07-2.67-10.76-3.91-16.52-1.88-8.71-3.87-17.58-7-24.71-8-17.85-27.19-17.56-44.72-17.29-2.39,0-4.74.08-7,.07a67,67,0,0,1-13.19-1.36,71.2,71.2,0,0,1-13.92-4.47l-135,266.34L1106,281.12a30.09,30.09,0,0,1,45-14.32l81.57-26a30.09,30.09,0,1,1,53-16.88Zm-127.76-75.46a30.1,30.1,0,1,1,19.55-37.81A30.09,30.09,0,0,1,1192.31,137.49Z"/><path class="cls-4" d="M1285.52,224l-53,16.88a30.09,30.09,0,1,1,53-16.88Z"/><path class="cls-4" d="M1192.31,137.49a30.1,30.1,0,1,1,19.55-37.81A30.09,30.09,0,0,1,1192.31,137.49Z"/><path class="cls-4" d="M1150.93,266.8l-45,14.32a30.09,30.09,0,0,1,45-14.32Z"/></svg>