<svg id="Layer_1" data-name="Layer 1" xmlns="http://www.w3.org/2000/svg" viewBox="0 0 122 36"><defs><style>.cls-1{fill:#fff;}</style></defs><rect x="3.45" y="0.5" width="115.09" height="35" rx="17.5"/><path class="cls-1" d="M10.6,14.8C8.73,18,9.92,23,12,25.94c1,1.49,2.08,2.83,3.51,2.83h.08a4.31,4.31,0,0,0,1.62-.44,4.57,4.57,0,0,1,1.93-.45,4.14,4.14,0,0,1,1.83.44,4,4,0,0,0,1.76.42c1.61,0,2.6-1.48,3.47-2.75a12.08,12.08,0,0,0,1.52-3.11v0a.18.18,0,0,0-.1-.22h0a4.62,4.62,0,0,1-2.8-4.23,4.77,4.77,0,0,1,2.25-4h0a.18.18,0,0,0,.08-.11.17.17,0,0,0,0-.14A5.19,5.19,0,0,0,23,11.94l-.36,0a7.3,7.3,0,0,0-2.58.64,4.09,4.09,0,0,1-1.24.37,4,4,0,0,1-1.27-.37A6.22,6.22,0,0,0,15.3,12h-.05A5.51,5.51,0,0,0,10.6,14.8Z"/><path class="cls-1" d="M23,6.68a5.06,5.06,0,0,0-3.33,1.71,4.71,4.71,0,0,0-1.2,3.5.18.18,0,0,0,.17.16h.23A4.26,4.26,0,0,0,22,10.45,5,5,0,0,0,23.2,6.84.2.2,0,0,0,23,6.68Z"/><path class="cls-1" d="M36.14,6.59H38.3a3.24,3.24,0,0,1,1.52.35,2.58,2.58,0,0,1,1,1,2.7,2.7,0,0,1,.37,1.41,2.65,2.65,0,0,1-.37,1.41,2.54,2.54,0,0,1-1,1,3.24,3.24,0,0,1-1.52.35H36.14Zm2.13,5.11a2.88,2.88,0,0,0,1.34-.3,2.19,2.19,0,0,0,.89-.84,2.4,2.4,0,0,0,.31-1.24,2.39,2.39,0,0,0-.31-1.23,2.19,2.19,0,0,0-.89-.84A2.88,2.88,0,0,0,38.27,7H36.54V11.7Z"/><path class="cls-1" d="M43,11.82a1.9,1.9,0,0,1-.73-.73,2.26,2.26,0,0,1,0-2.14A1.9,1.9,0,0,1,43,8.22a2.16,2.16,0,0,1,2.09,0,1.9,1.9,0,0,1,.73.73,2.33,2.33,0,0,1,0,2.14,1.9,1.9,0,0,1-.73.73,2.16,2.16,0,0,1-2.09,0Zm1.88-.3a1.57,1.57,0,0,0,.59-.61,2,2,0,0,0,0-1.78,1.57,1.57,0,0,0-.59-.61,1.55,1.55,0,0,0-.84-.22,1.6,1.6,0,0,0-.84.22,1.62,1.62,0,0,0-.58.61,1.91,1.91,0,0,0,0,1.78,1.62,1.62,0,0,0,.58.61,1.6,1.6,0,0,0,.84.22A1.55,1.55,0,0,0,44.9,11.52Z"/><path class="cls-1" d="M53,8l-1.54,4.08h-.37L49.74,8.52l-1.39,3.54H48L46.45,8h.37l1.36,3.64L49.57,8h.34l1.38,3.63L52.67,8Z"/><path class="cls-1" d="M57.13,8.39a1.75,1.75,0,0,1,.45,1.29v2.38h-.39V9.71a1.46,1.46,0,0,0-.35-1.05,1.28,1.28,0,0,0-1-.36,1.47,1.47,0,0,0-1.13.43,1.59,1.59,0,0,0-.42,1.16v2.17h-.39V8h.38v.88a1.57,1.57,0,0,1,.63-.67,1.9,1.9,0,0,1,1-.24A1.65,1.65,0,0,1,57.13,8.39Z"/><path class="cls-1" d="M59.19,6.26h.39v5.8h-.39Z"/><path class="cls-1" d="M61.78,11.82a1.9,1.9,0,0,1-.73-.73,2.26,2.26,0,0,1,0-2.14,1.9,1.9,0,0,1,.73-.73,2.16,2.16,0,0,1,2.09,0A1.9,1.9,0,0,1,64.6,9a2.33,2.33,0,0,1,0,2.14,1.9,1.9,0,0,1-.73.73,2.16,2.16,0,0,1-2.09,0Zm1.88-.3a1.57,1.57,0,0,0,.59-.61,2,2,0,0,0,0-1.78,1.57,1.57,0,0,0-.59-.61,1.55,1.55,0,0,0-.84-.22,1.6,1.6,0,0,0-.84.22,1.62,1.62,0,0,0-.58.61,1.91,1.91,0,0,0,0,1.78,1.62,1.62,0,0,0,.58.61,1.6,1.6,0,0,0,.84.22A1.55,1.55,0,0,0,63.66,11.52Z"/><path class="cls-1" d="M68.6,8.34A1.47,1.47,0,0,1,69,9.47v2.59h-.37v-.73a1.34,1.34,0,0,1-.57.56,1.93,1.93,0,0,1-.9.2,1.71,1.71,0,0,1-1.08-.32,1,1,0,0,1-.39-.84,1.05,1.05,0,0,1,.36-.83,1.77,1.77,0,0,1,1.16-.31h1.4V9.46a1.14,1.14,0,0,0-.31-.87,1.22,1.22,0,0,0-.9-.3,2.29,2.29,0,0,0-.78.14,2,2,0,0,0-.62.38l-.2-.28a2.2,2.2,0,0,1,.73-.43,2.74,2.74,0,0,1,.9-.15A1.62,1.62,0,0,1,68.6,8.34Zm-.52,3.2a1.52,1.52,0,0,0,.53-.68v-.77H67.22a1.36,1.36,0,0,0-.87.22.81.81,0,0,0,0,1.23,1.34,1.34,0,0,0,.83.23A1.61,1.61,0,0,0,68.08,11.54Z"/><path class="cls-1" d="M74.25,6.26v5.8h-.39v-1a1.72,1.72,0,0,1-.68.73,1.92,1.92,0,0,1-1,.26,2,2,0,0,1-1-.27,1.81,1.81,0,0,1-.72-.73A2.1,2.1,0,0,1,70.18,10,2.1,2.1,0,0,1,70.44,9a1.83,1.83,0,0,1,.72-.74,2.1,2.1,0,0,1,1-.26,1.89,1.89,0,0,1,1,.26,1.84,1.84,0,0,1,.69.72V6.26Zm-1.2,5.26a1.57,1.57,0,0,0,.59-.61,1.91,1.91,0,0,0,0-1.78,1.57,1.57,0,0,0-.59-.61,1.55,1.55,0,0,0-.84-.22,1.6,1.6,0,0,0-.84.22,1.62,1.62,0,0,0-.58.61,1.91,1.91,0,0,0,0,1.78,1.62,1.62,0,0,0,.58.61,1.6,1.6,0,0,0,.84.22A1.55,1.55,0,0,0,73.05,11.52Z"/><path class="cls-1" d="M78.45,11.82a1.9,1.9,0,0,1-.73-.73,2.33,2.33,0,0,1,0-2.14,1.9,1.9,0,0,1,.73-.73,2.16,2.16,0,0,1,2.09,0,1.9,1.9,0,0,1,.73.73,2.26,2.26,0,0,1,0,2.14,1.9,1.9,0,0,1-.73.73,2.16,2.16,0,0,1-2.09,0Zm1.89-.3a1.62,1.62,0,0,0,.58-.61,1.91,1.91,0,0,0,0-1.78,1.62,1.62,0,0,0-.58-.61,1.6,1.6,0,0,0-.84-.22,1.55,1.55,0,0,0-.84.22,1.57,1.57,0,0,0-.59.61,2,2,0,0,0,0,1.78,1.57,1.57,0,0,0,.59.61,1.55,1.55,0,0,0,.84.22A1.6,1.6,0,0,0,80.34,11.52Z"/><path class="cls-1" d="M86,8.39a1.75,1.75,0,0,1,.45,1.29v2.38H86V9.71a1.46,1.46,0,0,0-.35-1.05,1.3,1.3,0,0,0-1-.36,1.5,1.5,0,0,0-1.13.43,1.63,1.63,0,0,0-.41,1.16v2.17h-.39V8h.37v.88a1.57,1.57,0,0,1,.63-.67,2,2,0,0,1,1-.24A1.66,1.66,0,0,1,86,8.39Z"/><path class="cls-1" d="M92,11.8a1,1,0,0,1-.37.22,1.49,1.49,0,0,1-.47.07,1.12,1.12,0,0,1-.82-.29,1.14,1.14,0,0,1-.29-.82V8.32h-.75V8h.75V7.09h.39V8h1.3v.34h-1.3v2.62a.91.91,0,0,0,.19.61.74.74,0,0,0,.57.2.88.88,0,0,0,.63-.22Z"/><path class="cls-1" d="M96.33,8.39a1.78,1.78,0,0,1,.44,1.29v2.38h-.39V9.71A1.42,1.42,0,0,0,96,8.66a1.28,1.28,0,0,0-1-.36,1.47,1.47,0,0,0-1.13.43,1.59,1.59,0,0,0-.42,1.16v2.17h-.39V6.26h.39V8.83a1.47,1.47,0,0,1,.63-.65,2,2,0,0,1,1-.23A1.66,1.66,0,0,1,96.33,8.39Z"/><path class="cls-1" d="M101.83,10.11h-3.5a1.72,1.72,0,0,0,.24.85,1.55,1.55,0,0,0,.61.58,1.92,1.92,0,0,0,.87.2,1.78,1.78,0,0,0,.74-.15,1.33,1.33,0,0,0,.57-.42l.22.26a1.73,1.73,0,0,1-.66.49,2.29,2.29,0,0,1-.87.17A2.18,2.18,0,0,1,99,11.82a1.88,1.88,0,0,1-.75-.73A2.1,2.1,0,0,1,97.94,10,2.23,2.23,0,0,1,98.2,9a1.82,1.82,0,0,1,.7-.73,1.87,1.87,0,0,1,1-.27,1.92,1.92,0,0,1,1,.26,1.89,1.89,0,0,1,.7.73,2.18,2.18,0,0,1,.25,1.06ZM99.12,8.48a1.5,1.5,0,0,0-.55.54,1.92,1.92,0,0,0-.24.79h3.13a1.69,1.69,0,0,0-.23-.78,1.61,1.61,0,0,0-.56-.54,1.55,1.55,0,0,0-.77-.2A1.67,1.67,0,0,0,99.12,8.48Z"/><path class="cls-1" d="M41.92,24.15H37.25l-.92,2.16H34.54L38.75,17h1.71l4.22,9.34H42.86Zm-.57-1.36L39.59,18.7l-1.75,4.09Z"/><path class="cls-1" d="M51.52,19.56a3.24,3.24,0,0,1,1.29,1.28,4.2,4.2,0,0,1,0,3.82A3.2,3.2,0,0,1,51.52,26a3.72,3.72,0,0,1-1.86.46,2.88,2.88,0,0,1-2.29-1V28.9H45.7V19.18h1.59v.94a2.63,2.63,0,0,1,1-.76,3.49,3.49,0,0,1,1.35-.26A3.72,3.72,0,0,1,51.52,19.56ZM51,24.36a2.2,2.2,0,0,0,.6-1.61,2.22,2.22,0,0,0-.6-1.62,2,2,0,0,0-1.51-.61,2.16,2.16,0,0,0-1.08.27,2,2,0,0,0-.76.78,2.37,2.37,0,0,0-.28,1.18,2.33,2.33,0,0,0,.28,1.17,1.9,1.9,0,0,0,.76.78,2.07,2.07,0,0,0,1.08.28A2,2,0,0,0,51,24.36Z"/><path class="cls-1" d="M60.68,19.56A3.31,3.31,0,0,1,62,20.84a4.2,4.2,0,0,1,0,3.82A3.27,3.27,0,0,1,60.68,26a3.72,3.72,0,0,1-1.86.46,2.88,2.88,0,0,1-2.29-1V28.9H54.86V19.18h1.59v.94a2.63,2.63,0,0,1,1-.76,3.49,3.49,0,0,1,1.35-.26A3.72,3.72,0,0,1,60.68,19.56Zm-.54,4.8a2.2,2.2,0,0,0,.6-1.61,2.22,2.22,0,0,0-.6-1.62,2,2,0,0,0-1.51-.61,2.16,2.16,0,0,0-1.08.27,2,2,0,0,0-.76.78,2.37,2.37,0,0,0-.28,1.18,2.33,2.33,0,0,0,.28,1.17,1.9,1.9,0,0,0,.76.78,2.07,2.07,0,0,0,1.08.28A2,2,0,0,0,60.14,24.36Z"/><path class="cls-1" d="M68.68,26.14a4.36,4.36,0,0,1-1.6-.81l.6-1.35a4.69,4.69,0,0,0,1.41.74,5.16,5.16,0,0,0,1.68.29,2.9,2.9,0,0,0,1.55-.34,1,1,0,0,0,.52-.88.85.85,0,0,0-.29-.66,2.14,2.14,0,0,0-.73-.41q-.43-.15-1.2-.33a14.05,14.05,0,0,1-1.73-.51,2.9,2.9,0,0,1-1.14-.79,2.18,2.18,0,0,1-.47-1.47,2.48,2.48,0,0,1,.42-1.4,2.78,2.78,0,0,1,1.27-1,5.12,5.12,0,0,1,2.08-.38,6.35,6.35,0,0,1,1.68.22,4.54,4.54,0,0,1,1.43.61L73.61,19a5.75,5.75,0,0,0-1.28-.55,5,5,0,0,0-1.3-.18,2.75,2.75,0,0,0-1.53.34,1.08,1.08,0,0,0-.5.92.85.85,0,0,0,.29.66,2,2,0,0,0,.73.4q.44.15,1.2.33a13.64,13.64,0,0,1,1.71.5,3,3,0,0,1,1.14.8,2,2,0,0,1,.47,1.44,2.45,2.45,0,0,1-.42,1.4,2.83,2.83,0,0,1-1.27,1,5.19,5.19,0,0,1-2.08.38A7.24,7.24,0,0,1,68.68,26.14Z"/><path class="cls-1" d="M80.39,25.93a1.9,1.9,0,0,1-.71.36,3.24,3.24,0,0,1-.89.12A2.54,2.54,0,0,1,77,25.79,2.38,2.38,0,0,1,76.33,24V20.57H75.16V19.24h1.17V17.61H78v1.63h1.91v1.33H78V24a1.13,1.13,0,0,0,.26.8A1,1,0,0,0,79,25a1.52,1.52,0,0,0,.94-.29Z"/><path class="cls-1" d="M82.78,25.94a3.38,3.38,0,0,1-1.35-1.3,3.65,3.65,0,0,1-.49-1.89,3.59,3.59,0,0,1,.49-1.88,3.32,3.32,0,0,1,1.35-1.3,4.07,4.07,0,0,1,2-.47,4.13,4.13,0,0,1,2,.47,3.38,3.38,0,0,1,1.35,1.3,3.59,3.59,0,0,1,.49,1.88,3.65,3.65,0,0,1-.49,1.89,3.45,3.45,0,0,1-1.35,1.3,4.13,4.13,0,0,1-2,.47A4.07,4.07,0,0,1,82.78,25.94Zm3.47-1.58a2.16,2.16,0,0,0,.61-1.61,2.19,2.19,0,0,0-.61-1.62,2,2,0,0,0-1.52-.61,2,2,0,0,0-1.51.61,2.22,2.22,0,0,0-.6,1.62,2.2,2.2,0,0,0,.6,1.61,2,2,0,0,0,1.51.62A2,2,0,0,0,86.25,24.36Z"/><path class="cls-1" d="M94.27,19.1v1.59a3.22,3.22,0,0,0-.39,0,2,2,0,0,0-1.52.57,2.24,2.24,0,0,0-.55,1.64v3.45H90.14V19.18h1.59v1A2.8,2.8,0,0,1,94.27,19.1Z"/><path class="cls-1" d="M102.29,23.28H96.7a1.91,1.91,0,0,0,.76,1.25A2.52,2.52,0,0,0,99,25a2.61,2.61,0,0,0,1.93-.77l.9,1a3,3,0,0,1-1.22.86,4.33,4.33,0,0,1-1.65.3,4.39,4.39,0,0,1-2.07-.47,3.42,3.42,0,0,1-1.39-1.3A3.74,3.74,0,0,1,95,22.75a3.8,3.8,0,0,1,.47-1.88,3.43,3.43,0,0,1,1.32-1.3,4,4,0,0,1,3.76,0,3.33,3.33,0,0,1,1.28,1.3,4,4,0,0,1,.46,1.93C102.32,22.9,102.31,23.07,102.29,23.28Zm-4.93-2.37a2,2,0,0,0-.68,1.26h4a2,2,0,0,0-2-1.73A2,2,0,0,0,97.36,20.91Z"/></svg>