<?xml version="1.0" encoding="utf-8"?>
<!-- Generator: Adobe Illustrator 26.1.0, SVG Export Plug-In . SVG Version: 6.00 Build 0)  -->
<svg version="1.1" id="Layer_1" xmlns="http://www.w3.org/2000/svg" xmlns:xlink="http://www.w3.org/1999/xlink" x="0px" y="0px"
	 viewBox="0 0 830.4 50" style="enable-background:new 0 0 830.4 50;" xml:space="preserve">
<style type="text/css">
	.st0{opacity:8.000000e-02;}
	.st1{fill:none;}
	.st2{fill:#FFFFFF;}
</style>
<g class="st0">
	<path class="st1" d="M100.7,0H9c0.9,1.7,1.7,3.4,2.6,5.1c8.1,15.4,16.8,30.4,26.3,45h53.3C79.8,31.6,87.3,14,100.7,0z"/>
	<path class="st1" d="M268.7,38.5c-13.8-4.2-27.7-11.9-25.3-26.2c1-5.7,4.6-9.5,9-12.3h-98.6c19.2,11.3,41.9,19.6,55.3,24
		C228.5,30.5,248.5,35.4,268.7,38.5z"/>
	<path class="st1" d="M138.7,0h-27.2c-14,12.1-25,27.4-13.9,46c0.8,1.4,1.8,2.7,2.8,4h203.8c-28-1.6-55.8-6.4-82.8-14.2
		C193.5,27.7,163,16.8,138.7,0z"/>
	<path class="st1" d="M447.3,28.6c-11,6.2-24.5,9.5-36.6,12.4c-6.5,1.5-12.9,2.8-19.5,4c-2.9,1.8-6,3.5-9.1,5h132.5
		c1.3-3.5,3-6.8,5-10C500.6,26.2,472.5,26.1,447.3,28.6z"/>
	<path class="st1" d="M279.5,7c3.8,2.5,8.3,3.9,12.9,4.2c7.6,0.2,14.6-3,21.1-7.9c0.1-1.1,0-2.2-0.3-3.3h-39.3
		C274.2,2.5,276,4.9,279.5,7z"/>
	<path class="st1" d="M348.3,50h14.8l4-1.6C360.9,49.1,354.6,49.6,348.3,50z"/>
	<path class="st1" d="M287.7,18.4h0.9c-9.5-1.4-21.3-7.5-22.9-17.2c-1.1,0.5-2.2,1-3.2,1.5C266.9,11.9,274.9,18.4,287.7,18.4z"/>
	<path class="st1" d="M404,34.7c1.2-0.3,2.5-0.5,3.7-0.8l-3.5,0.5L404,34.7z"/>
	<path class="st1" d="M352.8,42.1c12.4-0.9,24.8-2.4,37.1-4.6c0.5-0.3,1-0.7,1.5-1C378.6,38.6,365.7,40.6,352.8,42.1z"/>
	<path class="st1" d="M323.3,3.7c-0.9,0.8-1.8,1.6-2.7,2.5c-0.9,2.2-2.1,4.3-3.7,6.1c-13.1,15.4-36.4,17.8-51.7,4.8
		c-3.5-2.9-6.4-6.4-8.8-10.3c-15.2,13.1,6.7,22.3,17.4,25.3c22.9,6.3,47.5,5.6,71.3,3c0.3-1,0.5-2,0.8-3c2.5-10.5,2.6-21.5,0.1-32.1
		h-18.9C325.9,1.3,324.6,2.5,323.3,3.7z"/>
	<path class="st1" d="M525.8,45c-1,1.6-1.8,3.3-2.6,5h1.7c1.3-0.6,2.5-1.3,3.8-1.9C527.7,47,526.8,46,525.8,45z"/>
	<path class="st1" d="M354.8,24.9c-0.4,3.1-1,6.2-1.7,9.3c4.8-0.6,9.5-1.2,14.1-1.9c11.3-1.6,22.6-3.4,34-5.1c0.8-1,1.5-2.1,2.1-3.2
		c3.5-6.2,5.6-13.1,5.9-20.3C403,4.3,396.7,3,391.2,0h-37.1C355.5,8.2,355.8,16.6,354.8,24.9z"/>
	<path class="st1" d="M458,20.6h0.4c22.1-1.1,47,0,65.7,13.2c9.1-11.9,21.5-22,31.7-30.8c1.2-1,2.3-2,3.5-3h-91.1
		C467.1,7.8,463.5,15,458,20.6z"/>
	<path class="st1" d="M416.4,8.5c-0.8,6.1-2.8,11.9-5.8,17.2c11.2-1.7,22.3-3.2,33.6-4.2c8.1-4.9,14.2-11.6,16.2-21.6h-35.7
		c-2.5,1-5.1,1.9-7.8,2.5C416.9,4.5,416.7,6.5,416.4,8.5z"/>
	<path class="st1" d="M687.3,0H660c-7.2,7.5-13.4,14.7-17.8,19.7c-6.7,7.7-14.9,15.6-19.1,25c-0.7,1.7-1.3,3.5-1.7,5.3h0.5
		c7.7-5.1,15.3-10.3,22.7-15.7C658.4,24.3,674.9,13.2,687.3,0z"/>
	<path class="st1" d="M743.4,0v0.2c-3.1,18.4-14.9,35.3-27.2,49.8h82.9c6.8-16.3,12.4-33,17-50H743.4z"/>
	<path class="st1" d="M704.2,0c7.1,16,8.5,33.9,1.6,50h0.5c12.2-13.7,27.1-32.9,30.1-50H704.2z"/>
	<path class="st1" d="M696.2,0.9L696,1.2C679.1,20,657.2,35.8,635.8,50h61.8C707.1,32.3,704.6,15.8,696.2,0.9z"/>
	<path class="st1" d="M640.2,10.6c2.9-3.2,5.8-6.3,8.7-9.5c-3.1,0.8-6.1,1.5-9.1,2c-23,4.2-46.4,2.5-69-3
		c-6.1,4.9-12.1,10.1-17.9,15.3c-7.5,6.8-16.2,14.5-22.8,23.1c2.2,2,4.2,4.1,6,6.4c9.9-3.4,19.9-4.2,27.3,2c1,0.9,2,1.8,2.8,2.9
		h47.3c0.5-3,1.4-5.9,2.8-8.7C621.6,29.9,631.8,20,640.2,10.6z"/>
	<path class="st2" d="M5.6,0H0c2.1,4.8,4.4,9.6,7,14.6C13.3,26.4,20.3,38.2,28,50h6.3C25.3,35.9,16.8,21.4,9,6.5
		C7.9,4.3,6.7,2.2,5.6,0z"/>
	<path class="st2" d="M819.2,0c-4.5,17-10.2,33.7-16.9,50h7.1c7-15.8,13.4-32.6,17.8-50H819.2z"/>
	<path class="st2" d="M816.1,0c-4.6,17-10.2,33.7-17,50h1.6c6.8-16.3,12.4-33,17-50H816.1z"/>
	<path class="st2" d="M828.8,0c-4.5,17.1-10.4,33.9-17.7,50h1.7c7.2-16.2,13.1-32.9,17.6-50H828.8z"/>
	<path class="st2" d="M9,0H7.3c1,1.9,2,3.8,3,5.8c8,15.2,16.6,29.9,25.8,44.2h1.8C28.5,35.5,19.8,20.5,11.7,5C10.8,3.4,9.9,1.7,9,0z
		"/>
	<path class="st2" d="M7.3,0H5.6C6.7,2.2,7.8,4.3,9,6.5C16.8,21.4,25.2,35.9,34.3,50h1.8C26.9,35.7,18.3,20.9,10.3,5.8
		C9.3,3.8,8.3,1.9,7.3,0z"/>
	<path class="st2" d="M817.7,0c-4.6,17-10.2,33.7-17,50h1.6c6.7-16.3,12.3-33,16.9-50H817.7z"/>
	<path class="st2" d="M827.3,0c-4.4,17.4-10.8,34.2-17.8,50h1.7c7.3-16.1,13.2-32.9,17.7-50H827.3z"/>
	<path class="st2" d="M401.2,27.2c-11.3,1.8-22.7,3.6-34,5.1c-4.7,0.6-9.4,1.3-14.1,1.9c-0.6,2.7-1.4,5.4-2.2,8.1l1.8-0.1
		c12.9-1.5,25.8-3.6,38.6-5.6C395.1,33.9,398.5,30.8,401.2,27.2z"/>
	<path class="st2" d="M350.9,42.3l1.8-0.2L350.9,42.3L350.9,42.3z"/>
	<path class="st2" d="M519.7,40c-2,3.2-3.7,6.5-5,10h8.4c0.8-1.7,1.7-3.4,2.6-5C523.9,43.2,521.9,41.5,519.7,40z"/>
	<path class="st2" d="M342.8,42.7c0,0.2-0.1,0.3-0.2,0.5c2.7-0.3,5.5-0.5,8.2-0.8v-0.1C348.2,42.4,345.5,42.6,342.8,42.7z"/>
	<path class="st2" d="M353.1,34.2c-2.7,0.3-5.3,0.6-8,0.9c-0.7,2.6-1.5,5.1-2.3,7.6c2.7-0.1,5.4-0.3,8.1-0.4
		C351.8,39.6,352.5,36.9,353.1,34.2z"/>
	<path class="st2" d="M407.7,33.9c-1.2,0.3-2.5,0.6-3.7,0.8c-3.8,4-8.1,7.4-12.7,10.3c6.5-1.2,13-2.5,19.5-4
		c12.1-2.8,25.6-6.1,36.6-12.4c-9.4,0.9-18.4,2.2-26.4,3.4C416.5,32.5,412.1,33.2,407.7,33.9z"/>
	<path class="st2" d="M444.2,21.6c-10.4,6.3-23.8,9.4-35.5,12.1l-1,0.2c4.4-0.7,8.8-1.3,13.2-2c8-1.1,17-2.4,26.4-3.4
		c3.9-2.2,7.5-4.9,10.7-8C453.4,20.8,448.8,21.1,444.2,21.6z"/>
	<path class="st2" d="M404.2,34.4c-4.3,0.7-8.6,1.3-12.9,2c-0.5,0.4-1,0.7-1.5,1c4.8-0.8,9.5-1.7,14.1-2.8L404.2,34.4z"/>
	<path class="st2" d="M458.3,20.5H458c-3.2,3.1-6.7,5.8-10.7,8c25.2-2.5,53.2-2.4,72.4,11.4c1.3-2.1,2.8-4.2,4.3-6.2
		C505.4,20.5,480.4,19.5,458.3,20.5z"/>
	<path class="st2" d="M404,34.7c-4.7,1-9.4,2-14.1,2.8c-6.5,4.2-13.9,7.3-20.9,10.2l-1.8,0.7c8.1-0.9,16.1-2,24.2-3.5
		C395.9,42.1,400.2,38.7,404,34.7z"/>
	<path class="st2" d="M391.4,36.5c4.3-0.7,8.6-1.3,12.9-2c2.5-2.6,4.6-5.6,6.4-8.7c-3.1,0.5-6.3,0.9-9.4,1.4
		C398.5,30.8,395.1,33.9,391.4,36.5z"/>
	<path class="st2" d="M528.6,48.1c2.4-1.1,4.9-2.2,7.5-3.1c-1.8-2.3-3.8-4.4-6-6.4c-1.6,2-3,4.2-4.4,6.4
		C526.8,46,527.7,47,528.6,48.1z"/>
	<path class="st2" d="M571.1,0h-1.2l1,0.2L571.1,0z"/>
	<path class="st2" d="M524,33.8c-1.5,2-3,4.1-4.3,6.2c2.1,1.5,4.1,3.2,6,5.1c1.3-2.2,2.8-4.3,4.4-6.4c-1.4-1.3-2.8-2.5-4.3-3.6
		C525.2,34.6,524.7,34.2,524,33.8z"/>
	<path class="st2" d="M639.8,3.2c3-0.5,6-1.2,9.1-2L650,0h-78.9l-0.3,0.2C593.4,5.7,616.8,7.4,639.8,3.2z"/>
	<path class="st2" d="M697,0h-1.3l0.5,0.9C696.5,0.6,696.8,0.3,697,0z"/>
	<path class="st2" d="M653.2,0H650l-1.1,1.2C650.3,0.8,651.8,0.4,653.2,0z"/>
	<path class="st2" d="M341.6,42.8c-24.4,1-48.8-0.4-72.9-4.2c5.8,1.7,11.6,3,17.6,3.9c18.6,2.8,37.5,2.5,56.4,0.8
		c0.1-0.2,0.1-0.3,0.2-0.5L341.6,42.8z"/>
	<path class="st2" d="M524.8,50h5.3c-0.5-0.6-1-1.3-1.5-1.9C527.3,48.7,526,49.4,524.8,50z"/>
	<path class="st2" d="M407.7,33.9l1-0.2c11.6-2.7,25.1-5.8,35.5-12.1c-11.2,1-22.4,2.5-33.6,4.2c-1.8,3.1-3.9,6.1-6.4,8.7
		L407.7,33.9z"/>
	<path class="st2" d="M416.4,8.5c0.3-2,0.5-4,0.6-6c-1.5,0.3-2.9,0.6-4.4,0.9c-1.1,0.2-2.2,0.3-3.3,0.3c-0.4,7.1-2.4,14.1-5.9,20.3
		c-0.7,1.1-1.4,2.2-2.1,3.2c3.1-0.5,6.3-1,9.4-1.4C413.6,20.4,415.6,14.6,416.4,8.5z"/>
	<path class="st2" d="M265.2,17.1c15.3,13,38.7,10.6,51.7-4.8c1.6-1.8,2.8-3.9,3.7-6.1c-8.8,7.6-19.5,13.8-31.5,12.2l-0.5-0.1h-0.9
		c-12.8,0-20.8-6.5-25.2-15.7c-1.3,0.7-2.6,1.5-3.8,2.3c-0.8,0.6-1.6,1.2-2.3,1.8C258.7,10.7,261.7,14.2,265.2,17.1z"/>
	<path class="st2" d="M528.6,48.1c0.5,0.6,1,1.2,1.5,1.9h9.5c-1.1-1.7-2.3-3.3-3.5-4.9C533.6,46,531.1,47,528.6,48.1z"/>
	<path class="st2" d="M286.3,42.4c-6-0.9-11.8-2.2-17.6-3.9c-20.2-3.2-40.2-8-59.6-14.5c-13.4-4.5-36.1-12.8-55.3-24h-15.1
		c24.3,16.8,54.8,27.7,82.8,35.8c27,7.8,54.7,12.5,82.7,14.2h35.8c0.9-2.2,1.8-4.5,2.6-6.8C323.8,44.9,305,45.2,286.3,42.4z"/>
	<path class="st2" d="M265.8,1.2c-0.1-0.4-0.1-0.8-0.1-1.1h-4.3c0.4,0.9,0.7,1.8,1.1,2.7C263.5,2.2,264.6,1.6,265.8,1.2z"/>
	<path class="st2" d="M268.6,0h-3c0,0.4,0.1,0.8,0.1,1.1C266.7,0.8,267.6,0.4,268.6,0z"/>
	<path class="st2" d="M524,33.8c0.6,0.4,1.2,0.8,1.8,1.3c1.5,1.1,2.9,2.3,4.3,3.6c6.6-8.6,15.3-16.3,22.8-23.1
		c5.8-5.3,11.8-10.4,17.9-15.3l-1-0.2h-10.6c-1.2,1-2.4,2-3.5,3C545.6,11.7,533.1,21.9,524,33.8z"/>
	<path class="st2" d="M288.6,18.4c7.7-0.4,22.9-6.1,24.6-14.3c0.1-0.3,0.1-0.6,0.1-0.9c-6.4,4.9-13.5,8.1-21.1,7.9
		c-4.6-0.2-9-1.7-12.9-4.2c-3.5-2.1-5.2-4.5-5.7-7h-5.2c-1,0.4-1.9,0.8-2.9,1.1C267.3,10.9,279.2,17,288.6,18.4z"/>
	<path class="st2" d="M258.7,5c1.2-0.9,2.5-1.6,3.8-2.3c-0.4-0.9-0.8-1.8-1.1-2.7h-8.3c0.9,2.4,2,4.6,3.3,6.8
		C257.1,6.2,257.9,5.6,258.7,5z"/>
	<path class="st2" d="M563.4,47.1c-7.4-6.3-17.4-5.5-27.3-2c1.3,1.6,2.4,3.2,3.5,4.9h26.6C565.4,48.9,564.4,48,563.4,47.1z"/>
	<path class="st2" d="M696,1.2l0.2-0.3L695.7,0h-8.4c-12.4,13.2-28.9,24.3-42.7,34.3c-7.4,5.4-15,10.7-22.7,15.7h13.9
		C657.2,35.8,679.1,20,696,1.2z"/>
	<path class="st2" d="M313.4,3.3c1.3-1,2.6-2.1,3.9-3.2h-4.2C313.4,1,313.5,2.2,313.4,3.3z"/>
	<path class="st2" d="M243.4,12.3c-2.4,14.3,11.5,22,25.3,26.2c24.1,3.8,48.5,5.2,72.9,4.2l1.2-0.1c0.9-2.5,1.6-5,2.3-7.6
		c-23.8,2.6-48.4,3.4-71.3-3c-10.7-3-32.6-12.2-17.4-25.3c-1.3-2.2-2.4-4.4-3.3-6.8h-0.7C248,2.9,244.4,6.7,243.4,12.3z"/>
	<path class="st2" d="M111.5,0h-10.8c-13.4,14-20.9,31.6-9.4,50h9.1c-1-1.3-1.9-2.6-2.8-4C86.5,27.4,97.4,12.1,111.5,0z"/>
	<path class="st2" d="M704.2,0H697c-0.2,0.3-0.5,0.6-0.8,0.9c8.4,14.9,10.9,31.4,1.3,49.1h8.3C712.8,33.9,711.4,16,704.2,0z"/>
	<path class="st2" d="M743.4,0h-6.9c-3,17.1-17.9,36.3-30.1,50h9.8c12.3-14.5,24.1-31.4,27.2-49.8L743.4,0z"/>
	<path class="st2" d="M367.1,48.4l-4,1.6h19.1c3.1-1.5,6.2-3.2,9.1-5C383.3,46.4,375.2,47.5,367.1,48.4z"/>
	<path class="st2" d="M412.6,3.4c1.5-0.2,3-0.5,4.4-0.9c0-0.8,0.1-1.7,0.1-2.5h-7.7c0,1.2,0,2.5-0.1,3.7
		C410.4,3.7,411.5,3.6,412.6,3.4z"/>
	<path class="st2" d="M424.8,0h-7.7c0,0.8,0,1.7-0.1,2.5C419.7,1.9,422.3,1,424.8,0z"/>
	<path class="st2" d="M444.2,21.6c4.6-0.4,9.2-0.8,13.8-1c5.5-5.6,9.1-12.8,10.2-20.6h-7.7C458.5,10,452.3,16.7,444.2,21.6z"/>
	<path class="st2" d="M642.2,19.7c4.4-5,10.6-12.3,17.8-19.7h-6.8c-1.5,0.4-2.9,0.8-4.4,1.2c-3,3.1-5.8,6.3-8.7,9.5
		c-8.3,9.3-18.6,19.2-24,30.7c-1.3,2.7-2.2,5.7-2.7,8.7h7.9c0.4-1.8,1-3.6,1.8-5.2C627.3,35.4,635.5,27.4,642.2,19.7z"/>
	<path class="st2" d="M313.2,4.1c-1.8,8.2-16.9,13.8-24.6,14.3l0.5,0.1c12,1.5,22.7-4.6,31.5-12.2c0.8-2,1-4.1,0.8-6.2h-4.1
		c-1.3,1.1-2.6,2.2-3.9,3.2C313.4,3.5,313.3,3.8,313.2,4.1z"/>
	<path class="st2" d="M320.6,6.2c0.9-0.8,1.8-1.6,2.7-2.5c1.3-1.2,2.6-2.5,3.8-3.7h-5.8C321.6,2.1,321.4,4.2,320.6,6.2z"/>
	<path class="st2" d="M409.3,3.7c0.1-1.2,0.1-2.5,0.1-3.7h-18.2C396.7,3,403,4.3,409.3,3.7z"/>
	<path class="st2" d="M342.7,43.2c-0.8,2.3-1.7,4.6-2.6,6.8h8.1c1-2.5,1.9-5.1,2.8-7.7C348.2,42.6,345.4,42.9,342.7,43.2z"/>
	<path class="st2" d="M345.9,32.1c-0.2,1-0.5,2-0.8,3c2.7-0.3,5.3-0.6,8-0.9c0.7-3.1,1.3-6.2,1.7-9.3c1-8.3,0.7-16.7-0.8-24.9h-8
		C348.5,10.6,348.4,21.5,345.9,32.1z"/>
	<path class="st2" d="M368.9,47.7c7-2.8,14.4-5.9,20.9-10.2c-12.3,2.2-24.7,3.7-37.1,4.6l-1.8,0.2c-0.8,2.6-1.7,5.1-2.8,7.7h0.2
		c6.3-0.4,12.5-0.9,18.8-1.6L368.9,47.7z"/>
</g>
</svg>
