<svg id="Layer_1" data-name="Layer 1" xmlns="http://www.w3.org/2000/svg" viewBox="0 0 300 238.11"><defs><style>.cls-1{fill:#e35e3a;}.cls-2{fill:#231f20;}</style></defs><path class="cls-1" d="M-.17-.29H21.7q13.61,0,19.39,4t5.79,11.58a15,15,0,0,1-1.48,7,12.86,12.86,0,0,1-3.73,4.55,13.11,13.11,0,0,1-4.61,2.27v.43a19.76,19.76,0,0,1,5.12,2.13,11.73,11.73,0,0,1,4.25,4.41,16,16,0,0,1,1.69,8,16.62,16.62,0,0,1-2.89,9.82A18.23,18.23,0,0,1,37,60.21a33.38,33.38,0,0,1-12.74,2.21H-.17ZM16.77,23.77h5.1q4.22,0,5.92-1.74a5.74,5.74,0,0,0,1.72-4.22,4.49,4.49,0,0,0-2-3.93q-1.95-1.35-6-1.35H16.77Zm0,12.4V49.34h6q4.43,0,6.18-1.91a6.8,6.8,0,0,0,1.76-4.78,6.9,6.9,0,0,0-.75-3.16,5.66,5.66,0,0,0-2.56-2.4,11.12,11.12,0,0,0-5-.92Z"/><path class="cls-1" d="M112.34-.29V37.46a29.48,29.48,0,0,1-3,13.7,20.76,20.76,0,0,1-9,9q-6,3.15-15.06,3.15-13,0-19.77-6.65T58.68,37.84V-.29h17v36.8q0,6.65,2.48,9.65c1.66,2,4.11,3,7.34,3a11,11,0,0,0,5.66-1.31,7.57,7.57,0,0,0,3.2-4.14,22.2,22.2,0,0,0,1-7.29V-.29Z"/><path class="cls-1" d="M147.9,23,158.71-.29h18.36L156.43,37.93V62.42H139.36v-24L118.73-.29h18.44Z"/><path class="cls-1" d="M211.55,13.19a19,19,0,0,1-.75,5.51A11.6,11.6,0,0,1,208.51,23a10,10,0,0,1-3.88,2.75,16.55,16.55,0,0,1-11.11,0A10,10,0,0,1,189.64,23a11.79,11.79,0,0,1-2.29-4.29,19.13,19.13,0,0,1-.75-5.54,17.45,17.45,0,0,1,1.33-7.09,10.1,10.1,0,0,1,4.12-4.68,13.47,13.47,0,0,1,7.06-1.67,13.27,13.27,0,0,1,7,1.67,10.12,10.12,0,0,1,4.09,4.69A17.53,17.53,0,0,1,211.55,13.19Zm-19.12,0a14.11,14.11,0,0,0,.69,4.72A6.13,6.13,0,0,0,195.28,21a6.31,6.31,0,0,0,3.8,1.07A6.38,6.38,0,0,0,202.91,21a6,6,0,0,0,2.14-3.05,14.66,14.66,0,0,0,.68-4.72,11.87,11.87,0,0,0-1.54-6.49q-1.55-2.37-5.08-2.37a6.43,6.43,0,0,0-3.83,1.07,6.13,6.13,0,0,0-2.16,3A14.2,14.2,0,0,0,192.43,13.19Z"/><path class="cls-1" d="M240.24,26.33h-7.07L221.77,6.5h-.16c0,.83.09,1.66.13,2.49s.07,1.67.1,2.51.08,1.66.11,2.5V26.33h-5V.12h7l11.39,19.63h.12c0-.81-.05-1.62-.09-2.42l-.09-2.4c0-.8-.06-1.6-.08-2.4V.12h5Z"/><path class="cls-1" d="M261.93,26.33h-15.1V.12h15.1V4.67h-9.54v5.76h8.88V15h-8.88v6.76h9.54Z"/><path class="cls-2" d="M187.76,62.13V35.92h5.56V57.54H204v4.59Z"/><path class="cls-2" d="M224.55,62.13l-1.9-6.24H213.1l-1.91,6.24h-6l9.25-26.32h6.79l9.29,26.32Zm-3.23-10.9-1.9-6.1c-.12-.4-.27-.93-.47-1.57s-.4-1.29-.59-2-.36-1.24-.48-1.73c-.12.49-.28,1.1-.49,1.82l-.6,2c-.19.65-.33,1.11-.41,1.38l-1.89,6.1Z"/><path class="cls-2" d="M241.47,35.92a17,17,0,0,1,5.89.86,6.69,6.69,0,0,1,3.45,2.6,7.85,7.85,0,0,1,1.13,4.39,6.82,6.82,0,0,1-.68,3.14,7.13,7.13,0,0,1-1.79,2.27,10.85,10.85,0,0,1-2.4,1.53l7.71,11.42h-6.17l-6.26-10.06h-3V62.13h-5.55V35.92Zm-.39,4.55h-1.69v7.08h1.8a6.6,6.6,0,0,0,3.95-.92,3.24,3.24,0,0,0,1.19-2.72,2.88,2.88,0,0,0-1.28-2.65A7.73,7.73,0,0,0,241.08,40.47Z"/><path class="cls-2" d="M268,47.41h10.4V61a32.28,32.28,0,0,1-4.28,1.08,28.31,28.31,0,0,1-5,.41,13.22,13.22,0,0,1-6.63-1.55,9.82,9.82,0,0,1-4.14-4.55,17.26,17.26,0,0,1-1.42-7.4,15.11,15.11,0,0,1,1.59-7.14,11,11,0,0,1,4.64-4.66,15.56,15.56,0,0,1,7.47-1.65,18.87,18.87,0,0,1,4.1.45,20.93,20.93,0,0,1,3.68,1.16l-1.85,4.45a13.72,13.72,0,0,0-2.74-1,12.28,12.28,0,0,0-3.23-.41,7.77,7.77,0,0,0-4.2,1.11,7.48,7.48,0,0,0-2.77,3.11,10.6,10.6,0,0,0-1,4.7,13.55,13.55,0,0,0,.7,4.55,5.95,5.95,0,0,0,6.13,4.22,14.11,14.11,0,0,0,2-.12q.81-.1,1.53-.24V52h-5Z"/><path class="cls-2" d="M299.75,62.13H284.66V35.92h15.09v4.55h-9.53v5.76h8.87v4.55h-8.87v6.76h9.53Z"/><path class="cls-1" d="M25.86,237.82h-26V140H57.64V161.2H25.86v18.67H55.17v21.21H25.86Z"/><path class="cls-1" d="M105.76,140q13.3,0,22.15,3.24t13.28,9.67q4.45,6.42,4.45,16a28.21,28.21,0,0,1-2,10.84,27.39,27.39,0,0,1-5.72,8.74,37.93,37.93,0,0,1-8.86,6.72l28.5,42.63h-30l-20.74-35.6h-6.69v35.6H73.7V140Zm-.4,20h-5.22v22.35h5a17.23,17.23,0,0,0,10-2.67q3.87-2.68,3.88-9.57a9.15,9.15,0,0,0-3.21-7.43Q112.52,160,105.36,160Z"/><path class="cls-1" d="M224.54,237.82H166.45V140h58.09V161.2H192.89v15.39H222.2V197.8H192.89v18.47h31.65Z"/><path class="cls-1" d="M299.75,237.82H241.67V140h58.08V161.2H268.1v15.39h29.31V197.8H268.1v18.47h31.65Z"/><path class="cls-1" d="M25.63,98.07H51v31.72a65,65,0,0,1-10.43,2.56,75.06,75.06,0,0,1-12.31,1,32.08,32.08,0,0,1-14.9-3.3,23.21,23.21,0,0,1-10-10q-3.58-6.75-3.58-17a34,34,0,0,1,3.54-16A24.55,24.55,0,0,1,13.81,76.51q6.92-3.67,16.93-3.68a51.07,51.07,0,0,1,10.47,1,44.53,44.53,0,0,1,8.61,2.66L44.79,89a29.69,29.69,0,0,0-6.6-2.35,32.53,32.53,0,0,0-7.37-.79,13.83,13.83,0,0,0-8.47,2.38,13.3,13.3,0,0,0-4.65,6.34,25.22,25.22,0,0,0-1.45,8.75,24.38,24.38,0,0,0,1.55,9.24,12,12,0,0,0,4.55,5.72,13,13,0,0,0,7.26,2c.94,0,2.09-.07,3.45-.2a20.93,20.93,0,0,0,3.08-.49v-9.21H25.63Z"/><path class="cls-1" d="M98,132.53H63V73.67H98V86.43h-19v9.26H96.56v12.76H78.93v11.11H98Z"/><path class="cls-1" d="M134.24,132.53h-15.9V86.68H104v-13h44.6v13H134.24Z"/><path class="cls-1" d="M179.93,85.61a18.15,18.15,0,0,1-.71,5.22,11.11,11.11,0,0,1-2.17,4,9.29,9.29,0,0,1-3.68,2.61,15.69,15.69,0,0,1-10.53,0,9.29,9.29,0,0,1-3.68-2.61A11.08,11.08,0,0,1,157,90.82a18.27,18.27,0,0,1-.71-5.25,16.58,16.58,0,0,1,1.26-6.72,9.59,9.59,0,0,1,3.9-4.44,12.9,12.9,0,0,1,6.7-1.58,12.71,12.71,0,0,1,6.65,1.58,9.56,9.56,0,0,1,3.87,4.45A16.49,16.49,0,0,1,179.93,85.61Zm-18.13,0a13.78,13.78,0,0,0,.65,4.47A5.78,5.78,0,0,0,164.5,93a6,6,0,0,0,3.6,1,6,6,0,0,0,3.64-1,5.63,5.63,0,0,0,2-2.89,13.8,13.8,0,0,0,.64-4.47A11.19,11.19,0,0,0,173,79.46a5.31,5.31,0,0,0-4.81-2.25,6.07,6.07,0,0,0-3.63,1,5.88,5.88,0,0,0-2.06,2.89A13.89,13.89,0,0,0,161.8,85.61Z"/><path class="cls-1" d="M207.12,98.06h-6.7l-10.8-18.79h-.16c0,.78.09,1.57.12,2.36s.07,1.58.1,2.37.07,1.58.11,2.37V98.06h-4.71V73.22h6.64l10.79,18.61h.12c0-.77,0-1.54-.08-2.3s-.07-1.52-.1-2.28,0-1.51-.07-2.27V73.22h4.74Z"/><path class="cls-1" d="M227.68,98.06H213.37V73.22h14.31v4.32h-9V83h8.41v4.32h-8.41v6.4h9Z"/><path class="cls-2" d="M167.9,132l-6-19.49h-.15c0,.47.06,1.16.11,2.1s.1,1.93.14,3,.07,2,.07,2.86V132h-4.71V107.15h7.17l5.88,19h.1l6.24-19h7.17V132H179V120.23c0-.78,0-1.68,0-2.7s.07-2,.11-2.91.08-1.62.1-2.09h-.15L172.73,132Z"/><path class="cls-2" d="M204.5,132H190.19V107.15H204.5v4.31h-9v5.46h8.41v4.31h-8.41v6.41h9Z"/><path class="cls-2" d="M230.29,119.33a14,14,0,0,1-1.6,7,10.07,10.07,0,0,1-4.65,4.23,17.16,17.16,0,0,1-7.32,1.42h-7V107.15h7.8a15.48,15.48,0,0,1,6.78,1.38,10.1,10.1,0,0,1,4.45,4.1A13.06,13.06,0,0,1,230.29,119.33Zm-5.47.14a11.11,11.11,0,0,0-.8-4.53,5.52,5.52,0,0,0-2.38-2.63,8.2,8.2,0,0,0-3.89-.85H215v16.18h2.26c2.57,0,4.48-.68,5.74-2.06S224.82,122.18,224.82,119.47Z"/><path class="cls-2" d="M235.44,132V107.15h5.27V132Z"/><path class="cls-2" d="M267.18,107.15v16.07a9.39,9.39,0,0,1-1.13,4.63,8,8,0,0,1-3.41,3.27,12.18,12.18,0,0,1-5.75,1.21q-4.94,0-7.51-2.51a8.87,8.87,0,0,1-2.59-6.67v-16H252v15.21c0,2,.42,3.49,1.26,4.31a5.08,5.08,0,0,0,3.72,1.24,5.83,5.83,0,0,0,2.81-.59,3.57,3.57,0,0,0,1.59-1.84,8.36,8.36,0,0,0,.51-3.16V107.15Z"/><path class="cls-2" d="M283.78,132l-6-19.49h-.15c0,.47.06,1.16.11,2.1s.1,1.93.15,3,.06,2,.06,2.86V132h-4.7V107.15h7.17l5.88,19h.1l6.23-19h7.18V132h-4.92V120.23c0-.78,0-1.68,0-2.7s.06-2,.11-2.91.08-1.62.1-2.09H295L288.61,132Z"/></svg>