<?xml version="1.0" encoding="utf-8"?>
<!-- Generator: Adobe Illustrator 26.1.0, SVG Export Plug-In . SVG Version: 6.00 Build 0)  -->
<svg version="1.1" id="Layer_1" xmlns="http://www.w3.org/2000/svg" xmlns:xlink="http://www.w3.org/1999/xlink" x="0px" y="0px"
	 viewBox="0 0 18 21" style="enable-background:new 0 0 18 21;" xml:space="preserve">
<style type="text/css">
	.st0{fill:none;}
	.st1{fill:#E35E3A;}
</style>
<g>
	<g>
		<g>
			<g>
				<g>
					<path class="st0" d="M-3-2h24v24H-3V-2z"/>
					<path class="st1" d="M4,7V5c0-2.8,2.2-5,5-5s5,2.2,5,5v2h3c0.6,0,1,0.4,1,1v12c0,0.6-0.4,1-1,1H1c-0.6,0-1-0.4-1-1V8
						c0-0.6,0.4-1,1-1H4z M4,9H2v10h14V9h-2v2h-2V9H6v2H4V9z M6,7h6V5c0-1.7-1.3-3-3-3S6,3.3,6,5V7z"/>
				</g>
			</g>
		</g>
	</g>
</g>
</svg>
