<svg xmlns="http://www.w3.org/2000/svg" width="18" height="21" viewBox="0 0 18 21">
    <g fill="none" fill-rule="evenodd">
        <g>
            <g>
                <g>
                    <g>
                        <path d="M0 0L24 0 24 24 0 24z" transform="translate(-953 -123) translate(145 103) translate(805 18)"/>
                        <path fill="#FFF" fill-rule="nonzero" d="M7 9V7c0-2.761 2.239-5 5-5s5 2.239 5 5v2h3c.552 0 1 .448 1 1v12c0 .552-.448 1-1 1H4c-.552 0-1-.448-1-1V10c0-.552.448-1 1-1h3zm0 2H5v10h14V11h-2v2h-2v-2H9v2H7v-2zm2-2h6V7c0-1.657-1.343-3-3-3S9 5.343 9 7v2z" transform="translate(-953 -123) translate(145 103) translate(805 18)"/>
                    </g>
                </g>
            </g>
        </g>
    </g>
</svg>
