<?xml version="1.0" encoding="utf-8"?>
<!-- Generator: Adobe Illustrator 26.1.0, SVG Export Plug-In . SVG Version: 6.00 Build 0)  -->
<svg version="1.1" id="Layer_1" xmlns="http://www.w3.org/2000/svg" xmlns:xlink="http://www.w3.org/1999/xlink" x="0px" y="0px"
	 viewBox="0 0 20 20" style="enable-background:new 0 0 20 20;" xml:space="preserve">
<style type="text/css">
	.st0{fill:none;}
	.st1{fill:#E35E3A;}
</style>
<g>
	<g>
		<g>
			<g>
				<g>
					<path class="st0" d="M-2-2h24v24H-2V-2z"/>
					<path class="st1" d="M10,20C4.5,20,0,15.5,0,10S4.5,0,10,0s10,4.5,10,10S15.5,20,10,20z M5,16.3c1.4,1.1,3.2,1.7,5,1.7
						c2,0,3.8-0.7,5.2-1.9c-1.3-1.4-3.1-2.1-5-2.1C8.2,14,6.3,14.8,5,16.3z M3.6,14.8C5.3,13,7.7,12,10.2,12c2.4,0,4.7,0.9,6.4,2.6
						c2.4-3.3,1.8-7.9-1.2-10.6C12.2,1.3,7.6,1.3,4.6,4.1C1.5,6.9,1.1,11.5,3.6,14.8C3.6,14.8,3.6,14.8,3.6,14.8z M10,11
						c-2.2,0-4-1.8-4-4s1.8-4,4-4s4,1.8,4,4S12.2,11,10,11z M10,9c1.1,0,2-0.9,2-2s-0.9-2-2-2S8,5.9,8,7S8.9,9,10,9z"/>
				</g>
			</g>
		</g>
	</g>
</g>
</svg>
