<?xml version="1.0" encoding="utf-8"?>
<!-- Generator: Adobe Illustrator 26.1.0, SVG Export Plug-In . SVG Version: 6.00 Build 0)  -->
<svg version="1.1" id="Layer_1" xmlns="http://www.w3.org/2000/svg" xmlns:xlink="http://www.w3.org/1999/xlink" x="0px" y="0px"
	 viewBox="0 0 20 20" style="enable-background:new 0 0 20 20;" xml:space="preserve">
<style type="text/css">
	.st0{fill:#E35E3A;}
</style>
<g>
	<path class="st0" d="M6.9,8.1c0.2-0.2,0.2-0.4,0-0.6s-0.4-0.2-0.6,0c-0.2,0.2-0.2,0.4,0,0.6c0,0,0,0,0,0C6.5,8.2,6.8,8.2,6.9,8.1
		C6.9,8.1,6.9,8.1,6.9,8.1z"/>
	<path class="st0" d="M10.8,8.6c0.5-0.5,0.5-1.2,0-1.7S9.6,6.5,9.2,7s-0.5,1.2,0,1.7c0,0,0,0,0,0C9.6,9.1,10.4,9.1,10.8,8.6z
		 M9.7,7.5c0.2-0.2,0.4-0.2,0.6,0s0.2,0.4,0,0.6s-0.4,0.2-0.6,0c0,0,0,0,0,0C9.6,7.9,9.6,7.7,9.7,7.5C9.7,7.5,9.7,7.5,9.7,7.5
		L9.7,7.5z"/>
	<path class="st0" d="M9.2,11.4c-0.5,0.5-0.5,1.2,0,1.7s1.2,0.5,1.7,0s0.5-1.2,0-1.7c0,0,0,0,0,0C10.4,10.9,9.6,10.9,9.2,11.4
		C9.2,11.4,9.2,11.4,9.2,11.4z M10.3,12.5c-0.2,0.2-0.4,0.2-0.6,0c-0.2-0.2-0.2-0.4,0-0.6c0.2-0.2,0.4-0.2,0.6,0
		C10.4,12.1,10.4,12.3,10.3,12.5C10.3,12.5,10.3,12.5,10.3,12.5z"/>
	<path class="st0" d="M6.8,10.6c0,0.2,0.2,0.3,0.5,0.3c0,0,0,0,0,0l5.5-1.1c0.2-0.1,0.3-0.3,0.3-0.5c0-0.2-0.2-0.3-0.4-0.3l-5.5,1.1
		C6.9,10.2,6.8,10.4,6.8,10.6C6.8,10.6,6.8,10.6,6.8,10.6z"/>
	<path class="st0" d="M11.9,2.2c-0.1,0-0.2,0-0.3,0.1L7.5,6.4C7.4,6.6,7.4,6.8,7.5,7c0.1,0.1,0.4,0.1,0.5,0l3.8-3.8l5,5l-8.8,8.8
		l-5-5l2.7-2.7C6,9,6,8.8,5.9,8.6c-0.1-0.2-0.4-0.2-0.6,0c0,0,0,0,0,0l-3,3c-0.2,0.2-0.2,0.4,0,0.6c0,0,0,0,0,0l5.5,5.5
		c0.2,0.2,0.4,0.2,0.6,0c0,0,0,0,0,0l9.3-9.3c0.2-0.2,0.2-0.4,0-0.6c0,0,0,0,0,0l-5.5-5.5C12.1,2.2,12,2.2,11.9,2.2L11.9,2.2z"/>
	<path class="st0" d="M19.3,0.1l-1.7,1.7c-1-0.7-2.3-0.8-3.3,0L13,0.3c-0.5-0.5-1.2-0.5-1.7,0c0,0,0,0,0,0l-11,11
		c-0.5,0.5-0.5,1.2,0,1.7c0,0,0,0,0,0l1.5,1.5c-0.5,1.4,0.3,3,1.7,3.5c0.6,0.2,1.2,0.2,1.8,0L7,19.7c0.5,0.5,1.2,0.5,1.7,0
		c0,0,0,0,0,0l11-11c0.5-0.5,0.5-1.2,0-1.7c0,0,0,0,0,0l-1.4-1.4c0.7-1,0.7-2.3,0-3.3l1.7-1.7c0.1-0.2,0.1-0.4,0-0.6
		C19.7,0,19.5,0,19.3,0.1L19.3,0.1z M17.4,5.4c-0.2,0.2-0.2,0.4,0,0.6c0,0,0,0,0,0l1.7,1.6c0.2,0.2,0.2,0.4,0,0.5l-11,11
		c-0.2,0.2-0.4,0.2-0.6,0c0,0,0,0,0,0l-1.7-1.7c-0.1-0.1-0.3-0.1-0.4-0.1c-1,0.5-2.2,0-2.6-1c-0.2-0.5-0.2-1.1,0-1.7
		c0.1-0.1,0-0.3-0.1-0.4l-1.7-1.7c-0.2-0.2-0.2-0.4,0-0.6c0,0,0,0,0,0l11-11c0.2-0.2,0.4-0.2,0.6,0l1.6,1.7c0.2,0.2,0.4,0.2,0.6,0
		c0,0,0,0,0,0c0.7-0.7,1.7-0.8,2.5-0.2l-0.6,0.6c-0.6-0.3-1.3,0-1.6,0.6s0,1.3,0.6,1.6c0.6,0.3,1.3,0,1.6-0.6c0.2-0.3,0.2-0.7,0-1
		l0.6-0.6C18.2,3.7,18.1,4.7,17.4,5.4L17.4,5.4z M16.3,3.7c0.2,0.2,0.2,0.4,0,0.6s-0.4,0.2-0.6,0c-0.2-0.2-0.2-0.4,0-0.6
		C15.9,3.6,16.1,3.6,16.3,3.7C16.3,3.7,16.3,3.7,16.3,3.7z"/>
</g>
</svg>
