<svg id="Layer_1" data-name="Layer 1" xmlns="http://www.w3.org/2000/svg" viewBox="0 0 32 32"><defs><style>.cls-1{fill:#fff;stroke:#e35e3a;}.cls-2{fill:#e35e3a;}</style></defs><rect class="cls-1" x="0.5" y="0.5" width="31" height="31" rx="4"/><path class="cls-2" d="M24.25,10A.38.38,0,0,0,24,9.9H20.3l-.83-2a1.85,1.85,0,0,0-1.58-1H14.08a1.65,1.65,0,0,0-.94.31,1.61,1.61,0,0,0-.64.74l-.83,2H8a.38.38,0,0,0-.38.38V11a.41.41,0,0,0,.11.28.36.36,0,0,0,.27.1H9.13V22.74a2.65,2.65,0,0,0,.56,1.69,1.68,1.68,0,0,0,1.35.69h9.89a1.65,1.65,0,0,0,1.34-.72,2.66,2.66,0,0,0,.56-1.7V11.42H24a.37.37,0,0,0,.28-.1.39.39,0,0,0,.11-.28v-.76A.37.37,0,0,0,24.25,10ZM13.9,8.51a.35.35,0,0,1,.2-.13h3.77a.34.34,0,0,1,.21.13l.57,1.39H13.32l.58-1.39ZM21.31,22.7a1.51,1.51,0,0,1-.08.48.93.93,0,0,1-.18.32c-.06.07-.1.1-.12.1H11s-.07,0-.13-.1a.94.94,0,0,1-.17-.32,1.27,1.27,0,0,1-.08-.48V11.42H21.31V22.7Z"/><path class="cls-2" d="M12.56,21.32h.76a.38.38,0,0,0,.38-.38V14.09a.39.39,0,0,0-.11-.28.36.36,0,0,0-.27-.1h-.76a.36.36,0,0,0-.27.1.36.36,0,0,0-.11.28v6.85a.33.33,0,0,0,.11.27.37.37,0,0,0,.27.11Zm3,0h.76a.38.38,0,0,0,.28-.11.36.36,0,0,0,.1-.27V14.09a.39.39,0,0,0-.1-.28.37.37,0,0,0-.28-.1H15.6a.36.36,0,0,0-.27.1.39.39,0,0,0-.11.28v6.85a.38.38,0,0,0,.38.38Zm3,0h.76a.38.38,0,0,0,.38-.38V14.09a.39.39,0,0,0-.11-.28.36.36,0,0,0-.27-.1h-.76a.35.35,0,0,0-.38.38v6.85a.36.36,0,0,0,.1.27.39.39,0,0,0,.28.11Z"/></svg>