<?xml version="1.0" encoding="utf-8"?>
<!-- Generator: Adobe Illustrator 26.1.0, SVG Export Plug-In . SVG Version: 6.00 Build 0)  -->
<svg version="1.1" id="Layer_1" xmlns="http://www.w3.org/2000/svg" xmlns:xlink="http://www.w3.org/1999/xlink" x="0px" y="0px"
	 viewBox="0 0 499.4 499.4" style="enable-background:new 0 0 499.4 499.4;" xml:space="preserve">
<style type="text/css">
	.st0{fill:#E35E3A;}
</style>
<g>
	<g>
		<g>
			<path class="st0" d="M472,449.7h-64v-80h4.8c10.1,0,19.1-6.3,22.6-15.8l64.1-176.2H391.2c-3.1-15.3-15-27.3-30.1-30.9
				c3-9.9,12-17.1,22.9-17.1v-16c-19.6,0-35.8,14.1-39.3,32.7c-16,3-28.7,15.4-31.9,31.3h-16l6.9-37.2c0.2-1.4,0.4-2.7,0.4-4.1
				c0-12.5-10.2-22.7-22.7-22.7H192v-56c0-4.4,3.6-8,8-8h80c13.2,0,24-10.8,24-24s-10.8-24-24-24h-80c-30.9,0-56,25.1-56,56v56
				h-21.4c3.4-9.8,5.4-20.6,5.4-32c0-44.1-28.7-80-64-80S0,37.6,0,81.7c0,13.7,2.8,26.5,7.6,37.8C2.8,123.7,0,129.8,0,136.4
				c0,1.4,0.1,2.7,0.4,4.1l54.9,298.1c-9.1,5.6-15.3,15.7-15.3,27.2c0,17.6,14.4,32,32,32h160c17.6,0,32-14.4,32-32
				c0-11.5-6.2-21.5-15.3-27.2l38.6-209.4l45.4,124.8c3.4,9.5,12.5,15.8,22.6,15.8h4.8v80h-64c-13.2,0-24,10.8-24,24s10.8,24,24,24
				h176c13.2,0,24-10.8,24-24S485.2,449.7,472,449.7z M248,17.7h32c4.4,0,8,3.6,8,8s-3.6,8-8,8h-32V17.7z M216,17.7h16v16h-16V17.7z
				 M344,163.2v14.5h16v-14.5c9.3,3.3,16,12.1,16,22.5c0,13.2-10.8,24-24,24s-24-10.8-24-24C328,175.3,334.7,166.5,344,163.2z
				 M160,57.7c0-22.1,17.9-40,40-40v16c-13.2,0-24,10.8-24,24v56h-16V57.7z M111.5,73c-29.7-5.3-37-37.9-38.9-54.2
				C92.9,23.7,108.7,45.6,111.5,73z M111.5,90.4c-2.8,27.4-18.6,49.2-38.9,54.2C74.5,128.4,81.8,95.7,111.5,90.4z M89.8,81.7
				C77.4,89.2,69.2,101,64,113.6C58.8,101,50.6,89.2,38.2,81.7C50.6,74.3,58.8,62.4,64,49.8C69.2,62.4,77.4,74.3,89.8,81.7z
				 M55.4,18.8C53.5,35,46.2,67.7,16.5,73C19.3,45.6,35.1,23.7,55.4,18.8z M55.4,144.6c-20.2-4.9-36-26.8-38.9-54.2
				C46.2,95.7,53.5,128.4,55.4,144.6z M16.1,137.6c-0.1-0.4-0.1-0.8-0.1-1.2c0-0.6,0.1-1.1,0.2-1.6c2.9,4,6.1,7.7,9.5,11h-8.2
				L16.1,137.6z M232,481.7H72c-8.8,0-16-7.2-16-16s7.2-16,16-16h160c8.8,0,16,7.2,16,16S240.8,481.7,232,481.7z M280.5,177.7h-11.9
				l8.2,22.6l-0.5-0.1l-43,233.6c-0.4,0-0.9-0.1-1.3-0.1H72c-0.4,0-0.9,0.1-1.3,0.1L20.6,161.7h262.9L280.5,177.7z M287.9,137.6
				l-1.5,8.1H102.2c4.9-4.6,9.2-9.9,12.8-16h166.3c3.7,0,6.7,3,6.7,6.7C288,136.8,288,137.2,287.9,137.6z M291.4,193.7h21.4
				c1.2,5.9,3.9,11.3,7.4,16h-23L291.4,193.7z M355.2,353.7c-3.4,0-6.4-2.1-7.5-5.3l-44.6-122.7H432v-16h-48.2
				c3.5-4.7,6.2-10.1,7.4-16h85.4l-5.8,16H448v16h16.9l-44.6,122.7c-1.1,3.1-4.2,5.3-7.5,5.3H355.2z M392,369.7v80h-16v-80H392z
				 M472,481.7H296c-4.4,0-8-3.6-8-8s3.6-8,8-8h176c4.4,0,8,3.6,8,8S476.4,481.7,472,481.7z"/>
			<rect x="216" y="201.7" class="st0" width="16" height="16"/>
			<rect x="144" y="241.7" class="st0" width="16" height="16"/>
			<rect x="112" y="177.7" class="st0" width="16" height="16"/>
			<rect x="56" y="225.7" class="st0" width="16" height="16"/>
			<rect x="184" y="273.7" class="st0" width="16" height="16"/>
			<rect x="88" y="273.7" class="st0" width="16" height="16"/>
		</g>
	</g>
</g>
</svg>
