<?xml version="1.0" encoding="utf-8"?>
<!-- Generator: Adobe Illustrator 26.1.0, SVG Export Plug-In . SVG Version: 6.00 Build 0)  -->
<svg version="1.1" id="Layer_1" xmlns="http://www.w3.org/2000/svg" xmlns:xlink="http://www.w3.org/1999/xlink" x="0px" y="0px"
	 viewBox="0 0 1920 1080" style="enable-background:new 0 0 1920 1080;" xml:space="preserve">
<style type="text/css">
	.st0{fill-rule:evenodd;clip-rule:evenodd;fill:#A77C5A;}
	.st1{fill-rule:evenodd;clip-rule:evenodd;fill:#C39E74;}
	.st2{fill-rule:evenodd;clip-rule:evenodd;fill:#B48E69;}
	.st3{fill-rule:evenodd;clip-rule:evenodd;fill:#C9A882;}
	.st4{fill-rule:evenodd;clip-rule:evenodd;fill:#EBECEC;}
	.st5{fill-rule:evenodd;clip-rule:evenodd;fill:#FEFEFE;}
	.st6{fill-rule:evenodd;clip-rule:evenodd;fill:#CEAF87;}
	.st7{fill-rule:evenodd;clip-rule:evenodd;fill:#97795A;}
	.st8{fill-rule:evenodd;clip-rule:evenodd;fill:#D9DADA;}
	.st9{fill-rule:evenodd;clip-rule:evenodd;fill:#A68463;}
	.st10{fill-rule:evenodd;clip-rule:evenodd;fill:#B9956F;}
	.st11{fill:#E35E3A;}
	.st12{font-family:'Cairo-Bold';}
	.st13{font-size:114.7951px;}
	.st14{fill:#231F20;}
	.st15{font-family:'Cairo-Regular';}
	.st16{font-size:40.3889px;}
</style>
<g>
	<polygon class="st0" points="163.4,528.5 426.6,528.5 426.6,578.3 182.1,578.3 	"/>
	<polygon class="st1" points="75.5,938.5 101.3,1004.1 182.1,578.3 163.4,528.5 	"/>
	<polygon class="st2" points="113.7,938.6 182.1,578.3 164.9,532.3 80.4,938.5 	"/>
	<polygon class="st1" points="426.6,1004.1 101.3,1004.1 182.1,578.3 426.6,578.3 671.2,578.3 752,1004.1 	"/>
	<polygon class="st0" points="50,169.6 77.2,104 162.5,529.8 139.7,563.1 	"/>
	<path class="st3" d="M383.7,104h43h43C469.6,66.6,383.7,66.6,383.7,104z"/>
	<polygon class="st0" points="689.8,528.5 426.6,528.5 426.6,578.3 671.2,578.3 	"/>
	<polygon class="st2" points="777.8,938.5 752,1004.1 671.2,578.3 689.8,528.5 	"/>
	<polygon class="st1" points="803.3,169.6 776.1,104 690.8,529.8 713.6,563.1 	"/>
	<polygon class="st2" points="426.6,104 776.1,104 690.8,529.8 426.6,529.8 162.5,529.8 77.2,104 	"/>
	<polygon class="st4" points="803.3,164.6 426.6,164.6 50,164.6 77.2,104 426.6,104 776.1,104 	"/>
	<polygon class="st5" points="50,164.6 347.4,164.6 383.1,164.6 803.3,164.6 803.3,169.6 381.8,169.6 348.7,169.6 50,169.6 	"/>
	<path class="st1" d="M383.7,104h43h43C469.6,141.4,383.7,141.4,383.7,104z"/>
	<polygon class="st6" points="739.6,938.6 671.2,578.3 688.8,531.2 771.8,938.5 	"/>
	<path class="st2" d="M426.6,589.5c14.3,0,42.4,5.5,61.4,10.8c16.9,4.8,24.9,9.1,34.7,15.8c5.1,3.4,55.4,11,57.9,14.5
		c7.6,10.7-39.7,17.5-24.8,26.2c10.2,5.9,30.3,3.4,39.8,9.1c15.1,8.9,28.1,18.7,38.9,29.6c3.3,3.4-3.8,13.8-0.9,17.5
		c4.5,5.7,18.7,4.7,22.2,11c2.1,3.9-23.5,12.3-22,16.6c2,5.7,30.6,7.4,31.5,13.7c1,6.5,1.5,13.4,1.4,20.6c0,5,9.9,12.1,9.9,17.2
		c0,8.5-0.8,17-2.3,25.3c-1,5.6-3.2,11.1-10.7,12.1c-5.4,0.8-16.4-3.2-17.9,0.3c-4.8,11.1,9.9,36.8,2.5,46.5
		c-5.8,7.6-18.3,13.3-29.6,18.4c-2.9,1.3-16.1-2-18.5-0.7c-2.9,1.6,5.3,7.9,3.4,9.8c-6,6-13.5,10.5-20.8,15.2
		c-42.1,26.9-97.3,41.1-156.3,41.1c-66,0-129.3-23.8-175.1-57.1c-6.4-4.7-18.4-5.7-23.8-10.9c-8.7-8.3-15.6-17.3-21.2-26.8
		c-3.6-6.2,6.1-5.3,3.5-11.9c-2.4-6-16.7-8-19.5-14.9c-5.1-12.6-7-24.7-6.4-39.1c0.3-7.5,2.4-18.4,2.5-24.6
		c0.1-9.4,9.4-16.8,9.4-25.6c0-9.2-9.3-19.7-8-28.2c1.1-6.8,9.4-7.3,12.1-13.1c1.7-3.7-2.7-13.1-0.1-16.2c8.4-9.8,36.2-15.7,50.2-24
		c8.9-5.3,2.2-14,11.9-18.7c9-4.4,56.4-6,65-10.1c20.6-9.8-12.5-21.6,11.4-30.8c9.9-3.8,21.3-1.2,35.3-4.6
		C391.7,599.2,412.6,589.5,426.6,589.5L426.6,589.5z M275.8,626.3c-3.1,0-6.6-2.5-6.6,0c0,2.5,2.5,4.5,5.6,4.5
		c3.1,0,4.3,0.8,4.3-1.7C279.1,626.7,278.9,626.3,275.8,626.3L275.8,626.3z M245.7,653.3c-3.1,0-10.3-0.8-10.3,1.7
		c0,2.5,7.2,7.3,10.3,7.3c3.1,0,5.6-2,5.6-4.5C251.4,655.3,248.8,653.3,245.7,653.3z"/>
	<path class="st7" d="M464.1,938.5c2.3,3.1,3.5,6.6,3.5,10.2c0,13.9-18.3,25.1-41,25.1c-22.6,0-41-11.3-41-25.1
		c0-3.6,1.3-7.1,3.5-10.2c6.4,8.8,20.7,17,37.5,17C443.4,955.4,457.7,947.3,464.1,938.5z"/>
	<path class="st8" d="M75.5,943.5h315.6c4.2,9.6,17.9,16.6,34.1,16.6c0.5,0,1,0,1.5,0c0.5,0,1,0,1.5,0c16.2,0,29.9-7,34.1-16.6
		h315.6l-25.8,60.6H426.6H101.3L75.5,943.5z"/>
	<path class="st5" d="M75.5,943.5h315.6c-0.7-1.6-1.1-3.3-1.3-5H75.5V943.5L75.5,943.5z M777.8,943.5H462.2c0.7-1.6,1.1-3.3,1.3-5
		h314.3V943.5z"/>
	<path class="st2" d="M670.1,907.9c1,0.3,1.8,0.9,1.8,2.1c0,1.2-0.8,2.1-1.8,2.1c-0.6,0-20.1,6-33.6,5.4c-9-0.4,2.4-8.2,2.4-8.7
		c0-0.9-4.4-11.8,9.7-12C655.2,896.7,669.8,907.8,670.1,907.9z"/>
	<path class="st2" d="M676.9,859.8c1,0,1.1,0.4,1.1,3.3c0,2.9-0.4,1.9-1.4,1.9c-1,0-18.7-7.2-18.7-10.1c0-1.7,22.2-20.9,27.6-18.9
		C689.1,837.3,676.5,859.8,676.9,859.8z"/>
	<path class="st9" d="M427.8,649.3c9.7,0-0.7-7,12.1-3.4c11.5,3.2,16.9,6.2,23.5,10.7c1.9,1.3,13,3.4,22.9,5.4
		c0.2,0.2,0.4,0.4,0.6,0.6c3.4,4.6,4.9,9.4,5.2,13.3c-6,2.7-11.2,5.3-6.2,8.2c0.2,0.1,0.4,0.2,0.6,0.3c-3.3,0.5-6.1,0.1-8.7,1.5
		c-7.7,4.3-9.4,8.6-16,13.2c-2.8,1.9-5.7,3.9-8.6,6c-3.1,2.2-1,6.3-3.8,8.8c-1.8,1.6,3.1,5.4,0.5,6.8c-2.6,1.4-12.8,0.3-14.6,1.9
		c1.1-3.2,11.3-6.1,8.3-10.3c-10-13.7-29.8-18.8-63.7-0.2c-8.2,4.5,5.4,10.3-1.4,15.1c-7.4,5.2-35,9-42.9,25.9
		c-0.7,1.5,1.8,6.1,1.5,7.9c-0.5,2.8-3.6,3.1-3.3,6.4c0.3,4.1,4.8,9.3,5.6,13.8c0.8,4-1.6,7.4-1.3,11.6c-2.7,0.3-5.7-1.7-10-1.2
		c-3.8,0.5-7.8,12.8-15.6,14.3c-14.9,3-35.6-4.1-38-2.3c-0.7,0.5-4.8-1.9-10.7-6c-0.1-2-0.1-4,0-6.2c0.2-5.1,1.6-12.5,1.7-16.7
		c0.1-6.3,6.4-11.4,6.4-17.3c0-6.2-6.3-13.4-5.4-19.1c0.7-4.6,6.4-4.9,8.2-8.8c1.2-2.5-1.8-8.9-0.1-11c5.7-6.7,24.5-10.6,34-16.3
		c6-3.6,1.5-9.5,8-12.7c6.1-3,38.2-4,44-6.8c14-6.7-8.5-14.7,7.7-20.9c6.7-2.6,14.4-0.8,23.9-3.1
		C404.2,655.9,418.4,649.3,427.8,649.3L427.8,649.3z M508.5,767.3c3.4-0.1,5.8,0,6.2,0.3c2.1,1.8-1.7,3.1-7.1,4.3
		c1.5-1.2,2.7-2.4,2.3-3.2C509.5,768.1,509,767.7,508.5,767.3L508.5,767.3z M517.3,827.6c6.2,0.4,12.4,0.8,12.8,2.2
		c0.3,1.2-4.3,3.1-10,5.3C519.2,832.6,518.1,830,517.3,827.6L517.3,827.6z M512.3,859.6c0.3,0.2,0.5,0.4,0.7,0.7
		c1.7,2.4,5.6,2.9,7.7,5.1c1.9,2,10.9,1.9,20.9,1.4c0.6,1.7,3.6,4.4,2.6,5.4c-4.1,4-9.1,7.1-14.1,10.3c-7,4.4-5,15.8-12.6,18.4
		c-8.7,2.9-18.2-3.1-29.3-3.4c-19.1-0.5-3.4,2-22.5,1.9c-8.7,0-17.3-0.6-25.8-1.8c-1-1.2-1.4-2.1-0.4-2.8c4-2.8,32.1,0.4,30-4.3
		c-1.1-2.5-30.5-7.5-28.9-10.5c1-1.9,2-3.7,2.7-5.7c13,5.7,26.8,9.1,40.2,9.1c19.8,0,10.9,3.1,16.9-5.6c0.7-1-4.7-2.2-3.3-3.6
		c2.3-2.3,4.7-4.5,6.4-7.4c0.5-0.9-3.1-4-2.2-4.8c0.8-0.7,6.1,1,7,0.3C509.6,861.5,511,860.6,512.3,859.6L512.3,859.6z M554.1,866.1
		c-0.4,0.1-1.1,0.1-1.8,0.1L554.1,866.1L554.1,866.1z M457.6,694.4c-0.4,0,12.2-9.1,8.6-9.6c-2.7-0.4-18.3-5.3-24.5-3.3
		c-6.2,1.9-3,10.6-3,11c0,0.6,4.2-2.9,8.8-2c4.5,0.9,9.4,6.1,9.9,6.1c1,0,1.4,0.4,1.4-0.8C458.6,694.6,458.6,694.4,457.6,694.4
		L457.6,694.4z M278.7,835.7c-0.4-0.9-0.5-1.5-0.3-2C279.1,834.2,279.3,834.8,278.7,835.7L278.7,835.7z M325.7,674.3
		c-2.1,0-4.5-1.7-4.5,0c0,1.7,1.7,3,3.8,3c2.1,0,2.9,0.6,2.9-1.1C328,674.5,327.8,674.3,325.7,674.3L325.7,674.3z M305.4,692.5
		c-2.1,0-6.9-0.6-6.9,1.1c0,1.7,4.8,4.9,6.9,4.9c2.1,0,3.8-1.4,3.8-3C309.2,693.9,307.5,692.5,305.4,692.5z"/>
	<path class="st10" d="M333.2,801.4c5.3-0.7,8.7,2.6,11.8,0.5c25.1-17,18.1-3.2,15.2,8.7c-0.9,3.6,8.7-2.8,12.2-2.3
		c10,1.5,18.5,4.7,25.3,10.7c1.1,1-4.5,7-3.4,8.2c1.4,1.6,9.4-1.6,10.7,0.3c1.3,2,2.5,4.1,3.6,6.4c0.8,1.6,4.6,2.5,5.3,4.2
		c2.4,5.5-30.2,12.2-29.4,18.1c0.6,4.5,35,8.2,34.7,12.5c-0.2,3.2-2.9,6.6-5.2,9.7c-0.6,0.8-4.7,1.5-5.1,2.2
		c-0.5,0.9,2.7,1.8,2.4,2.7c-0.7,2.7-2,5.1-3.3,7.6c-1.6,3,27.8,8,28.9,10.5c2.1,4.7-26,1.5-30,4.3c-4,2.8,15.9,11.6,9.6,14.6
		c-18,8.4-38.7,9.3-56.3,4.6c-2.5-0.7-5.9,0.6-8.1-0.4c-3.6-1.5-6.9-3.5-9.9-5.8c-1.9-1.5,36.6,1.3,34.9-0.5
		c-1.6-1.6-37.2-11.8-39-13.6c-3.3-3.4-14.7,2-16.8-2.6c-1.1-2.4,2.6-7.6,1.6-9.6c-2.9-6.2-50.7-7.5-52.5-13.1
		c-1.1-3.6-1.7-7.2-1.2-10.9c0-0.1-37.4-2.5-30.4-15.2c1.7-3,31.7,0.4,40.9-4.3c15.9-8.2-13.2-6.7-12.7-7.2c0.9-1-29.4-3.3-49.1-9
		c-7.7-2.2-12-7.7-14.9-9.6c-2.2-1.5,16,2.7,19.1-4c2.2-4.8-10.7-19.7-10.1-25.3c1.2-12.9-7.8-25.1-7.1-25.7
		c5.9-5.2,71.9,47.8,74.9,45.5c2.4-1.8,23,5.3,38,2.3C325.4,814.2,329.4,801.9,333.2,801.4z"/>
	<path class="st10" d="M555.3,693c5.5,2.2,7.2,8.1,11.2,7.4c32-5.9,19,6.5,10.7,19.1c-2.5,3.8,9.7,1.7,12.8,4.3
		c9,7.5,15.6,16.2,19.4,27.2c0.6,1.8-7.6,5.8-7.1,7.8c0.6,2.7,9.8,3.5,10.2,6.4c0.3,3.1,0.5,6.3,0.5,9.6c0,2.3,3.2,5.7,3.2,8.1
		c0,14.2,28.4,17.6,22.5,28.9c-1.9,3.6-5.9,6.2-9.5,8.6c-0.9,0.6-5.2-1-6-0.3c-0.9,0.8,1.7,3.7,1.1,4.6c-1.9,2.8-4.3,4.9-6.7,7.1
		c-3.3,3-20.2,12.9-20,17c0.2,3.8,17.4,1.8,18.6,5.6c3,9.4,6.3,17.5-4,17.2c-14.7-0.4-24.2-6.6-36.2-14.6c-5.7-3.8-47.3,3-51.8-1.6
		c-2.1-2.2-5.9-2.7-7.7-5.1c-2.8-3.9-16.3-1.2-18.1-5.6c-1.2-2.9,32.5-11.8,31.6-14.8c-0.8-2.8-24.7-1.4-25.6-4.6
		c-0.8-2.8,15.2-6.6,13.6-9.6c-1.8-3.4-21-6.2-20.9-9.8c0.1-3.5,6-7.5,6-10.5c0-2.6-18.1-11.4-13.8-17.5c3.2-4.6,30.1-6.2,25.2-10.2
		c-1.4-1.2-37.2,1.7-38.6,0.5c-4.4-3.7-15.6-6.6-18.8-9.7c-3.6-3.5,1.2-7.1,1.4-8.9c0.6-4.9,1.7-9.5,3.9-13.7
		c2.5-4.8,11.7-7.4,16.2-11.3c2.9-2.5,0.7-6.6,3.8-8.8c2.9-2.1,5.8-4,8.6-6c6.6-4.6,8.3-8.9,16-13.2c3.2-1.8,6.9-0.6,11.4-2.1
		c4-1.4,4.6-11.7-2.2-21.2c-2.2-3.1-15.4-4.6-16.2-7.7c-1.7-6.7,12.6-15.1,13.9-15.5c1.1-0.4,12.6,2.8,23.7,7.4
		c3.6,1.5-4.3,5.8-1.2,7.5c4.1,2.2,19,1.9,20.9,4.2C566.2,680.2,549.3,690.5,555.3,693L555.3,693z M487,705.2
		c-0.4,0,12.2-9.1,8.6-9.6c-5.4-0.8-27.6,6.9-27.6,7.6c0,1.2,17.7,4.1,18.7,4.1c1,0,1.4,0.4,1.4-0.8
		C488.1,705.3,488,705.2,487,705.2L487,705.2z M436.7,740.5c1,0.3,1.8,0.9,1.8,2.1c0,1.2-0.8,2.1-1.8,2.1c-0.6,0-20.1,6-33.6,5.4
		c-9-0.4,2.4-8.2,2.4-8.7c0-0.9-4.4-11.8,9.7-12C421.8,729.3,436.4,740.4,436.7,740.5z"/>
</g>
<g>
	<text transform="matrix(1 0 0 1 843.189 539.7113)" class="st11 st12 st13">Your Cart is Empty</text>
	<text transform="matrix(1 0 0 1 845.3735 617.8949)" class="st14 st15 st16">Looks like you haven’t added anything to your cart yet</text>
</g>
</svg>
