<svg id="Layer_1" data-name="Layer 1" xmlns="http://www.w3.org/2000/svg" viewBox="0 0 129.13 80"><defs><style>.cls-1{fill:#e35e3a;}</style></defs><path class="cls-1" d="M82.08,6.56a22.39,22.39,0,0,0-34.61,28,23.25,23.25,0,0,0,2.34,3c.19.2.39.42.61.63a22.37,22.37,0,0,0,31.65,0c.21-.2.42-.42.61-.63a22.38,22.38,0,0,0-.6-31Zm3.14,15.83A18.71,18.71,0,0,1,81,34.32h0a17.19,17.19,0,0,1-1.34,1.48A18.44,18.44,0,0,1,78,37.25a19,19,0,0,1-23.59,0,20.2,20.2,0,0,1-1.62-1.45c-.48-.48-.92-1-1.33-1.48a18.69,18.69,0,0,1-4.23-11.94,19,19,0,1,1,37.95,0Z"/><path class="cls-1" d="M126.21,40.16a9.85,9.85,0,0,0-7-2.92H90.48v3.26h28.69a6.71,6.71,0,0,1,6.7,6.71V70a6.71,6.71,0,0,1-6.71,6.71h0L10,76.72A6.69,6.69,0,0,1,3.26,70V47.18A6.73,6.73,0,0,1,10,40.47H38.65V37.22H10a10,10,0,0,0-10,10V70A10,10,0,0,0,10,80l109.19,0h0a10,10,0,0,0,10-10V47.2A9.85,9.85,0,0,0,126.21,40.16Z"/><path class="cls-1" d="M74.13,25.9l-4-1.23a2.28,2.28,0,0,0-2.51,1,3.17,3.17,0,0,1-2,1.38,1.83,1.83,0,0,1-1.38-.2,14.09,14.09,0,0,1-4.07-4.07A1.84,1.84,0,0,1,60,21.41a3.19,3.19,0,0,1,1.39-1.95,2.29,2.29,0,0,0,1-2.51l-1.24-4a1.77,1.77,0,0,0-2.12-1.16l-3.8.81-.24.07-.16.06-.15.07a1.82,1.82,0,0,0-1,1.57c0,.82.06,1.65.15,2.46l0,.27h0l.08.08A18.45,18.45,0,0,0,59.15,28a18.49,18.49,0,0,0,11,5.2,19.31,19.31,0,0,0,2.53.16h0a1.85,1.85,0,0,0,1.6-1l0-.12a1.94,1.94,0,0,0,.12-.39L75.3,28A1.78,1.78,0,0,0,74.13,25.9Z"/><path class="cls-1" d="M70.27,19H68V18.5l.81-.81.39-.41a1.21,1.21,0,0,0,.21-.31.59.59,0,0,0,.07-.29.38.38,0,0,0-.11-.29.41.41,0,0,0-.28-.09.86.86,0,0,0-.36.08,2.31,2.31,0,0,0-.37.24L68,16.19a2.21,2.21,0,0,1,.29-.22,1.2,1.2,0,0,1,.36-.17,1.41,1.41,0,0,1,.49-.07,1.13,1.13,0,0,1,.54.12.88.88,0,0,1,.35.31.81.81,0,0,1,.12.44,1.09,1.09,0,0,1-.11.48,1.68,1.68,0,0,1-.3.43l-.48.48-.41.39v0h1.39Z"/><path class="cls-1" d="M72.9,18.31h-.39V19h-.66v-.66H70.49v-.47l1.4-2.06h.62v2h.39Zm-1.05-.52v-.54c0-.06,0-.12,0-.19a1.48,1.48,0,0,1,0-.21,1,1,0,0,1,0-.18v-.12h0l-.09.18-.11.17-.59.89Z"/><path class="cls-1" d="M74.8,15.78,73.61,19H73l1.19-3.19Z"/><path class="cls-1" d="M75.32,19l1.2-2.62H74.94v-.57h2.29v.42L76,19Z"/><path class="cls-1" d="M50.78,57.64a15.09,15.09,0,0,1-.3,3.12,8.78,8.78,0,0,1-.92,2.54A6.49,6.49,0,0,1,48,65.19a6.87,6.87,0,0,1-2.34,1.18,11,11,0,0,1-3.13.4l-1.13,0a8,8,0,0,1-1.1-.09v-3.4c.32.05.63.1.94.13s.67,0,1.09,0a6.11,6.11,0,0,0,2.77-.51,2.94,2.94,0,0,0,1.39-1.42,6.06,6.06,0,0,0,.46-2.09h-.13a4.32,4.32,0,0,1-.68.95,2.86,2.86,0,0,1-1,.66,4.4,4.4,0,0,1-1.51.23,4.36,4.36,0,0,1-2.32-.6,4.09,4.09,0,0,1-1.53-1.77,6.63,6.63,0,0,1-.54-2.82,6.27,6.27,0,0,1,.68-3,4.63,4.63,0,0,1,1.94-1.93,6.79,6.79,0,0,1,5.34-.25A5,5,0,0,1,49,52.17a6,6,0,0,1,1.28,2.23A10,10,0,0,1,50.78,57.64Zm-5.84-3.76a1.43,1.43,0,0,0-1.17.51A2.58,2.58,0,0,0,43.35,56a2.31,2.31,0,0,0,.39,1.41,1.35,1.35,0,0,0,1.15.52,1.41,1.41,0,0,0,.84-.25,1.65,1.65,0,0,0,.57-.66,1.7,1.7,0,0,0,.21-.82,4,4,0,0,0-.09-.84,3,3,0,0,0-.28-.76,1.63,1.63,0,0,0-.49-.55A1.28,1.28,0,0,0,44.94,53.88Z"/><path class="cls-1" d="M63.79,58.64a17.51,17.51,0,0,1-.3,3.41,7.51,7.51,0,0,1-1,2.56,4.49,4.49,0,0,1-1.77,1.61,5.92,5.92,0,0,1-2.69.55,5.2,5.2,0,0,1-3.26-1A5.6,5.6,0,0,1,52.93,63a13.71,13.71,0,0,1-.61-4.37,15.7,15.7,0,0,1,.55-4.41,4.89,4.89,0,0,1,5.19-3.79,5.17,5.17,0,0,1,3.25,1,5.67,5.67,0,0,1,1.88,2.8A14.27,14.27,0,0,1,63.79,58.64Zm-7.2,0a23.55,23.55,0,0,0,.12,2.6,3.86,3.86,0,0,0,.43,1.58,1,1,0,0,0,.92.53,1,1,0,0,0,.91-.53,4,4,0,0,0,.44-1.57,23.62,23.62,0,0,0,.12-2.61A23.88,23.88,0,0,0,59.41,56,4.06,4.06,0,0,0,59,54.42a1,1,0,0,0-.91-.54,1,1,0,0,0-.92.54A3.91,3.91,0,0,0,56.71,56,23.88,23.88,0,0,0,56.59,58.64Z"/><path class="cls-1" d="M71.14,50.44a8.25,8.25,0,0,1,2.76.43,3.94,3.94,0,0,1,1.87,1.29,3.38,3.38,0,0,1,.67,2.16A3.85,3.85,0,0,1,76.09,56a4.09,4.09,0,0,1-1,1.26,6.23,6.23,0,0,1-1.42.93,12,12,0,0,1,1.49,1,5.36,5.36,0,0,1,1.23,1.33,3.37,3.37,0,0,1,.49,1.82,4,4,0,0,1-2.52,3.86,8,8,0,0,1-3.3.58,8.36,8.36,0,0,1-3.29-.55,4,4,0,0,1-1.88-1.55,4.36,4.36,0,0,1-.6-2.3,4.21,4.21,0,0,1,.37-1.87,3.9,3.9,0,0,1,1-1.29,8.35,8.35,0,0,1,1.48-1,7.87,7.87,0,0,1-1.21-1A4.28,4.28,0,0,1,66.11,56a3.92,3.92,0,0,1-.33-1.65,3.31,3.31,0,0,1,.69-2.14,4.09,4.09,0,0,1,1.89-1.29A8.5,8.5,0,0,1,71.14,50.44ZM69.25,62.2a1.34,1.34,0,0,0,.48,1.07,1.92,1.92,0,0,0,1.32.42,2.29,2.29,0,0,0,1.45-.38,1.24,1.24,0,0,0,.46-1,1.47,1.47,0,0,0-.28-.89,4,4,0,0,0-.67-.69,6.31,6.31,0,0,0-.67-.46l-.29-.17a6.81,6.81,0,0,0-.9.56,2.8,2.8,0,0,0-.65.69A1.55,1.55,0,0,0,69.25,62.2Zm1.87-8.66a1.43,1.43,0,0,0-.93.31,1,1,0,0,0-.39.84,1.34,1.34,0,0,0,.17.65,2,2,0,0,0,.46.55,3.84,3.84,0,0,0,.64.45,5.93,5.93,0,0,0,.62-.4,1.94,1.94,0,0,0,.51-.52,1.26,1.26,0,0,0,.21-.73,1,1,0,0,0-.39-.84A1.37,1.37,0,0,0,71.12,53.54Z"/><path class="cls-1" d="M84.17,50.44a8.31,8.31,0,0,1,2.77.43,4,4,0,0,1,1.86,1.29,3.38,3.38,0,0,1,.67,2.16A3.71,3.71,0,0,1,89.12,56a4.06,4.06,0,0,1-1,1.26,6.45,6.45,0,0,1-1.42.93,12.82,12.82,0,0,1,1.49,1,5.13,5.13,0,0,1,1.22,1.33,3.28,3.28,0,0,1,.49,1.82,4,4,0,0,1-2.52,3.86,8,8,0,0,1-3.29.58,8.33,8.33,0,0,1-3.29-.55A4,4,0,0,1,79,64.67a4.36,4.36,0,0,1-.6-2.3,4.21,4.21,0,0,1,.38-1.87,4,4,0,0,1,1-1.29,8.44,8.44,0,0,1,1.49-1,8,8,0,0,1-1.22-1A4.28,4.28,0,0,1,79.14,56a4.08,4.08,0,0,1-.32-1.65,3.36,3.36,0,0,1,.68-2.14,4.18,4.18,0,0,1,1.9-1.29A8.43,8.43,0,0,1,84.17,50.44ZM82.28,62.2a1.34,1.34,0,0,0,.48,1.07,2,2,0,0,0,1.33.42,2.29,2.29,0,0,0,1.45-.38,1.24,1.24,0,0,0,.46-1,1.48,1.48,0,0,0-.29-.89,3.37,3.37,0,0,0-.67-.69,5.42,5.42,0,0,0-.66-.46l-.29-.17a5.71,5.71,0,0,0-.9.56,3.06,3.06,0,0,0-.66.69A1.64,1.64,0,0,0,82.28,62.2Zm1.87-8.66a1.42,1.42,0,0,0-.92.31,1,1,0,0,0-.39.84,1.24,1.24,0,0,0,.17.65,2.09,2.09,0,0,0,.45.55,3.93,3.93,0,0,0,.65.45,5.93,5.93,0,0,0,.62-.4,2.1,2.1,0,0,0,.51-.52,1.25,1.25,0,0,0,.2-.73,1,1,0,0,0-.38-.84A1.39,1.39,0,0,0,84.15,53.54Z"/></svg>