<svg id="Layer_1" data-name="Layer 1" xmlns="http://www.w3.org/2000/svg" viewBox="0 0 25 25"><defs><style>.cls-1{fill:#fff;}.cls-2{fill:#e35e3a;}</style></defs><circle class="cls-1" cx="12.5" cy="12.5" r="12.5"/><path class="cls-2" d="M16.38,7.77a.86.86,0,1,0,.86.86A.87.87,0,0,0,16.38,7.77Z"/><path class="cls-2" d="M12.56,8.87a3.61,3.61,0,1,0,3.61,3.61A3.61,3.61,0,0,0,12.56,8.87Zm0,5.92a2.31,2.31,0,1,1,2.31-2.31A2.31,2.31,0,0,1,12.56,14.79Z"/><path class="cls-2" d="M15.43,19.81H9.57a4.41,4.41,0,0,1-4.4-4.4V9.56a4.42,4.42,0,0,1,4.4-4.41h5.86a4.42,4.42,0,0,1,4.4,4.41v5.85A4.41,4.41,0,0,1,15.43,19.81ZM9.57,6.53a3,3,0,0,0-3,3v5.85a3,3,0,0,0,3,3h5.86a3,3,0,0,0,3-3V9.56a3,3,0,0,0-3-3Z"/></svg>