<?xml version="1.0" encoding="utf-8"?>
<!-- Generator: Adobe Illustrator 26.1.0, SVG Export Plug-In . SVG Version: 6.00 Build 0)  -->
<svg version="1.1" id="Layer_1" xmlns="http://www.w3.org/2000/svg" xmlns:xlink="http://www.w3.org/1999/xlink" x="0px" y="0px"
	 viewBox="0 0 18 22" style="enable-background:new 0 0 18 22;" xml:space="preserve">
<style type="text/css">
	.st0{fill:none;}
	.st1{fill:#E35E3A;}
</style>
<g>
	<g>
		<g>
			<g>
				<g>
					<path class="st0" d="M-3-2h24v24H-3V-2z"/>
					<path class="st1" d="M9,18.9l5-4.9c2.7-2.7,2.7-7.2,0-9.9c-2.7-2.7-7.2-2.7-9.9,0c-2.7,2.7-2.7,7.2,0,9.9L9,18.9z M9,21.7
						l-6.4-6.4c-3.5-3.5-3.5-9.2,0-12.7s9.2-3.5,12.7,0s3.5,9.2,0,12.7L9,21.7z M9,11c1.1,0,2-0.9,2-2s-0.9-2-2-2S7,7.9,7,9
						S7.9,11,9,11z M9,13c-2.2,0-4-1.8-4-4s1.8-4,4-4s4,1.8,4,4S11.2,13,9,13z"/>
				</g>
			</g>
		</g>
	</g>
</g>
</svg>
