<?xml version="1.0" encoding="utf-8"?>
<!-- Generator: Adobe Illustrator 26.1.0, SVG Export Plug-In . SVG Version: 6.00 Build 0)  -->
<svg version="1.1" id="Capa_1" xmlns="http://www.w3.org/2000/svg" xmlns:xlink="http://www.w3.org/1999/xlink" x="0px" y="0px"
	 viewBox="0 0 512 512" style="enable-background:new 0 0 512 512;" xml:space="preserve">
<style type="text/css">
	.st0{fill:#E35E3A;}
</style>
<g>
	<path class="st0" d="M267.4,188.6c2.6,0.2,5.2-0.2,7.8-0.3c0.6-0.2,1.2-0.3,1.8-0.5c0.5-0.1,1.1-0.1,1.6-0.1c0.2,0,0.4,0,0.6,0
		c0.7-0.2,1.3-0.3,2-0.5c0.8-0.2,1.6-0.1,2.4,0c2.6-0.8,5.2-1.2,7.9-1.4c2.7-0.2,5.4-0.3,8.1-0.5c3.3-0.4,6.5-1,9.7-2
		c-0.2,0.1-0.4,0.2-0.6,0.2c2.9-1.1,5.8-2.1,8.7-3.4c1.6-0.7,3.2-1.4,4.7-2.3c1.1-0.6,2.3-1.3,3.4-2c1.2-0.8,2.4-1.6,3.6-2.6
		c1.2-1.3,2.5-2.8,3.7-4.3c0.2-0.3,0.4-0.6,0.6-0.9c0.2-0.3,0.4-0.6,0.5-1c0.5-1.1,0.9-2.3,1.4-3.5c0.4-1.3,0.9-2.7,1.4-3.9
		c0.7-2,1.7-3.6,2.6-5.2c1.7-3.1,3.8-5.5,5.8-7.9c1.8-2.3,3.8-4.3,5.6-6.5c2.1-2.4,4.4-4.5,6.5-7.1c0.8-1.1,1.6-2.3,2.4-3.6
		c0.3-0.5,0.6-1.1,0.9-1.6c0.8-1.8,1.4-3.7,2.1-5.6c0.1-0.4,0.2-0.7,0.3-1.1c0.2-0.8,0.4-1.5,0.6-2.3c0.1-0.2,0.1-0.4,0.2-0.6
		c0.2-1.3,0.4-2.6,0.6-3.8c0-0.4,0-0.9,0-1.3c0-0.4-0.1-0.9-0.2-1.3c0,0,0,0.1,0,0.1c0-0.1,0-0.2,0-0.3c0,0,0-0.1,0-0.1
		c0,0,0,0.1,0,0.1c-0.1-0.5-0.2-1-0.3-1.5c0,0.2,0.1,0.4,0.1,0.6c-0.1-0.5-0.3-1.1-0.4-1.6c-0.2-0.5-0.4-1.1-0.6-1.6
		c-0.2-0.5-0.4-0.9-0.6-1.3c0.1,0.2,0.2,0.4,0.3,0.5c-1.2-2.3-2.5-4.4-3.7-6.7c-0.9-1.2-1.7-2.5-2.6-3.8c-0.8-1-1.7-2.1-2.5-3.2
		c-0.7-0.7-1.5-1.4-2.2-2.1c-1.2-0.8-2.3-1.5-3.5-2.1c-5.3-1.9-10.6-3.5-16-4.5c-0.6-0.1-1.1-0.2-1.7-0.3c-2.4-0.3-4.8-0.3-7.2-0.8
		c-1.8-0.2-3.7-0.3-5.4-1.4c-0.9-0.5-1.7-1.5-2.5-2.2c-1-0.9-1.8-2.1-2.6-3.4c0.1,0.2,0.3,0.4,0.4,0.6c-0.8-1.1-1.5-2.3-2.2-3.5
		c-1.3-1.8-2.6-3.5-4-5.1c-0.2-0.2-0.5-0.4-0.7-0.6c-2.1-1.5-4.2-2.6-6.4-3.7c-2.1-1.1-4.2-2.1-6.3-3.1c-3.6-1.6-7.1-3.1-10.8-3.8
		c-2.6-0.4-5.2-0.4-7.8-0.2c0.2,0,0.4,0,0.6-0.1c-0.2,0-0.5,0-0.7,0.1c-0.2,0-0.5,0.1-0.7,0.1c-0.5,0.1-1,0.1-1.4,0.1c0,0,0,0,0.1,0
		c-1.1,0.1-2.1,0.1-3.2,0.1c-1.1,0-2.2,0.1-3.3-0.2c-0.1,0-0.2,0-0.3,0c-0.4,0-0.7-0.1-1.1-0.1c-0.4,0-0.9,0.1-1.3,0.1
		c-0.3,0-0.6,0.1-0.9,0.1c-0.2,0-0.4,0-0.5,0.1c-0.5,0-0.9,0.1-1.4,0.1c0,0,0.1,0,0.1,0c-0.3,0-0.6,0.1-0.9,0.1c-0.2,0-0.3,0-0.5,0
		c-0.2,0-0.4,0-0.5,0c-0.1,0-0.3,0-0.4,0c-0.3,0-0.7,0.1-1,0.1c-0.1,0-0.3,0-0.4,0c-0.4,0.5-0.9,0.8-1.4,1c0,0,0.1,0,0.1,0
		c-0.1,0-0.1,0.1-0.2,0.1c0,0,0,0,0,0c0,0-0.1,0-0.1,0c0,0,0,0,0,0c0,0,0,0,0,0c0,0,0,0,0,0c0,0,0,0,0,0c0,0,0,0,0,0
		c-0.3,0.1-0.5,0.2-0.8,0.2c-0.4,0-0.8,0-1.2,0c-1,0.2-2,0-2.9-0.3c-0.5,0.1-0.9,0.2-1.4,0.3c-0.8,0.2-1.5-0.2-2.1-1.1
		c-0.8-0.2-1.6-0.3-2.4-0.5c-2-0.2-4-0.3-6-0.6c-2.1-0.3-4.3-0.7-6.4-1.1c0,0,0,0,0,0c-0.1,0-0.2,0-0.3-0.1c0,0,0.1,0,0.1,0
		c-2.5-0.4-5-0.6-7.5-0.5c-1.3,0.2-2.5,0.3-3.8,0.4c-1.8,0.2-3.5,0.7-5.2,1c-1.1,0.4-2.1,0.8-3.2,1.3c-1.1,0.6-2.2,1.2-3.2,1.9
		c0,0,0.1,0,0.1-0.1c-1.3,0.9-2.5,1.8-3.8,2.8c-1.6,1.3-3.1,2.7-4.7,4.1c-1.1,1.1-2.2,2.1-3.3,3.1c-0.9,1-1.8,2.1-2.8,3
		c-0.5,0.6-0.9,1.3-1.3,2c-0.5,0.9-1,1.9-1.5,2.9c-0.4,1-0.9,1.9-1.3,2.9c-1.1,2.5-2.1,5-3.1,7.7c-0.3,0.8-0.5,1.5-0.7,2.3
		c-0.2,0.8-0.4,1.5-0.5,2.3c-0.1,0.5-0.2,1.1-0.2,1.7c0,0.1,0,0.2,0,0.3c0,0.2,0,0.4,0,0.6c0,0,0,0.1,0,0.1c0.2,1.6,0.4,3.1,0.4,4.8
		c0,1.6,0,3.2-0.2,4.7c-0.1,1.9-0.2,3.6-0.6,5.4c-0.2,1.1-0.3,2.3-0.5,3.4c-0.3,1.4-0.6,2.8-0.9,4.2c-1,5.6-2.2,10.9-3.4,16.2
		c-1.4,6-2.8,12.1-4,18.3c-0.3,1.6-0.5,3.2-0.8,4.9c-0.2,1.5-0.3,3-0.6,4.5c-0.1,0.7-0.1,1.3-0.2,2c0,0.1,0,0.2,0,0.3
		c0,0.4,0,0.8,0.1,1.2c0-0.2,0-0.4-0.1-0.6c0-0.1,0-0.2,0-0.3c0,0.1,0,0.1,0,0.2c0-0.1,0-0.2,0-0.3c0,0.1,0,0.3,0,0.4
		c0,0.2,0,0.4,0,0.5c0-0.1,0-0.3,0-0.4c0.1,0.7,0.2,1.3,0.3,2c0-0.3-0.1-0.6-0.1-0.9c0.1,0.8,0.3,1.7,0.5,2.5
		c-0.1-0.3-0.1-0.5-0.2-0.8c0.1,0.4,0.2,0.8,0.3,1.2c0.2,0.5,0.3,0.9,0.5,1.4c0.4,0.8,0.8,1.6,1.1,2.4c0.4,0.6,0.7,1.2,1.1,1.7
		c0,0,0-0.1-0.1-0.1c0.3,0.4,0.5,0.7,0.8,1c0,0,0,0-0.1-0.1c0,0,0.1,0.1,0.1,0.1c0.1,0.1,0.1,0.2,0.2,0.2c0,0-0.1-0.1-0.1-0.1
		c1,1,2,2,3,2.9c0,0,0,0,0,0c1.1,0.8,2.1,1.5,3.2,2.1c0.5,0.1,1,0.3,1.5,0.4c0.3,0,0.6,0,0.9,0c2.3-0.3,4.6-0.8,6.8-1.3
		c1.9-0.7,3.9-1.5,5.8-2.1c1.1-0.4,2.3-0.9,3.4-1.2c1.2-0.5,2.4-1,3.5-1.4c0,0,0,0-0.1,0c2.4-1.1,4.8-2,7.2-2.4c2.6-0.4,5.3-1,8-1
		c2.9,0,5.8,1,8.6,2.6c2.5,1.4,4.9,3.5,7.4,5.4c2.6,1.8,5.4,3.2,8.1,4.6c-0.2-0.1-0.3-0.2-0.5-0.2c2.2,1,4.3,1.6,6.5,2.5
		c0.9,0.4,1.9,0.4,2.8,0.7c1.1,0.4,2.2,0.6,3.2,0.8c0,0,0,0,0,0C261.7,188.2,264.5,188.5,267.4,188.6z M291.2,206.6
		c-0.7-0.1-1.4-0.2-2-0.3c-0.7-0.1-1.4-0.4-2.2-0.7c-1.4-0.5-2.7-1.2-4-2c-0.7-0.2-1.3-0.3-2-0.5c-0.7-0.2-1.5-0.7-2.2-1.1
		c-1.3-0.3-2.6-0.7-3.9-1.3c-2-0.4-4-0.9-6-1.3c0.1,0,0.2,0,0.4,0.1c-4.2-0.7-8.3-1-12.5-0.8c-0.7,0.1-1.5,0.3-2.2,0.3
		c-1.2-0.1-2.4-0.1-3.6,0c-1.2,0.1-2.4-0.2-3.6-0.2c-1.2,0-2.5-0.1-3.7-0.1c-2.3-0.1-4.6-1-6.8-1.7c-1.9-0.6-3.8-1.3-5.6-2.3
		c-0.9-0.4-1.9-0.9-2.8-1.3c-1.2-0.5-2.3-0.9-3.5-1.3c-1-0.3-2-0.5-3-0.7c-1.3-0.1-2.5,0-3.8,0.1c-1.9,0.2-3.8,0.4-5.7,0.6
		c-1.1,0.1-2.1,0.2-3.2,0.3c-0.6,0.1-1.2,0.3-1.8,0.5c-0.6,0.2-1.2,0.2-1.9,0.3c-1.3,0.2-2.5,0.6-3.8,0.8c-1.5,0.3-2.9,0.5-4.4,0.6
		c-1.3,0.1-2.7-0.1-4-0.1c-1.3-0.1-2.7-0.3-4-0.6c-1.3-0.3-2.5-1-3.7-1.8c-1.3-0.8-2.7-1.8-4-2.9c-2.5-2.1-5-4.4-7.3-7.3
		c-2.3-2.8-4.6-6.1-6.4-10.4c-1.6-4-2.6-9-2.6-14.2c0-2.4,0.3-4.8,0.5-7.2c0.2-3.1,0.7-6,1.3-8.9c-0.1,0.5-0.2,0.9-0.3,1.4
		c1.1-6.4,2.4-12.6,4.4-18.2c0.9-2.7,1.9-5.2,2.9-7.7c0.8-2,1.7-3.9,2.5-5.9c0.2-0.7,0.3-1.5,0.5-2.2c0-0.3,0.1-0.5,0.1-0.8
		c0-0.1,0-0.1,0-0.2c0-0.1,0-0.1,0-0.2c0-0.3,0-0.6,0-0.9c-0.4-0.9-0.7-1.9-1-2.9c-0.4-1.4-0.6-3-0.7-4.6c-0.2-2.7-0.2-5.6,0.1-8.3
		c0.7-6.6,2.5-12.2,4.6-17.2c1-2.3,2-4.5,3-6.6c1.4-3,3-5.3,4.9-7.1c0.9-0.9,1.8-1.5,2.7-2.3c0.7-0.5,1.4-1.3,2.1-1.8
		c0.8-0.6,1.5-1.1,2.3-1.7c0.8-0.7,1.7-1.2,2.6-1.7c1.1-0.7,2.1-1.5,3.2-2.1c1.5-0.8,2.9-1.5,4.4-2.1c2.1-0.9,4.3-1.7,6.4-2.5
		c2.7-0.9,5.4-1.7,8.2-2.5c2.4-0.7,4.9-1.1,7.3-1.6c4.6-1,9.3-1.5,13.9-0.8c1.2,0.2,2.4,0.3,3.6,0.4c0.8,0.1,1.6,0.1,2.4,0.1
		c0.6,0,1.2,0,1.8,0c0.5,0,1,0,1.6,0c1.3,0,2.7-0.1,4,0.7c0,0,0.1,0,0.1,0c0.3,0,0.6,0.1,0.9,0.1c-0.2,0-0.4-0.1-0.6-0.1
		c0,0,0,0,0,0c0.6,0,1.1,0.2,1.6,0.7c0.1,0,0.2-0.1,0.3-0.1c2.5-0.9,5.1-1.6,7.6-2.1c-0.2,0.1-0.4,0.1-0.5,0.2
		c0.8-0.3,1.5-0.5,2.3-0.6c-0.2,0.1-0.4,0.1-0.6,0.2c1.2-0.5,2.4-0.5,3.6-0.7c1.2-0.2,2.5-0.5,3.7-0.7c3.5-0.6,7-1.4,10.5-0.8
		c4.9,0.8,9.8,3.1,14.5,5.5c2.8,1.3,5.6,2.6,8.2,4.8c2.3,2,4.4,4.5,6.4,7.5c1.1,1.7,2.2,3.4,3.4,5.1c0.4,0.5,0.8,1,1.2,1.5
		c0.3,0.3,0.6,0.6,0.9,0.9c0.2,0.1,0.3,0.2,0.5,0.3c0.1,0.1,0.2,0.1,0.3,0.2c1.5,0.1,3,0.3,4.5,0.4c1.8,0.1,3.5,0,5.3,0.2
		c3.4,0.3,6.9,0.9,10.3,1.7c2.1,0.5,4.1,1.2,6.2,2c1.7,0.6,3.3,1.4,4.9,2.3c2.1,1.3,4.1,3.4,5.9,5.7c1.8,2.3,3.4,5,4.9,7.9
		c0.5,0.9,1.1,1.8,1.5,2.8c0.6,1.6,1.3,3.1,2,4.6c1.3,2.9,2.3,6.1,3.1,9.6c0.7,3.1,1.3,6.6,1.5,10c0.1,2,0.2,4,0.2,6
		c0,1.8-0.2,3.6-0.4,5.3c-0.2,1.7-0.4,3.3-0.7,4.9c-0.3,1.4-0.5,2.7-0.8,4.1c-0.2,1.2-0.6,2.3-0.9,3.4c-1,3.7-2,7.2-3.4,10.3
		c-1.6,3.6-3.5,6.5-5.5,9.3c-2,2.8-4.2,5.3-6.3,7.8c-2,2.4-4,5-6,7.5c-1.1,1.5-2.2,3-3.2,4.6c-0.2,0.3-0.4,0.6-0.5,1
		c-1.1,2.5-2.3,5-3.6,7.2c-1.7,2.8-3.6,4.9-5.5,7.1c-2.2,2.5-4.6,4-7,5.6c-1.2,0.8-2.5,1.6-3.7,2.4c-1.5,1-3.1,1.7-4.7,2.4
		c-2.8,1.4-5.6,2.5-8.4,3.7c-2.9,1.3-6,2.5-9,2.9c-1.8,0.3-3.6,0.5-5.4,0.5C293.2,206.8,292.2,206.8,291.2,206.6z"/>
	<path class="st0" d="M255.6,58.6c0.1,0,0.1-0.1,0.2-0.1c-0.1,0.1-0.3,0.1-0.4,0.2C255.5,58.7,255.6,58.7,255.6,58.6z"/>
	<path class="st0" d="M238.4,129.6c0.1,0,0.2,0,0.3,0.1c-1.8-0.3-3.6-0.7-5.4-1.4c-1.2-0.5-2.6-1-3.7-2.5c0.1,0.1,0.1,0.1,0.2,0.2
		c-0.4-0.4-0.7-0.9-1-1.4c0,0,0,0,0,0.1c-0.6-1.1-1.2-2.4-1.5-4c0,0.1,0,0.2,0.1,0.3c-0.6-2.9-0.5-6.3,0.6-8.8
		c1-2.6,2.9-3.9,4.4-2.8c0.1,0.1,0.2,0.1,0.2,0.2c0.1,0,0.1,0.1,0.2,0.1c0.3,0.1,0.6,0.2,0.8,0.3c-0.1,0-0.1-0.1-0.2-0.1
		c2.9,1.3,5.9,2.2,8.8,2.9c0.8,0.1,1.6,0.1,2.5,0.1c0.4-0.1,0.7-0.1,1.1-0.2c1.8-0.7,3.6-1.5,5.4-2.7c1.3-0.9,2.6-2,3.9-2.7
		c1.6-0.9,3.1-1.9,4.6-2.8c0.7-0.4,1.4-0.5,2.1-0.6c1-0.2,2-0.4,2.9-0.7c1.5-0.4,3-0.8,4.5-0.9c0.8-0.1,1.6-0.2,2.4-0.2
		c1-0.1,1.9,0.1,2.9,0.1c2.3,0.2,4.6,0.7,6.9,1.7c-0.1,0-0.1-0.1-0.2-0.1c0.7,0.3,1.5,0.7,2.2,1c0.5,0.3,1.1,0.5,1.6,0.8
		c-0.1-0.1-0.3-0.1-0.4-0.2c2.6,1.1,5,2.6,7.5,4.4c1.6,1.2,3.3,2.3,4.8,4c1.6,1.7,2.5,5.5,1.7,9c-0.8,3.8-3.1,5-4.8,3
		c-0.3-0.3-0.6-0.7-0.9-1c-0.9-0.9-1.9-1.8-2.8-2.6c0,0,0.1,0,0.1,0.1c0,0-0.1-0.1-0.1-0.1c0,0-0.1-0.1-0.1-0.1c0,0,0,0,0.1,0
		c0,0-0.1,0-0.1-0.1c0,0,0,0,0,0c-3.3-2.4-6.6-4.5-10-6.2c-0.7-0.2-1.4-0.4-2.1-0.5c-1.4-0.2-2.7-0.3-4.1-0.3
		c-1.4,0.3-2.7,0.4-4.1,0.7c-1.3,0.5-2.7,0.9-4,1.4c-0.6,0.3-1.2,0.5-1.8,0.9c-0.5,0.4-0.9,0.8-1.4,1.2c0.1-0.1,0.2-0.2,0.3-0.3
		c-1.2,1.1-2.5,2-3.7,2.9c-1.3,0.9-2.5,2-3.8,2.9h0c-2.8,1.9-5.6,3.5-8.5,4.6c-1.5,0.6-3,0.8-4.5,0.8
		C241.1,130.1,239.7,129.9,238.4,129.6z"/>
	<path class="st0" d="M260.2,107.4c-0.7,0.9-1.4,2-2,3c-0.9,1.6-1.8,3.4-2.7,5.2c0,0.1-0.1,0.2-0.1,0.2c-0.4,1-0.9,2.1-1.3,3.2
		c-0.2,0.5-0.3,1-0.5,1.5c0.3,0.4,0.6,0.8,0.9,1.3c1.7,2.4,3.4,4.9,5.2,7c0.7,0.7,1.3,1.3,2,1.9c0.8,0.6,1.7,1,2.5,1.5
		c1.7,0.7,3.4,1.1,5.2,1.5c1.7,0.3,3.5,0.4,5.3,0.3c1.1-0.1,2.2-0.4,3.2-0.8c0.8-0.3,1.6-0.7,2.4-1.2c0.7-0.5,1.4-1.1,2.1-1.7
		c0.8-0.8,1.6-1.7,2.4-2.7c0.1-0.1,0.1-0.2,0.2-0.3c0.7-1,1.4-2,2.2-2.9c0.2-0.3,0.4-0.5,0.6-0.7c-0.1,0.2-0.3,0.3-0.4,0.5
		c0.7-1,1.4-1.9,2.2-2.9c0,0.1-0.1,0.1-0.1,0.2c0.1-0.1,0.2-0.3,0.3-0.4c0.1-0.2,0.3-0.3,0.4-0.5c0.8-1,1.5-2.1,2.2-3.3
		c0.1-0.2,0.2-0.4,0.4-0.6c-0.1-0.3-0.3-0.5-0.4-0.8c0,0.1,0.1,0.1,0.1,0.2c-0.6-1.1-1.2-2.1-1.8-3.1c-0.6-0.6-1.3-1.1-1.9-1.8
		c-0.2-0.2-0.5-0.5-0.7-0.7c-0.9-0.9-1.9-1.8-2.9-2.6c-0.3-0.1-0.5-0.1-0.8-0.3c-0.6-0.4-1.1-0.8-1.7-1.1c-0.7-0.2-1.4-0.4-2.1-0.5
		c-1.1-0.3-2.2-0.8-3.3-1.3c-1.5-0.6-3-1.1-4.5-1.4c-1.7-0.2-3.4-0.4-5.1-0.3c-0.9,0.1-1.8,0.3-2.7,0.6c-0.4,0.2-0.8,0.3-1.2,0.5
		c-0.6,0.4-1.2,0.9-1.8,1.5c-0.4,0.4-0.7,0.8-1.1,1.1c0.1-0.1,0.1-0.1,0.2-0.2C260.7,106.7,260.4,107.1,260.2,107.4z M267.6,150
		c-2.6-0.5-5.1-1.4-7.6-2.8c-2.6-1.4-5-3.6-7.3-6.3c-1.4-1.7-2.8-3.7-4.2-5.6c-1.1-1.5-2.2-2.8-3-5c-1-2.9-1.1-6.7-0.2-9.8
		c0,0,0,0,0-0.1c-0.6-2.4-0.6-5.2,0-7.6c0.7-2.8,1.5-5.5,2.5-8c0,0,0,0.1,0,0.1c0.7-2,1.5-3.9,2.4-5.7c-0.1,0.3-0.3,0.6-0.4,0.9
		c3.6-8,8-14.9,13.3-17.3c3.2-1.4,6.6-1.1,9.8-0.5c2,0.4,4,1.4,6,2.3c2.5,1.1,4.8,2.6,6.9,5.4c0.5,0.5,1,1,1.4,1.5
		c0.4,0.5,0.8,1,1.2,1.7c1,1.3,1.9,2.5,2.9,4c0.4,0.6,0.9,1.2,1.3,1.9c0,0,0,0,0,0c0,0,0,0,0,0.1c0,0,0,0,0,0c0,0,0,0,0,0
		c0.7,1.1,1.3,2.3,1.9,3.8c1.3,2.6,2.6,5.2,3.8,8c1.7,3.3,1.6,8.5,0.5,12.4c-1,3.5-2.5,6-4,8.4c0.1-0.2,0.2-0.4,0.4-0.6
		c-0.3,0.5-0.6,1-0.9,1.5c0.1-0.2,0.2-0.4,0.4-0.6c-0.2,0.3-0.3,0.6-0.5,0.9c0,0,0,0.1-0.1,0.1c0,0.1-0.1,0.1-0.1,0.2c0,0,0,0,0,0v0
		c-0.1,0.2-0.2,0.4-0.3,0.6c-0.1,0.1-0.2,0.3-0.2,0.4c-0.2,0.3-0.3,0.6-0.5,0.8c-0.2,0.4-0.5,0.9-0.7,1.3c0,0,0,0,0-0.1
		c-1.7,3-3.4,5.6-5.3,7.9c-3.2,3.8-6.8,5.7-10.5,6.3c-1,0.2-1.9,0.2-2.8,0.2C271.5,150.7,269.6,150.4,267.6,150z"/>
	<path class="st0" d="M116.8,196.6c-0.8-1.4-1.7-2.8-2.4-4.5c-1.2-2.7-2.1-5.9-2.9-9.2c-0.8-3.7-1.2-7.8-1.3-11.8
		c-0.1-4.2,0-8.7,0.7-12.7c0,0,0,0.1,0,0.1c0.2-1.3,0.4-2.5,0.6-3.8c0.5-2.6,1-5.2,1.7-7.5c-0.1,0.3-0.2,0.6-0.2,1
		c1.1-4.2,2.3-8.2,3.6-12c0,0,0,0,0,0c0,0,0,0,0,0c0,0,0,0,0,0c0,0,0,0,0,0c0,0,0,0,0,0c0,0,0,0,0,0c1.6-4.5,3.2-8.9,5.3-12.4
		c4.1-7.5,8.3-15.1,13.4-19.8c-0.1,0.1-0.2,0.2-0.4,0.3c1.8-1.8,3.6-3.2,5.5-4.4c-0.1,0-0.1,0.1-0.2,0.1c2.7-1.8,5.4-3.1,8.1-4.7
		c2.3-1.5,4.7-2.7,7.1-3.5c1.4-0.5,2.8-1,4.2-1.4c1.3-0.3,2.6-0.5,3.9-0.9c2.4-1,4.8-2.2,7.2-3.7c1.2-0.8,2.3-1.7,3.4-2.7
		c1-1,1.9-2,2.9-3.1c1.1-1.1,2.1-1.6,3.3-1.4c1,0.2,2,1.4,2.6,3c0.5,1.3,0.9,2.9,1,4.5c0.1,2.3-0.2,5.3-1.2,6.9
		c-0.8,1.8-1.8,3.1-3,4.3c-3.2,3.4-6.8,5.4-10.2,7c-1.6,0.7-3.2,1.4-4.9,1.7c-1.6,0.3-3.2,0.6-4.8,1.1c-3.7,1-7.4,1.8-11.1,3.1
		c-2.2,1-4.3,2.1-6.5,3c-1.6,0.7-3.2,1.8-4.9,2.7c-0.5,0.4-1,0.8-1.4,1.1c-0.5,0.5-1,1.1-1.5,1.7c-0.5,0.7-1,1.4-1.5,2.1
		c-2.1,3.7-4.1,7.5-6,11.5c-0.1,0.2-0.2,0.3-0.2,0.5c-0.6,1.8-1.2,3.5-1.8,5.2c0,0,0-0.1,0-0.1c0,0.1,0,0.1-0.1,0.2c0,0,0,0,0,0.1
		c0,0,0,0,0,0c0,0.1-0.1,0.2-0.1,0.3c0,0,0,0.1,0,0.1c0,0,0-0.1,0-0.1c0,0.1,0,0.1-0.1,0.2c0,0,0,0.1,0,0.1c0,0,0-0.1,0-0.1
		c-0.9,2.8-1.8,5.6-2.7,8.6c-0.6,2.2-1.1,4.4-1.5,6.7c-0.2,1.8-0.5,3.6-0.8,5.3c-0.1,0.8-0.1,1.6-0.2,2.4c0,0.8,0,1.5-0.1,2.3
		c0,0.8,0,1.5,0,2.3c0,0.9,0.1,1.7,0.1,2.6c0.1,0.9,0.2,1.9,0.3,2.8c0.2,0.9,0.3,1.7,0.5,2.5c0.1,0.5,0.3,1,0.4,1.5
		c0.1,0.3,0.2,0.7,0.4,1c0.2,0.4,0.4,0.9,0.6,1.3c0.5,0.8,1,1.6,1.4,2.3c2.2,3.5,2.5,10.4,0.7,14.7c-1,2.5-2.5,3.8-4.1,3.8
		C118.8,198.9,117.7,198.1,116.8,196.6z"/>
	<path class="st0" d="M128.4,187.7c0.2,0.2,0.3,0.3,0.5,0.5c-0.7-0.7-1.2-1.5-1.8-2.7c0.1,0.3,0.3,0.5,0.4,0.8
		c-2.1-3.9-3-10-3.5-15.6c-0.6-7.2,0.3-15.1,2-21.4c-0.1,0.3-0.2,0.7-0.3,1c0.8-3.1,1.6-6.2,2.6-9c1.2-3.5,2.7-6.2,4.3-8.9
		c1.8-3.1,3.8-5.7,5.8-8c1.6-2,3.3-3.7,5.1-4.9c0,0,0,0,0,0c0.6-0.5,1.2-0.9,1.8-1.3c0,0,0,0-0.1,0c1.5-1,3.1-1.9,4.6-2.5
		c1.4-0.6,2.9-1.3,4.3-1.1c1.3-0.2,2.6-0.6,3.9-0.6c2.3-0.4,4.7-0.7,7-0.9c0,0,0,0,0,0c0.1,0,0.2,0,0.3,0c0,0,0.1,0,0.1,0
		c0.3,0,0.7-0.1,1-0.1c0,0-0.1,0-0.1,0c0.3,0,0.6-0.1,0.9-0.1c0,0,0,0,0,0c0.1,0,0.1,0,0.2,0c0,0,0.1,0,0.1,0c0.1,0,0.3,0,0.4-0.1
		c0,0,0,0,0,0c0,0,0.1,0,0.1,0c0.1,0,0.1,0,0.2,0c0,0,0,0,0,0c0,0,0.1,0,0.1,0c0,0,0,0,0,0c0,0,0,0,0,0c0,0,0.1,0,0.1,0c0,0,0,0,0,0
		c0.1,0,0.2,0,0.3,0c0,0,0,0,0,0c1.3-0.1,2.6-0.3,3.9-0.7c0.6-0.2,1.2-0.5,1.8-0.9c1.6-1,3.4,1.4,3.8,4.6c0.4,3.4-0.6,6.7-2.3,7.6
		c-2.1,1.2-4.3,1.5-6.5,1.8c-3.6,0.4-7.1,0.9-10.6,1.8c-1,0.4-2,0.7-3,1c0,0,0.1,0,0.1-0.1c-0.1,0-0.1,0-0.2,0.1
		c-0.1,0-0.2,0.1-0.3,0.1c0.1,0,0.1,0,0.2-0.1c-0.2,0.1-0.4,0.2-0.6,0.3c-0.7,0.5-1.4,0.8-2.1,1.2c-0.7,0.4-1.4,0.8-2.2,1.2
		c-1.4,1-2.8,2-4.2,3.3c-1.4,1.6-2.8,3.2-4.2,4.9c-1.7,2.3-3.4,4.8-5,7.4c0.1-0.2,0.3-0.5,0.4-0.7c-0.7,1.1-1.3,2.3-2,3.5
		c-0.1,0.2-0.1,0.4-0.2,0.6c-0.5,1.5-0.9,3-1.3,4.5c-0.3,1.1-0.6,2.3-0.8,3.4c-0.2,1.1-0.3,2.2-0.4,3.3c-0.1,1.1-0.2,2.3-0.3,3.4
		c0,0.6,0,1.1,0,1.7c0,0.5,0,1,0.1,1.5c0.1,1,0.2,2,0.4,3c0.2,1.1,0.4,2.2,0.6,3.3c0,0.1,0.1,0.3,0.1,0.4c0.2,0.3,0.4,0.6,0.6,1
		c0.8,1.6,1.2,3.8,1.2,6.1c0,2.4-0.6,5.3-1.7,6.6c0.5-0.9,0.5-0.9,0,0c-0.1,0.2-0.3,0.4-0.5,0.6c-0.5,0.5-1,0.9-1.6,1
		c0.1,0,0.1,0,0.2-0.1c-0.2,0.1-0.5,0.1-0.7,0.1C130.3,189.5,129.3,188.8,128.4,187.7z"/>
	<path class="st0" d="M127.4,245.5c-1.4-0.1-2.8,0.1-4.2-0.2c-1.2-0.2-2.3-0.4-3.5-0.6c-0.6-0.1-1.2-0.5-1.8-0.8
		c-0.7-0.3-1.3-0.7-2-1.1c-2.7-1.7-5.3-4.2-7.7-7.1c-4.5-5.5-8.9-11.3-12.9-18.2c-1.9-3.3-3.7-6.8-5.2-10.9
		c-0.7-1.9-1.1-4.3-1.4-6.6c-0.4-3.3-0.5-6.8-0.6-10.2c-0.1-1.8-0.1-3.5-0.1-5.3c0-2.3,0.2-4.5,0.4-6.8c0.3-3.7,0.7-7.4,1.3-10.9
		c0.1-1.3,0.3-2.5,0.6-3.7c0.2-1,0.5-2.1,0.8-3.1c0.6-3,1.6-5.6,2.7-8.2c0.7-2,1.5-3.7,2.4-5.4c-0.2,0.3-0.3,0.7-0.5,1
		c0.8-1.7,1.6-3.2,2.5-4.5c1-1.5,2.1-2.7,3.1-3.8c1.8-2,3.8-3.6,5.8-4.9c2.5-1.6,5.2-2.6,7.8-3.1c3-0.5,5.8,3.7,6.1,9.8
		c0.3,6-1.9,11.8-4.8,12.4c-0.9,0.2-1.8,0.4-2.7,0.8c-1.2,0.5-2.3,1.1-3.5,1.8c-1,0.7-1.9,1.4-2.8,2.2c-1.2,1.2-2.4,2.6-3.6,3.9
		c-0.2,0.3-0.5,0.6-0.7,0.8c-0.1,0.1-0.2,0.3-0.2,0.4c-0.5,0.8-0.9,1.7-1.4,2.5c-0.7,1.5-1.3,3.1-2,4.6c-0.4,1.2-0.8,2.5-1.2,3.7
		c-0.2,0.7-0.3,1.4-0.5,2.2c-0.4,2.1-0.7,4.2-0.9,6.4c-0.1,1.1-0.2,2.2-0.3,3.3c0,0.8,0,1.6,0,2.5c0.1,1.6,0.2,3.2,0.3,4.9
		c0,0.2,0,0.4,0.1,0.6c0,0,0,0,0,0c0.6,1.3,1.2,2.6,1.8,3.8c1.4,2.6,2.9,5,4.5,7.3c2.9,4.2,5.9,8.1,9,11.6c1.6,1.6,3.3,3.1,5,4.5
		c2.1,1.5,4.2,2.9,6.4,4.2c1.6,0.5,3.2,1.2,4.9,1.5c1.7,0.3,3.3,0.9,5,1.3c0.9,0.1,1.9,0.1,2.8,0.1c1.7-0.3,3.4-0.9,5-1.3
		c1.3-0.5,2.7-1,4-1.6c1.7-0.8,3.3-1.7,5-2.6c0.4-0.3,0.9-0.6,1.3-0.8c-0.1,0.1-0.3,0.2-0.4,0.2c1.9-1.3,3.8-2.9,5.7-4.6
		c1.1-1.1,2.2-2.2,3.4-3.2c1.1-1.1,2.2-2.1,3.3-3.1c2.2-2.2,4.3-4.5,6.5-6.5c-0.2,0.1-0.3,0.3-0.5,0.4c0.4-0.4,0.7-0.8,1.1-1.3
		c0.7-1,1.5-2.1,2.2-3.2c0.5-1,1-2,1.5-2.9c-0.1,0.3-0.2,0.5-0.4,0.8c0.9-2.1,1.8-4.1,2.6-6.3c0.3-0.9,0.5-1.7,0.8-2.6
		c0.5-1.9,0.8-3.9,1.4-5.8c0.2-0.8,0.5-1.5,0.8-2.1c0.2-0.5,0.4-1,0.6-1.5c0,0-0.1,0.1-0.1,0.1c0.2-0.3,0.4-0.6,0.6-0.9
		c0.5-0.7,1.1-1.2,1.8-1.4c0,0,0,0,0,0c1.2-0.4,2.5,0.4,3.6,2.5c0.6,1.1,0.9,2.5,1,4c0.1,0.9,0.1,1.7,0.1,2.6c0,0.2,0,0.4,0,0.7
		c0,0,0-0.1,0-0.1c0,0.5-0.1,1.1-0.2,1.6c0,0,0,0.1,0,0.1c0,0,0-0.1,0-0.1c0,0,0,0.1,0,0.1c-0.2,2.3-0.6,4.4-1.2,6.5
		c-1.1,4.5-2.7,8.2-4.4,11.8c-1.6,3.3-3.3,6.2-5.2,8.8c-2.2,3.1-4.7,5.4-7.2,7.2c-1.2,0.9-2.4,1.7-3.6,2.7c-1.1,0.9-2.3,1.6-3.4,2.5
		c-1.1,0.8-2.2,1.4-3.3,2c-1.4,0.8-2.9,1.6-4.3,2.5c-2.5,1.5-5,2.8-7.5,4.3c-2.5,1.5-5.1,2.8-7.7,3.9c-2.6,1.1-5.1,2.8-7.8,3.5
		c-1.1,0.3-2.2,0.6-3.4,0.6C127.6,245.5,127.5,245.5,127.4,245.5z"/>
	<path class="st0" d="M125.9,267.6c-1.4-0.2-2.9-0.7-4.3-1.2c-1.1-0.4-2.2-1.2-3.3-1.8c-0.4-0.2-0.8-0.3-1.2-0.5
		c-0.4-0.3-0.9-0.6-1.4-0.8c0.2,0.1,0.4,0.2,0.6,0.3c-2.3-1.1-4.4-2.6-6.6-4.2c0,0,0,0,0,0c0,0,0,0-0.1,0c-0.1-0.1-0.2-0.1-0.3-0.2
		c0,0,0,0,0,0c-0.1,0-0.1-0.1-0.2-0.1c0,0,0,0,0,0c-1.3-0.9-2.6-1.9-3.9-2.9c-0.8-0.7-1.6-1.3-2.4-2c-0.9-0.8-1.8-1.7-2.8-2.5
		c-0.8-0.7-1.5-1.8-2.3-2.6c-1-1.1-1.9-2.6-2.8-3.9c-2-2.9-3.9-5.9-5.9-8.8c-1.7-2.4-3.4-4.9-4.8-8c-1.4-3-2.6-6.4-3.8-9.8
		c-2-5.7-3.6-12.1-3.6-19.2c-0.3-4.6-0.4-9.2-0.1-13.8c0,0,0,0.1,0,0.2c0-1.3,0.1-2.6,0.3-3.9c0.2-1.7,0.5-3.3,0.8-4.9
		c0.9-4.4,1.9-8.6,3.2-12.6c2-6.6,4.2-13.1,6.7-19.1c1.4-3.4,2.8-6.8,4.3-10c0.7-1.5,1.5-3,2.4-4.1c0.9-1.2,1.8-2.3,2.7-3.4
		c1.8-2.3,3.7-4.4,5.6-6.5c1.5-1.7,3.2-2.9,4.8-4c0,0,0,0,0,0c0,0,0.1,0,0.1-0.1c0.1-0.1,0.2-0.1,0.3-0.2c0,0,0,0,0,0
		c3.7-2.3,7.5-3.3,11.3-4.2c2.9-0.7,6.6-2.2,9.1,1.5c0,0.1,0.1,0.1,0.1,0.2c0.2,0.2,0.3,0.4,0.5,0.7c-0.1-0.1-0.1-0.2-0.2-0.3
		c0.2,0.3,0.4,0.6,0.6,1c0.6,1.3,1,3,1.1,4.8c0.1,1.1,0,2.3-0.2,3.4c-0.2,1.1-0.5,1.9-0.8,2.9c-0.4,1.7-1.5,2.5-2.4,2.9
		c0,0,0.1,0,0.1,0c-0.1,0-0.2,0.1-0.2,0.1c-0.1,0-0.2,0.1-0.3,0.1c0.1,0,0.1-0.1,0.2-0.1c-0.3,0.1-0.6,0.1-0.9,0.1c0,0-0.1,0-0.1,0
		c0.1,0,0.2,0,0.2,0c-0.1,0-0.2,0-0.3,0c-0.2,0-0.4-0.1-0.5-0.1c-0.2,0-0.3-0.1-0.4-0.1c-0.5,0-1,0-1.5,0c-0.6,0-1.2-0.1-1.8,0
		c-2.7,0.3-5.5,1-8.2,1.7c-1.4,0.5-2.7,1.2-4.1,2c-0.5,0.4-1,0.8-1.5,1.3c-2.1,2.1-4.2,4.2-6.2,6.5c-1.7,1.9-3.5,3.8-5.2,5.7
		c0.1-0.2,0.3-0.3,0.4-0.5c-0.7,0.9-1.4,1.9-2.1,3c-0.6,1-1.1,2.1-1.7,3.2c-1.4,3.1-2.7,6.2-3.9,9.6c0,0,0,0,0-0.1
		c-1.3,3.8-2.6,7.7-3.7,11.7c-0.3,1.3-0.6,2.6-0.9,3.9c-0.2,1-0.3,2-0.5,2.9c0,0.2,0,0.4,0,0.6c0,1.5,0.1,2.9,0.1,4.4
		c0.1,1,0.2,2.1,0.2,3.1c0.3,2.2,0.5,4.4,0.8,6.5c0.1,0.2,0.1,0.4,0.2,0.6c2.3,6.6,4.6,13.1,7,19.3c0.8,1.9,1.7,3.8,2.6,5.6
		c2.9,4.9,5.9,9.4,8.8,14.2c0.4,0.6,0.9,1.3,1.3,1.9c0.5,0.6,0.9,1.1,1.4,1.7c1.3,1.2,2.6,2.4,4,3.5c0.7,0.4,1.3,0.9,2,1.2
		c1.8,0.6,3.6,1,5.3,1.6c0.6,0.1,1.2,0.2,1.8,0.3c0.9,0.1,1.8,0.1,2.7,0.1c0.6,0,1.3,0,1.9,0c1.7,0.1,3.4,0.3,5.2,0.4
		c2.8,0.2,5.6,0.2,8.4,0.1c0.9-0.1,1.7-0.3,2.6-0.4c1-0.2,2.1-0.1,3.1-0.1c1.5-0.4,3.1-0.9,4.6-1.4c-0.2,0.1-0.4,0.2-0.6,0.2
		c1-0.4,2-0.8,3-1.1c0.3-0.1,0.6-0.2,0.9-0.3c0.6-0.3,1.3-0.7,1.9-0.8c0.8-0.1,1.7-0.1,2.5-0.2c0.2,0,0.4-0.1,0.6-0.1
		c0.5-0.3,1.1-0.5,1.6-0.8c1.7-1.5,3.5-3,5.2-4.5c1.4-1.2,2.7-2.2,4.1-3.5c0.6-0.6,1.1-1.3,1.7-2c0,0-0.1,0.1-0.1,0.2
		c3.2-4.2,6.3-8.6,9.2-13.5c0,0,0,0,0,0.1c1.2-2,2.3-4,3.4-6.1c0.3-0.7,0.6-1.3,0.9-1.9c1.7-3.8,3.3-7.8,4.8-12
		c0.9-2.8,1.8-5.6,2.6-8.5c0,0.1-0.1,0.2-0.1,0.3c0-0.1,0.1-0.2,0.1-0.3c0.9-3.5,2.8-5.3,4.7-3.6c1.9,1.7,2.7,6.8,1.5,10.3
		c-0.2,0.6-0.4,1.3-0.6,1.9c0,0,0,0,0,0c-0.1,0.4-0.3,0.8-0.4,1.2c0-0.1,0-0.1,0.1-0.2c-0.1,0.3-0.2,0.7-0.4,1
		c0.1-0.3,0.2-0.5,0.3-0.7c-2.4,7-5.2,13.6-8.5,19.1c0-0.1,0.1-0.1,0.1-0.2c-0.4,0.7-0.8,1.3-1.2,1.9c-2.7,4.6-5.5,8.8-8.4,12.9
		c-1.6,2.3-3.3,4.6-5,6.8c-1.4,1.8-2.7,3.9-4.2,5.5c0.1-0.1,0.2-0.3,0.3-0.4c-2.6,3.3-5.4,5.6-8.1,8.7c-1,1.3-1.9,2.8-2.9,4.1
		c-1.4,2-3.2,2.8-4.8,3.7c-2.3,1.3-4.6,2.5-7,3.6c-0.9,0.7-1.8,1.4-2.7,1.6c-1.1,0.3-2.1,0.6-3.2,0.9c-1,0.3-1.9,0.6-2.9,0.8
		c-1.2,0.2-2.4,0.2-3.6,0.2C130.4,268.4,128.1,268,125.9,267.6z"/>
	<path class="st0" d="M116.1,195.7c-1.2-2-1.9-5.2-1.6-8.4c0.3-3.1,1.3-5.6,2.7-6.7c0.3-0.3,0.5-0.4,0.8-0.5
		c0.4-0.2,0.9-0.3,1.4-0.2c0.2,0,0.5,0,0.7,0c0.2,0,0.5,0,0.7,0c1.1-0.2,2.3-0.3,3.4-0.7c2.1-1,4.1-2.1,6.2-3.4
		c1.5-1,3.1-2.2,4.6-3.5c1.1-1.1,2.1-2.3,3.2-3.5c0,0,0,0,0,0c0,0,0.1-0.1,0.1-0.1c0,0,0,0,0,0c0,0,0,0,0,0c0-0.1,0.1-0.1,0.1-0.2
		c0.3-0.4,0.6-0.9,0.9-1.4c0.8-1.4,1.6-2.8,2.4-4.3c0.9-1.7,1.9-3.2,2.9-4.7c1-1.6,2.1-3.1,3.1-4.5c0.4-0.5,0.8-1.1,1.3-1.6
		c0.5-0.6,1.1-1.1,1.7-1.6c5.3-5.8,11.2-11.4,17.4-10.2c0,0,0,0,0,0c0.3,0.1,0.5,0.1,0.8,0.2c1.6,0.3,2.8,3.5,2.7,6.6
		c0,3.5-1.5,6.6-3.3,6.5c-0.6,0-1.1-0.1-1.7-0.1c0,0-0.1,0-0.1,0c-0.5,0.1-1,0.2-1.4,0.3c-0.7,0.3-1.3,0.6-1.9,1
		c-1.4,1-2.8,2.2-4.2,3.4c-1.6,1.6-3.1,3.2-4.7,5l0,0c-1,1.9-2.1,3.5-3.2,5.3c-1.7,3-3.4,6-5.1,8.9l0,0c0,0,0,0,0,0
		c0,0,0,0.1-0.1,0.1c0,0,0,0,0-0.1c0,0.1-0.1,0.1-0.1,0.2c-0.1,0.1-0.1,0.2-0.2,0.3c-0.9,1.6-1.8,3.3-2.8,4.7c-1,1.3-2,2.6-3,3.7
		c-2.4,2.7-5,4.7-7.6,6.5c-3.8,2.5-7.6,4.6-11.6,5c-0.2,0-0.4,0-0.6,0C118.5,197.9,117.1,197.5,116.1,195.7z"/>
	<path class="st0" d="M124.7,216.4c-2.4-1-4.7-2.4-7.1-3.9c-2.8-1.8-5.5-4.1-8-6.9c-1.5-1.7-3-3.6-4.4-5.5c-1.7-2.3-3.1-5.5-4.4-8.6
		c-1.1-2.5-2.2-5.2-3.2-7.8c-0.6-1.4-1-2.8-1.5-4.4c-0.3-1.2-0.6-2.5-0.8-3.8c-0.5-3.2-0.7-6.5,0.2-9.5c0.4-1.2,0.8-2.1,1.4-2.8
		c1-1.5,2.3-1.7,3.5-1c0.9,0.5,1.8,1.7,2.2,3.2c0.5,1.6,0.8,3.3,1.2,5c0.1,0.5,0.3,1,0.4,1.5c0.6,1.8,1.3,3.6,2,5.4
		c1.3,3.1,2.6,6.2,4.1,9c0.1,0.2,0.3,0.4,0.4,0.6c1.2,1.8,2.5,3.3,3.9,4.8c1.4,1.4,2.8,2.8,4.3,3.9c2,1.5,4,2.7,6.1,3.7
		c1.2,0.5,2.3,0.8,3.5,1.3c0.5,0.1,0.9,0.1,1.4,0.2c0,0,0,0,0,0c0.2,0,0.4,0.1,0.6,0.1c0.8-0.2,1.5-0.4,2.3-0.7
		c0.9-0.4,1.8-0.8,2.8-1.4c-0.1,0.1-0.3,0.2-0.4,0.3c0.3-0.2,0.6-0.4,0.9-0.5c0.5-0.4,1.1-0.9,1.6-1.4c0,0,0,0,0,0
		c0.9-0.9,1.9-1.9,2.8-3c1.1-1.4,2.1-3,3.1-4.6c1.8-3.1,3.4-6.5,5.2-9.5c-0.1,0.2-0.2,0.3-0.3,0.5c0.4-0.7,0.8-1.3,1.2-1.9
		c1.3-2.3,2.8-4.2,4.3-6c1.4-1.7,2.8-3.1,4.2-4.5c-0.1,0.1-0.3,0.3-0.4,0.4c0.6-0.6,1.3-1.2,1.9-1.8c0.4-0.4,0.8-0.8,1.2-1.1
		c0,0,0,0.1-0.1,0.1c0.3-0.3,0.6-0.5,0.9-0.8c-0.1,0.1-0.3,0.3-0.4,0.4c0.6-0.5,1.1-1,1.7-1.5c0.4-0.4,0.7-0.7,1.1-1
		c0,0,0.1-0.1,0.1-0.1c0,0,0,0,0,0c0.4-0.4,0.8-0.8,1.2-1.2c2-2.1,4.4-0.8,5.5,3.2c1.2,4.2,0.2,9.8-2.1,11.6c-0.3,0.3-0.7,0.5-1,0.7
		c-0.8,0.6-1.6,1.1-2.4,1.6c-0.1,0.1-0.2,0.2-0.4,0.3c0,0,0.1,0,0.1-0.1c-0.1,0.1-0.2,0.2-0.3,0.2c0,0,0,0-0.1,0.1
		c-0.2,0.2-0.5,0.3-0.7,0.4c-0.2,0.2-0.5,0.3-0.7,0.5c-0.1,0.1-0.3,0.2-0.4,0.3c-0.1,0.1-0.3,0.2-0.4,0.2c-1.8,1.3-3.5,2.7-5.2,4.2
		c0,0,0,0,0,0c-1,1-1.9,2.1-2.9,3.2c-0.3,0.4-0.6,0.8-0.9,1.1c-0.7,1-1.5,2.1-2.2,3.2c-1.6,2.7-3,5.7-4.6,8.5
		c-1.8,3.2-3.7,6-5.8,8.4c-1.2,1.4-2.5,2.7-3.8,3.8c-1.3,1.1-2.7,2.1-4.1,2.8c-0.7,0.3-1.4,0.6-2,0.9c-0.7,0.3-1.4,0.4-2.1,0.4
		c-0.1,0-0.3,0-0.4,0C127,217.2,125.9,216.9,124.7,216.4z"/>
	<path class="st0" d="M163.3,218.9c-2.4-3.2-4.4-7-6.1-11.6c-1.3-3.5-2.3-7.3-3.2-11.3c-0.5-2.3-0.9-4.7-1.3-7.1
		c-0.4-2.2-0.7-4.5-0.7-6.9c0,0.4,0,0.8,0,1.2c0-1.2,0-2.3,0.1-3.5c0,0.2,0,0.4-0.1,0.6c0.1-1.1,0.2-2.1,0.5-3.1
		c0.4-1.5,1-2.9,1.7-3.6c1.6-1.6,3.2-1.2,4.7,0.9c0.4,0.6,0.7,1.4,0.9,2.2c0.2,0.7,0.4,1.4,0.5,2.1c0.1,0.3,0.1,0.7,0.1,1
		c0.2,1.1,0.3,2.2,0.5,3.2c0.5,2.8,1,5.6,1.6,8.3c0.3,1.3,0.6,2.6,1,3.9c0.3,1,0.7,1.9,1,2.8c0.4,1,0.8,1.9,1.3,2.8
		c0.6,1,1.2,2,1.8,2.9c0,0,0.1,0.1,0.1,0.1c1.9,2.7,2.7,7.9,1.4,12.1c-0.8,2.6-2.3,4.2-3.7,4.2C164.8,220.2,164,219.7,163.3,218.9z"
		/>
	<path class="st0" d="M174.4,203.2c-0.3-0.5-0.6-1-1-1.4c0,0,0,0,0,0c0,0,0-0.1-0.1-0.1c-1.6-2.4-3.1-4.9-4.5-7.9
		c-1-2.2-1.9-4.5-2.8-6.9c-1.1-3-2.2-6.3-2.7-9.9c0.1,0.4,0.1,0.7,0.2,1.1c-0.2-0.9-0.3-1.8-0.3-2.7c0,0,0,0,0,0
		c-0.1-1.1-0.1-2.3,0.1-3.4c0.2-1.9,0.8-3.7,1.6-4.9c0.5-0.8,1-1.3,1.6-1.6c0.8-0.5,1.9-0.2,2.7,0.6c0.4,0.4,0.8,1,1.2,1.7
		c0.2,0.4,0.4,0.9,0.6,1.3c0,0,0,0,0,0.1c0,0,0,0,0,0c0,0,0,0,0,0c0,0,0,0,0,0c0,0,0,0,0,0c0,0.1,0.1,0.3,0.1,0.5
		c0-0.1-0.1-0.3-0.1-0.4c0.1,0.2,0.2,0.5,0.2,0.7c0-0.1-0.1-0.2-0.1-0.3c0.6,1.5,1,3.2,1.5,4.9c0.6,1.8,1.2,3.5,1.9,5.2
		c0.6,1.4,1.2,2.8,1.8,4c1.1,2,2.4,3.8,3.5,5.7c1.9,3,2.1,8.8,0.6,12.6c-0.9,2.1-2.1,3.2-3.4,3.2
		C176.2,205.1,175.2,204.5,174.4,203.2z"/>
	<path class="st0" d="M150.1,228.7c-1.8-2.6-3.5-5.4-5.1-8.7c-1.2-2.5-2.2-5.1-3.2-7.9c-1.3-3.7-2.7-8-2.8-12.6c0,0.1,0,0.1,0,0.2
		c0-0.5,0-1.1,0.1-1.6c0,0,0,0,0,0c0-0.1,0-0.3,0-0.4c0.1-0.5,0.1-1,0.2-1.5c0.2-0.8,0.4-1.6,0.7-2.3c1.3-3.4,3.6-4,5.4-2
		c0,0,0,0,0,0c0,0.1,0.1,0.1,0.1,0.2c0,0,0,0,0.1,0.1c0,0,0,0,0,0.1c0.6,0.7,1.1,1.8,1.4,2.9c0.2,0.6,0.4,1.2,0.5,1.9
		c0.3,1.2,0.6,2.3,1,3.4c0.6,1.8,1.2,3.5,1.8,5.2c0.6,1.5,1.3,3,2,4.4c0.8,1.5,1.7,3,2.7,4.3c1.7,2.6,2.1,8,1,11.6
		c-0.8,2.6-2.3,4.3-3.8,4.3C151.5,230.1,150.8,229.6,150.1,228.7z"/>
	<path class="st0" d="M133.4,229.4c-1-2.9-1.8-6-2.5-9.2c-0.9-4.2-2-9.1-0.6-13.4c1.2-3.6,3.4-5.2,5.4-3.3c2.1,2,2.7,6.7,3.6,10.7
		c0.4,1.5,0.7,2.9,1.1,4.2c0,0.1,0.1,0.3,0.1,0.4c1.4,4,1,9.6-1,12.6c-0.8,1.1-1.7,1.7-2.6,1.7C135.6,233,134.2,231.8,133.4,229.4z"
		/>
	<path class="st0" d="M142,162.6c-0.5-4.7-0.6-9.2-0.3-13.9c0.2-3.3,0.5-6.7,0.8-9.9c0.4-3.9,0.9-8.3,1.9-11.9c0,0,0,0.1,0,0.1
		c0.3-1.2,0.8-2.2,1.3-3c0,0,0,0,0-0.1c0.2-0.3,0.4-0.5,0.6-0.8c0.4-0.4,0.9-0.7,1.4-0.8c0,0,0,0,0,0c0.2,0,0.4-0.1,0.6,0
		c0,0,0,0-0.1,0c0.2,0,0.3,0,0.5,0.1c0,0,0,0,0,0h0c0,0,0,0,0,0s0,0,0,0c0,0,0,0,0,0c0.4,0.1,0.8,0.3,1.1,0.6c1,0.8,1.7,2.5,2.1,4.4
		c0.4,1.8,0.4,3.8,0.2,5.7c0-0.1,0-0.2,0-0.3c-0.1,1.6-0.4,3.2-0.6,4.7c-0.1,1-0.2,1.9-0.3,2.9c0,0.2,0,0.3-0.1,0.5
		c0,0.1,0,0.3,0,0.4c0,0.3-0.1,0.5-0.1,0.8c0-0.2,0.1-0.5,0.1-0.7c-0.3,3.2-0.6,6.5-0.8,9.8c0,1.3-0.1,2.6-0.1,3.8
		c0,1.3,0.1,2.5,0.2,3.7c0-0.1,0-0.1,0-0.2c0.4,4.7-0.9,9.4-3.3,10.6c-0.3,0.2-0.7,0.3-1,0.3C144.3,169.4,142.4,166.7,142,162.6z"/>
	<path class="st0" d="M158.9,148.6c-2.3-1.4-3.7-6.6-3-11.2c0.4-2.6,0.8-5.2,1.2-7.8c0.5-3.4,0.9-7,1.6-10.3c0.1-0.5,0.2-1,0.3-1.5
		c0.2-0.8,0.4-1.6,0.7-2.2c-0.1,0.2-0.1,0.4-0.2,0.6c0.7-1.9,1.6-3.1,2.6-3.6c1-0.6,2-0.4,3,0.4c1.5,1.3,2.4,4.6,2.4,7.8
		c0,0.9-0.1,1.9-0.2,2.7c-0.1,1.5-0.3,2.9-0.5,4.3c-0.3,1.9-0.5,3.8-0.8,5.7c-0.4,3-0.9,6.1-1.4,9.1c-0.6,3.8-2.4,6.4-4.3,6.4
		C159.8,148.9,159.4,148.8,158.9,148.6z"/>
	<path class="st0" d="M134.2,303.3c-1.2-0.3-2.5-0.6-3.7-0.9c-1.6-0.3-3.1-1.2-4.6-2c-1.1-0.5-2.2-0.9-3.2-1.5
		c-1.4-0.8-2.8-1.6-4.1-2.3c-2.6-1.4-5.2-3.8-7.8-5.8c-2.8-2.2-5.6-4.5-8.3-7.1c-1.2-1.1-2.3-2.5-3.4-3.7c-1.3-1.5-2.6-2.9-3.8-4.6
		c-2.1-3-4.4-5.9-6.3-9.4c-1-1.8-1.9-3.6-2.8-5.5c-0.9-1.9-1.7-3.9-2.5-6c-1.7-4.4-2.6-9.6-3.3-14.8c-0.7-5.4-1.2-11-1.3-16.5
		c-0.1-3.1,0-6.2,0.2-9.3c0.1-2.2,0.2-4.6,0.7-6.7c0-0.1,0-0.2,0-0.2c0.4-1.9,1.1-3.3,2-4.2c0.3-0.3,0.6-0.5,0.8-0.7
		c1.9-1.1,4.1,1.2,4.8,4.9c0.2,1.1,0.4,2.2,0.4,3.3c0.1,1.7,0,3.3,0,5c-0.1,3.6-0.3,7.1-0.2,10.8c0.1,1.9,0.2,3.7,0.3,5.6
		c0.2,2.6,0.5,5.1,0.9,7.6c0-0.2-0.1-0.4-0.1-0.6c0,0.2,0.1,0.4,0.1,0.7c0,0,0,0.1,0,0.1c0,0,0,0,0,0c0,0,0,0,0,0c0,0.1,0,0.2,0,0.2
		c0-0.1,0-0.1,0-0.2c0.1,0.6,0.2,1.2,0.3,1.8c0.2,0.8,0.4,1.5,0.6,2.2c0.4,1.3,0.9,2.6,1.4,3.8c1.7,3.9,3.3,7.8,5.1,11.5
		c1.7,2.9,3.4,5.7,5.1,8.5c1.6,2.2,3.2,4.2,4.9,6.2c0.6,0.5,1.1,1,1.6,1.5c0.6,0.5,1.3,0.9,1.9,1.4c0.7,0.5,1.5,0.8,2.2,1.1
		c2.5,1,5,1.7,7.5,2.5c1.1,0.3,2.2,0.8,3.3,1.2c0.8,0.3,1.6,0.4,2.5,0.6c0.7,0.2,1.4,0.4,2.1,0.6c2.6,0.3,5.2,0.9,7.7,0.7
		c2.2-0.3,4.5-1,6.7-1.9c2.8-1.2,5.5-2.7,8.2-4.1c1.2-0.6,2.3-1.3,3.5-1.9c1.2-0.6,2.4-1.4,3.6-2.1c-0.2,0.1-0.4,0.2-0.5,0.3
		c1.2-0.9,2.4-1.8,3.5-2.9c2.2-2.1,4.2-4.6,6.3-7.1c0.9-1.2,1.8-2.3,2.7-3.4c2.5-3.4,5.1-6.3,7.4-10.1c1.3-2.1,2.6-4,3.9-6
		c0.8-1.4,1.7-2.8,2.5-4.2c1-1.7,1.9-3.4,2.9-5.3c0.1-0.2,0.2-0.5,0.3-0.7c0.4-1.4,1-2.7,1.5-4c0,0.1,0,0.1-0.1,0.2
		c1.8-5,3.8-9.7,5.7-14.5c1.3-3.2,2.5-6.6,4-9.4c0.5-1.1,1-2.2,1.5-3.3c0.2-0.4,0.4-0.8,0.6-1.2l0,0c0.1-0.3,0.2-0.5,0.4-0.7
		c0.2-0.4,0.3-0.8,0.5-1.1c0.5-1.2,1.1-2.5,1.6-3.6c0.5-1.3,1.1-2.5,1.6-3.7c0.1-0.2,0.2-0.3,0.2-0.5c0.4-0.8,0.7-1.5,1-2.3
		c1.6-3.4,4.5-3.3,6.2-0.5c2,3.3,2.2,9.3,0.7,13.4c-0.8,2.1-1.6,4.3-2.4,6.4c0.1-0.3,0.2-0.5,0.3-0.8c-0.7,2-1.5,3.9-2.2,5.9
		c-0.2,0.4-0.3,0.9-0.5,1.3c-0.1,0.3-0.2,0.6-0.3,0.9c-0.4,1.1-0.8,2.1-1.1,3.2c-0.1,0.3-0.2,0.6-0.3,0.8c0,0,0,0,0,0
		c0,0,0,0.1,0,0.1c0,0.1-0.1,0.3-0.1,0.4c-1.1,3.2-2.3,6.4-3.5,9.6c-1.8,4.9-3.6,9.9-5.7,14.5c0,0,0,0,0,0c0,0,0,0.1-0.1,0.1
		c-0.1,0.2-0.2,0.5-0.3,0.7c0.1-0.1,0.1-0.2,0.2-0.3c-0.5,1.1-1,2.2-1.6,3.1c-1,1.8-2.1,3.4-3.1,5c-1.6,2.5-3.2,5-5,7.2
		c0.2-0.2,0.4-0.4,0.5-0.7c-1.7,2.3-3.4,4.7-5.2,6.5c-2.6,2.6-4.9,5.9-7.5,8.6c-2.5,2.7-5,5.6-7.5,8.3c-2.5,2.7-5,5.4-7.5,8
		c-1.1,1.1-2.2,2.1-3.3,3c-1.1,1-2.3,1.7-3.5,2.5c-1.3,0.9-2.6,1.7-3.9,2.5c-1.7,1.1-3.4,2.1-5.1,2.9c-1.8,0.8-3.6,1.2-5.4,1.2
		C136.4,303.6,135.3,303.5,134.2,303.3z"/>
	<path class="st0" d="M147.6,316.5c-1.2-0.1-2.4-0.5-3.6-0.9c-1.4-0.5-2.9-1-4.3-1.9c-2.2-1.3-4.3-3.2-5.9-6.4
		c-1.4-2.7-1.5-7.5-0.5-10.7c1.1-3.7,3.5-5.3,5.5-3.4c0.6,0.6,1.1,1.2,1.6,1.8c0.6,0.5,1.1,1,1.7,1.5c1.1,0.8,2.2,1.4,3.3,2
		c1,0.4,2,0.7,3,1c1.5,0.2,2.9,0.3,4.4,0.2c4.2-0.8,8.4-2.1,12.5-3.5c2.8-1.2,5.5-2.7,8.3-4.4c2.1-1.4,4.1-3.1,6.1-4.9
		c3.7-3.5,7.3-7.1,10.9-11c0.7-1,1.4-2,2-3.1c1.2-2.2,2.5-4.4,3.7-6.7c0.7-1.3,1.5-2.5,2.3-3.7c0.8-1.3,1.6-2.6,2.4-4
		c1.9-3.8,3.9-7.4,5.9-11.2c0.8-2,1.8-3.9,2.7-5.9c3.1-7.7,6.1-15.6,9-23.5c0.3-1,0.6-2,1-2.9c0,0.1,0,0.1,0,0.1
		c0.7-2.4,1.4-5,2.2-7.3c1.1-3.7,2.2-7.5,3.2-11.4c0-0.1,0-0.2,0.1-0.3c0.6-2.5,1.2-5.1,1.7-7.7c0,0,0,0,0-0.1
		c0-0.2,0.1-0.4,0.1-0.7c0.8-4.2,3.3-6.2,5.4-5c2.4,1.4,3.6,6.5,3,11.3c-0.8,6.3-2.1,12.2-3.7,18c0,0,0-0.1,0-0.1
		c0,0.2-0.1,0.3-0.1,0.5c-0.1,0.2-0.1,0.4-0.2,0.7c0-0.1,0-0.2,0.1-0.2c-0.4,1.4-0.7,2.9-1.1,4.3c0.1-0.4,0.1-0.8,0.2-1.2
		c-0.6,3.2-1.4,6.2-2.2,9.2c-1,4.1-2.3,7.9-3.6,11.5c-1.8,4.9-3.7,9.8-5.6,14.5c-1,2.4-2.2,4.4-3.3,6.6c-0.4,0.8-0.8,1.6-1.3,2.4
		c-0.5,0.9-1,1.5-1.5,2.4c-2.1,3.5-4.3,6.9-6.6,9.8c-2,3-4.1,6.1-6.2,8.7c-2.1,2.6-4.4,4.5-6.7,6.4c-0.9,0.9-1.7,1.7-2.6,2.5
		c-4.6,4.5-9.1,8.8-13.8,12.8c-4.9,4.3-10,8.6-15.3,11.1c-2.6,1.2-5.1,2-7.7,2.4c-1.5,0.2-2.9,0.3-4.3,0.3
		C149,316.6,148.3,316.6,147.6,316.5z"/>
	<path class="st0" d="M228.5,326.5c-3.3-0.3-6.4-2.1-9.5-3.7c-2.8-1.5-5.7-2.8-8.4-5.1c-2.8-2.4-5.6-5.1-8.2-8.3
		c-2.4-3-4.5-7.4-6.5-11.4c-1-2.1-2-4.2-2.9-6.3c-0.8-1.9-1.6-3.8-2-6.1c-0.8-3.5,0-7.9,1.4-10.1c1.4-2,3-2,4.5-0.6
		c0-0.1-0.1-0.1-0.2-0.2c1.8,1.7,2.9,5.2,4.2,8.1c1.4,3.3,2.9,6.5,4.5,9.6c0.9,1.5,1.8,3,2.7,4.4c0.6,0.7,1.2,1.5,1.8,2.1
		c-0.2-0.2-0.3-0.3-0.5-0.5c0.5,0.5,1,1.1,1.5,1.6c-0.2-0.2-0.3-0.3-0.5-0.5c1.2,1.1,2.3,2.1,3.5,3c-0.2-0.1-0.3-0.3-0.5-0.4
		c2.6,1.9,5.2,3.7,7.8,5.2c3,1.7,5.9,3.5,8.9,5.2c1.3,0.5,2.5,0.9,3.8,1.1c3,0.3,6,0.5,9,0.5c0.4-0.1,0.7-0.2,1.1-0.3
		c1.6-0.7,3.1-1.6,4.6-2.5c1.9-1.1,3.8-1.9,5.7-2.9c1.1-1,2.3-2.1,3.4-3c0.7-0.8,1.4-1.5,2.1-2.1c1.2-1.5,2.3-3,3.5-4.5
		c-0.2,0.2-0.4,0.5-0.5,0.7c4.1-5.3,7.8-11.5,11.6-17.7c1.1-1.9,2.2-3.8,3.2-5.8c0.9-1.7,1.7-3.4,2.6-5.1c0.8-1.8,1.6-3.6,2.4-5.3
		c0.2-0.4,0.3-0.8,0.5-1.2c0.3-0.9,0.6-1.8,0.9-2.7c0.2-0.6,0.3-1.1,0.5-1.6c0.2-0.8,0.4-1.5,0.6-2.3c1.6-6.9,3.1-13.8,4.5-20.9
		c0.1-0.8,0.3-1.6,0.4-2.4c0,0.1,0,0.1,0,0.2c0.1-0.6,0.2-1.2,0.3-1.8c0,0,0,0.1,0,0.1c0.1-0.6,0.2-1.1,0.3-1.7c0,0,0,0,0,0.1
		c0.1-0.6,0.2-1.3,0.3-1.9c0,0.3-0.1,0.5-0.1,0.8c0.2-1.7,0.5-3.3,0.8-4.9c-0.1,0.4-0.1,0.7-0.2,1.1c0.2-0.9,0.3-1.7,0.5-2.6
		c0,0.1,0,0.2,0,0.2c0-0.2,0.1-0.5,0.1-0.7c0,0,0,0,0,0c0,0,0,0,0,0c0,0,0,0,0,0c0,0,0,0,0,0c0,0,0,0,0,0c0.1-0.7,0.2-1.3,0.4-1.9
		c0,0,0,0,0,0c0.8-4.2,1.5-8.3,2.3-12.4c0.6-2.8,1.2-5.7,1.8-8.5c1.1-5.1,4.2-7.4,6.7-5.1c1.2,1.1,2.1,3.1,2.6,5.6
		c0.6,3,0.4,6.1-0.3,8.8c0.1-0.2,0.1-0.4,0.2-0.7c-0.2,0.6-0.3,1.2-0.5,1.7c-0.1,0.2-0.1,0.5-0.2,0.7c-1.3,5.5-2.6,11-4.1,16.4
		c0.1-0.3,0.1-0.5,0.2-0.8c-0.4,1.4-0.7,2.8-1.1,4.2c-0.4,1.6-0.7,3.3-1.2,4.8c-1.4,6-2.7,12.2-3.9,18.4c-0.7,3.3-1.3,6.6-2,9.9
		c-0.7,3-1.2,6.1-2,9.1c0,0,0-0.1,0-0.1c-0.4,1.7-0.8,3.4-1.3,5.1c-0.4,1.6-1.2,3.1-1.7,4.6c-1,2.5-2,4.7-3.1,7
		c-1,2.1-2,4.4-3.1,6.4c-1.5,2.7-3,5.3-4.6,7.9c-1.5,2.4-3,4.8-4.5,7c-1.8,2.5-3.8,4.4-5.8,6.1c-1.6,1.4-3.4,2.1-5.1,3.2
		c-0.4,0.2-0.9,0.3-1.3,0.5c-0.4,0.2-0.9,0.5-1.3,0.7c-1,0.5-2.1,0.7-3.1,0.9c-2.8,1.1-5.6,2.4-8.4,3c-2.9,0.6-5.8,0.9-8.7,0.9
		c-1.7,0-3.4-0.1-5.1,0c-1.2,0-2.4,0.1-3.6,0.1C229.7,326.6,229.1,326.6,228.5,326.5z"/>
	<path class="st0" d="M226,299c-1.4,0-2.8-0.3-4.2-0.6c-1.9-0.5-3.7-1.1-5.5-2.4c-1.3-0.9-2.5-2.2-3.7-3.4c-1.6-1.6-3.2-3.2-4.8-5.1
		c-1.2-1.4-2.4-3.1-3.6-4.8c-1.2-1.8-2.4-3.6-2.9-6.4c-1-4.9,0.5-10.2,2.9-11.6c2.8-1.6,5.1,3.2,7.1,6.3c1.2,1.6,2.3,3.2,3.6,4.5
		c-0.1-0.1-0.1-0.2-0.2-0.3c1.8,1.9,3.6,3.9,5.4,5.5c0.3,0.2,0.5,0.3,0.8,0.5c0.8,0.3,1.6,0.5,2.4,0.7c2.7,0.3,5.4,0.3,8.2,0.2
		c0.9-0.1,1.7-0.2,2.6-0.3c1.5-0.4,2.9-0.6,4.4-1.1c1.1-0.5,2.2-1,3.3-1.7c1.6-1.1,3.2-2.3,4.8-3.8c3.2-3.1,6.2-6.8,9.2-10.5
		c0.5-0.7,1-1.5,1.5-2.3c0.2-0.4,0.4-0.9,0.6-1.3c1-2.3,1.9-4.6,3-6.9c0.9-2.1,1.9-4,2.8-6.1c0.4-0.9,0.8-1.7,1.2-2.6
		c0.5-1.2,1-2.4,1.5-3.7c0.3-1.1,0.7-2.1,1-3.1c0,0.1-0.1,0.3-0.1,0.4c1.4-4.1,2.9-8.2,4.4-12.3c2.1-6.2,3.9-12.8,5.7-19.4
		c0,0,0,0.1,0,0.1c0-0.1,0-0.1,0.1-0.2c0-0.1,0-0.1,0.1-0.2c0,0,0,0.1,0,0.1c0-0.1,0.1-0.2,0.1-0.3c0,0.1-0.1,0.2-0.1,0.3
		c0-0.2,0.1-0.3,0.1-0.5c0-0.1,0-0.1,0.1-0.2c0,0,0,0.1,0,0.1c0.8-3,1.7-5.8,2.6-8.7c1.5-4.9,4.7-6.5,7.2-3.4
		c2.4,3,3.2,9.7,1.7,14.5c-0.9,2.9-1.8,5.8-2.6,8.7c-1.6,5.6-3.2,11.1-5.1,16.3c0.1-0.3,0.2-0.7,0.4-1.1c-1.4,4-2.9,7.9-4.5,11.6
		c-1.4,3.2-2.8,6.4-4.4,9.1c-1,2-2,3.9-3.1,5.8c-1.4,2.6-2.8,5.3-4.2,7.8c-1.3,2.4-2.9,4.1-4.5,5.9c-1.7,1.9-3.3,3.9-5,5.9
		c-6,7-12.2,12.6-18.7,17.2c-0.8,0.6-1.8,0.8-2.6,1.2c-0.9,0.4-1.8,0.6-2.7,0.9c-1.8,0.4-3.6,0.5-5.4,0.6
		C226.3,299,226.2,299,226,299z"/>
	<path class="st0" d="M225.9,256.7c-2,0-4-0.3-6-0.8c-2.2-0.6-4.8-1.3-6.1-5.3c-0.9-2.6-1.1-5.8-0.4-8.7c0.7-3.2,2.3-5,4-5.1
		c0.8,0,1.5,0.4,2.3,0.8c1.4,0.6,2.8,0.9,4.1,1.3c1.4,0.2,2.7,0.3,4,0.3c1.2-0.2,2.4-0.5,3.5-0.9c0,0-0.1,0-0.1,0
		c0.1,0,0.2-0.1,0.2-0.1c0.1,0,0.2-0.1,0.3-0.1c0,0-0.1,0-0.1,0.1c2.7-1,5.4-2.1,8-3.7c0.5-0.4,1-0.8,1.5-1.2c3-3,5.9-6.3,8.8-9.8
		c0.5-0.7,0.9-1.4,1.4-2.2c1.1-1.9,2.1-3.8,3.2-5.7c0.8-1.5,1.5-3.1,2.3-4.4c0.1-0.2,0.2-0.4,0.3-0.6c0.5-1,1-2,1.5-3.1
		c-0.1,0.2-0.2,0.5-0.3,0.7c0.7-1.5,1.3-3,2-4.4c0-0.1,0.1-0.2,0.1-0.3c0,0,0,0,0-0.1c0-0.1,0.1-0.2,0.2-0.3c0,0,0,0.1-0.1,0.1
		c0-0.1,0.1-0.2,0.1-0.3c0-0.1,0.1-0.3,0.2-0.4c0,0.1-0.1,0.2-0.1,0.3c0.1-0.3,0.2-0.6,0.4-0.9c0.8-1.8,1.6-3.7,2.3-5.6
		c1-2.7,3-3.2,4.4-1.5c1.5,1.9,2.1,6.3,1.1,9.4c-0.3,0.8-0.5,1.7-0.8,2.5c0,0,0,0,0,0c-1.7,4.8-3.6,9.3-5.5,13.8
		c-0.1,0.3-0.2,0.7-0.4,1c-0.8,2.4-2,4.5-3,6.5c-0.7,1.4-1.4,2.7-2.1,4c-0.4,0.8-0.9,1.6-1.3,2.4c-0.6,1.1-1.1,2.3-1.7,3.3
		c-2,3-4.2,5.3-6.4,7.5c-2,2.1-4,4-6.2,5.4c-2.3,1.5-4.6,2.4-7,3.4c-1.6,0.7-3.1,1.4-4.7,1.9C228.6,256.3,227.3,256.7,225.9,256.7
		C226,256.7,225.9,256.7,225.9,256.7z"/>
	<path class="st0" d="M361,289c-2.7-0.2-5.5-1.5-8.1-2.7c-0.6-0.3-1.3-0.4-2-0.6c-0.7-0.2-1.4-0.5-2-0.8c-1.4-0.6-2.8-1.3-4.3-2.1
		c-3.2-1.2-6.4-2.7-9.6-4c-3.1-1.2-6.2-2.1-9.3-2.7c-1.5-0.2-2.9-0.5-4.4-0.9c-1.7-0.5-3.4-0.7-5-1c-1.7-0.3-3.4-0.9-5.1-1.4
		c-1.8-0.5-3.6-1-5.4-1.4c-1.2-0.1-2.4-0.1-3.5-0.1c-0.9,0.1-1.7,0.3-2.6,0.5c0.2-0.1,0.4-0.1,0.6-0.2c-1.6,0.6-3.2,1.2-4.8,2
		c-1.5,0.8-2.8,1.7-4.4,1.3c-1.7-0.4-3.1-3.2-3.5-6.5c-0.4-3.5,0.3-6.9,1.6-9.1c0.9-1.5,2.1-2.1,3.2-2.7c1.1-0.6,2.3-1,3.4-1.4
		c3-1,5.9-1.1,8.9-0.6c3,0.5,6.1,1.1,9.1,2.2c1.4,0.5,2.9,0.9,4.3,1.6c1.4,0.7,2.7,1.3,4.1,2c1.1,0.4,2.2,0.8,3.2,1.4
		c1.4,0.8,2.9,1.5,4.3,2.3c0,0,0,0,0,0c2.5,1.1,5.1,2.2,7.6,3.2c2.7,1,5.5,1.5,8.3,2.2c1.3,0.1,2.6,0.1,4,0.2c1.4,0.1,2.7,0.3,4,0.6
		c0.8,0,1.6,0,2.4-0.1c2.2-0.3,4.3-0.6,6.5-1.3c1.6-0.6,3.2-1.4,4.8-2.4c1.2-0.9,2.5-1.7,3.7-2.7c1.4-1.1,2.9-2.4,4.3-3.7
		c1.2-1.3,2.5-2.5,3.6-3.9c0.6-0.9,1.2-1.8,1.8-2.7c0.8-1.5,1.6-3.1,2.4-4.7c2-4.6,3.8-9.5,5.6-14.4c1-2.7,1.9-5.5,2.8-8.2
		c0.9-2.7,1.6-5.5,2.5-8.1c0,0.1,0,0.1,0,0.2c0.3-1.2,0.7-2.4,1-3.7c0.6-2,1.4-3.7,2.2-5.4c1.3-2.8,2.6-5.6,3.9-8.3
		c1-2.5,2.2-4.6,3.4-6.9c0.8-1.6,1.6-3.3,2.4-5c0-0.1,0.1-0.2,0.1-0.3c0.6-1.4,1.2-2.8,1.8-4.3c1.4-4,3.1-7.9,5.2-10.3
		c2-2.3,4.3-3.6,6.6-4c0,0,0,0,0,0c0,0,0,0-0.1,0c0.2-0.1,0.3-0.1,0.5-0.2c0,0,0.1,0,0.1,0c0.2-0.1,0.5-0.2,0.8-0.3
		c0.1-0.1,0.2-0.1,0.3-0.2c0.1-0.1,0.2-0.2,0.3-0.3c0-0.1,0.1-0.2,0.1-0.3c0.2-0.7,0.3-1.5,0.5-2.2c0.1-0.4,0.2-0.8,0.2-1.2
		c0.1-0.6,0.1-1.1,0.2-1.7c0-1,0.1-2.1,0.2-3.1c-0.1-1.1-0.3-2.3-0.4-3.5c-0.1-0.3-0.1-0.6-0.2-0.9c-0.2-0.7-0.4-1.5-0.7-2.2
		c0,0,0,0,0,0c0,0,0,0,0-0.1c0-0.1-0.1-0.2-0.1-0.3c0,0,0,0.1,0,0.1c-0.1-0.4-0.3-0.9-0.4-1.3c-0.4-1-0.8-2-1.2-3
		c-0.4-0.9-0.8-1.8-1.2-2.6c-0.3-0.6-0.7-1.1-1-1.6c-0.2-0.3-0.4-0.5-0.7-0.8c-0.8-0.7-1.5-1.4-2.3-2c-0.7-0.5-1.5-1-2.3-1.4
		c-0.6,0-1.2,0-1.8-0.1h0c-0.1,0-0.1,0-0.2,0c0,0,0,0-0.1,0c0,0,0,0,0,0c0,0,0,0,0,0c0,0,0,0-0.1,0c0,0,0,0,0,0
		c-0.5-0.1-1-0.1-1.4-0.2c-0.3,0.1-0.6,0.1-0.9,0.1c-3.8,1.3-7.7,0.8-11.5,1.2c-0.4,0-0.8,0-1.2,0c-0.4,0-0.8,0-1.2,0
		c-1,0.1-2,0.1-2.9,0.1c-2.1,0-4.2,0.1-6.3,0.3c-3.8,0.4-7.6,1.3-11.3,1.9c-2.2,0.3-4.4,0.6-6.6,1.1c-2.7,0.5-5.3-3.4-5.6-9
		c-0.3-5.5,1.7-10.7,4.4-11.3c1.4-0.3,2.8-0.5,4.2-0.7c2.2-0.3,4.4-0.7,6.7-0.8c2-0.2,4.1-0.4,6.1-0.5c3.1-0.1,6.2,0.4,9.3,0.6
		c2.5,0.2,5.1,0.5,7.6,0.8c3,0.3,6,0.2,8.9,2.3c0.4,0.2,0.7,0.3,1.1,0.6c1.4,0.6,2.8,1.2,4.1,2.5c2.4,1.8,4.8,3.8,6.9,6.9
		c2.5,3.6,4.5,8.6,6.2,13.6c0.2,0.6,0.4,1.1,0.6,1.8c0.6,1.6,0.9,3.4,1.2,5.2c0.3,1,0.6,2.1,0.7,3.3c0.1,1,0.2,2.1,0.2,3.1
		c0.2,1.2,0.1,2.5,0.1,3.8c0.1,2.3-0.1,4.6-0.4,6.9c0,0.3-0.1,0.7-0.1,1c-0.1,0.9-0.2,1.7-0.4,2.6c-0.1,0.9-0.2,1.8-0.4,2.7
		c-0.2,1.1-0.6,2.1-1,3.1c-0.4,1.2-1,2.3-1.6,3.2c-0.7,1-1.5,1.8-2.3,2.4c-0.7,0.7-1.5,1.1-2.2,1.5c-0.5,0.3-1.1,0.6-1.6,0.9
		c-0.3,0.2-0.5,0.4-0.8,0.6c-0.1,0.1-0.2,0.2-0.2,0.3c-0.1,0.2-0.3,0.4-0.4,0.6c-0.2,0.4-0.5,0.9-0.7,1.4c-0.5,1.1-1,2.3-1.4,3.3
		c-1.6,3.8-3.4,7.4-5.4,10.6c0.2-0.3,0.3-0.6,0.5-0.9c-1,1.7-1.9,3.4-3,5.1c-0.5,0.9-1,1.7-1.6,2.5c-1.1,2-2.2,4.2-3.4,6.3
		c-0.5,1-1,2-1.5,3c-0.7,1.3-1.4,2.5-2.2,3.8c-0.7,1.8-1.4,3.7-2.2,5.5c-1.1,3.3-2.2,6.6-3.4,9.9c-1.8,5.1-3.6,10.1-5.4,15.1
		c-1.6,4.4-3.4,8.6-5.4,12.2c-0.9,1.7-1.9,3.4-3,4.6c-1.4,1.5-2.7,3.2-4.1,4.5c-2.6,2.4-5.2,4.8-8,6.4c-2.5,1.5-5.1,2.1-7.7,2.1
		C361.6,289,361.3,289,361,289z"/>
	<path class="st0" d="M330.1,263c-1.8,0-3.6-0.6-5.5-1.2c-5-1.6-10-3.6-15.1-4.6c-2.5-0.3-4.9-0.6-7.4-0.8c-1.4-0.1-2.7-0.1-4.1,0
		c-1.1,0.1-2.2,0.3-3.3-0.4c0,0,0,0,0,0c-0.7-0.4-1.4-1.2-1.9-2.3c-0.8-1.6-1.2-3.9-1.2-6.1c0-2.8,0.7-5.1,1.8-6.8
		c0.9-1.5,2.1-2,3.2-2.2c1.9-0.3,3.8,0.1,5.6,0.4c1.9,0.3,3.8,0.5,5.7,1c2,0.4,4,1.1,6,1.8c4,1.2,7.9,2.4,11.9,3.7
		c3.1,1,6.2,2.4,9.4,3.2c2.6,0.3,5.2,0.3,7.8,0.2c3.1-0.5,6.2-1.1,9.3-2.1c0.8-0.3,1.5-0.7,2.2-1.1c0.9-0.7,1.9-1.4,2.8-2.2
		c0,0,0,0-0.1,0.1c0.5-0.5,1-1.1,1.6-1.7c0.2-0.2,0.4-0.5,0.5-0.7c-0.1,0.1-0.1,0.2-0.2,0.3c0.1-0.1,0.2-0.2,0.2-0.3
		c0-0.1,0.1-0.1,0.1-0.2c0,0-0.1,0.1-0.1,0.1c0.5-0.7,1-1.4,1.4-2.1c0.5-1.3,1.1-2.5,1.7-3.7c0.2-0.4,0.4-0.8,0.5-1.2
		c0.2-0.5,0.4-0.9,0.6-1.3c0.4-1.7,1-3.2,1.6-4.7c0.6-1.5,1.3-3,1.9-4.5c0.6-2.2,1.5-4.1,2.3-6.1c0.7-2.5,1.8-4.5,2.8-6.5
		c0.8-1.7,1.7-3.5,2.5-5.2c1.8-3.8,3.8-7.2,5.8-10.5c1.1-1.8,2.4-3.2,3.6-4.7c1.2-1.4,2.3-2.8,3.5-4.1c0.9-1,1.8-2.1,2.7-3.1
		c0.9-0.9,1.7-2,2.6-2.7c0.2-0.2,0.5-0.5,0.8-0.7c0.3-0.4,0.6-0.7,0.9-1.1c0.1-0.1,0.2-0.3,0.3-0.4c1.7-2.3,3.3-4.7,4.9-7.1
		c0.1-0.2,0.2-0.3,0.3-0.5c-0.7-0.3-1.4-0.6-2.1-1c-2.7-0.9-5.3-2-8-2.6c-0.4-0.1-0.9-0.1-1.3-0.2c-1.4-0.2-2.9-0.2-4.3-0.5
		c-0.4,0-0.9-0.1-1.4-0.2c-0.7-0.1-1.3-0.2-2-0.4c-0.7-0.1-1.5-0.2-2.2-0.4c-0.8-0.2-1.6-0.3-2.5-0.8c-1.3-0.3-2.8-0.5-4.1-1.4
		c-0.9-0.4-1.8-0.9-2.6-1.3c-1-0.5-1.9-0.9-2.8-2c0.1,0.2,0.3,0.3,0.4,0.4c-0.2-0.2-0.4-0.4-0.6-0.5c-0.1-0.1-0.2-0.1-0.2-0.2
		c-1.6-0.5-3.1-1-4.7-1.3c0.1,0,0.3,0,0.4,0.1c-2.2-0.4-4.4-0.5-6.6-0.9c-1.5-0.2-2.8-2.6-2.8-5.8c0-3.2,1.3-5.6,2.9-5.6
		c3.8,0,7.7,0.5,11.5,0.8c0.3-0.1,0.7-0.2,1-0.3c1.4-0.6,2.9-0.2,4.3-0.1c0.3,0,0.6,0,0.9,0c1.3-0.3,2.6,0,3.9,0.1
		c1.4-0.3,2.8-0.3,4.2-0.3c0.6-0.2,1.2-0.2,1.8-0.3c0.4-0.1,0.8-0.1,1.2-0.2c1.5-0.3,2.9-0.2,4.4-0.2c0.7-0.1,1.4-0.1,2.2-0.1
		c0,0,0,0,0,0c0,0,0.1,0,0.1,0c0.1,0,0.2,0,0.4,0c0,0,0,0,0,0c0.7-0.1,1.4-0.1,2,0c1,0.1,1.9,0.4,2.8,0.8c1.5,0.5,3,1.3,4.4,2.3
		c0.6,0.4,1.2,0.8,1.7,1.2c0.8,0.6,1.6,1.5,2.3,2.4c0.7,0.7,1.4,1.5,2,2.5c0.4,0.7,0.8,1.6,1.2,2.6c0.5,1.1,0.9,2.2,1.2,3.5
		c-0.1-0.3-0.2-0.7-0.3-1c0.4,1.3,0.7,2.5,0.9,3.9c0.3,1.9,0.5,3.8,0.3,5.8c0-0.4,0-0.8,0-1.1c0,1.3-0.1,2.5-0.3,3.7c0,0,0,0,0,0
		c0,0,0,0,0,0c0,0.3-0.1,0.6-0.2,1c0-0.1,0-0.1,0-0.2c-1.1,5.7-3.5,10-5.8,13.9c0.1-0.2,0.3-0.5,0.4-0.7c-1.9,3.1-3.8,6-5.8,8.7
		c-0.2,0.4-0.5,0.8-0.8,1.2c-1.1,1.9-2.3,3.5-3.5,5.1c-1.9,2.5-3.7,5-5.6,7.6c-0.5,0.9-1.1,1.9-1.6,2.8c0.2-0.3,0.3-0.6,0.5-0.9
		c-1.6,2.7-3.1,5.5-4.6,8.2c-1,1.8-2,3.7-3,5.6c-1.2,2.2-2.3,4.5-3.6,6.3c-0.9,1.6-1.7,3.3-2.7,4.7c-0.7,1.4-1.5,2.8-2.2,4.1
		c-0.5,1-1,2-1.7,2.8c-0.3,0.4-0.6,0.8-1,1.1c-0.2,0.4-0.5,0.9-0.7,1.3c-1,1.8-2.1,3.7-3.4,4.9c-1,1.3-2.1,2.6-3.2,3.6
		c0.1-0.1,0.2-0.2,0.4-0.3c-3.6,3.6-7.3,5.8-11.3,7c-2.3,0.7-4.7,1.2-7.1,1.7c-2.4,0.5-4.8,0.9-7.2,1.1c0,0,0.1,0,0.1,0
		c-0.1,0-0.2,0-0.2,0c0,0,0,0,0,0c-1.9,0.2-3.9,0.5-5.8,0.5C330.4,263,330.2,263,330.1,263z"/>
	<path class="st0" d="M391.5,145.4c-0.1,0-0.2,0-0.3,0c0,0,0,0-0.1,0C391.2,145.5,391.4,145.4,391.5,145.4z"/>
	<path class="st0" d="M301.4,230.9c-1.4-0.1-2.5-1.5-3.3-3.6c-0.8-2.1-1-5-0.7-7.7c0.9-7.3,5.3-7.7,8.3-7.9c2-0.1,4,0.1,6.1,0.2
		c2.2,0.1,4.4,0.1,6.7,0.2c1.6,0,3.2,0.2,4.8,0.3c1.9,0.1,3.8,0.1,5.7,0.2c3.5,0.1,7,0.5,10.5,0.3c1.9-0.6,3.9-1.1,5.8-1.8
		c1.4-0.6,2.8-1.2,4.3-1.8c0.1-0.1,0.2-0.1,0.3-0.2c0.3-0.3,0.6-0.5,1-0.7c0.9-0.9,1.7-1.9,2.6-2.8c-0.1,0.2-0.2,0.3-0.3,0.4
		c0.3-0.4,0.7-0.9,1-1.3c2.3-3.1,4.5-6.5,6.8-9.7c1.7-2.4,3.4-4.6,5.1-6.8c0.4-0.6,0.8-1.1,1.2-1.7c0.5-0.9,1-1.6,1.6-2.3
		c-0.3-0.3-0.6-0.5-0.9-0.8c-0.5-0.4-1-0.8-1.6-1.2c-2.2-1.6-4.6-2.8-6.9-4c-2.6-1.4-5.1-2.8-7.7-3.9c0.2,0.1,0.4,0.2,0.6,0.3
		c-1.7-0.8-3.5-1.4-5.3-1.8c-0.5-0.1-1.1-0.1-1.6-0.1c0,0,0,0,0,0c-0.1,0-0.1,0-0.2,0c-2.2,0.3-4.2-2.3-4.8-6.7
		c-0.6-4.6,0.9-9.8,3.2-10.8c2.5-1.1,5.1-0.6,7.5,0c5.4,1.2,10.6,3.7,15.9,6.3c1.7,0.7,3.3,1.5,5,2.7c1.2,0.8,2.3,1.9,3.4,3.1
		c1.1,1.2,2.1,2.5,3,4.3c1.4,2.9,2.4,7.8,1.7,11.9c-0.4,2-0.8,3.9-1.7,5.1c-0.1,0.2-0.3,0.4-0.4,0.6c-0.4,0.6-0.8,1.2-1.2,1.6
		c-0.8,1.1-1.5,2.2-2.3,3.3c-1.2,1.6-2.5,3.5-3.8,4.6c-0.4,0.4-0.9,0.9-1.3,1.3c-2.1,2.2-4.1,4.6-6.1,7.1c0,0,0,0,0,0
		c0,0-0.1,0.1-0.1,0.1c-0.1,0.1-0.1,0.2-0.2,0.3c0,0,0-0.1,0.1-0.1c-0.2,0.2-0.3,0.4-0.5,0.6c-1.4,1.8-2.7,3.8-4,5.7
		c-0.8,1.2-1.7,2.5-2.5,3.7c-0.9,1.2-1.9,2.3-2.8,3.4c-2.1,2.6-4.6,3.5-6.9,4.5c-1.8,0.8-3.7,1.5-5.6,2.1c-1,0.5-2.1,1-3.2,1.2
		c-1.1,0.2-2.1,0.4-3.2,0.4c0.2,0,0.4,0,0.5-0.1c-4,0.4-8.1,0-12.1,0c-4.6,0-9.2-0.1-13.8,0.2c-1.9,0.2-3.8,0.5-5.7,1.1
		c-0.1,0-0.1,0.1-0.2,0.1C302.5,230.7,302,230.9,301.4,230.9C301.5,230.9,301.4,230.9,301.4,230.9z"/>
	<path class="st0" d="M315.8,205.9C315.8,205.9,315.8,205.9,315.8,205.9c0,0-0.1,0-0.1,0c-0.3-0.1-0.7-0.3-1-0.6
		c0,0,0.1,0.1,0.2,0.1c-0.6-0.5-1.1-1.2-1.6-2.2c-1.7-3.6-1.4-9.3,0.3-12.4c0,0-0.1,0.1-0.1,0.1c0.4-0.8,0.9-1.4,1.5-1.8
		c1.1-1,2.4-0.9,3.6-0.9c0.3,0,0.5,0,0.8,0c1.3,0,2.7-0.1,4-0.2c3.6-0.2,7.2-0.4,10.8-0.7c1.2-0.1,2.5-0.3,3.7-0.4c0,0-0.1,0-0.1,0
		c0.4-0.1,0.8-0.2,1.2-0.3c0.6-0.3,1.2-0.6,1.8-1c-0.1,0.1-0.2,0.2-0.3,0.2c0.1-0.1,0.2-0.2,0.3-0.2c0.1,0,0.1-0.1,0.2-0.1
		c-0.1,0-0.1,0.1-0.2,0.1c0.3-0.2,0.5-0.4,0.8-0.6c-1-0.6-2.1-1.2-3.1-1.8c-1.6-0.9-2.7-4.5-2.4-7.8c0.3-3.7,2.1-6.5,4-5.9
		c2,0.7,4,1.8,6,2.9c0.7,0.2,1.3,0.5,2,1c1.8,1.2,3.3,3.9,4,7.5c0.7,3.4,0.2,7.2-0.6,10.3c-0.7,2.5-2.1,4.3-3.2,5.8
		c-1.4,1.7-2.8,3-4.3,4c-1.9,1.4-3.9,2.5-6,3c-2.3,0.5-4.5,0.6-6.8,0.9c-2.9,0.3-5.7,0.7-8.6,1c-1.2,0.1-2.4,0.2-3.6,0.3
		c-0.3,0-0.6,0-0.9,0C317.2,206.3,316.5,206.2,315.8,205.9z"/>
	<path class="st0" d="M364.2,339.1c-1.3-0.3-2.5-1-3.8-1.7c-2.2-1.2-4.3-2.8-6.4-4.6c-1.2-1-2.4-2.3-3.5-3.6
		c-1.1-1.2-2.1-2.7-3.1-4.3c-2.5-3.9-4.9-9.1-6.3-14.9c0,0.2,0.1,0.3,0.1,0.4c-0.5-1.9-1.1-3.8-1.5-5.8c-1.8-7.7-3.1-16.4-2.8-25
		c0.2-4.5,1.8-8.3,4.2-8.2c2.1,0.1,4.2,4,4,8.5c0,0.9,0,1.7,0,2.6c0,1.2,0.1,2.5,0.2,3.7c0.1,1.1,0.3,2.2,0.4,3.2
		c0.3,1.5,0.5,3,0.9,4.4c0,0,0,0,0,0c0.2,0.9,0.4,1.8,0.7,2.6c0.2,0.5,0.4,1.1,0.5,1.6c0,0,0,0,0,0c0.3,0.8,0.5,1.6,0.8,2.4
		c0.4,0.9,0.7,1.9,1.1,2.8c0.4,0.8,0.7,1.6,1.1,2.4c0.7,1.2,1.4,2.3,2.1,3.4c0.2,0.3,0.5,0.7,0.7,1c0.2,0.2,0.4,0.5,0.6,0.7
		c1,1,2,1.9,3,2.8c0.4,0.3,0.8,0.6,1.2,0.9c1.8,1.3,3.7,2.3,5.6,3.2c0.6,0.2,1.2,0.4,1.8,0.6c0.9,0.1,1.7,0,2.6-0.1
		c2.4-0.3,4.8-0.7,7.2-1.2c2.6-0.6,5.2-0.8,7.8-1.5c0.2-0.1,0.3-0.1,0.5-0.2c0.6-0.4,1.2-0.9,1.8-1.3c0.6-0.4,1.3-1.1,1.9-1.7
		c1.9-2,3.8-4,5.7-6.2c0.6-0.8,1.2-1.6,1.7-2.5c0.4-0.7,0.8-1.4,1.1-2.2c1-2.5,2.1-5.1,3-7.7c0.4-1.1,0.7-2.2,1-3.4
		c0.3-1.1,0.5-2.1,0.8-3.2c0.6-3.5,1.3-6.9,2-10.4c0.7-5.5,1.4-11,2.1-16.5c0,0.2,0,0.4-0.1,0.6c0-0.2,0-0.4,0.1-0.6
		c0.4-4.1,0.8-8.3,1.1-12.5c0.1-2.6,0.1-5.2,0.1-7.9c-0.1-2.9-0.2-5.8-0.4-8.7c-0.2-2.7-0.4-5.4-0.6-8.2c-0.3-3.2-0.7-6.3-1.1-9.5
		c-0.4-2.7-0.7-5.5-0.3-8.3c0.8-5,4-8.1,6.3-4.9c0.9,1.3,1.6,2.8,2,4.9c0.5,2.7,0.9,5.6,1.2,8.5c0.3,2.7,0.4,5.4,0.6,8.1
		c0.2,2.8,0.4,5.6,0.4,8.5c0.2,6.6,0.2,13.3-0.2,19.9c-0.2,3-0.4,6-0.7,8.9c-0.4,3.5-0.8,7-1.4,10.4c-0.5,3.1-0.9,6.2-1.5,9.2
		c-0.6,3.2-1.4,6.3-2.1,9.4c-0.5,2.3-1.1,4.5-1.8,6.6c-0.8,2.5-1.7,4.8-2.7,7c-0.8,1.9-1.6,3.9-2.4,5.8c-0.9,2.1-1.8,3.9-2.8,5.7
		c-2.5,4.5-5.3,8.2-8.1,11.7c-0.9,1.1-1.7,2.1-2.6,3.2c-0.5,0.6-1,1.1-1.5,1.6c-0.7,0.7-1.3,1.6-2,2.4c-2.7,3-5.8,4.5-8.8,5.4
		c-2.6,0.8-5.3,1.4-8,1.7c-0.8,0.1-1.5,0.2-2.3,0.2C365.3,339.3,364.7,339.3,364.2,339.1z"/>
	<path class="st0" d="M373.9,358.6c-1.1-0.1-2.1-0.3-3.2-0.5c-3.8-0.4-7.6-1.1-11.4-2.7c-2.5-1-5-2.1-7.5-3.2
		c-0.9-0.4-1.8-0.9-2.7-1.4c-0.8-0.4-1.5-1.1-2.2-1.9c-2.8-2.9-5.4-6.8-8-10.4c-2.8-3.9-4.8-9.6-6.7-15.2c-0.9-2.6-1.7-5.2-2.4-8.1
		c-1-4.2-1.9-8.5-2.4-13c-0.5-4.1-0.9-8.3-1.2-12.5c-0.2-3.2-0.4-6.4-0.3-9.6c0-0.1,0-0.1,0-0.2c0-0.1,0-0.2,0-0.3c0,0,0,0,0,0
		c0-0.3,0-0.6,0.1-0.8v0c0.1-1.3,0.3-2.5,0.6-3.6c0.7-2.2,1.8-3.7,3.1-4c1.4-0.3,3.1,0.9,3.9,3.5c0.4,1.1,0.6,2.2,0.8,3.4
		c0,0,0,0,0-0.1c0.3,2.2,0.3,4.7,0.4,6.9c0.2,3.6,0.5,7.2,0.8,10.7c0.2,2.6,0.6,5,1,7.5c0.4,2.6,0.9,5,1.5,7.5
		c0.2,0.8,0.4,1.5,0.7,2.3c0.9,2.8,1.9,5.6,2.9,8.2c0.1,0.3,0.3,0.6,0.4,0.9c1.2,2.1,2.4,4.2,3.7,6.1c1.2,1.7,2.3,3.4,3.5,5.2
		c0.6,0.8,1.1,1.6,1.7,2.4c-0.1-0.2-0.3-0.4-0.4-0.6c0.8,1,1.6,2.1,2.4,3.2c0.6,0.6,1.2,1.2,1.8,1.7c1.2,0.8,2.4,1.5,3.6,2.1
		c2.3,1,4.6,2,6.9,2.6c1.8,0.3,3.6,0.4,5.5,0.4c0.4-0.1,0.9-0.3,1.3-0.4c0.6-0.3,1.2-0.7,1.8-1c0.9-0.7,1.8-1.5,2.7-2.3
		c1-0.9,2.1-1.6,3.2-2.3c1.2-0.9,2.3-1.7,3.5-2.7c1.2-1.1,2.5-2.2,3.7-3.4c0,0,0,0,0,0c0,0,0.1-0.1,0.1-0.1c0.1-0.1,0.2-0.2,0.3-0.3
		c0,0-0.1,0.1-0.1,0.1c2.7-2.6,5.4-5.5,8-8.6c2-2.8,4.1-5.6,6-8.6c0.7-1.4,1.4-2.7,2.1-4.2c1.9-4.5,3.7-9.4,5.4-14.3
		c1.1-3.5,2.1-7.1,3.1-10.7c0.2-0.8,0.3-1.6,0.5-2.4c0.5-2.6,1-5.2,1.5-7.8c0-0.3,0.1-0.5,0.1-0.8c0-0.3,0-0.6,0.1-0.9
		c0.2-4.1,0.3-8.1,0.6-12.2c0.3-4.9,0.6-9.8,0.8-14.6c0.2-6.5,0.2-13.2,0.1-19.7c-0.1-3-0.2-6-0.4-8.9c-0.3-2.7-0.6-5.4-1-8.1
		c0-0.2-0.1-0.3-0.1-0.5c-0.6-3.6-1.5-7-2-10.6c0.1,0.4,0.1,0.8,0.2,1.2c0-0.2-0.1-0.5-0.1-0.7c0,0.1,0,0.1,0,0.2
		c-0.1-0.4-0.1-0.7-0.2-1.1c0-0.1,0-0.3-0.1-0.4c-0.8-4.5,0-9.7,2.1-12c2.3-2.5,5.2-0.8,6.5,3.8c0.1,0.4,0.2,0.9,0.4,1.4
		c0,0.1,0.1,0.3,0.1,0.4c0,0.1,0.1,0.2,0.1,0.4c0.6,2,1.2,4.1,1.7,6.2c0,0,0,0,0,0c0.8,3.5,1.6,7.2,2.1,10.9
		c-0.1-0.4-0.1-0.9-0.2-1.3c0.3,1.9,0.6,3.8,0.8,5.7c0.4,2.5,0.6,5.1,0.8,7.7c0.2,3.4,0.3,6.9,0.4,10.4c0.1,5.1,0.1,10.4-0.2,15.5
		c-0.3,5.5-0.7,11-1.2,16.4c-0.4,5-0.9,9.9-2,14.5c-0.6,2.3-1.1,4.6-1.7,6.9c-0.5,2.2-1,4.3-1.6,6.4c-0.5,1.8-1.1,3.5-1.6,5.2
		c-0.8,2.5-1.5,5-2.3,7.4c-1.8,5.4-3.7,10.4-5.6,15.7c0.1-0.3,0.2-0.6,0.3-0.9c-0.9,2.6-1.8,5.2-2.8,7.7c-0.6,1.5-1.2,3-1.8,4.4
		c-0.9,1.8-1.8,3.4-2.8,5c0.2-0.3,0.3-0.5,0.5-0.8c-2.2,3.8-4.5,7.3-7,10.3c-1.2,1.5-2.4,2.8-3.7,4c-1.6,1.5-3.2,2.6-4.8,3.6
		c-1.4,0.9-2.9,1.5-4.4,2.3c-0.8,0.4-1.6,0.6-2.3,1c-1,0.5-2,0.8-3,1.1c-0.7,0.2-1.4,0.1-2.2,0.2c-0.2,0-0.3,0-0.5,0
		C375.4,358.8,374.6,358.7,373.9,358.6z"/>
	<path class="st0" d="M387.3,333c-0.1,0.1-0.1,0.1-0.2,0.2c0,0-0.1,0.1-0.1,0.1C387.2,333.2,387.2,333.1,387.3,333z"/>
	<path class="st0" d="M366.9,305.3c-1.4-0.9-2.8-2-4.1-3.2c-1.3-1.2-2.5-2.5-3.6-4.4c-1.4-2.4-2.4-6.2-2.5-10c0,0.4,0,0.8,0,1.2
		c0-0.5,0-1.1,0-1.6c0-3.9,1.4-7.3,3.2-8.2c1.8-0.9,3.7,0.7,4.7,3.9c0.2,0.4,0.3,0.9,0.5,1.3c0,0.1,0.1,0.1,0.1,0.2
		c0,0,0.1,0.1,0.1,0.1c0,0,0,0,0,0c0.3,0.4,0.6,0.8,1,1.1c-0.2-0.2-0.3-0.4-0.5-0.6c1,0.9,1.9,1.8,2.9,2.6c0.7,0.5,1.5,1,2.2,1.5
		c0.6,0.2,1.2,0.4,1.8,0.6c0.7,0.1,1.4,0.2,2.2,0.1c1-0.1,2-0.4,3-0.8c0.4-0.2,0.9-0.4,1.3-0.6c0.7-0.6,1.5-1.2,2.2-1.9
		c1-1,1.9-2.1,2.8-3.2c1-1.3,1.9-2.7,2.9-4.2c0.3-0.6,0.6-1.2,1-1.8c0.1-0.3,0.2-0.6,0.4-0.9c0.7-1.9,1.3-4,1.9-5.9
		c0.3-1,0.5-2.1,0.8-3.2c0.3-1.1,0.4-2.3,0.7-3.4c0.4-2.1,0.7-4.3,0.9-6.5c0-0.3,0.1-0.6,0.1-0.9c0.1-0.9,0.2-1.8,0.3-2.7
		c0-0.6,0.1-1.3,0.1-1.9c0.1-2.2,0.1-4.5,0-6.7c0,0,0,0.1,0,0.1c0-0.1,0-0.2,0-0.3c0,0.1,0,0.1,0,0.2c-0.1-2-0.2-3.9-0.3-5.9
		c-0.2-3.5,1.1-6.8,2.8-7.2c1.8-0.4,3.3,2.2,3.5,5.7c0.5,7.1,0.8,14.2,0.3,21.4c0-0.1,0-0.1,0-0.2c-0.1,2.4-0.3,4.8-0.6,7.2
		c-0.1,0.7-0.2,1.5-0.2,2.2c-0.2,3-0.9,6-1.4,8.7c-0.8,3.9-1.9,7.4-3.1,10.9c-1.1,3.3-2.8,5.7-4.4,7.8c-2.1,2.9-4.3,5.2-6.7,7.3
		c-1.2,1.1-2.5,1.9-3.8,2.4c-1.4,0.6-2.8,1.1-4.2,1.3c-0.6,0.1-1.3,0.1-1.9,0.1C371,307.1,368.9,306.6,366.9,305.3z"/>
	<path class="st0" d="M401.2,126.2c-0.1-1.5-0.3-2.9-0.5-4.4c-0.3-1.6-0.6-3.2-0.9-4.7c-0.2-1-0.5-1.9-0.8-2.9
		c-0.3-0.9-0.6-1.7-0.9-2.5c-0.4-0.9-0.8-1.9-1.3-2.7c-0.6-0.9-1.1-1.7-1.7-2.6c-0.4-0.5-0.7-1-1.1-1.5c-0.2-0.2-0.4-0.5-0.7-0.7
		c-1.2-1.2-2.4-2.2-3.6-3.2c-3.4-2.5-6.9-4.5-10.4-6.5c-0.8-0.3-1.6-0.6-2.4-0.9c-1.1-0.2-2.2-0.3-3.3-0.2c-0.4,0.1-0.7,0.2-1.1,0.3
		c-1.9,0.8-3.7,1.6-5.6,2.7c-1.1,0.8-2.1,1.6-3.2,2.6c-0.1,0.1-0.2,0.3-0.4,0.4c-0.6,0.7-1.4,1.1-2.1,0.9c-2.6-0.3-4.5-4.7-4.1-10
		c0.1-2.1,0.7-3.9,1.4-5.3c-0.1,0.3-0.2,0.5-0.4,0.8c1.9-4.2,4.7-5.7,7.4-6.9c1.5-0.7,2.9-1.3,4.4-1.8c1.8-0.6,3.6-0.6,5.4-0.4
		c3.9,0.5,7.7,2.4,11.4,4.6c1.3,0.8,2.7,1.7,4,2.6c1.4,1,2.9,2.1,4.2,3.5c2.7,2.8,5.2,6.5,7.3,11.1c1.4,3,2.5,6.5,3.4,10.1
		c1.2,4.7,1.9,9.8,2.2,15c0.2,3.4-1,6.7-2.6,7.5c-0.3,0.1-0.5,0.2-0.8,0.2C403,131.5,401.5,129.4,401.2,126.2z"/>
	<path class="st0" d="M388.9,130.6C388.9,130.6,388.9,130.6,388.9,130.6c-0.2-0.5-0.3-1-0.5-1.5c-0.2-0.5-0.5-1.1-0.7-1.6
		c-0.7-1.2-1.3-2.3-2.1-3.3c-0.9-1.4-1.9-2.6-3-3.8c-0.6-0.6-1.2-1.2-1.8-1.7c-0.7-0.5-1.4-0.9-2.1-1.2c-0.5-0.2-0.9-0.4-1.4-0.5
		c-1.7-0.3-3.4-0.2-5.1,0c-1.4,0.2-2.8,0.7-4.2,0.7c-0.6,0-1.2-0.2-1.8-0.5c0,0,0,0,0,0c0,0,0,0,0,0c-3.4-1.9-4-11.9-1.1-15.5
		c1.4-2,3.3-2.1,5-2.5c2.6-0.6,5.3-0.5,7.8,0c3.5,0.7,6.9,3.6,9.9,7.2c1.9,2.3,3.8,5.2,5.4,8.3c1.1,2.1,2.1,4.4,2.8,7.1
		c1.1,4.1,0.4,9.3-1.6,11.5c-0.6,0.7-1.3,1-2,1C391,134.5,389.7,133,388.9,130.6z"/>
	<path class="st0" d="M416.9,137.2c-0.1-0.5-0.1-0.9-0.2-1.4c-0.5-3.1-1.2-6-1.8-9c-1-5.2-1.7-10.5-2.8-15.5
		c-0.4-1.6-0.8-3.2-1.2-4.8c-0.5-1.5-1-2.9-1.6-4.3c-1-2.4-2.1-4.7-3.2-7.1c-0.6-1.4-1.3-2.6-2-3.9c-0.3-0.6-0.6-1.3-0.8-1.9
		c-0.3-0.6-0.6-1.2-0.9-1.8c-1.2-2-2.4-3.8-3.6-5.6c-1.4-2.1-2.6-4.4-3.9-6.4c-0.6-0.6-1.1-1.2-1.7-1.6c-0.8-0.7-1.6-1.3-2.4-2
		c0.1,0.1,0.3,0.2,0.4,0.3c-3.7-2.8-7.5-5.6-11.3-7.7c0.1,0.1,0.3,0.1,0.4,0.2c-0.5-0.2-1.1-0.5-1.6-0.7c0,0,0,0,0,0
		c-2.8-1.1-5.6-2.3-8.4-3c-1.6-0.2-3.2-0.3-4.8-0.2c-3,0.3-5.9,1.1-8.8,2.1c-2.2,1-4.3,2.1-6.4,3.4c-1.3,0.9-2.6,1.8-3.8,2.9
		c-0.2,0.2-0.4,0.4-0.7,0.7c-0.7,0.9-1.5,1.7-2.2,2.6c-1.2,1.6-2.3,3.4-3.6,4.8c-1,1.1-1.9,2.1-3.1,2c-1.4-0.2-2.6-1.3-3.4-3.6
		c-0.9-2.6-1-5.8-0.4-8.7c0.4-2.1,1.3-3.5,2.2-4.8c0.7-1.1,1.5-2,2.3-2.9c0.9-1.1,1.8-2.1,2.8-3.1c1.7-1.8,3.6-3.1,5.4-4.3
		c1.7-1.2,3.4-2.2,5.2-3.2c3.9-2.2,7.9-4.2,11.9-3.8c3.6,0.4,7,1.9,10.5,3.6c4.1,1.8,8.2,3.8,12.2,6.3c2.3,1.5,4.7,3,7,4.6
		c0.9,0.6,1.7,1.2,2.6,1.8c1,0.7,2.1,1.6,3.2,2.1c2,1,3.8,2.8,5.6,4.9c1.5,1.7,2.8,4,4.3,5.7c0.4,0.4,0.7,0.8,1,1.4
		c0.4,0.6,0.8,0.9,1.2,1.5c1,1.7,2,3.4,3,5.1c0.8,1.3,1.5,2.9,2.3,4.4c0.7,1.4,1.4,3,2,4.5c0.9,2.1,1.7,4.2,2.5,6.5
		c0.8,2.4,1.4,5.1,2,7.7c0.7,3.2,1.3,6.7,1.8,10c0.7,4.4,1.6,8.6,2.3,13.1c0.2,1.4,0.4,2.7,0.6,4.2c0.6,5.5-1,11.1-3.7,12.4
		c-0.4,0.2-0.8,0.3-1.2,0.3C419.5,145,417.5,141.8,416.9,137.2z"/>
	<path class="st0" d="M354.6,54.8c-0.8-1.1-1.6-2-2.4-3c-1.3-1.6-2.7-3.2-4-4.7c0.1,0.1,0.2,0.3,0.4,0.4c-1.2-1.3-2.4-2.4-3.7-3.4
		c-2.1-1.5-4.2-2.7-6.3-3.8c-0.4-0.1-0.7-0.2-1.1-0.3c-0.3,0-0.5-0.1-0.8-0.2c-0.7-0.1-1.5-0.3-2.2-0.4c-1.9,0-3.7-0.5-5.6-0.5
		c-0.8,0.1-1.7,0.2-2.5,0.3c-5.1,0.6-10.2,1.6-15.2,3.4c-1.6,0.7-3.2,1.4-4.8,2.3c-0.5,0.3-1,0.7-1.5,1c-1.7,1.3-3.4,2.6-5.1,4
		c-1.1,0.9-2.1,1.8-3.2,2.7c-0.8,0.7-1.6,1.3-2.4,1.6c-0.3,0.2-0.6,0.3-1,0.3c-1.3,0.3-2.6-0.5-3.6-2.5c-1.1-2.4-1.4-5.6-0.9-8.6
		c0,0.1,0,0.2-0.1,0.3c0.1-0.4,0.1-0.8,0.2-1.2c0,0,0,0.1,0,0.1c0.4-1.8,1-3.2,1.8-4.4c-0.1,0.1-0.2,0.2-0.2,0.3
		c1.1-1.7,2.5-2.6,3.8-3.6c1.5-1.2,3.1-2.4,4.6-3.6c3.3-2.5,6.6-3.8,10.1-5c3.8-1.3,7.6-2.3,11.4-3.1c3-0.6,6-1.1,8.9-0.6
		c0,0,0,0-0.1,0c2.1,0.3,4.3,0.5,6.4,1.4c-0.2-0.1-0.3-0.2-0.5-0.2c1.6,0.5,3.2,1.2,4.8,2.4c2.6,1.6,5.1,3.4,7.6,5.7
		c1.7,1.5,3.3,3.5,4.8,5.4c1.8,2.2,3.7,4.4,5.4,6.9c1.4,1.9,1.9,5.6,1,8.6c-0.6,1.9-1.6,3-2.7,3C355.6,55.7,355.1,55.4,354.6,54.8z"
		/>
	<path class="st0" d="M312.2,69.2c-1.6-2.2-2.3-6-1.8-9.9c0.4-3,1.5-5,2.8-6.4c1-1.1,2.1-1.8,3.2-2.5c1.3-0.8,2.6-1.5,3.9-2
		c2.3-0.9,4.7-1.6,7.1-1.8c-0.2,0-0.4,0-0.6,0c2.4-0.2,4.8,0,7.3,0.8c1.7,0.6,3.3,1.4,5,2.3c2.2,1.2,3.5,6.3,2.8,10.6
		c-0.7,4.6-3,6.9-5.2,5.7c-0.4-0.2-0.9-0.4-1.3-0.7c0,0,0,0,0,0c0,0,0,0,0,0c0,0,0,0,0,0c0,0,0,0,0,0c0,0,0,0,0,0c0,0,0,0,0,0
		c-0.1,0-0.2-0.1-0.2-0.1c0,0,0,0,0.1,0c-1.3-0.6-2.7-1-4-1.2c0.2,0,0.4,0.1,0.6,0.1c-1-0.2-2.1-0.2-3.1-0.1
		c-1.7,0.2-3.4,0.8-5.1,1.4c0,0,0.1,0,0.1,0c-0.1,0-0.1,0.1-0.2,0.1c-0.1,0-0.2,0-0.2,0.1c0.1,0,0.1,0,0.2-0.1
		c-1.4,0.6-2.8,1.3-4.2,2.2c-1,0.7-1.9,1.5-2.9,2.1c0,0,0,0,0,0c0,0,0,0,0,0c0,0,0,0,0,0c-0.1,0.1-0.2,0.2-0.4,0.2
		c-0.4,0.3-0.9,0.4-1.4,0.4C313.6,70.4,312.8,70,312.2,69.2z"/>
	<path class="st0" d="M196.1,376.9c0,1.3,0,2.5,0,3.8c0,0.5,0,0.9,0,1.4c0.2,0,0.4-0.1,0.6-0.2c0.3-0.2,0.6-0.3,1-0.5
		c0.1-1.8,0.2-3.6,0.3-5.3c0,0,0,0,0,0c0-0.5,0-0.9,0.1-1.4c0,0,0,0,0,0c0-0.2,0-0.3,0-0.5c0,0,0,0,0,0c0-0.1,0-0.3,0-0.4
		c0,0,0,0.1,0,0.1c0-0.9,0.1-1.9,0.1-2.8c-0.1-2.3,0-4.6,0-7c0-1.1-0.1-2.1-0.2-3.2c-0.1-1.2-0.3-2.4-0.5-3.5
		c-0.2-0.9-0.3-1.7-0.5-2.6c-0.4-1.6-0.9-3.2-1.3-4.7c-0.5-1.6-1.1-3.2-1.6-4.7c-0.2-0.5-0.4-0.9-0.7-1.4c-0.7-1.3-1.5-2.6-2.2-3.9
		c0.2,0.4,0.4,0.8,0.6,1.2c0.5,1,1.1,2.1,1.5,3.3c0.2,0.7,0.4,1.4,0.6,2.1c0.2,0.5,0.3,1,0.4,1.5c0.4,1.5,0.9,3,1.1,4.7c0,0,0,0,0,0
		c0.8,3.7,1.3,7.6,1.4,11.7c0-0.2,0-0.4,0-0.7c0,1.7,0,3.3-0.1,5c0-0.3,0-0.7,0-1C196.5,370.9,196.3,373.9,196.1,376.9z
		 M195.1,394.5c-1-0.2-1.9-0.5-2.8-1.5c-0.8-0.9-1.3-2.3-1.8-3.8c-0.2-0.8-0.4-1.7-0.5-2.6c0,0.3,0.1,0.5,0.1,0.8
		c-0.9-5.3-0.9-11.3-0.9-16.9c0,0,0,0.1,0,0.1c0-0.6,0-1.1-0.1-1.7c0-0.3-0.1-0.6-0.1-0.9c-0.1-0.8-0.3-1.6-0.5-2.4
		c0,0.1,0.1,0.3,0.1,0.4c0-0.1-0.1-0.2-0.1-0.3c-0.2-0.8-0.4-1.6-0.6-2.4c-0.1-0.2-0.1-0.4-0.2-0.5c-0.3-0.7-0.6-1.4-0.9-2.1
		c-0.1-0.3-0.2-0.5-0.3-0.8c-0.1-0.2-0.2-0.4-0.3-0.7c-0.6-0.9-1.1-1.9-1.6-2.9c0.1,0.2,0.2,0.3,0.3,0.5c-0.1-0.2-0.3-0.5-0.4-0.7
		c0-0.1-0.1-0.1-0.1-0.2c0,0.1,0.1,0.1,0.1,0.2c-0.7-1.3-1.4-2.6-2.2-3.7c-0.6-0.8-1.1-1.5-1.7-2.1c-1.4-1.5-2.8-2.7-4.2-4
		c-1.4-1.3-2.8-2.7-4-4.6c-1-1.4-2-2.8-2.8-4.6c-1.3-2.5-2.6-5-3.7-7.9c0.1,0.3,0.3,0.6,0.4,0.9c-0.3-0.7-0.5-1.3-0.8-2
		c0,0.1,0.1,0.2,0.1,0.3c-1.3-3.4-2.5-7-3.6-10.7c-1.1-3.8-0.5-8.9,1.3-11.5c1.9-2.8,4.8-2,6.1,1.9c0.8,2.3,1.6,4.5,2.5,6.6
		c0,0,0,0,0,0.1c0,0,0-0.1-0.1-0.1c0,0.1,0.1,0.2,0.1,0.3c0,0.1,0,0.1,0.1,0.2c0,0,0-0.1-0.1-0.1c0.2,0.4,0.4,0.8,0.5,1.2
		c0.7,1.3,1.4,2.9,2.1,4.2c0.3,0.6,0.6,1.1,0.9,1.6c0.7,0.8,1.4,1.8,2,2.7c1,0.8,1.9,1.7,2.8,2.5c1.3,1.1,2.5,2.1,3.8,3.3
		c0.5,0.5,1,1,1.6,1.6c-1.1-1.4-2.2-2.8-3.3-4c-2.9-2.9-5.8-5.6-8.1-10.2c-0.7-1.4-1.4-3-1.9-4.6c-0.7-2-1.4-4.1-1.5-6.6
		c0-0.1,0-0.3,0-0.4c0-0.1,0-0.1,0-0.2c0,0,0,0,0,0c0,0,0-0.1,0-0.1c0,0,0-0.1,0-0.1c0-0.1,0-0.3,0-0.4c-0.1-1.6,0.1-3.2,0.5-4.5
		c0.1-0.5,0.3-0.9,0.4-1.4c0,0.1,0,0.1,0,0.2c1.2-2.9,3.3-4.4,5.1-2.4c0.1,0.1,0.3,0.3,0.4,0.4c0.3,0.4,0.7,1.1,1,1.6
		c0,0.1,0,0.1,0.1,0.2c0.6,1.2,1.1,2.6,1.7,4c0.3,0.7,0.7,1.4,1,2.1c0.3,0.6,0.7,1.1,1,1.7c1.9,2.5,3.9,4.7,5.8,7.2
		c1.7,2.2,3.3,4.6,4.9,7c1.9,3,3.8,6.1,5.6,9.4c1.7,3,3,6.3,4.2,10.1c1.8,5.5,3,11.5,3.4,18c0.2,4.4,0.3,9.3-0.2,13.6
		c-0.3,3.5-0.4,6.9-0.7,10.4c-0.3,3.6-1.2,7.3-2.8,9c0,0,0,0,0,0c-1.7,2.1-3.9,3.1-6,3.1C195.7,394.6,195.4,394.6,195.1,394.5z"/>
	<path class="st0" d="M185.1,413.1c-2.8-0.1-5.5-0.6-8.3-1.5c-1,0.1-1.9-0.6-2.7-1.8c-0.2-0.3-0.4-0.6-0.5-1
		c-1.4-2.5-1.4-6.6-1.3-10.1c0.1-3,0.1-6,0.1-9.1c0-1.3-0.1-2.5-0.1-3.8c-0.2-2.1-0.3-4.4-0.5-6.5c-0.3-2.9-0.6-5.8-1-8.7
		c-0.2-1.4-0.5-2.8-0.8-4.2c-0.2-0.6-0.3-1.2-0.5-1.8c-0.2-0.6-0.4-1.2-0.6-1.8c-0.4-1-0.9-2-1.4-2.9c-0.4-0.8-0.9-1.5-1.3-2.2
		c0.1,0.2,0.3,0.4,0.4,0.6c-1.9-2.8-3.9-5.3-5.9-7.8c-2.2-2.8-4.2-6.2-6-10c-1.8-3.9-3.2-8.7-4.5-13.3c-0.9-2.9-1.8-6.4-1.9-9.9
		c0-0.4,0-0.8,0-1.2c0,0.1,0,0.3,0,0.4c0,0,0,0,0-0.1c0,0.1,0,0.3,0,0.4c0-1.4,0-2.7,0.2-4c0.6-3.6,2.2-6.1,4-6
		c1.8,0.1,3.3,2.5,3.8,5.8c0.4,1.2,0.7,2.5,1,3.7c0.6,2.3,1.3,4.5,1.9,6.6c0.6,1.9,1.2,3.9,1.9,5.7c0.7,1.5,1.4,3,2.1,4.4
		c0.5,0.9,1.1,1.7,1.7,2.6c-0.1-0.1-0.1-0.2-0.2-0.3c0.3,0.4,0.6,0.8,0.8,1.2c0,0,0,0.1,0.1,0.1c0,0,0-0.1-0.1-0.1
		c0.1,0.1,0.1,0.1,0.1,0.2c0,0.1,0.1,0.1,0.1,0.2c0,0,0,0.1,0.1,0.1c0,0,0,0,0-0.1c0.5,0.7,1,1.3,1.4,2c-0.1-0.2-0.3-0.4-0.4-0.6
		c1.7,2.4,3.5,4.7,5,7.4c1.4,2.4,2.6,5,3.7,7.9c1.8,4.9,2.9,10.7,3.6,16.6c0.9,7.5,1.2,15.5,0.9,23.2c0,0,0,0,0,0c0,0.5,0,1-0.1,1.5
		c0,0,0,0,0,0c0,0,0,0,0,0c0,0.1,0,0.2,0,0.3c0,0,0-0.1,0-0.1c-0.1,1.4-0.2,2.8-0.2,4.2c1,0.4,2.1,0.7,3.2,0.9
		c1.4,0.3,2.9,0.3,4.4,0.2c0.2,0,0.3,0,0.5-0.1c0.1-1.5,0.3-2.9,0.4-4.4c0-0.3,0-0.5,0-0.8c0,0,0,0,0,0c0-0.1,0-0.1,0-0.2
		c0,0,0,0,0-0.1c0,0,0,0,0,0c0-0.7,0.1-1.3,0.1-2c0,0,0,0.1,0,0.1c0.1-1.5,0.1-3.1,0.1-4.6c-0.1-2.2-0.2-4.4-0.3-6.5
		c0-0.3,0-0.5-0.1-0.8c0-0.5-0.1-1-0.1-1.5c0,0.2,0,0.4,0.1,0.7c0-0.6-0.1-1.2-0.1-1.8c-0.1-0.5-0.2-1-0.2-1.5
		c-0.1-0.9-0.2-1.7-0.3-2.5c-0.1-1.2-0.3-2.5-0.5-3.7c-0.1-0.3-0.1-0.6-0.2-0.9c-0.1-0.5-0.2-1.1-0.4-1.6c-0.3-1.1-0.6-2.3-0.9-3.3
		c-0.6-1.8-1.3-3.5-2-5.2c-0.7-1.7-1.2-3.5-1.8-5.3c-1.6-4.7-1.2-11.3,1.1-14.7c2.3-3.3,5.6-2.4,7.2,2.3c0.9,2.6,1.8,5.1,2.7,7.7
		c1.5,4.1,2.8,8.9,3.4,13.9c0,0,0,0,0,0c0.3,2.2,0.5,4.5,0.6,6.8c0.1,1.3,0.1,2.6,0,3.9c0,1.1-0.1,2.1-0.2,3c0,0.2,0,0.5-0.1,0.7
		c0,0.5,0,0.9-0.1,1.4c0,0.3,0,0.6,0,0.8c0,0.3,0,0.7,0,1c0,0.1,0,0.3,0,0.4c0,0.2,0,0.4,0,0.5c0,0.1,0,0.2,0,0.3c0,0.2,0,0.3,0,0.5
		c0,0,0-0.1,0-0.1c0,0.1,0,0.1,0,0.2c0,1.4-0.1,2.9-0.2,4.3c0-0.3,0-0.7,0-1.1c-0.1,3.2-0.3,6.4-0.6,9.5c-0.2,1.9-0.4,3.7-0.7,5.6
		c-0.2,1.9-0.5,4.1-1.1,5.7c-0.4,1.5-1,2.8-1.8,3.7c0,0,0,0,0,0c-1.6,1.9-3.4,2.2-5.3,2.2C186.1,413.2,185.6,413.2,185.1,413.1z"/>
	<path class="st0" d="M188.3,392.8c0,0.2,0,0.4,0,0.5C188.3,393.1,188.3,392.9,188.3,392.8z"/>
	<path class="st0" d="M176.7,425.4c-2.9,0.3-5.9-0.6-8.7-1.9c0,0,0,0,0,0c-1.6-0.7-3.1-1.5-4.7-2.3c-1.1-0.6-2.3-1-3.4-1.9
		c-1.5-1-2.5-3.3-3.2-6.1c0.1,0.3,0.1,0.5,0.2,0.8c-0.1-0.5-0.2-1-0.3-1.5c0-0.1,0-0.3-0.1-0.4c0,0,0,0,0-0.1
		c-0.4-2.6-0.2-5.6-0.1-8.3c0.2-3.3,0.4-6.7,0.6-10c0-0.8,0-1.5,0.1-2.3c0-2.1,0.2-4.3,0.3-6.5c0.1-2.5,0.1-5,0.1-7.4
		c0-0.3,0-0.6,0-0.8c-0.1-2.2-0.2-4.4-0.4-6.6c-0.2-1.8-0.4-3.7-0.6-5.4c-0.3-1.6-0.6-3.2-1-4.7c-0.1-0.5-0.3-1.1-0.4-1.6
		c-0.3-1-0.7-2-1.1-2.9c-0.8-2-1.7-3.8-2.7-5.6c0,0.1,0.1,0.2,0.1,0.3c-1.6-3-3.3-5.8-4.9-8.8c0.1,0.3,0.3,0.5,0.4,0.8
		c-1.1-2.1-2.2-4.4-3.1-6.8c-1-2.6-1.9-5.4-2.6-8.4c-0.8-3.4-1.6-6.8-2.3-10.3c-0.4-2.1-0.7-4.3-0.6-6.5c0,0,0,0.1,0,0.1
		c0,0,0-0.1,0-0.1c0-3.4,1.1-6.6,2.7-7.8c1.7-1.4,3.9-0.3,4.9,2.9c0.4,0.9,0.6,1.9,0.9,3.1c0.6,2.8,1.2,5.7,1.9,8.5
		c0.5,2.1,1,4.2,1.6,6.2c0.4,1.2,0.9,2.3,1.3,3.4c1.1,2.6,2.3,5,3.6,7.3c-0.1-0.3-0.3-0.5-0.4-0.8c2.3,4.4,4.6,8.9,6.5,14.1
		c0.9,2.6,1.6,5.3,2.3,8.2c0.7,3.3,1.3,6.6,1.6,10.2c0.5,5.7,0.6,11.4,0.3,17.1c-0.2,4.2-0.7,8.4-1.1,12.5c0-0.3,0.1-0.7,0.1-1
		c-0.1,0.7-0.2,1.4-0.3,2.1c-0.4,3.6-0.7,7.3-0.9,11.1c0,0,0,0,0,0c0,0.3,0,0.6,0,1c0.8,0.5,1.6,0.9,2.5,1.3c1.2,0.5,2.3,1,3.5,1.3
		c0.6,0.1,1.2,0.3,1.9,0.4c0,0,0,0,0,0c0.1,0,0.3,0.1,0.4,0.1c0,0,0,0,0,0c0.1,0,0.3,0,0.4,0.1c0.9,0.1,1.8,0.3,2.8,0.3
		c0-0.2,0-0.4,0-0.6c0.2-4.4,2.5-7.4,4.6-6.8c2.1,0.7,3.8,4.9,3.3,9.3c-0.1,1.3-0.3,2.5-0.5,3.7c-0.1,0.4-0.2,0.7-0.2,1.1
		c0,0,0,0,0,0c-0.9,3.7-2.5,6.9-4.5,7c-0.3,0.1-0.7,0.1-1,0.1C176.4,425.4,176.5,425.4,176.7,425.4z"/>
	<path class="st0" d="M144.6,390.1c-1.9,0.2-3.8-1.6-4.9-4.7c-0.9-2.4-1.3-5.6-1.7-8.4c-1.1-8.1-1.5-16.5-2.2-24.7
		c-0.1-1.1-0.2-2.2-0.3-3.3c-0.4-2.6-0.9-5.1-1.5-7.7c-1.4-5.7-2.9-11.1-4.6-16.5c-1.1-3.3-2.3-6.4-3.5-9.5
		c-0.8-1.8-1.6-3.5-2.4-5.3c-0.7-1.5-1.4-3.2-1.8-5.2c0.1,0.3,0.2,0.7,0.2,1c-0.4-1.5-0.5-3.1-0.5-4.6c0,0,0,0,0,0.1
		c0-0.1,0-0.2,0-0.3c0-0.6,0.1-1.3,0.2-1.9c0-0.1,0-0.2,0-0.4c0,0.1,0,0.1,0,0.2c0,0,0,0,0,0c0,0.1,0,0.2,0,0.3c0-0.2,0-0.4,0.1-0.5
		c0-0.1,0-0.2,0-0.2c0.2-1,0.4-1.9,0.7-2.8c1.4-3.7,4.7-4.3,6.2-0.5c0,0.1,0.1,0.1,0.1,0.2c0,0,0,0,0,0c1.4,2.2,2.6,5.1,3.7,7.8
		c1.5,3.6,2.8,7.4,3.9,11.4c2,6.7,3.9,13.6,5.5,20.7c0.6,2.6,1,5.2,1.4,7.8c0.4,2.7,0.6,5.7,0.8,8.5c0.3,3.9,0.5,7.8,0.9,11.7
		c0,0.2,0,0.4,0.1,0.7c0,0,0,0,0,0c0.4,3.8,0.8,7.5,1.3,11.1c0,0.1,0,0.1,0,0.2c0.1,0.1,0.2,0.1,0.3,0.2c2.1,0.3,4.1,0.4,6.2,0.3
		c0.5,0,1.1,0,1.6,0c1,0,2,0,3,0c0.2,0,0.5-0.1,0.7-0.2c1.6-0.4,3.1,1.8,3.5,4.9c0.4,3.3-0.6,7.2-2.3,7.9c-1,0.4-2,0.6-2.9,0.7
		c0,0,0,0,0,0c-0.3,0-0.6,0.1-0.9,0.1c-0.1,0-0.3,0-0.4,0c0,0,0.1,0,0.1,0c0,0-0.1,0-0.1,0c0,0,0,0,0,0c0,0,0,0,0,0c0,0-0.1,0-0.1,0
		c-0.1,0-0.2,0-0.2,0c0.1,0,0.1,0,0.2,0c-0.5,0.1-0.9,0.1-1.4,0.1c0.1,0,0.1,0,0.2,0c-1.7,0.2-3.3,0.5-5,0.6c0.1,0,0.1,0,0.2,0
		c-0.1,0-0.2,0-0.3,0c0,0,0,0,0,0c-0.1,0-0.1,0-0.2,0c-0.1,0-0.2,0-0.3,0c0.1,0,0.1,0,0.2,0c-0.2,0-0.5,0.1-0.7,0.1
		c-0.3,0-0.7,0.1-1,0.1c-0.4,0.2-0.9,0.2-1.4,0.2C145,390.1,144.8,390.1,144.6,390.1z"/>
	<path class="st0" d="M236.8,401.3c-0.8,0-1.5-0.4-2.3-0.8c-0.9-0.4-1.8-1-2.7-1.6c-1.8-1.3-3.5-2.9-5.3-4.4
		c-4-3.6-8.2-6.6-12.3-9.8c0.2,0.1,0.3,0.3,0.5,0.4c-2.8-2.1-5.8-3.5-8.6-5.6c-1.2-0.9-2.6-1.7-3.7-3.1c-1.1-1.4-1.9-3.4-2.2-6
		c-0.4-3,0.1-6.3,1.2-8.4c0.8-1.6,1.9-2.4,3-2.4c0,0,0,0,0,0c0.1,0,0.3,0,0.4,0.1c0.3,0,0.5,0.1,0.7,0.2c-0.1,0-0.1-0.1-0.2-0.1
		c0.1,0,0.2,0.1,0.3,0.2c0.1,0,0.1,0,0.2,0.1c0.4,0.2,0.7,0.5,1.1,0.9c0,0,0,0,0.1,0c1.1,0.8,2.1,1.7,3.2,2.5c0,0-0.1-0.1-0.1-0.1
		c0.1,0.1,0.2,0.1,0.3,0.2c0.1,0,0.1,0.1,0.2,0.1c0,0,0,0,0,0c3.6,2.7,7.1,5.4,10.6,8.2c2.2,1.7,4.3,3.5,6.5,5.3
		c1.6,1.4,3.2,3.1,4.9,4.4c2,1.4,3.9,2.6,5.9,3.7c0.4,0.1,0.7,0.2,1,0.3c1.3,0.2,2.7,0.1,4,0c1.4-0.2,2.8-0.4,4.2-0.5
		c0.6-0.2,1.2-0.3,1.9-0.5c0.5-0.2,1-0.5,1.4-0.8c2.4-1.7,4.8-3.7,7.1-5.7c0.6-0.6,1.2-1.4,1.8-2.1c0.8-1.1,1.6-2.2,2.4-3.2
		c0.9-1.1,1.8-2,2.7-2.9c2.1-2.2,4.3-4.1,6.5-6.1c2-1.8,4-3.6,6-5.2c0.8-0.9,1.7-1.5,2.6-2.3c0,0-0.1,0.1-0.1,0.1
		c2.8-2.5,5.7-3.5,8.7-4.7c1.4-0.5,2.9-0.8,4.3-1.1c1.5-0.3,3.1,0,4.7,0c1.3-0.2,2.7-0.4,4-0.5c0.4-0.1,0.8-0.2,1.2-0.2
		c0.1,0,0.3-0.1,0.4-0.1c1.8-0.9,3.6-1.8,5.3-2.9c1.2-0.9,2.5-1.8,3.7-2.9c0.6-0.6,1.2-1.2,1.7-2c0.3-0.4,0.6-0.9,0.9-1.3
		c0.1-0.2,0.3-0.5,0.4-0.7c1.2-2,2.3-4.1,3.4-6.3c0.1-0.1,0.1-0.3,0.2-0.4c0.7-1.8,1.6-3.4,2.4-5.1c0.1-0.2,0.2-0.5,0.3-0.7
		c0,0.1,0,0.1-0.1,0.2c1.8-4.2,3.6-8.6,5.3-12.9c1.7-4.3,4.9-4.8,6.9-1.4c1,1.6,1.6,4,1.8,6.6c0.2,3.2-0.4,6.1-1.5,8.4
		c-1.1,2.4-2.3,4.8-3.4,7.2c-0.8,1.6-1.6,3.1-2.5,4.6c-1.1,2-2.1,4.4-3.4,6c-0.1,0.2-0.3,0.5-0.4,0.7c-0.4,0.6-0.7,1.2-1.1,1.8
		c0-0.1,0.1-0.1,0.1-0.2c-0.1,0.1-0.1,0.2-0.2,0.3c0,0.1-0.1,0.1-0.1,0.2c0,0,0,0,0,0c-1.7,3-3.5,5.8-5.4,8.2
		c0.1-0.2,0.3-0.4,0.4-0.6c-3.9,5-8.2,8-12.6,10.7c-1.2,0.9-2.5,1.8-3.7,2.1c-1.5,0.4-3,0.8-4.4,1.2c-2.7,0.9-5.4,1.2-8,2.2
		c-2.3,0.9-4.6,1.9-6.9,2.4c-0.7,0.3-1.3,0.7-2,0.9c-2.8,2-5.7,4-8.5,6.2c-0.8,0.6-1.6,1.2-2.4,1.8c-0.4,0.3-0.9,0.6-1.3,0.9
		c-0.6,0.4-1.2,1-1.9,1.4c-1.8,0.9-3.6,1.8-5.3,2.8c-2,1.4-4,3.1-6,4.6c-1.9,1.4-3.8,2.8-5.7,4c-1,0.6-2.1,0.9-3.1,1.1
		c-1.2,0.3-2.4,0.6-3.6,0.9c-2,0.4-4,1.1-6,1.2C236.9,401.3,236.9,401.3,236.8,401.3z"/>
	<path class="st0" d="M232.8,363.7c-1.4-0.2-2.8-0.5-4.2-0.9c-3.8-0.9-7.5-2.8-11.2-4.3c-3.8-1.5-7.5-3-11.3-4.6
		c-1.6-0.7-3.3-1.3-4.8-2.3c-1.4-0.9-2.8-2.9-3.3-5.9c0,0.2,0.1,0.3,0.1,0.5c-0.5-2.2-0.6-4.6-0.2-6.8c0.2-1.3,0.6-2.5,1.1-3.5
		c1.2-2.3,2.9-2.8,4.4-1.7c0.3,0.1,0.6,0.3,1,0.5c1.4,0.7,2.8,1.4,4.2,2.1c3.1,1.6,6.3,3.5,9.4,5c0,0,0,0,0,0c0,0,0,0,0,0
		c0,0,0,0,0,0c0,0,0.1,0,0.1,0c0.1,0,0.1,0.1,0.2,0.1c2.7,1.2,5.5,2.5,8.2,3.4c2.5,0.8,5.1,1.4,7.6,1.9c1.5,0.2,2.9,0.4,4.4,0.7
		c1.6,0,3.2,0,4.8-0.1c1-0.1,1.9-0.3,2.8-0.3c0.7-0.2,1.4-0.5,2.1-0.6c2.5-1,4.9-2.4,7.3-3.9c-0.1,0.1-0.2,0.2-0.4,0.3
		c0.3-0.2,0.7-0.4,1-0.6c1.6-1.1,3.1-2.2,4.7-3.4c0.5-0.5,1-0.9,1.5-1.1c0.5-0.3,1-0.6,1.4-1c0.7-0.5,1.3-1,1.9-1.4
		c0.5-0.5,1.1-1,1.6-1.3c0.8-0.4,1.5-0.9,2.3-1.3c2-1.5,4.2-2.3,6.3-3.3c1.5-0.7,3.1-1.4,4.7-2c0,0,0,0,0,0
		c3.7-1.3,7.5-1.4,11.2-1.8c-0.2,0-0.5,0-0.7,0.1c1.3-0.2,2.6-0.5,3.9-0.8c-0.2,0.1-0.4,0.2-0.7,0.3c1.3-0.5,2.7-1,4-1.5
		c1.4-0.8,2.8-1.6,4.2-2.5c1.6-1.1,3.2-2.4,4.8-3.9c0.1-0.1,0.3-0.3,0.4-0.4c0,0,0,0-0.1,0.1c0.5-0.5,1-1,1.5-1.5
		c1.4-1.6,2.8-3.3,4.2-4.8c3.5-4.7,6.9-9.8,10.2-15.1c0-0.1,0.1-0.2,0.2-0.3c0,0.1-0.1,0.1-0.1,0.2c0.5-0.9,1-1.8,1.4-2.7
		c0,0,0,0,0,0c0.1-0.3,0.2-0.6,0.4-0.8c1.5-3.7,4.3-4.4,6.1-1.3c1.9,3.2,2.2,9.8,0.2,13.3c-0.1,0.1-0.2,0.3-0.2,0.4
		c-0.3,0.5-0.5,0.9-0.8,1.4c-0.1,0.2-0.2,0.4-0.4,0.6c-0.1,0.1-0.1,0.2-0.2,0.4c0,0,0-0.1,0.1-0.1c-1.4,2.3-2.8,4.4-4.2,6.5
		c-2.7,4-5.4,8-8.1,12c-0.1,0.2-0.2,0.3-0.3,0.5c-1.2,2-2.6,3.8-3.9,5.5c-0.7,1.2-1.6,2.1-2.4,3.1c-0.9,1.1-1.9,2-2.8,3
		c-1.6,1.6-3.3,3-5,4.2c-1.1,0.8-2.2,1.5-3.3,2.3c-1.3,0.9-2.7,1.4-4,2.1c-2.5,1.3-5.2,0.9-7.8,0.4c-0.6-0.1-1.3-0.2-1.9-0.4
		c-1.8-0.3-3.6-0.3-5.4-0.2c-0.2,0-0.5,0-0.7,0c-1.2,0.2-2.4,0.4-3.5,0.8c-1.9,0.5-3.7,1.3-5.6,1.6c0.1,0,0.2-0.1,0.4-0.1
		c-0.5,0.2-1.1,0.4-1.6,0.6c-0.4,0.2-0.9,0.3-1.3,0.5c-0.4,0.2-0.8,0.2-1.2,0.3c-0.4,0.2-0.8,0.3-1.2,0.4c-1.2,0.6-2.3,1.2-3.5,1.6
		c-1.4,0.8-2.8,1.7-4.2,2.6c-1.4,1-2.9,2.1-4.3,3.2c-0.7,0.5-1.3,1-2,1.5c-0.8,0.5-1.6,1-2.4,1.5c-0.8,0.7-1.6,1-2.5,1.5
		c-1.3,0.9-2.6,1.2-3.9,1.7c-1.7,0.6-3.5,0.7-5.3,0.8c0.2,0,0.4,0,0.5,0c-0.6,0.1-1.1,0.2-1.7,0.2
		C235.7,364.2,234.2,363.9,232.8,363.7z"/>
	<path class="st0" d="M233.4,341.1c-1.6-0.3-3.2-0.8-4.8-1.2c-1-0.1-2,0-2.9-0.3c-1-0.3-1.9-0.5-2.9-0.8c-2.3-0.7-4.7-1.3-7-2.4
		c-5-2.4-9.5-7.2-14.1-11.6c-2.1-2-4.1-4.3-6.1-6.3c-2.2-2.3-4.3-5.1-6.3-8.1c-1.7-2.5-3.5-5-5-8c-1.5-3-2-7.9-0.8-11.6
		c0,0.2-0.1,0.3-0.1,0.4c0.4-1.4,0.9-2.6,1.6-3.5c0.7-0.8,1.4-1,2.1-1c0,0,0,0,0,0c0.4,0.1,0.9,0.2,1.3,0.4c-0.5-0.3,0,0,0.3,0.2
		c0,0,0,0,0,0l0,0c0,0,0,0,0,0c0,0,0,0,0,0c0,0,0,0,0,0c0.3,0.3,0.7,0.7,1,1.1c1.1,1.4,2.2,3.3,3.2,5c1.1,1.7,2.2,3.3,3.3,5
		c-0.2-0.2-0.3-0.4-0.5-0.7c1.5,2.2,3,4.3,4.6,6.2c1.5,1.8,3,3.3,4.4,5c2.7,2.8,5.4,5.8,8.2,8.1c2.2,1.6,4.5,2.8,6.7,4.1
		c0.4,0.2,0.8,0.4,1.2,0.6c-0.2-0.1-0.4-0.2-0.5-0.2c1.5,0.7,3,1.4,4.5,2.1c0.7,0.3,1.4,0.7,2,1c0.7,0.3,1.3,0.8,1.9,1.3
		c0.3,0.2,0.6,0.3,0.8,0.5c2.4,0.9,4.8,1.7,7.2,2.6c-0.1,0-0.3-0.1-0.4-0.1c0.5,0.1,1,0.2,1.4,0.1c-0.1,0-0.3,0-0.4,0
		c1.3-0.3,2.6-0.7,3.9-1.1c1.1-0.6,2.2-1.2,3.3-1.8c0.2-0.2,0.4-0.3,0.6-0.5c0,0,0,0,0,0c1.2-1.1,2.4-1.9,3.6-2.9
		c1.5-1.5,3-2.7,4.5-4c1.3-1.3,2.6-2.7,3.9-4.2c0.5-0.8,1-1.5,1.5-2.1c0.5-0.7,1.1-1.4,1.6-2c1.3-2,2.8-3.6,4.2-5.3
		c0.3-0.3,0.6-0.7,0.8-1c-0.2,0.2-0.4,0.4-0.5,0.7c1.2-1.5,2.4-2.7,3.7-3.9c3.3-3,7-4.3,10.6-4.6c2-0.2,4-0.1,6.1-0.1
		c1.5,0,3-0.2,4.4,0c0.5-0.1,0.9-0.2,1.4-0.1c1.2-0.3,2.4-0.6,3.7-0.9c0.1-0.1,0.3-0.2,0.4-0.2c3-2.1,6-4.4,8.9-7
		c0.7-0.7,1.4-1.4,2.1-2.1c0.7-0.9,1.5-1.7,2.2-2.6c0.6-1,1.2-1.9,1.9-2.8c0.6-0.9,1.2-1.8,1.8-2.7c0.7-1.3,1.5-2.4,2.2-3.6
		c1-1.6,2-3.2,3-4.7c2.3-3.5,5.7-2.3,7.3,2.3c1.6,4.5,1.2,11.7-1.1,14.9c-1.6,2.1-3,4.4-4.6,6.4c0-0.1,0.1-0.1,0.1-0.2
		c-0.9,1.1-1.8,2.2-2.7,3.3c-1.1,1.3-2.4,2.8-3.7,3.5c-0.9,0.9-1.9,1.8-2.9,2.4c-2.4,1.9-4.7,3.7-7.1,5.4c-2,1.5-4.2,2.7-6.2,4.4
		c-1.3,1.1-2.8,1.6-4.2,2.2c0.1-0.1,0.2-0.1,0.3-0.2c-0.6,0.4-1.2,0.6-1.9,0.9c-1.3,0.7-2.7,0.8-4,1.1c-1.6,0.3-3.3,0.3-4.9,0.8
		c-1.4,0.5-2.8,0.7-4.2,1.1c-1.7,0.7-3.3,1.6-5,2.5c-0.1,0.1-0.2,0.1-0.3,0.2c-1.9,1.4-3.8,3-5.6,4.7c-0.6,0.6-1.2,1.2-1.9,1.7
		c-1.2,1.2-2.4,2.5-3.7,3.1c-1.3,1-2.5,2-3.8,2.8c-0.8,0.5-1.5,1.1-2.3,1.6c-1,0.7-2,1.5-3,2c-1.1,0.5-2.2,1.3-3.3,1.9
		c-0.7,0.4-1.4,0.6-2.1,0.8c-3,1.3-6,2.3-9.1,2.7c-0.3,0-0.6,0.1-0.8,0.1C235.5,341.6,234.5,341.4,233.4,341.1z"/>
	<path class="st0" d="M283.1,288.7c-0.3-0.2-0.5-0.4-0.7-0.7c-2.2-2.7-2.4-8.6-0.9-12.5c0,0,0,0,0,0c0.4-1.2,1-2,1.6-2.6
		c1.4-1.5,3-2,4.6-2.7c2.3-1,4.5-2.1,6.7-3.5c2.4-1.6,4.9-3.4,7.2-5.6c0.3-0.3,0.6-0.6,0.9-0.9c2.1-2.1,4.7-0.9,5.9,3.5
		c1.1,4.1,0.4,9.7-1.7,12c-2.3,2.4-4.7,4.4-7.1,6.2c-2.1,1.6-4.2,3-6.3,4.2c-1.2,0.7-2.4,1.2-3.6,1.7c-1.2,0.5-2.3,1-3.5,1.4
		c-0.3,0.1-0.6,0.2-0.8,0.2c-0.2,0.1-0.4,0.1-0.6,0.1C284.2,289.3,283.6,289.2,283.1,288.7z"/>
	<path class="st0" d="M306.9,402.4c-2.2-0.2-4.3-0.3-6.5-0.6c-2.1-0.3-4.1-1-6.1-2c-3.3-1.6-6.5-3.6-9.6-6.1
		c-1.7-1.4-3.3-2.9-4.9-4.6c-1.2-1.3-2.3-2.6-3.4-4.3c0,0.1,0.1,0.1,0.1,0.2c-0.9-1.4-1.6-3.1-1.9-5.4c-0.5-4.1,0.6-8.6,2.6-10.1
		c1.5-1.2,3.1-0.5,4.5,1.1c1.5,1.8,3,3.6,4.5,5.3c1.5,1.6,3.1,3,4.7,4.4c1.4,1.1,2.8,2,4.3,2.9c4.1,1.7,8.2,3,12.3,4.1
		c1.2,0.2,2.4,0.4,3.6,0.7c2.3,0.2,4.6,0.5,7,0.4c1.8-0.3,3.6-0.6,5.5-0.9c2.4-0.5,4.9-1.5,7.3-2.3c-0.1,0-0.3,0.1-0.4,0.1
		c1.8-0.7,3.6-1.3,5.3-2.3c0.4-0.3,0.8-0.6,1.3-1c2.7-2.8,5.5-5.7,8.1-9c0,0,0,0,0,0c0,0,0-0.1,0.1-0.1c0.1-0.1,0.1-0.1,0.2-0.2
		c0,0,0,0,0,0c1-1.4,2.1-2.8,3.1-4.4c0.9-1.7,1.8-3.4,2.6-5.2c0.4-0.8,0.7-1.7,1.1-2.5c0,0,0,0,0-0.1c0.6-1.6,1.1-3.3,1.6-5
		c0.2-0.8,0.4-1.7,0.6-2.6c0,0,0-0.1,0-0.1c0,0,0,0,0,0c0,0,0,0,0,0c0-0.1,0-0.2,0.1-0.4c0,0.1,0,0.2,0,0.2c0.4-1.9,1-3.5,2-4.6
		c1-1.2,2.3-1.4,3.4-0.7c2.4,1.5,4,7.5,2.8,12.3c-0.6,2.4-1.3,4.6-2.1,6.8c0,0,0,0,0,0c-0.6,1.8-1.3,3.5-2.1,5.1
		c-0.1,0.2-0.2,0.4-0.3,0.6c0,0,0,0,0-0.1c-0.1,0.2-0.1,0.3-0.2,0.4c-0.1,0.1-0.1,0.2-0.2,0.3c0,0,0,0,0,0c-1.5,3.2-3.1,5.9-5,8.2
		c0.1-0.2,0.3-0.3,0.4-0.5c-2.4,3.3-5,6-7.6,8.5c-1.2,1.2-2.5,2.4-3.8,3.5c-1.2,1.1-2.6,1.8-3.9,2.4c-2.9,1.4-5.8,2.4-8.8,3.5
		c-2.1,0.7-4.1,1.5-6.2,2c-1.7,0.4-3.3,0.7-5,1.1c-1.7,0.4-3.5,1-5.3,1c-1.1,0-2.2,0.1-3.3,0.1C308.6,402.5,307.8,402.4,306.9,402.4
		z"/>
	<path class="st0" d="M315.6,373.3c-1.4-0.1-2.9-0.2-4.3-0.2c-1.6-0.1-3.3-0.3-4.9-0.9c-1.1-0.4-2.1-0.9-3.1-1.5
		c-0.7-0.4-1.3-1.1-1.8-2c-1.2-1.8-1.9-5.1-1.6-8.1c0.3-2.6,0.9-4.4,1.7-5.6c1.2-1.9,2.9-2,4.4-1.4c2,0.8,4,1.5,6,1.9
		c3.6,0.5,7.3,0.8,10.9,0.5c1.2-0.1,2.5-0.3,3.7-0.6c1.6-0.6,3.1-1.4,4.6-2.3c1.2-0.8,2.4-1.8,3.6-2.8c1.3-1.3,2.5-2.7,3.7-4.2
		c0.7-1,1.4-2,2.1-3.1c0.2-0.3,0.4-0.7,0.6-1c1.6-3.2,4.3-3,5.8,0.3c1.6,3.4,1.4,8.7-0.2,11.9c-1.4,2.8-3.1,4.9-4.8,7
		c-2.9,3.5-5.9,6.2-9.1,8.2c-2.3,1.5-4.8,2.7-7.2,3.3c-2.7,0.6-5.5,0.9-8.3,0.9C316.9,373.4,316.3,373.4,315.6,373.3z"/>
	<path class="st0" d="M324.6,348.3c-0.7-0.6-1.4-1.7-1.8-3c0,0,0,0,0,0c-0.9-2.4-1.1-5.5-0.5-8.6c0.4-2.1,1.4-3.6,2.3-4.5
		c0,0,0,0,0,0c0.1-0.1,0.2-0.2,0.3-0.2c0.7-0.5,1.4-0.7,2.2-0.9c0.3-0.1,0.5-0.2,0.8-0.3c1.6-0.6,3.2-1.3,4.8-2.3
		c0.2-0.2,0.5-0.3,0.7-0.5c2.3-1.7,4.9,0.5,5.8,5.1c0.9,4.5-0.2,10-2.5,11.7c-1.6,1.2-3.3,2.1-4.9,2.8c-1.1,0.5-2.2,0.9-3.3,1.2
		c-0.5,0.1-1.1,0.3-1.6,0.3C326,349.2,325.2,349,324.6,348.3z"/>
	<path class="st0" d="M256.6,458.6c-3.3-0.4-6.6-0.2-9.8-0.1c-3.2,0-6.4,0.5-9.6,0.3c-1.5-0.1-3.1-0.3-4.6-0.4
		c-1.4-0.1-2.9-0.1-4.3-0.4c-3.1-0.7-6.3-1.3-9.4-2c-3-0.7-6.1-1.5-9.1-2.2c-3.1-0.7-6.1-0.9-9.2-1.9c-3.1-1-6.2-2-9.3-2.7
		c-1.6-0.3-3.2-0.6-4.7-1.2c-1.8-0.6-3.6-1.2-5.4-1.8c-1.9-0.3-3.7-0.5-5.6-0.8c-2.2-0.3-4.4,0-6.6,0c-2.1,0.1-4.2-0.2-6.3-0.3
		c-2-0.2-4-0.4-6-0.9c-1.8-0.5-3.7-1-5.5-1.6c-2.2-0.6-4.3-1.8-6.5-2.7c-4.3-1.9-8.5-4.2-12.7-6.4c-4.1-2-8.1-4-12.2-6.1
		c-4.2-2.1-8.5-4.1-12.6-6.9c-1.7-1.2-3.5-2.4-5.2-3.5c-1.9-1.3-4-2.4-5.9-4c-4-3.3-8-6.6-12-9.8c-3.6-2.5-7.3-5-10.9-7.3
		c-1.8-1.1-3.5-2.3-5.3-3.6c-2-1.5-4-2.8-5.9-4.6c-1.7-1.6-3.3-3.1-5-4.7c-2-1.9-3.9-4.4-5.8-6.6c-0.9-1-1.7-2-2.5-3.2
		c-1.1-1.5-2.1-3.1-3.2-4.6c-1.7-2.5-3.4-5.1-5-7.7c-1.5-2.4-3-4.7-4.6-7c-0.8-1.2-1.6-2.4-2.4-3.6c-1-1.5-1.9-3.3-2.8-5
		c-2.8-5-5.5-10-8.1-15.3C17.1,319.2,12.1,307,8,293.9c0,0,0,0.1,0,0.1c-5-15.6-8.7-33.7-8-52.6c0.2-5.2,0.7-10.2,1.4-15.1
		c0.7-5,1.3-9.9,2.6-14.4c1.2-4.5,2.7-8.6,4.5-12.3c1.8-3.6,3.7-6.8,5.7-10c1.3-2.3,2.5-4.4,3.9-6.5c1.7-2.8,3.4-5.5,5.1-8.2
		c0.4-0.5,0.8-1.1,1.2-1.6c0.8-1,1.6-1.9,2.4-2.9c1.4-1.6,2.8-2.9,4.2-4.3c2.4-2.3,4.8-4.9,7.2-7.1c2.1-1.9,4.3-3.7,6.5-5.4
		c1.8-1.4,3.6-2.7,5.5-3.9c2-1.3,4-2.3,6-3.3c2.1-1,4.2-1.7,6.3-2.5c2.6-1,5.1-2,7.7-2.7c5.5-1.4,11.1-2.1,16.7-2.3
		c2.2-0.1,4.5,0,6.7,0.2c2.2,0.2,4,3.8,4,8.4c0,4.6-1.9,7.9-4.1,8c-0.4,0-0.8,0.1-1.2,0.1c-2.8,0.3-5.5,0.4-8.3,0.7
		c0.2,0,0.4,0,0.6,0c-8.6,0.8-17.2,2.6-25.8,5.7c0.1,0,0.2-0.1,0.3-0.1c-1.3,0.5-2.5,0.9-3.8,1.3c-1.2,0.5-2.4,0.9-3.6,1.4
		c-1.6,0.7-3.1,1.5-4.6,2.4c-2.1,1.5-4.2,3.1-6.2,5c-2.5,2.4-4.9,4.9-7.3,7.6c-0.9,1.2-1.8,2.5-2.6,3.8c-2.4,4.4-4.7,9.1-7.1,13.6
		c0.1-0.3,0.3-0.6,0.4-0.9c-1.1,2.5-2.3,5-3.5,7.5c-0.5,1.3-1,2.5-1.5,3.8c-1.6,4.7-3.1,9.6-4.5,14.6c-0.8,3.3-1.6,6.5-2.3,9.9
		c-1,6.2-2.1,12.4-2.8,18.7c-0.2,2.4-0.4,4.8-0.6,7.2c0,1.2,0,2.5,0,3.7c0.1,2.4,0.2,4.8,0.4,7.2c0.3,2.8,0.6,5.5,1,8.2
		c0.5,3.2,1.1,6.2,1.8,9.2c0,0,0,0,0,0c0.6,2.7,1.4,5.3,2.2,7.9c0.7,2,1.5,4,2.3,6.1c0.9,2,1.8,3.9,2.7,5.9c0.9,2,1.9,3.8,2.9,5.6
		c0,0,0,0,0,0c1.2,2,2.4,4.1,3.6,6.1c1.2,2.1,2.5,3.9,3.8,5.8c1.4,2,2.8,4,4.2,6c0.8,1.1,1.6,2,2.4,2.9c0.8,1,1.6,1.9,2.4,2.9
		c1.7,2.1,3.3,4.4,5,6.5c0.8,1,1.6,1.8,2.4,2.7c1,1.1,1.9,2.1,2.9,3.2c5.3,5.5,10.6,11,15.8,17.1c5.3,6.2,10.5,12.9,15.7,19.5
		c1.8,1.8,3.5,3.6,5.2,5.4c1.1,1.2,2.3,2,3.5,2.9c1.1,0.9,2.2,1.7,3.3,2.5c3.3,1.8,6.5,3.7,9.7,5.6c3.5,2.1,7.1,3.8,10.6,5.8
		c3.6,2.1,7.3,4.1,11,6.1c3.5,1.9,7.1,3.5,10.7,5.2c6.9,2.4,13.8,4.4,20.6,7c1.5,0.6,3,1.1,4.6,1.7c1.6,0.6,3.3,1.6,4.9,2.4
		c3.5,1.7,6.9,3.5,10.4,5.3c2.2,0.6,4.3,1.2,6.5,1.8c2.7,0.1,5.5,0.1,8.2,0.4c1.6,0.2,3.2,0.4,4.8,0.6c1.5,0.2,3.1,0,4.6,0
		c3.1,0,6.2,0.4,9.2,0.7c3.1,0.3,6.1,0.4,9.2,0.6c2.8,0.2,5.7,0.2,8.5,0.3c3.1,0.1,6.2,0.4,9.3,0.8c3.2,0.3,6.3,0.8,9.5,1.3
		c3.2,0.5,6.5,0.6,9.8,0.9c6.1-0.7,12.1-1.6,18.2-1.9c3.2-0.1,6.3-0.2,9.5-0.2c3.3,0,6.7-0.3,10-0.2c3.3,0.2,6.5,0.5,9.8,0.4
		c3.3-0.1,6.5-0.3,9.8-0.1c3.3,0.3,6.5,0.7,9.8,0.7c3.4,0.1,6.7,0.1,10.1,0.2c2.4-0.5,4.8-1,7.2-1.5c1.2-0.3,2.5-0.5,3.7-0.8
		c1.2-0.3,2.5-0.9,3.7-1.3c5.4-1.9,10.8-3.5,16.3-5.1c5.2-1.5,10.4-2.5,15.6-3.3c2.6-0.4,5.3-0.6,7.9-1.4c2.6-0.9,5.2-1.7,7.8-2.6
		c4.1-1.7,8.2-3.2,12.2-5.3c4.5-2.3,8.9-4.6,13.4-6.9c1.9-1,3.9-2.1,5.8-2.9c2.2-0.9,4.4-1.7,6.6-2.6c4.3-1.7,8.6-3.2,12.9-4.7
		c-0.1,0-0.3,0.1-0.4,0.1c2.6-1.7,5.2-3.4,7.8-5.1c2.1-2.5,4.3-5,6.4-7.4c2.9-4.1,5.7-8.4,8.5-13c3.4-6,6.8-12.2,10.1-18.5
		c3.5-6.6,6.7-13.6,10-20.4c1.7-4.4,3.5-8.7,5.2-13.1c1.9-4.8,3.8-9.5,5.6-14.4c0.9-2.8,1.7-5.6,2.5-8.4c0.5-2.4,1-4.9,1.5-7.4
		c0.1-0.4,0.2-0.8,0.2-1.2c0.3-2.6,0.5-5.2,0.7-7.8c0-1.3,0-2.6,0-3.9c-0.1-1.2-0.2-2.5-0.1-3.8c0.1-2.4,0.1-4.9,0.1-7.3
		c-0.1-2.4-0.2-4.7-0.4-7.1c-0.2-2.3-0.5-4.5-0.8-6.8c-0.1-1.1-0.2-2.2-0.3-3.3c-0.1-1.4-0.3-2.9-0.4-4.3c0,0,0,0,0,0
		c-1.3-10.8-2.7-21.6-4.2-32.4c-0.4-2.2-0.7-4.4-1.1-6.6c-0.4-2.4-1-4.8-1.4-7.2c-0.5-2.1-1-4.2-1.5-6.2c-0.6-1.8-1.2-3.5-1.7-5.3
		c-1.4-3-2.7-6.1-4.1-9.2c-0.7-1.6-1.6-3.1-2.4-4.6c-0.7-1.4-1.4-2.9-2.2-4.3c-2.8-5-5.6-10-8.4-14.9c-2.9-5-5.9-9.9-8.9-14.6
		c-0.8-1.1-1.6-2.3-2.4-3.4c-0.9-1.2-1.9-2.2-2.8-3.3c-1.4-1.4-2.7-2.8-4.2-4c-1.5-1.2-3-2.4-4.5-3.6c-2.3-1.5-4.5-3-6.8-4.3
		c-1.1-0.4-2.1-0.8-3.2-1.2c-1.1-0.4-2.2-0.5-3.2-0.8c-1.3-0.3-2.6-0.4-3.8-0.8c-1.2-0.3-2.4-0.6-3.6-0.9c-1.8-0.1-3.7-0.1-5.5,0
		c-1.1,0.1-2.1,0.3-3.2,0.4c-1,0.2-2,0.3-3-0.2c-1.9-0.9-3.2-4.6-3.2-8.6c0,0,0,0,0,0c0-3.2,0.9-6,2.2-7.5c0.9-1.1,2-1.4,3-1.5
		c1.8-0.2,3.6,0,5.4,0.1c1.7,0.1,3.4,0.5,5.1,0.9c1.1,0.2,2.1,0.3,3.2,0.7c1.1,0.4,2.2,0.8,3.2,1.4c4.3,2.4,8.5,5.7,12.7,8.6
		c4,2.8,8.1,5.8,12.1,8.5c3.9,2.6,8,5.2,11.6,9.2c0.8,0.9,1.7,1.9,2.5,2.8c0.9,1,1.7,2.5,2.5,3.7c1.8,2.7,3.5,5.7,5.1,8.7
		c3.1,5.8,6.2,11.9,8.8,18.7c0.5,1.3,1,2.6,1.5,3.9c0.6,1.6,1.3,3.1,1.8,4.8c1.2,4,2.3,8,3.5,11.9c2.4,7.6,5,15.3,6.9,23.6
		c0.4,1.5,0.7,3.1,1.1,4.6c0.5,2,0.8,4.1,1.1,6.3c0.7,4.4,1.2,8.7,1.8,13.2c0.2,1.8,0.3,3.6,0.4,5.4c0.2,2.6,0.4,5.2,0.5,7.8
		c0.2,2.4,0.3,4.7,0.2,7.2c-0.1,2.4-0.2,4.7-0.3,7.1c-0.1,2.2-0.3,4.3-0.5,6.5c-0.2,2.5-0.3,5-0.5,7.5c-0.3,3.9-1,7.6-1.8,11.2
		c-0.5,2.8-1,5.6-1.6,8.4c-0.5,3.2-1.1,6.4-1.7,9.5c-1,6-2.2,12-3.4,17.8c-0.3,1.5-0.6,3.1-1.1,4.5c-0.5,1.5-0.9,3-1.4,4.5
		c-0.9,2.9-1.8,5.7-2.8,8.5c-1.1,3.2-2.3,6.3-3.4,9.5c-1.1,3.1-2.2,6.3-3.4,9.1c-2.3,5.3-4.7,10.4-7.2,15.5c-1,2-2.1,3.8-3.1,5.7
		c-1.2,2.2-2.6,4.2-3.9,6.1c-2.6,3.8-5.6,6.9-8.6,9.5c-3.4,3-6.8,5.4-10.3,7.9c-0.9,0.7-1.8,1.4-2.8,2.1c-0.9,0.7-1.8,1.7-2.6,2.5
		c-1.8,1.6-3.5,3.3-5.3,5c0.1-0.1,0.2-0.2,0.4-0.3c-2.3,2.3-4.6,4.5-6.9,6.8c-1,1-2.1,2.1-3.2,2.8c-1.2,0.9-2.4,1.7-3.6,2.6
		c-2.3,1.6-4.6,3.7-7.1,4.7c-2.9,1.3-5.9,2.5-8.8,3.8c-2.4,1-4.9,1.6-7.4,2.4c-2.6,0.8-5.1,1.5-7.7,2.4c-5.3,1.8-10.6,3.5-15.8,5.3
		c0.2-0.1,0.4-0.1,0.5-0.2c-2.3,0.9-4.5,1.7-6.8,2.5c-1,0.4-2,0.7-2.9,1.1c-1.2,0.4-2.3,0.6-3.5,0.8c-2.2,0.5-4.5,0.9-6.7,1.4
		c-2.5,0.5-5.1,0.4-7.6,0.6c-2.3,0.1-4.6,0.3-6.8,0.2c-2.2-0.1-4.3-0.2-6.5-0.3c-4.6-0.3-9.2,0-13.7,0.1c-6.2,1.3-12.5,2.6-18.7,4.1
		c-1.6,0.4-3.2,0.7-4.9,0.9c-1.6,0.2-3.3,0.4-4.9,0.6c-3.3,0.3-6.5,1-9.8,1.5c-3,0.5-5.9,0.7-8.9,0.9c-3.1,0.3-6.2,0.5-9.2,0.8
		c-1.5,0.1-3,0.2-4.4,0.2C266.3,459.7,261.4,459.1,256.6,458.6z"/>
	<path class="st0" d="M322.4,489.5c-0.9,0-1.8-0.3-2.7-0.4c-1.2-0.2-2.3-0.4-3.5-0.6c-2.4-0.5-4.7-0.9-7-1.4
		c-9.5-1.1-19-1.8-28.5-1.6c-4.6,0.8-9.1,1.7-13.7,2.4c-2.4,0.3-4.8,0.2-7.2,0.3c-2.6,0.1-5.2,0.2-7.8,0.2c-1.1,0-2.2,0.1-3.2,0.1
		c-0.6,0-1.2,0-1.8,0c-0.7,0-1.3,0-2,0c-2.8,0.1-5.6,0.2-8.4,0.1c-5.4-0.2-10.8-1.2-16.1-2.2c-3.4-0.5-6.7-0.9-10.1-1.5
		c-3.5-0.6-7-1.5-10.6-2.2c-2-0.2-4.1-0.3-6.1-0.5c-1.9-0.2-3.8-0.6-5.7-1.1c0.1,0,0.2,0,0.4,0.1c-3.1-0.5-6.3-0.8-9.4-1
		c-3.4-0.2-6.8-1-10.2-1.6c0.1,0,0.2,0,0.3,0.1c-0.6-0.1-1.2-0.2-1.8-0.3c-0.3,0-0.7,0-1,0c-0.4,0-0.9,0-1.3-0.1
		c-1.3-0.3-2.6-0.5-3.9-0.8c-2.5-0.6-5.1-1.3-7.6-2.1c-3.5-1-7-1.9-10.4-3.6c-0.2-0.1-0.4-0.2-0.6-0.3c-0.2-0.1-0.4-0.2-0.6-0.3
		c-0.4-0.2-0.8-0.4-1.2-0.7c0,0,0.1,0,0.1,0.1c-0.3-0.1-0.5-0.3-0.7-0.4c-0.1-0.1-0.3-0.2-0.4-0.3c0,0,0,0,0,0
		c0.1,0.1,0.3,0.2,0.4,0.3c-0.1-0.1-0.3-0.2-0.4-0.3c-0.4-0.1-0.7-0.3-1-0.7c-0.3-0.3-0.6-0.6-0.8-0.9c-0.7-0.6-1.3-1.4-1.9-2.3
		c-1.5-1.7-2.7-4.4-3.8-7.1c-1.1-2.6-2.1-5.3-3-8c-1.5-4.3-3-8.6-4.5-12.8c-1.5-4.2-1.2-10.2,0.6-13.8c1.9-3.7,5.5-4,7.3,0.4
		c2.9,7.1,5.4,15,8.3,22.1c0.6,1.4,1.2,2.8,1.7,4.4c0.2,0.4,0.3,0.7,0.5,1.1c0.2,0.4,0.4,0.9,0.5,1.4c0.2,0.4,0.3,0.8,0.5,1.1
		c0.1,0.2,0.3,0.4,0.4,0.6c0.1,0.2,0.3,0.3,0.4,0.5c0.2,0.2,0.3,0.3,0.5,0.6c0.2,0.2,0.4,0.3,0.5,0.4c0,0,0,0,0,0
		c0.2,0.2,0.4,0.3,0.6,0.4c1.5,1,3.1,1.9,4.7,2.6c0,0,0,0-0.1,0c0.3,0.1,0.6,0.3,0.9,0.4c-0.2-0.1-0.3-0.2-0.5-0.2
		c2.8,1.2,5.6,2.2,8.5,3.2c2.5,0.8,5.1,1.5,7.6,2.8c2.6,0.9,5.3,1.5,7.9,2c2.6,0.6,5.3,1.3,7.9,1.9c1.8,0.2,3.5,0.3,5.3,0.3
		c1.6-0.2,3.2-0.4,4.8-0.4c2.2,0,4.5,0.1,6.8,0.1c3-0.3,6.1-0.7,9.1-1c1.6-0.1,3.1-0.2,4.7-0.3c0.9,0,1.8,0,2.6,0c0.8,0,1.6,0,2.4,0
		c7.3-0.3,14.6-1.1,21.9-0.3c1.7,0.2,3.5,0.4,5.2,0.7c1.7,0.2,3.3,0.3,5,0.5c1.6,0.2,3.2,0.3,4.7,0.5c1.7,0.1,3.4,0.5,5.1,0.7
		c3.4,0.5,6.7,1,10.1,1.8c3.3,0.7,6.6,1.5,9.9,2.2c3.1,0.1,6.2,0,9.3-0.1c2.4-0.3,4.7-0.5,7.1-0.6c2.6-0.4,5.2-0.8,7.8-1.2
		c2.7-0.5,5.4-1.2,8.1-2.1c2.6-0.8,5.2-1.7,7.8-2.5c2.9-0.9,5.8-1.1,8.8-1.3c5.7-0.4,11.5-0.7,17.3-0.6c2.8,0,5.6,0,8.3,0.2
		c1.5,0.1,3.1,0.3,4.6,0.2c1.3-0.1,2.6-0.2,3.9-0.3c3.4-0.9,6.8-1.9,10.2-3c3.5-1.1,7-2.1,10.5-2.9c3.4-0.7,6.8-0.9,10.2-0.9
		c1.7,0,3.4,0.3,5.1,0.4c1.7,0.1,3.3,0.2,5,0.1c1.2-0.3,2.5-0.7,3.8-1.1c0.6-0.3,1.1-0.5,1.7-0.8c0.9-0.7,1.8-1.3,2.7-1.9
		c0.6-0.6,1.2-1.3,1.8-1.9c1.5-4.8,3-9.6,4.5-14.4c2.4-7.8,5.3-15.3,7.5-23.4c0.4-1.5,0.7-3,1.2-4.3c0.6-1.3,1.2-2.2,1.9-2.9
		c1.4-1.3,3.2-0.5,4.3,1.4c0.9,1.5,1.4,3.5,1.5,5.7c0,0.1,0,0.1,0,0.2c0,0,0-0.1,0-0.1c0,0.1,0,0.3,0,0.4c0.1,1.5,0,2.8-0.3,4.1
		c-0.3,2-0.9,3.9-1.4,5.8c-0.5,1.9-1.2,3.7-1.8,5.5c-0.7,2.2-1.5,4.4-2.3,6.6c0,0,0,0,0,0c-0.1,0.3-0.2,0.5-0.3,0.8
		c0,0.1-0.1,0.2-0.1,0.2c-0.1,0.2-0.1,0.3-0.2,0.5c0-0.1,0.1-0.2,0.1-0.3c-0.3,0.7-0.5,1.5-0.8,2.2c0,0,0,0,0-0.1c0,0,0,0.1,0,0.1
		c-0.1,0.3-0.2,0.5-0.3,0.8c0-0.1,0.1-0.3,0.2-0.4c-0.3,0.9-0.6,1.8-1,2.7c-0.1,0.3-0.2,0.5-0.3,0.8c-1.7,5-3.2,10.1-4.9,15.1
		c-0.4,1.1-0.8,2.2-1.2,3.3c-0.5,1.4-1.2,2.6-1.9,3.6c-1.1,1.5-2.2,2.1-3.5,2.5c-0.4,0-0.9,0.1-1.3,0.1c-0.5,0.2-1,0.3-1.4,0.5
		c-0.7,0.2-1.4,0.1-2.1,0.1c-1.9,0.3-3.7,0.7-5.6,1.2c-3.1,1.4-6.1,3.1-9.1,4.9c-1.7,1-3.4,1.6-5.1,2.3c-1.9,0.7-3.8,1.3-5.7,1.8
		c-7,1.6-14.1,1.5-21.2,1.7c-2.2,0.4-4.4,0.7-6.6,1.4c-2.3,0.7-4.6,1.3-6.9,1.8c-4.7,1-9.4,1.9-14.1,2.4c-2.3,0.2-4.6,0.6-6.8,0.8
		c-2.1,0.2-4.1,0.3-6.2,0.3C323.3,489.5,322.9,489.5,322.4,489.5z"/>
	<path class="st0" d="M134.3,338.5c-2.8-0.3-5.5-0.6-8.2-1.1c-6-1.1-11.9-3.4-17.7-6.3c-1.3-0.5-2.6-1.3-3.9-2.1
		c-1.6-1-3.3-1.9-4.9-3c-2.1-1.4-4.1-2.8-6.1-4.2c-1.9-1.3-3.8-2.4-5.7-3.7c-4.2-2.9-8-7.4-11.7-11.9c-3.4-4.1-6.5-9.5-8.9-15.8
		c-2.6-4.9-5-10.1-7.4-15.5c-1.2-2.6-2.2-5.5-3.3-8.2c-1.1-2.7-2-5.7-2.6-8.9c-0.3-1.2-0.6-2.4-0.8-3.7c-0.3-1.5-0.4-3.1-0.4-4.7
		c0-2.7,0.2-5.3,0.6-7.9c0.4-2.7,1-5.3,1.8-7.6c0.9-2.6,2-4.6,3.2-6.5c2.7-4.5,6-7.6,9.3-10.1c3.2-2.5,6.4-4,9.7-6
		c0.6-0.4,1.1-0.8,1.7-1.1c0.9-0.6,1.7-1.1,2.6-1.4c1-0.3,2,0.3,2.8,1.3c1.4,1.7,2.3,5.4,2,8.7c-0.3,2.9-1,5-2.2,6.5
		c-1.3,1.6-2.9,2.2-4.3,2.8c-3.2,1.5-6.3,3.1-9.4,5c-1.2,0.9-2.3,1.8-3.4,2.8c-0.9,0.9-1.8,1.9-2.7,3c-0.4,0.6-0.8,1.2-1.2,1.8
		c-0.2,0.4-0.5,0.9-0.7,1.3c-0.1,0.2-0.2,0.4-0.2,0.6c-0.2,0.6-0.4,1.2-0.6,1.8c-0.3,1.1-0.5,2.1-0.7,3.2c-0.1,0.8-0.3,1.5-0.4,2.3
		c-0.1,0.9-0.1,1.8-0.2,2.7c0,0,0,0.1,0,0.1c0,0.1,0,0.3,0,0.4c0.1,0.8,0.3,1.6,0.3,2.5c0.1,0.3,0.1,0.6,0.2,0.9
		c0.2,0.8,0.4,1.6,0.5,2.4c0,0.1,0.1,0.3,0.1,0.4c0.1,0.3,0.2,0.5,0.3,0.8c0.5,1.1,1,2.2,1.6,3.3c0.7,1.3,1.4,2.5,2.1,3.8
		c0.9,1.6,1.8,3.2,2.7,4.6c0.7,1.1,1.4,2.2,2.1,3.4c0.7,1.1,1.3,2.1,2,3.1c2.6,2.7,5.3,5.4,7.9,8.3c2.8,3.1,5.6,6.4,8.4,9.5
		c-0.1-0.1-0.1-0.1-0.2-0.2c1.6,1.7,3.2,3.5,4.8,5.1c1.6,1.7,3.4,2.9,5.1,4.3c2.7,2,5.5,4,8.2,6.1c-0.1-0.1-0.2-0.2-0.3-0.2
		c1.5,1.1,3,2,4.5,3.2c1.5,0.9,3,1.7,4.4,2.5c3.7,1.6,7.5,2.9,11.4,3.6c0,0,0,0,0,0c2.7,0.5,5.4,0.7,8.2,0.4c2.4-0.2,4.3,4.4,4.2,9
		c0,4.5-1.9,8.6-4.2,8.6C134.4,338.5,134.4,338.5,134.3,338.5z"/>
	<path class="st0" d="M404,323.8c-0.7-5.4,1-11.3,3.7-12.6c1.4-0.7,2.8-1.2,4.1-1.8c2.4-1.1,4.8-2.3,7.1-3.8
		c2.8-1.9,5.5-4.1,8.1-6.5c0,0,0,0,0,0c0,0,0.1-0.1,0.1-0.1c0,0,0,0,0,0c0,0,0,0,0.1-0.1c0.1-0.1,0.2-0.2,0.3-0.3
		c-0.1,0.1-0.2,0.2-0.2,0.2c0.6-0.6,1.1-1.1,1.7-1.6c0.6-0.6,1.2-1.2,1.8-1.7c0.2-0.2,0.4-0.4,0.7-0.7c0.9-1,1.8-2.1,2.6-3.2
		c0,0,0,0.1-0.1,0.1c0.3-0.4,0.6-0.8,0.9-1.2c0.6-0.8,1.2-1.5,1.8-2.4c0.6-0.8,1.2-1.4,1.9-2.1c0.4-0.6,0.8-1.2,1.1-1.8
		c0.3-0.5,0.6-1,0.9-1.5c1.4-2.5,2.7-5.2,4-7.6c0.3-0.7,0.6-1.4,1-2.1c0.6-1.6,1.3-3.2,1.9-4.8c0.2-0.6,0.4-1.2,0.5-1.8
		c0.1-0.4,0.2-0.7,0.2-1.1c0.2-1.1,0.3-2.1,0.5-3.2c0.3-2.9,0.5-5.8,0.7-8.7c0-0.5,0-0.9,0-1.4c0-0.3,0-0.6,0-0.9
		c0,0.3,0.1,0.6,0.1,0.8c-0.1-1-0.2-2-0.4-2.9c0,0.3,0.1,0.6,0.1,0.9c0-0.2-0.1-0.3-0.1-0.5c-0.2-0.8-0.4-1.6-0.6-2.5
		c-0.1-0.2-0.1-0.4-0.2-0.6c0,0,0-0.1,0-0.1c-0.5-1.2-1-2.5-1.5-3.8c-0.7-1.4-1.4-2.8-2.1-4.2c-1.7-3.1-3.5-6-5.3-8.6
		c0.1,0.1,0.1,0.2,0.2,0.3c-2.4-3.5-4.9-6.8-7.5-9.7c-0.8-0.9-1.7-1.6-2.6-2.4c-1.4-1.1-2.9-1.9-4.4-2.7c-1-0.4-1.9-0.7-2.9-1
		c-0.5-0.2-1.1-0.3-1.6-0.6c0,0,0,0,0,0c0,0-0.1,0-0.1-0.1c-0.8-0.2-1.5-0.7-2.1-1.8c-0.8-1.5-1.4-3.3-1.5-5.6
		c-0.1-2.2,0.2-4.6,0.9-6.3v0c0.2-0.6,0.5-1.1,0.8-1.5c0.5-0.8,1.1-1.2,1.7-1.5c0,0,0,0-0.1,0c0.1,0,0.2-0.1,0.3-0.1
		c1.2-0.7,2.4-0.4,3.6-0.1c2.2,0.7,4.3,1.9,6.3,3.5c-0.1-0.1-0.2-0.1-0.2-0.2c4.8,3.7,9.1,9.5,13.3,15.3c2.4,3.4,4.8,6.9,6.9,11
		c1.1,2.1,2.1,4.4,2.9,6.9c0.4,1.2,0.8,2.4,1.1,3.6c0.3,1.1,0.5,2.6,0.7,3.9c0.3,1.5,0.6,3.1,0.6,4.7c0.1,2.1,0.1,4,0,6.1
		c-0.2,3.9-0.5,7.9-0.9,11.7c-0.9,7.8-2.5,14.9-4.8,21.3c-1.2,3.6-2.6,6.7-4,9.8c-0.7,1.6-1.4,3.1-2.2,4.6c-0.4,1.2-0.9,2.4-1.4,3.4
		c-0.7,1.4-1.6,2.7-2.4,3.9c-1.4,2.4-2.9,4.5-4.4,6.5c0.2-0.3,0.3-0.5,0.5-0.8c-2.1,3.5-4.6,5.8-7.1,8.1c0.1-0.1,0.2-0.2,0.3-0.3
		c-5.1,4.9-10.6,8.6-16.2,10.5c0.2-0.1,0.4-0.2,0.7-0.2c-1.4,0.6-2.9,1-4.3,1.5c-0.2,0.1-0.5,0.1-0.7,0.1
		C406.6,331.7,404.5,328.1,404,323.8z"/>
</g>
</svg>
