<?xml version="1.0" encoding="utf-8"?>
<!-- Generator: Adobe Illustrator 26.1.0, SVG Export Plug-In . SVG Version: 6.00 Build 0)  -->
<svg version="1.1" id="Layer_1" xmlns="http://www.w3.org/2000/svg" xmlns:xlink="http://www.w3.org/1999/xlink" x="0px" y="0px"
	 viewBox="0 0 495.9 495.9" style="enable-background:new 0 0 495.9 495.9;" xml:space="preserve">
<style type="text/css">
	.st0{fill:#E35E3A;}
</style>
<g>
	<g>
		<g>
			<path class="st0" d="M491.4,244.8c-3-3.1-7.2-4.9-11.6-4.9H256V16.1c0-4.3-1.8-8.6-4.9-11.6c-3.1-3-7.3-4.6-11.6-4.5
				C173.2,2.3,109.4,32.2,64.3,82C18.8,132.3-3.9,197,0.5,264.2c8.1,123.6,107.5,223,231.1,231.1c5.5,0.4,11,0.5,16.5,0.5
				c61.2,0,119.6-22.5,165.7-64.3c49.8-45.1,79.7-108.9,82-175.2C496,252,494.4,247.9,491.4,244.8z M423.8,255.8
				c-3.1,68.7-45.8,127.3-105.7,153.5l-58.4-153.4L423.8,255.8z M303.1,415c-17.3,5.7-35.9,8.9-55.1,8.9
				c-45.6,0-87.3-17.5-118.6-46.1l115.5-115.5L303.1,415z M233.1,251.5l-115,115C89.5,335.2,72,293.5,72,247.9
				c0-15.8,2.1-31.1,6-45.7L233.1,251.5z M82.9,186.9c24-64.7,84.9-111.6,157.1-114.9v164.9L82.9,186.9z M403.2,419.7
				c-47.1,42.6-107.6,63.8-170.5,59.6C117,471.8,24.1,378.8,16.5,263.2c-4.1-62.9,17-123.4,59.6-170.5
				C118.3,46.1,178.1,18.1,240,16.1v40C137.8,60.3,56,144.7,56,247.9c0,105.9,86.1,192,192,192c103.2,0,187.6-81.9,191.8-184.1
				l40.1,0C477.7,317.8,449.8,377.6,403.2,419.7z"/>
			<path class="st0" d="M224,383.9c13.2,0,24-10.8,24-24s-10.8-24-24-24s-24,10.8-24,24S210.8,383.9,224,383.9z M224,351.9
				c4.4,0,8,3.6,8,8s-3.6,8-8,8s-8-3.6-8-8C216,355.5,219.6,351.9,224,351.9z"/>
			<path class="st0" d="M352,335.9c13.2,0,24-10.8,24-24s-10.8-24-24-24s-24,10.8-24,24S338.8,335.9,352,335.9z M352,303.9
				c4.4,0,8,3.6,8,8s-3.6,8-8,8s-8-3.6-8-8C344,307.5,347.6,303.9,352,303.9z"/>
			<path class="st0" d="M128,287.9c13.2,0,24-10.8,24-24s-10.8-24-24-24s-24,10.8-24,24S114.8,287.9,128,287.9z M128,255.9
				c4.4,0,8,3.6,8,8c0,4.4-3.6,8-8,8s-8-3.6-8-8C120,259.5,123.6,255.9,128,255.9z"/>
			<path class="st0" d="M176,119.9c-13.2,0-24,10.8-24,24s10.8,24,24,24s24-10.8,24-24S189.2,119.9,176,119.9z M176,151.9
				c-4.4,0-8-3.6-8-8s3.6-8,8-8s8,3.6,8,8S180.4,151.9,176,151.9z"/>
			<path class="st0" d="M352,111.9c-13.2,0-24,10.8-24,24s10.8,24,24,24s24-10.8,24-24S365.2,111.9,352,111.9z M352,143.9
				c-4.4,0-8-3.6-8-8s3.6-8,8-8s8,3.6,8,8S356.4,143.9,352,143.9z"/>
			<path class="st0" d="M491.4,218.9c3-3.1,4.6-7.2,4.4-11.6c-2.1-54.5-24.5-105.7-63.1-144.2C394.2,24.6,343,2.2,288.5,0
				c-4.3-0.2-8.4,1.4-11.6,4.4s-5,7.3-5,11.6v207.8h207.8C484.2,223.9,488.4,222.1,491.4,218.9z M446.1,190.7l-15.8,2.4
				c0.7,4.9,1.2,9.8,1.4,14.8H288l-0.1-143.6c37.2,2,73.1,17.7,99.6,44.1c19.2,19.2,32.9,43.2,39.7,69.5l15.5-4
				c-7.5-29-22.7-55.6-43.9-76.8c-29.4-29.4-69.5-46.8-110.9-48.8l0-32.2c50.4,2,97.8,22.7,133.5,58.4s56.4,83.1,58.4,133.4h-32.1
				C447.4,202.1,447,196.3,446.1,190.7z"/>
			<rect x="304" y="175.9" class="st0" width="16" height="16"/>
			<rect x="384" y="159.9" class="st0" width="16" height="16"/>
			<rect x="208" y="199.9" class="st0" width="16" height="16"/>
			<rect x="216" y="143.9" class="st0" width="16" height="16"/>
			<rect x="112" y="167.9" class="st0" width="16" height="16"/>
			<rect x="96" y="303.9" class="st0" width="16" height="16"/>
			<rect x="168" y="271.9" class="st0" width="16" height="16"/>
			<rect x="160" y="359.9" class="st0" width="16" height="16"/>
			<rect x="240" y="391.9" class="st0" width="16" height="16"/>
			<rect x="240" y="311.9" class="st0" width="16" height="16"/>
			<rect x="312" y="335.9" class="st0" width="16" height="16"/>
			<rect x="384" y="287.9" class="st0" width="16" height="16"/>
			<rect x="288" y="271.9" class="st0" width="16" height="16"/>
			<rect x="304" y="79.9" class="st0" width="16" height="16"/>
		</g>
	</g>
</g>
</svg>
