<svg id="Layer_1" data-name="Layer 1" xmlns="http://www.w3.org/2000/svg" viewBox="0 0 122 36"><defs><style>.cls-1{fill:#fff;}</style></defs><rect x="3.45" y="0.5" width="115.09" height="35" rx="17.5"/><path class="cls-1" d="M39.25,10.52H36.07l-.69,1.54H35l2.51-5.47h.4l2.52,5.47H40Zm-.15-.34L37.66,7l-1.43,3.15Z"/><path class="cls-1" d="M44.32,8l-1.85,4.08h-.4L40.24,8h.41l1.63,3.65L43.92,8Z"/><path class="cls-1" d="M47.58,8.34A1.47,1.47,0,0,1,48,9.47v2.59h-.38v-.73a1.34,1.34,0,0,1-.57.56,1.92,1.92,0,0,1-.89.2,1.67,1.67,0,0,1-1.08-.32,1,1,0,0,1-.39-.84A1.05,1.05,0,0,1,45,10.1a1.75,1.75,0,0,1,1.16-.31h1.4V9.46a1.14,1.14,0,0,0-.31-.87,1.25,1.25,0,0,0-.9-.3,2.29,2.29,0,0,0-.78.14,2,2,0,0,0-.63.38l-.19-.28a2.11,2.11,0,0,1,.73-.43,2.74,2.74,0,0,1,.9-.15A1.61,1.61,0,0,1,47.58,8.34Zm-.52,3.2a1.47,1.47,0,0,0,.54-.68v-.77H46.21a1.36,1.36,0,0,0-.87.22.74.74,0,0,0-.27.6.76.76,0,0,0,.29.63,1.38,1.38,0,0,0,.84.23A1.55,1.55,0,0,0,47.06,11.54Z"/><path class="cls-1" d="M49.57,6.9a.32.32,0,0,1-.1-.22.33.33,0,0,1,.1-.23.31.31,0,0,1,.22-.09.32.32,0,0,1,.23.09.31.31,0,0,1,0,.44.29.29,0,0,1-.23.1A.31.31,0,0,1,49.57,6.9ZM49.6,8H50v4.08H49.6Z"/><path class="cls-1" d="M51.64,6.26H52v5.8h-.39Z"/><path class="cls-1" d="M56.22,8.34a1.47,1.47,0,0,1,.4,1.13v2.59h-.37v-.73a1.34,1.34,0,0,1-.57.56,1.93,1.93,0,0,1-.9.2,1.71,1.71,0,0,1-1.08-.32,1,1,0,0,1-.39-.84,1.05,1.05,0,0,1,.36-.83,1.77,1.77,0,0,1,1.16-.31h1.4V9.46a1.14,1.14,0,0,0-.31-.87,1.22,1.22,0,0,0-.9-.3,2.29,2.29,0,0,0-.78.14,2.21,2.21,0,0,0-.63.38l-.19-.28a2.2,2.2,0,0,1,.73-.43,2.74,2.74,0,0,1,.9-.15A1.62,1.62,0,0,1,56.22,8.34Zm-.52,3.2a1.52,1.52,0,0,0,.53-.68v-.77H54.84a1.36,1.36,0,0,0-.87.22.81.81,0,0,0,0,1.23,1.34,1.34,0,0,0,.83.23A1.61,1.61,0,0,0,55.7,11.54Z"/><path class="cls-1" d="M61.31,8.21A1.83,1.83,0,0,1,62,9a2.26,2.26,0,0,1,0,2.14,1.81,1.81,0,0,1-.72.73,2,2,0,0,1-1,.27,2,2,0,0,1-1-.26,1.84,1.84,0,0,1-.68-.73v1h-.38V6.26h.39V8.91a1.79,1.79,0,0,1,.68-.71,1.91,1.91,0,0,1,1-.25A2.1,2.1,0,0,1,61.31,8.21Zm-.21,3.31a1.57,1.57,0,0,0,.59-.61,2,2,0,0,0,0-1.78,1.57,1.57,0,0,0-.59-.61,1.6,1.6,0,0,0-.84-.22,1.55,1.55,0,0,0-.84.22,1.57,1.57,0,0,0-.59.61,2,2,0,0,0,0,1.78,1.57,1.57,0,0,0,.59.61,1.55,1.55,0,0,0,.84.22A1.6,1.6,0,0,0,61.1,11.52Z"/><path class="cls-1" d="M63.51,6.26h.39v5.8h-.39Z"/><path class="cls-1" d="M69,10.11H65.48a1.63,1.63,0,0,0,.25.85,1.55,1.55,0,0,0,.61.58,1.92,1.92,0,0,0,.87.2,1.81,1.81,0,0,0,.74-.15,1.39,1.39,0,0,0,.57-.42l.22.26a1.85,1.85,0,0,1-.67.49,2.25,2.25,0,0,1-.87.17,2.14,2.14,0,0,1-1.08-.27,1.88,1.88,0,0,1-.75-.73A2.1,2.1,0,0,1,65.1,10,2.34,2.34,0,0,1,65.35,9a1.91,1.91,0,0,1,1.7-1,1.88,1.88,0,0,1,1.7,1A2.3,2.3,0,0,1,69,10ZM66.28,8.48a1.5,1.5,0,0,0-.55.54,1.78,1.78,0,0,0-.24.79h3.13A1.7,1.7,0,0,0,68.38,9a1.5,1.5,0,0,0-.55-.54,1.56,1.56,0,0,0-.78-.2A1.66,1.66,0,0,0,66.28,8.48Z"/><path class="cls-1" d="M72.77,11.82a1.9,1.9,0,0,1-.73-.73A2.26,2.26,0,0,1,72,9a1.9,1.9,0,0,1,.73-.73,2.16,2.16,0,0,1,2.09,0,1.9,1.9,0,0,1,.73.73,2.33,2.33,0,0,1,0,2.14,1.9,1.9,0,0,1-.73.73,2.16,2.16,0,0,1-2.09,0Zm1.88-.3a1.65,1.65,0,0,0,.59-.61,2,2,0,0,0,0-1.78,1.65,1.65,0,0,0-.59-.61,1.71,1.71,0,0,0-1.68,0,1.55,1.55,0,0,0-.58.61,1.91,1.91,0,0,0,0,1.78,1.55,1.55,0,0,0,.58.61,1.71,1.71,0,0,0,1.68,0Z"/><path class="cls-1" d="M80.27,8.39a1.78,1.78,0,0,1,.44,1.29v2.38h-.39V9.71A1.42,1.42,0,0,0,80,8.66a1.28,1.28,0,0,0-1-.36,1.47,1.47,0,0,0-1.13.43,1.59,1.59,0,0,0-.42,1.16v2.17h-.39V8h.38v.88a1.57,1.57,0,0,1,.63-.67,1.94,1.94,0,0,1,1-.24A1.66,1.66,0,0,1,80.27,8.39Z"/><path class="cls-1" d="M86.35,11.8A.91.91,0,0,1,86,12a1.43,1.43,0,0,1-.46.07A1,1,0,0,1,84.41,11V8.32h-.75V8h.75V7.09h.39V8h1.29v.34H84.8v2.62a.86.86,0,0,0,.19.61.74.74,0,0,0,.57.2.91.91,0,0,0,.63-.22Z"/><path class="cls-1" d="M90.64,8.39a1.75,1.75,0,0,1,.45,1.29v2.38H90.7V9.71a1.46,1.46,0,0,0-.35-1.05,1.29,1.29,0,0,0-1-.36,1.51,1.51,0,0,0-1.14.43,1.63,1.63,0,0,0-.41,1.16v2.17h-.39V6.26h.39V8.83a1.5,1.5,0,0,1,.62-.65,2.06,2.06,0,0,1,1-.23A1.65,1.65,0,0,1,90.64,8.39Z"/><path class="cls-1" d="M96.15,10.11H92.64a1.72,1.72,0,0,0,.24.85,1.64,1.64,0,0,0,.62.58,1.92,1.92,0,0,0,.87.2,1.85,1.85,0,0,0,.74-.15,1.36,1.36,0,0,0,.56-.42l.23.26a1.85,1.85,0,0,1-.67.49,2.29,2.29,0,0,1-.87.17,2.14,2.14,0,0,1-1.08-.27,1.88,1.88,0,0,1-.75-.73A2.1,2.1,0,0,1,92.26,10,2.22,2.22,0,0,1,92.51,9a1.91,1.91,0,0,1,1.7-1,2,2,0,0,1,1,.26,1.86,1.86,0,0,1,.69.73A2.19,2.19,0,0,1,96.16,10ZM93.44,8.48a1.5,1.5,0,0,0-.55.54,1.78,1.78,0,0,0-.24.79h3.13A1.7,1.7,0,0,0,95.54,9,1.5,1.5,0,0,0,95,8.49a1.56,1.56,0,0,0-.78-.2A1.66,1.66,0,0,0,93.44,8.48Z"/><path class="cls-1" d="M41.17,21.64h1.61v3.64a5,5,0,0,1-1.65.86,6.28,6.28,0,0,1-1.93.3,5.27,5.27,0,0,1-2.52-.6,4.75,4.75,0,0,1-1.76-6.51,4.52,4.52,0,0,1,1.77-1.67,5.21,5.21,0,0,1,2.54-.61,5.44,5.44,0,0,1,2.09.38,4.12,4.12,0,0,1,1.58,1.11l-1.07,1a3.43,3.43,0,0,0-2.52-1,3.55,3.55,0,0,0-1.72.4,2.92,2.92,0,0,0-1.17,1.14A3.17,3.17,0,0,0,36,21.75a3.14,3.14,0,0,0,.43,1.64,3,3,0,0,0,1.17,1.15,3.43,3.43,0,0,0,1.7.42,3.69,3.69,0,0,0,1.88-.47Z"/><path class="cls-1" d="M46.08,26a3.39,3.39,0,0,1-1.33-1.27,3.69,3.69,0,0,1-.47-1.85A3.62,3.62,0,0,1,44.75,21a3.39,3.39,0,0,1,1.33-1.27,4.28,4.28,0,0,1,3.82,0A3.39,3.39,0,0,1,51.23,21a3.62,3.62,0,0,1,.47,1.84,3.69,3.69,0,0,1-.47,1.85A3.39,3.39,0,0,1,49.9,26a4.2,4.2,0,0,1-3.82,0Zm3.39-1.54a2.41,2.41,0,0,0,0-3.16,2,2,0,0,0-1.49-.6,2,2,0,0,0-1.48.6,2.44,2.44,0,0,0,0,3.16A2,2,0,0,0,48,25,2,2,0,0,0,49.47,24.41Z"/><path class="cls-1" d="M54.5,26a3.39,3.39,0,0,1-1.33-1.27,3.59,3.59,0,0,1-.48-1.85A3.53,3.53,0,0,1,53.17,21a3.39,3.39,0,0,1,1.33-1.27,4,4,0,0,1,1.9-.45,4.06,4.06,0,0,1,1.92.45A3.36,3.36,0,0,1,59.64,21a3.53,3.53,0,0,1,.48,1.84,3.59,3.59,0,0,1-.48,1.85A3.36,3.36,0,0,1,58.32,26a4.06,4.06,0,0,1-1.92.46A4,4,0,0,1,54.5,26Zm3.39-1.54a2.41,2.41,0,0,0,0-3.16,2,2,0,0,0-1.49-.6,2,2,0,0,0-1.48.6,2.44,2.44,0,0,0,0,3.16,2,2,0,0,0,1.48.6A2,2,0,0,0,57.89,24.41Z"/><path class="cls-1" d="M68.6,19.35v5.91q0,3.68-3.76,3.68a6.92,6.92,0,0,1-1.9-.26,3.93,3.93,0,0,1-1.49-.74l.73-1.22a3.73,3.73,0,0,0,1.16.61,4.52,4.52,0,0,0,1.41.22A2.34,2.34,0,0,0,66.44,27,2.16,2.16,0,0,0,67,25.44v-.37a2.7,2.7,0,0,1-1,.7,3.73,3.73,0,0,1-1.32.23,3.81,3.81,0,0,1-1.79-.42,3.26,3.26,0,0,1-1.27-1.2,3.42,3.42,0,0,1-.46-1.76,3.36,3.36,0,0,1,.46-1.75,3.23,3.23,0,0,1,1.27-1.19,3.93,3.93,0,0,1,1.79-.41,3.57,3.57,0,0,1,1.38.25,2.51,2.51,0,0,1,1,.75v-.92Zm-2.2,4.71a1.87,1.87,0,0,0,.6-1.44,1.83,1.83,0,0,0-.6-1.42,2.12,2.12,0,0,0-1.52-.55,2.16,2.16,0,0,0-1.53.55,1.82,1.82,0,0,0-.59,1.42,1.86,1.86,0,0,0,.59,1.44,2.17,2.17,0,0,0,1.53.56A2.13,2.13,0,0,0,66.4,24.06Z"/><path class="cls-1" d="M70.74,16.63h1.63v9.68H70.74Z"/><path class="cls-1" d="M81,23.35H75.57a1.94,1.94,0,0,0,.75,1.22,2.46,2.46,0,0,0,1.51.45,2.53,2.53,0,0,0,1.89-.76l.87,1a3,3,0,0,1-1.18.85A4.67,4.67,0,0,1,75.77,26a3.34,3.34,0,0,1-1.36-1.27,3.69,3.69,0,0,1-.47-1.85A3.61,3.61,0,0,1,74.4,21a3.31,3.31,0,0,1,1.29-1.28,3.78,3.78,0,0,1,1.85-.45,3.64,3.64,0,0,1,1.82.45A3.16,3.16,0,0,1,80.61,21a3.88,3.88,0,0,1,.45,1.89C81.06,23,81.05,23.14,81,23.35ZM76.22,21a1.9,1.9,0,0,0-.66,1.23h4A1.9,1.9,0,0,0,78.87,21a2.1,2.1,0,0,0-2.65,0Z"/><path class="cls-1" d="M92.21,17.57a3,3,0,0,1,1.35,1.12,3.44,3.44,0,0,1,0,3.47,3,3,0,0,1-1.35,1.13,5,5,0,0,1-2.06.39H88.08v2.63H86.39V17.18h3.76A5,5,0,0,1,92.21,17.57Zm-.46,4.2a1.63,1.63,0,0,0,.57-1.34,1.67,1.67,0,0,0-.57-1.35,2.61,2.61,0,0,0-1.68-.47h-2v3.63h2A2.55,2.55,0,0,0,91.75,21.77Z"/><path class="cls-1" d="M95.7,16.63h1.64v9.68H95.7Z"/><path class="cls-1" d="M104.49,20a2.86,2.86,0,0,1,.82,2.23v4.08h-1.54v-.84a1.92,1.92,0,0,1-.86.69,3.32,3.32,0,0,1-1.33.25,3.22,3.22,0,0,1-1.37-.27,2.07,2.07,0,0,1-.91-.75A1.87,1.87,0,0,1,99,24.32a1.84,1.84,0,0,1,.7-1.51,3.45,3.45,0,0,1,2.2-.57h1.8v-.1a1.42,1.42,0,0,0-.44-1.12,1.84,1.84,0,0,0-1.3-.4,3.8,3.8,0,0,0-1.15.19,2.75,2.75,0,0,0-1,.51l-.64-1.19a3.87,3.87,0,0,1,1.32-.64,5.73,5.73,0,0,1,1.63-.22A3.39,3.39,0,0,1,104.49,20ZM103,24.94a1.58,1.58,0,0,0,.67-.81v-.8H102c-.94,0-1.41.3-1.41.92a.84.84,0,0,0,.36.71,1.63,1.63,0,0,0,1,.26A2.21,2.21,0,0,0,103,24.94Z"/><path class="cls-1" d="M113.79,19.35l-3.26,7.52a3.58,3.58,0,0,1-1.11,1.6,2.66,2.66,0,0,1-1.58.47,3.32,3.32,0,0,1-1-.17,2.42,2.42,0,0,1-.84-.47l.66-1.2a1.92,1.92,0,0,0,.55.35,1.64,1.64,0,0,0,.65.13,1.11,1.11,0,0,0,.71-.22,1.89,1.89,0,0,0,.51-.75l.12-.27-3-7h1.7L110,24.5l2.2-5.15Z"/><path class="cls-1" d="M31.15,17.55,26.76,15l-3.6,3.49,3.29,3.19L31.15,19a.79.79,0,0,0,.41-.71A.82.82,0,0,0,31.15,17.55Z"/><polygon class="cls-1" points="26.02 14.59 21.19 11.81 10.62 6.39 22.56 17.93 26.02 14.59"/><polygon class="cls-1" points="10.79 30.46 21.21 24.72 25.71 22.13 22.56 19.08 10.79 30.46"/><polygon class="cls-1" points="9.91 6.86 9.9 30.17 21.97 18.51 9.91 6.86"/></svg>