<?xml version="1.0" encoding="utf-8"?>
<!-- Generator: Adobe Illustrator 26.1.0, SVG Export Plug-In . SVG Version: 6.00 Build 0)  -->
<svg version="1.1" id="Layer_1" xmlns="http://www.w3.org/2000/svg" xmlns:xlink="http://www.w3.org/1999/xlink" x="0px" y="0px"
	 viewBox="0 0 21 20" style="enable-background:new 0 0 21 20;" xml:space="preserve">
<style type="text/css">
	.st0{fill:none;}
	.st1{fill:#E35E3A;}
</style>
<g>
	<g>
		<g>
			<g>
				<g>
					<path class="st0" d="M-1-2h24v24H-1V-2z"/>
					<path class="st1" d="M9,9V6l5,4l-5,4v-3H0V9H9z M1.5,13h2.1c1.4,3.5,5.2,5.6,8.9,4.8c3.8-0.7,6.5-4,6.5-7.8
						c0-3.8-2.7-7.1-6.5-7.9C8.8,1.4,5,3.4,3.6,7H1.5C2.7,2.9,6.5,0,11,0c5.5,0,10,4.5,10,10s-4.5,10-10,10C6.5,20,2.7,17.1,1.5,13z
						"/>
				</g>
			</g>
		</g>
	</g>
</g>
</svg>
