<?xml version="1.0" encoding="utf-8"?>
<!-- Generator: Adobe Illustrator 26.1.0, SVG Export Plug-In . SVG Version: 6.00 Build 0)  -->
<svg version="1.1" id="Layer_1" xmlns="http://www.w3.org/2000/svg" xmlns:xlink="http://www.w3.org/1999/xlink" x="0px" y="0px"
	 viewBox="0 0 861 100.1" style="enable-background:new 0 0 861 100.1;" xml:space="preserve">
<style type="text/css">
	.st0{opacity:8.000000e-02;}
	.st1{fill:none;}
	.st2{fill:#E35E3A;}
</style>
<g class="st0">
	<path class="st1" d="M535,17.4c6.2,14.5,26.3,9.2,38.4,5.1c-6.2-2.9-10.2-8.4-8.9-17.5c0.2-1.7,0.7-3.4,1.5-5h-22.5
		C536.5,3.9,531.7,9.6,535,17.4z"/>
	<path class="st1" d="M583.3,17.7c-1.9-5.3,1.1-12.6,4.3-17.6h-12l-0.1,0.1C566.4,8,575.2,15.9,583.3,17.7z"/>
	<path class="st1" d="M484.2,48.3c8.5,5,17.7,9.1,25.3,12.9C531.7,72.4,554.2,83,578,90.1c2.3,0.7,4.6,1.3,7,1.9
		c20.7-16.5,42.9-31.1,66.3-43.5l4.4-2.3l-1.2-1c-11.2,4-22.9,6.4-34.8,7.2c-5.8,3-11.7,3.7-17,0c-26-1.7-51.2-10.8-73.4-24.2
		c-12.9-7.9-24.8-17.1-35.7-27.6L493.2,0h-6C489.6,16.2,489,32.7,484.2,48.3z"/>
	<path class="st1" d="M531.7,0h-27.4c7.1,6.4,14.7,12.3,22.7,17.6C525.5,11.6,527.2,5.2,531.7,0z"/>
	<path class="st1" d="M704.4,0h-28.5c7.5,2,14.6,5,21.3,8.9C699.8,6.1,702.2,3.1,704.4,0z"/>
	<path class="st1" d="M598.8,12.3c1.8-0.8,3.6-1.7,5.4-2.5c1.5-1.4,3-2.8,4.4-4.2c-2.9-2-6-3.8-9.1-5.5h-2.4L597,0.1
		C598.2,4.1,598.7,8.2,598.8,12.3z"/>
	<path class="st1" d="M591.4,13c0.3-1.6,0.3-3.2,0-4.7c-0.4,1-0.7,2-0.9,3C590.2,12.6,590.2,18.7,591.4,13z"/>
	<path class="st1" d="M181.8,1c-11.2,10.1-22.1,20.7-32.6,30.7c-18.5,17.6-16.8,33.5-5.9,47.1c20.4-14.1,42-26.2,64.7-36.1
		c19.7-8.6,40-15.8,60.8-21.3c-0.8,0-1.6,0-2.4-0.1c-11.5-1.5-17.4-10.8-19.8-21.2h-38.8C199.1,0.9,190.5,1.2,181.8,1z"/>
	<path class="st1" d="M127,90.7c3.2-2.5,6.5-5,9.8-7.4c-9.8-13.5-13.2-30.5-2.6-46.2c6.6-9.8,16.5-16.7,25.2-24.6
		c4.4-3.9,8.7-7.9,13-11.9c-2.5-0.2-5-0.4-7.5-0.6H24.6c-9.9,20.8-14,39.2-12.9,57.9C12.6,73.4,18.5,87.2,25,100h91.6
		C119.9,96.7,123.4,93.6,127,90.7z"/>
	<path class="st1" d="M276.3,49.6c8.4-12.7,20.2-22.7,34.1-28.8c-15.3,2.4-30.5,5.6-45.5,9.7C223.4,41.8,184,60,148.5,84.4
		c6.5,6,13.6,11.3,21.3,15.6h98.6l0.5-0.3C263.1,83.6,266.8,64.4,276.3,49.6z"/>
	<path class="st1" d="M459.8,22.3c3,9,9.7,16,17.7,21.7c3.8-14.3,4.5-29.3,2.1-43.9h-19.2C457.7,7.2,457.5,15,459.8,22.3z"/>
	<path class="st1" d="M719.7,69.7c-0.4,0.1-0.9,0.2-1.3,0.3c-3,3.9-6.5,7.4-10.3,10.6c1.8,2.2,3.5,4.5,5.2,6.9l0.2-0.3
		C716.8,81.9,718.9,75.9,719.7,69.7z"/>
	<path class="st1" d="M141.7,89.1c-4.6,3.3-9.6,6.9-14.2,10.9h27.2c-1-0.7-2-1.4-3-2.1C148.1,95.4,144.7,92.4,141.7,89.1z"/>
	<path class="st1" d="M272.8,12.5c4.9-2.1,8.7-7,11.3-12.5h-29.9C257,8.2,263.6,16.5,272.8,12.5z"/>
	<path class="st1" d="M408.4,16.5c24.4,6.9,50.2,20.1,64.7,39.8c0.8-1.7,1.5-3.4,2.2-5.2C458,39,446.3,21.5,452.8,0h-37.2
		c-0.6,0.7-1.2,1.4-1.8,2.2C411.8,6.9,410.1,11.6,408.4,16.5z"/>
	<path class="st1" d="M277.1,19.3c35.6-8.6,72.6-12,108.1-7.6c3.4,0.4,6.9,1,10.6,1.7c3.2-4.5,6.6-9,10-13.4H292.3
		C289.1,8,283.9,15.7,277.1,19.3z"/>
	<path class="st1" d="M319.4,67.8c2.2,0.1,4.3,1,6,2.5c10.2-4.4,23.2-5.4,30.8,1.4l0.1,0.1c0.9-1.3,1.8-2.6,2.6-3.7
		c8.4-12,16.3-24.4,24.5-36.6c-15.7-9-34.2-12.8-52.5-9.3c-20.4,4-39.8,16.3-50.1,34.8c-5.9,10.6-8.1,26.3-4.6,39.2
		c1.1-0.5,2.2-0.9,3.2-1.3l3.2-1.3C287.2,80,305.5,66.4,319.4,67.8z"/>
	<path class="st1" d="M339.3,74.8c-3.8,0.3-7.5,1.2-11,2.5c0.2,3.6-0.5,7.1-2,10.4c4.7,2.1,8.4,5.4,10.1,9.4
		c5.5-5.7,10.5-11.9,15-18.4C348.6,75.7,344.9,74.3,339.3,74.8z"/>
	<path class="st1" d="M314.6,77.3c0.5-0.6,1.1-1.1,1.8-1.6c-0.3,0-0.5-0.1-0.8-0.1c-6.6-0.7-15.8,7.3-19.9,11.7
		c-0.6,0.6-1.1,1.2-1.6,1.8c5.5-2,11.1-3.3,16.9-3.9C311.3,82.3,312.6,79.5,314.6,77.3z"/>
	<path class="st1" d="M400.2,44c-4.3,17.5-7,39.6,9.8,48.9c4.7,2.7,10,3.9,15.3,3.6c-0.1-2.1-0.3-4.2-0.6-6.3
		C422,72.4,413,56.3,400.2,44z"/>
	<path class="st1" d="M406.2,23.4c-1,3.3-2,6.5-3,9.8c-0.2,0.9-0.5,1.8-0.8,2.7C419.9,51,431.9,72.2,433,95.1
		c14.9-4.5,28.6-18.6,36-31C456.2,43.3,430.3,29.9,406.2,23.4z"/>
	<path class="st1" d="M318,85.2l0.6,0.1c0.1-0.3,0.3-0.6,0.4-1s0.4-1,0.6-1.4c-0.2,0.3-0.4,0.6-0.7,0.9
		C318.6,84.3,318.3,84.8,318,85.2z"/>
	<path class="st1" d="M692.5,76.2c-9.9-9.7-21.1-18.2-30.8-25.5c-12.8,6.4-25.2,14.6-36.6,21.8c-10.5,6.8-20.7,14-30.6,21.6
		c27.1,5.6,56.4,5.6,81.9-4.4c2.2-2.1,4.5-4.1,6.8-6.1C686.1,81.2,689.2,78.7,692.5,76.2z"/>
	<path class="st1" d="M394.1,29.4l1,0.7c0.4-1.4,0.8-2.7,1.2-4.1C395.6,27.2,394.8,28.3,394.1,29.4z"/>
	<path class="st1" d="M371.2,17.8c5.7,1.9,11.1,4.4,16.3,7.4c1.2-1.7,2.3-3.4,3.5-5.2C384.5,19,377.9,18.3,371.2,17.8z"/>
	<path class="st1" d="M645.2,4.6C640.1,5,635,5.9,630,7.3c-1.6,0.4-3.3,1-5,1.6c4.5,3.9,8.8,8,13,11.9
		C640.7,15.6,643,10.1,645.2,4.6z"/>
	<path class="st1" d="M650.4,32c1.8,1.6,3.7,3.1,5.6,4.6c6-2.3,11.7-5.1,17.2-8.3c6.7-3.9,12.9-8.6,18.5-13.9
		C680,8.1,666.8,4.6,653.4,4.4c-2.9,7.4-6.2,14.6-9.7,21.7C646,28.2,648.2,30.2,650.4,32z"/>
	<path class="st1" d="M595.3,23.5c-2,0.5-4,0.9-6.1,1.1l-0.8,0.4c-8.4,3.4-19.5,8-30.2,9.2c12,4.9,24.6,8.1,37.5,9.6
		C591.8,36.5,592.3,29.6,595.3,23.5z"/>
	<path class="st1" d="M663.2,42.3c17.6-8.7,39.5-16.6,54.3-2.8c-0.5-1.1-1-2.3-1.6-3.3c-4.1-7.1-10.5-12.9-17.3-17.5
		c-10.5,9.8-22.6,17.7-35.8,23.3L663.2,42.3z"/>
	<path class="st1" d="M685.1,41.5c-5.3,1.5-10.5,3.3-15.5,5.5c10.4,7.7,20.8,15.3,30,24.3c4.1-2.7,8.5-4.9,13-6.7
		c2.3-2.9,4.1-6.2,5.4-9.7C713.6,43.8,702.3,36.9,685.1,41.5z"/>
	<path class="st1" d="M633.6,29.1c0.4-0.6,0.7-1.3,1.1-1.9c-5.6-5.1-11.3-10.4-17.2-15.1c-8.2,4.1-15.5,10.3-16.2,19.3
		c-0.6,5.4,2.1,10.7,6.8,13.4c3.9,0.1,7.8,0,11.7-0.2c0.4-0.2,0.8-0.4,1.2-0.7C626.3,40.3,630.3,34.6,633.6,29.1z"/>
	<path class="st1" d="M631.5,43.2c5.6-0.9,11.1-2.1,16.5-3.8c-2.6-2.3-5.2-4.7-7.8-7.1C637.6,36.2,634.7,39.9,631.5,43.2z"/>
	<path class="st1" d="M473,72c-8,12.1-19,22.6-32.2,28.1h35.6c0.5-2.3,0.7-4.6,0.7-7C477.2,85.8,475.8,78.7,473,72z"/>
	<path class="st1" d="M321.9,93.8c-0.4,0.3-0.7,0.6-1.1,0.9c-5.1,3.5-8.2,1.7-9.5-2c-3.5,0.5-7,1.3-10.4,2.4c-3.4,1-7.3,2-11.2,3.3
		c0,0.6,0,1.2,0.1,1.8h39.3C328.1,97,325.2,95,321.9,93.8z"/>
	<path class="st1" d="M389.6,67.6c-0.1-10,1-20,3.4-29.7c-1-0.8-2-1.5-3-2.2c-9.2,14.3-18.2,28.9-28.2,42.5c4.2,6.2,6.8,14,8.3,21.9
		h37.1C396.4,94.1,390,82,389.6,67.6z"/>
	<path class="st1" d="M356.3,85.2c-4.1,5.2-8.5,10.1-13.2,14.8H362c-1-4.3-2.6-8.6-4.5-12.6C357.1,86.7,356.7,86,356.3,85.2z"/>
	<path class="st1" d="M701.3,85.6c-6.9,4.5-14.3,8.3-22,11.1c-1.1,1.1-2.2,2.2-3.3,3.4h27.4c1.7-1.8,3.3-3.7,4.9-5.6
		C706.1,91.4,703.8,88.4,701.3,85.6z"/>
	<path class="st1" d="M844.2,0h-130c-3,4.7-6.4,9.1-10.2,13.2c13.5,9.7,25,23.9,22.4,39.9c0.9,2.7,1.5,5.5,1.7,8.4
		c2.8,0,5.5,0.3,8.2,1c17,4.4,25.9,20.8,23.2,37.5h72.7c5.2-19.2,9-38.8,11.6-58.5C845.5,27.7,845.7,13.8,844.2,0z"/>
	<path class="st1" d="M744,74.9c-4.5-3.9-10.2-6.1-16.2-6.2c-1.1,9-5.1,18-10.4,25.6c1,1.9,2,3.8,2.8,5.7h32.2
		C754.2,90.5,752.2,81.7,744,74.9z"/>
	<path class="st1" d="M569.5,95.4c-30.6-10.1-60.1-23.6-87.8-40.2c-1.1,2.8-2.4,5.7-3.9,8.5c6,10.8,8.2,23.3,6.5,35.5
		c0,0.3-0.1,0.5-0.1,0.8h91.1l2.6-2.2C575,97.1,572.2,96.3,569.5,95.4z"/>
	<path class="st2" d="M851.1,59.1c1.2-7.5,2.5-15.3,3.9-22.9c2.3-11.9,3.2-24,2.8-36.2h-10.7c1.4,13.9,1.2,28-0.6,41.8
		c-2.5,19.6-6.3,39-11.4,58.2h8.1c0.4-1.7,0.9-3.4,1.3-5.1C847.3,83.1,849.2,70.9,851.1,59.1z"/>
	<path class="st2" d="M21.2,0h-9.4C3.7,22.6,1.3,41.8,4.2,60.8C6.5,74.4,10.4,87.5,16,100h5.6c-6.4-12.7-12-26.4-13-41.9
		C7.5,39.6,11.6,20.5,21.2,0z"/>
	<path class="st2" d="M24.6,0h-1.7c-8.6,18.2-14,37.3-12.7,58c0.9,15.3,6.5,28.8,13.2,42H25c-6.5-12.8-12.4-26.6-13.4-42.1
		C10.5,39.3,14.6,20.8,24.6,0z"/>
	<path class="st2" d="M845.8,0h-1.6c1.5,13.8,1.3,27.7-0.5,41.5c-2.5,19.8-6.4,39.3-11.6,58.5h1.6c5.1-19.2,8.9-38.7,11.5-58.3
		C847,27.9,847.2,13.9,845.8,0z"/>
	<path class="st2" d="M10.2,0H8.6C0.6,22.7-1.7,42,1.3,61.3c2.2,13.4,6,26.4,11.5,38.8h1.6C8.8,87.6,4.9,74.5,2.7,61
		C-0.6,39.7,3.2,19.6,10.2,0z"/>
	<path class="st2" d="M854.1,59.6c1.2-7.5,2.5-15.3,3.9-22.8c2.3-12.1,3.3-24.4,2.9-36.7h-1.6c0.4,12.2-0.5,24.4-2.8,36.4
		c-3.7,19.6-6.1,39.4-10.6,58.8c-0.4,1.6-0.8,3.2-1.2,4.8h1.6c0.4-1.5,0.7-3,1.1-4.4C850.2,83.7,852.2,71.4,854.1,59.6z"/>
	<path class="st2" d="M847.2,0h-1.5c1.4,13.9,1.2,27.8-0.6,41.7c-2.5,19.7-6.4,39.2-11.5,58.3h1.5c5.1-19.1,8.9-38.5,11.4-58.2
		C848.5,28,848.7,14,847.2,0z"/>
	<path class="st2" d="M22.9,0h-1.7C11.6,20.5,7.5,39.6,8.7,58.1c1,15.5,6.6,29.2,13,41.9h1.7c-6.7-13.2-12.2-26.8-13.2-42
		C8.9,37.4,14.3,18.2,22.9,0z"/>
	<path class="st2" d="M11.9,0h-1.6c-7,19.5-10.8,39.7-7.5,61c2.2,13.4,6.1,26.6,11.6,39H16C10.4,87.5,6.4,74.4,4.2,60.8
		C1.3,41.8,3.7,22.6,11.9,0z"/>
	<path class="st2" d="M856.6,36.5c2.3-12,3.2-24.2,2.8-36.4h-1.5c0.4,12.1-0.5,24.2-2.8,36.2c-1.4,7.6-2.7,15.4-3.9,22.9
		c-1.9,11.8-3.9,24-6.6,35.8c-0.4,1.7-0.8,3.4-1.3,5.1h1.6c0.4-1.6,0.8-3.2,1.2-4.8C850.5,75.9,852.8,56,856.6,36.5z"/>
	<path class="st2" d="M615.2,10.4c1.8-1.7,3.6-3.5,5.3-5.3l-2-1.6c-2.5,1.2-5,2.5-7.3,3.9C612.6,8.4,613.9,9.4,615.2,10.4z"/>
	<path class="st2" d="M719.7,62.4c-0.3-2.6-0.9-5.1-1.8-7.5c-1.3,3.5-3.1,6.8-5.4,9.7C714.8,63.7,717.2,63,719.7,62.4z"/>
	<path class="st2" d="M663.2,42.3c2.1,1.6,4.2,3.2,6.3,4.7c5-2.2,10.2-4.1,15.5-5.5c17.2-4.6,28.5,2.3,32.8,13.4
		c1.8-5,1.7-10.5-0.3-15.4C702.8,25.7,680.8,33.6,663.2,42.3z"/>
	<path class="st2" d="M719.8,68c0.9-1.2,1.7-2.5,2.5-3.8c0.5-0.8,0.9-1.6,1.3-2.4c-1.3,0.2-2.6,0.4-3.9,0.7
		C719.9,64.3,719.9,66.2,719.8,68z"/>
	<path class="st2" d="M583.3,17.7c0.1,0.4,0.3,0.7,0.5,1l1.8-0.7C584.8,18,584.1,17.9,583.3,17.7z"/>
	<path class="st2" d="M624.4,1.1c-1.9,0.7-3.9,1.4-5.8,2.4l2,1.6L624.4,1.1z"/>
	<path class="st2" d="M719.7,69.7c0.1-0.6,0.1-1.1,0.1-1.6c-0.5,0.7-1,1.3-1.5,2C718.8,69.9,719.2,69.8,719.7,69.7z"/>
	<path class="st2" d="M527,17.7c1.3,4.7,4.1,8.9,8.1,11.7c6.5,4.9,14.7,5.9,23,4.9c-2.5-1-4.9-2.1-7.4-3.2
		C542.6,27.2,534.6,22.7,527,17.7z"/>
	<path class="st2" d="M708,80.6c3.8-3.1,7.3-6.6,10.3-10.5c-4.9,1.4-9.6,3.6-14,6.3C705.6,77.7,706.8,79.1,708,80.6z"/>
	<path class="st2" d="M712.5,64.6c-4.5,1.8-8.9,4-13,6.7c1.1,1,2.1,2.1,3.2,3.2l0.5-0.4C706.6,71.3,709.8,68.1,712.5,64.6z"/>
	<path class="st2" d="M643.1,27.3c0.2-0.4,0.4-0.8,0.6-1.2c-1.9-1.7-3.8-3.5-5.7-5.3c-1.1,2.2-2.2,4.3-3.4,6.4l5.5,5.1
		C641.3,30.5,642.3,28.8,643.1,27.3z"/>
	<path class="st2" d="M661.7,50.7c9.7,7.2,20.8,15.8,30.8,25.5c2.3-1.7,4.6-3.4,7.1-4.9c-9.2-9-19.6-16.6-30-24.3
		C666.9,48.2,664.3,49.4,661.7,50.7z"/>
	<path class="st2" d="M703.2,74l-0.5,0.4c0.6,0.6,1.1,1.2,1.7,1.8c4.4-2.7,9.1-4.8,14-6.2c0.5-0.7,1-1.3,1.5-2
		c0.1-1.9,0.1-3.7-0.1-5.6c-2.4,0.5-4.8,1.3-7.2,2.2C709.8,68.1,706.7,71.3,703.2,74z"/>
	<path class="st2" d="M282,95.5c0.2-0.7,0.4-1.4,0.6-2l-3.2,1.3c-1.1,0.4-2.1,0.9-3.2,1.3c0.4,1.3,0.8,2.6,1.2,3.9h4.2
		C281.5,98.5,281.6,97,282,95.5z"/>
	<path class="st2" d="M595.8,22.5c-0.2,0.3-0.4,0.7-0.5,1c3-0.8,5.8-2,8.4-3.6c2-1.3,3.9-2.8,5.8-4.3c-4.2,2-8.4,3.9-12.7,5.8
		C596.5,21.8,596.2,22.2,595.8,22.5z"/>
	<path class="st2" d="M611.2,7.4c-5.2,3.1-9.8,7.2-13.5,12.1c-0.2,0.7-0.6,1.4-1,2c4.2-1.9,8.5-3.8,12.7-5.8c2-1.6,3.9-3.4,5.8-5.2
		C613.9,9.4,612.6,8.4,611.2,7.4z"/>
	<path class="st2" d="M596.7,21.5l-0.4,0.2c-0.2,0.3-0.3,0.6-0.5,0.9C596.2,22.2,596.5,21.8,596.7,21.5z"/>
	<path class="st2" d="M597.7,19.5c-0.5,0.7-1,1.4-1.4,2.1l0.4-0.2C597.1,20.8,597.5,20.2,597.7,19.5z"/>
	<path class="st2" d="M509.5,61.2c-7.7-3.9-16.9-7.9-25.3-12.9c-0.7,2.3-1.5,4.5-2.4,6.8l-0.1,0.2c27.7,16.6,57.1,30.1,87.8,40.2
		c2.8,0.9,5.5,1.7,8.3,2.5c2.4-2,4.8-4,7.2-5.9c-2.4-0.6-4.7-1.3-7-1.9C554.2,83,531.7,72.4,509.5,61.2z"/>
	<path class="st2" d="M591.4,23.7c1.6,0.3,3.2-0.2,4.4-1.2c0.2-0.3,0.3-0.6,0.5-0.9C594.7,22.3,593.1,23,591.4,23.7z"/>
	<path class="st2" d="M609.4,15.6l7.8-3.7c-0.7-0.5-1.3-1.1-2-1.6C613.3,12.2,611.4,14,609.4,15.6z"/>
	<path class="st2" d="M608,44.8c3.7,2,8.1,1.9,11.7-0.2C615.8,44.8,611.9,44.9,608,44.8z"/>
	<path class="st2" d="M617.2,11.9l0.2,0.1c2.5-1.2,5-2.3,7.6-3.2l-0.4-0.3c-1.9,0.8-3.7,1.6-5.5,2.5L617.2,11.9z"/>
	<path class="st2" d="M634.6,27.2c-0.4,0.6-0.7,1.3-1.1,1.9c-3.2,5.5-7.2,11.2-12.7,14.8c-0.4,0.2-0.8,0.5-1.2,0.7
		c3.9-0.2,7.8-0.7,11.7-1.3c3.2-3.4,6.1-7,8.7-10.9L634.6,27.2z"/>
	<path class="st2" d="M634.6,27.2c1.2-2.1,2.3-4.2,3.4-6.4c-4.2-3.9-8.5-8-13-11.9c-2.6,0.9-5.1,2-7.6,3.2
		C623.3,16.8,629,22,634.6,27.2z"/>
	<path class="st2" d="M713,100h7.2c-0.9-1.9-1.8-3.8-2.8-5.7C716.1,96.3,714.6,98.2,713,100z"/>
	<path class="st2" d="M643.7,26.1c-0.2,0.4-0.4,0.8-0.6,1.2c-0.8,1.6-1.8,3.3-3,5.1c2.6,2.4,5.2,4.8,7.8,7.1c2.7-0.8,5.3-1.8,8-2.8
		c-1.9-1.5-3.7-3-5.6-4.6C648.2,30.2,646,28.2,643.7,26.1z"/>
	<path class="st2" d="M714.7,89.7c-0.5-0.8-1-1.5-1.5-2.3c-1.5,2.4-3.2,4.8-5,7c1.3,1.8,2.5,3.7,3.6,5.6h1.3c1.6-1.8,3-3.7,4.4-5.7
		C716.6,92.8,715.7,91.2,714.7,89.7z"/>
	<path class="st2" d="M643.7,26.1c3.6-7.1,6.8-14.3,9.7-21.7c-2.7,0-5.5,0-8.2,0.2c-2.2,5.5-4.6,10.9-7.2,16.2
		C639.9,22.6,641.8,24.4,643.7,26.1z"/>
	<path class="st2" d="M656,36.7c2.3,1.8,4.6,3.6,6.9,5.3c13.2-5.6,25.3-13.5,35.8-23.3c-1.7-1.2-3.5-2.3-5.3-3.3
		c-0.5-0.3-1.1-0.6-1.6-0.9c-5.6,5.3-11.9,9.9-18.5,13.9C667.7,31.6,661.9,34.4,656,36.7z"/>
	<path class="st2" d="M703.3,100h8.4c-1.1-1.9-2.3-3.8-3.6-5.6C706.6,96.3,705,98.2,703.3,100z"/>
	<path class="st2" d="M736.2,62.5c-2.7-0.7-5.4-1-8.2-1c0.2,2.4,0.1,4.8-0.2,7.2c5.9,0.1,11.7,2.3,16.2,6.2
		c8.2,6.8,10.2,15.6,8.5,25.1h6.9C762.1,83.3,753.2,66.9,736.2,62.5z"/>
	<path class="st2" d="M406.2,23.4c0.7-2.3,1.5-4.6,2.3-6.9c-1.5-0.4-3.1-0.9-4.6-1.2c-1.5,2.1-3,4.3-4.5,6.5
		C401.5,22.2,403.8,22.8,406.2,23.4z"/>
	<path class="st2" d="M399.3,21.7c1.5-2.2,3-4.3,4.5-6.5l-3.4-0.8c-0.9,2.3-1.7,4.7-2.5,7L399.3,21.7z"/>
	<path class="st2" d="M399.3,21.7l-1.4-0.3c-0.5,1.5-1,3.1-1.5,4.7C397.3,24.6,398.3,23.1,399.3,21.7z"/>
	<path class="st2" d="M397.8,21.4c-2.2-0.5-4.3-0.9-6.4-1.2l-0.4-0.1c-1.2,1.7-2.4,3.4-3.5,5.2c2.2,1.3,4.5,2.7,6.6,4.2
		c0.7-1.1,1.5-2.3,2.2-3.4C396.8,24.5,397.3,22.9,397.8,21.4z"/>
	<path class="st2" d="M396.3,26c-0.4,1.4-0.8,2.7-1.2,4.1c2.5,1.8,5,3.7,7.3,5.8c0.3-0.9,0.5-1.8,0.8-2.7c0.9-3.3,1.9-6.5,3-9.8
		c-2.3-0.6-4.6-1.2-6.9-1.7C398.3,23.1,397.3,24.6,396.3,26z"/>
	<path class="st2" d="M371.2,17.8c6.7,0.5,13.3,1.2,19.8,2.3c1.6-2.2,3.1-4.5,4.7-6.7c-3.6-0.7-7.2-1.3-10.6-1.7
		c-35.5-4.5-72.5-1-108.1,7.6c-2.6,1.4-5.4,2.1-8.3,2.1C248,26.9,227.7,34,208,42.7c-22.7,9.9-44.4,22-64.7,36.1
		c1.6,2,3.4,3.9,5.2,5.7C184,60,223.4,41.8,264.9,30.5c15-4.1,30.1-7.4,45.5-9.7c8.4-3.8,17.4-6.2,26.6-7.2
		C348.6,12.6,360.3,14,371.2,17.8z"/>
	<path class="st2" d="M484.2,48.3c-2.3-1.4-4.5-2.8-6.7-4.3c-0.7,2.4-1.4,4.7-2.3,7.1c1.7,1.2,3.5,2.4,5.3,3.5l1.2,0.7l0.1-0.2
		C482.7,52.8,483.5,50.6,484.2,48.3z"/>
	<path class="st2" d="M391.5,20.2c2.1,0.3,4.2,0.8,6.4,1.2c0.8-2.4,1.6-4.7,2.5-7c-1.5-0.4-3-0.7-4.6-1c-1.6,2.2-3.2,4.5-4.7,6.7
		L391.5,20.2z"/>
	<path class="st2" d="M413.7,2.2c-1,1.2-2,2.5-3,3.7c-2.4,3-4.7,6.1-6.9,9.3c1.5,0.4,3.1,0.8,4.6,1.2
		C410.1,11.7,411.8,6.9,413.7,2.2z"/>
	<path class="st2" d="M149.2,31.7c10.5-10,21.4-20.6,32.6-30.7c-3.1-0.1-6.2-0.2-9.2-0.4c-4.3,4-8.6,8-13,11.9
		c-8.7,7.8-18.6,14.8-25.2,24.6c-10.7,15.7-7.3,32.6,2.5,46.2c2.1-1.5,4.2-3,6.4-4.5C132.3,65.2,130.7,49.3,149.2,31.7z"/>
	<path class="st2" d="M268.8,21.4c2.9,0,5.7-0.7,8.3-2.1C274.3,19.9,271.5,20.7,268.8,21.4z"/>
	<path class="st2" d="M679.3,96.7c7.7-2.9,15.1-6.6,22-11.1c-1.3-1.5-2.7-3-4.1-4.5C690.9,85.8,684.9,91,679.3,96.7z"/>
	<path class="st2" d="M316.3,75.7c-0.6,0.5-1.2,1.1-1.8,1.6c-2,2.2-3.3,5-3.7,7.9c0.7-0.1,1.4-0.1,2.2-0.2c1.7-0.1,3.3,0,5,0.2
		c0.3-0.4,0.6-0.9,0.9-1.5c0.2-0.3,0.4-0.6,0.7-0.9C320.9,79.5,320.9,76.5,316.3,75.7z"/>
	<path class="st2" d="M319.6,82.9c2.4-2.6,5.4-4.6,8.8-5.7c-0.1-2.6-1.2-5.1-3-6.9c-3.3,1.4-6.3,3.2-9.1,5.4
		C320.9,76.5,320.9,79.5,319.6,82.9z"/>
	<path class="st2" d="M318.6,85.3l-0.6-0.1C316,88.7,316.9,89,318.6,85.3z"/>
	<path class="st2" d="M371.2,17.8c-11-3.8-22.6-5.3-34.2-4.2c-9.2,1-18.2,3.4-26.6,7.2C330.5,17.6,350.9,16.6,371.2,17.8z"/>
	<path class="st2" d="M143.3,78.8c-2.1,1.5-4.3,3-6.4,4.5c1.5,2,3.1,4,4.8,5.8l3.6-2.5c1-0.7,2.1-1.4,3.2-2.2
		C146.7,82.7,144.9,80.8,143.3,78.8z"/>
	<path class="st2" d="M394.1,29.4c-1.3,2.1-2.7,4.1-4,6.2c1,0.7,2,1.5,3,2.2c0.6-2.6,1.3-5.2,2-7.8L394.1,29.4z"/>
	<path class="st2" d="M395.1,30.2c-0.7,2.6-1.4,5.2-2,7.8c2.5,1.9,4.9,4,7.2,6.1c0.7-2.9,1.5-5.6,2.2-8.2
		C400.1,33.9,397.6,32,395.1,30.2z"/>
	<path class="st2" d="M402.4,35.9c-0.7,2.5-1.5,5.3-2.2,8.2C413,56.3,422,72.4,424.7,90.2c0.3,2.1,0.5,4.2,0.6,6.3
		c2.6-0.2,5.2-0.6,7.7-1.4C431.9,72.2,419.9,51,402.4,35.9z"/>
	<path class="st2" d="M387.5,25.3c-1.4,2.1-2.8,4.1-4.2,6.2c2.3,1.3,4.5,2.7,6.7,4.2c1.3-2.1,2.7-4.2,4-6.2
		C391.9,28,389.7,26.6,387.5,25.3z"/>
	<path class="st2" d="M358.9,68c-0.8,1.2-1.7,2.4-2.6,3.7c2.1,1.9,3.9,4.1,5.5,6.4c10.1-13.6,19-28.2,28.2-42.5
		c-2.2-1.5-4.4-2.9-6.7-4.2C375.2,43.6,367.3,56,358.9,68z"/>
	<path class="st2" d="M473.1,56.2c-14.5-19.7-40.2-32.9-64.7-39.8c-0.8,2.3-1.5,4.6-2.3,6.9c24.1,6.5,50,19.9,62.8,40.8
		c0.4-0.6,0.8-1.3,1.1-1.9C471.2,60.3,472.2,58.3,473.1,56.2z"/>
	<path class="st2" d="M475.2,51c-0.7,1.7-1.4,3.5-2.2,5.2c1.8,2.4,3.4,4.9,4.8,7.5c1.5-2.8,2.8-5.6,3.9-8.5l-1.2-0.7
		C478.7,53.4,477,52.3,475.2,51z"/>
	<path class="st2" d="M470.1,62.3c-0.4,0.6-0.7,1.3-1.1,1.9c1.5,2.5,2.9,5.1,4,7.8c1.8-2.7,3.4-5.4,4.9-8.3c-1.4-2.6-3-5.1-4.8-7.5
		C472.2,58.3,471.2,60.3,470.1,62.3z"/>
	<path class="st2" d="M356.2,71.7c-7.6-6.8-20.6-5.8-30.8-1.4c1.8,1.9,2.9,4.3,3,6.9c3.5-1.3,7.2-2.1,11-2.5c5.5-0.4,9.2,1,12.2,3.8
		c1.7-2.4,3.3-4.7,4.7-6.8L356.2,71.7z"/>
	<path class="st2" d="M311.3,92.7c1.3,3.7,4.3,5.5,9.5,2c0.4-0.3,0.8-0.6,1.1-0.9c-1.8-0.7-3.8-1.1-5.7-1.2
		C314.6,92.5,313,92.5,311.3,92.7z"/>
	<path class="st2" d="M310.9,85.2c-5.8,0.6-11.4,1.9-16.9,3.9c-2.5,3.1-4.2,6.2-4.4,9.2c3.9-1.3,7.9-2.3,11.2-3.3
		c3.4-1.1,6.9-1.8,10.5-2.3C310.6,90.3,310.5,87.7,310.9,85.2z"/>
	<path class="st2" d="M356.3,71.8c-1.5,2.1-3.1,4.4-4.7,6.8c1.9,2,3.6,4.2,4.8,6.7c1.9-2.3,3.7-4.6,5.5-7
		C360.2,75.9,358.4,73.7,356.3,71.8z"/>
	<path class="st2" d="M315.5,75.6c0.3,0,0.6,0.1,0.8,0.1c2.8-2.2,5.8-4,9.1-5.4c-1.7-1.5-3.8-2.4-6-2.5c-14-1.4-32.2,12.2-36.8,25.7
		c3.7-1.5,7.5-3,11.4-4.4c0.5-0.6,1-1.2,1.6-1.8C299.7,82.9,308.9,74.9,315.5,75.6z"/>
	<path class="st2" d="M318,85.2c-1.6-0.2-3.3-0.3-5-0.2c-0.7,0-1.4,0.1-2.2,0.2c-0.5,2.5-0.3,5.1,0.4,7.5c1.6-0.2,3.3-0.3,4.9-0.2
		c2,0.1,3.9,0.5,5.7,1.2c1.9-1.7,3.4-3.8,4.5-6.2c-2.5-1.1-5.1-1.9-7.8-2.3C316.9,89,316,88.7,318,85.2z"/>
	<path class="st2" d="M280.8,57c10.2-18.5,29.6-30.8,50.1-34.8c18.3-3.6,36.8,0.3,52.5,9.3c1.4-2.1,2.8-4.1,4.2-6.2
		c-5.2-3-10.6-5.5-16.3-7.4c-20.3-1.2-40.7-0.2-60.8,3C296.5,27,284.7,37,276.3,49.6c-9.5,14.7-13.2,34-7.4,50.1
		c2.3-1.4,4.7-2.6,7.1-3.6C272.7,83.2,274.9,67.5,280.8,57z"/>
	<path class="st2" d="M328.4,77.2c-3.4,1.1-6.4,3.1-8.8,5.7c-0.2,0.5-0.3,0.9-0.6,1.4s-0.3,0.7-0.4,1c2.7,0.4,5.3,1.2,7.8,2.3
		C327.9,84.4,328.6,80.8,328.4,77.2z"/>
	<path class="st2" d="M615.2,10.4c0.7,0.5,1.3,1,2,1.6l1.9-0.9c1.8-0.9,3.7-1.7,5.5-2.5c-1.3-1.2-2.7-2.3-4.1-3.5
		C618.8,6.9,617,8.7,615.2,10.4z"/>
	<path class="st2" d="M573.4,22.5l2.5-0.8c2.7-0.9,5.3-1.9,7.9-2.9c-0.2-0.3-0.3-0.7-0.5-1c-8.1-1.8-16.9-9.6-7.8-17.5l0.1-0.1H566
		c-0.7,1.6-1.2,3.3-1.5,5C563.2,14.1,567.3,19.7,573.4,22.5z"/>
	<path class="st2" d="M477.9,63.7c-1.5,2.8-3.1,5.6-4.9,8.3c2.8,6.7,4.2,13.8,4.1,21c0,2.4-0.2,4.7-0.7,7h7.7c0-0.3,0.1-0.5,0.1-0.8
		C486,87,483.8,74.5,477.9,63.7z"/>
	<path class="st2" d="M583.3,17.7c0.7,0.2,1.5,0.3,2.2,0.3c4.4-1.8,8.8-3.7,13.2-5.7c0-4.1-0.6-8.2-1.7-12.2
		c-2.4,2.4-4.3,5.2-5.7,8.2c0.3,1.6,0.3,3.2,0,4.7c-1.2,5.6-1.3-0.4-1-1.7c0.2-1,0.5-2,0.9-3c-0.2-1.4-0.5-2.8-0.9-4.1
		c-0.4-1.5-1.1-2.9-2-4.2h-0.7C584.5,5.1,581.5,12.4,583.3,17.7z"/>
	<path class="st2" d="M477.5,44c2.1,1.5,4.4,3,6.7,4.3c4.8-15.6,5.5-32.1,3.1-48.3h-7.6C482.1,14.7,481.4,29.7,477.5,44z"/>
	<path class="st2" d="M529.3,28.1c22.2,13.5,47.4,22.5,73.4,24.2c-2.6-1.9-4.8-4.4-6.4-7.3c-0.2-0.4-0.4-0.8-0.6-1.2
		c-12.9-1.5-25.5-4.8-37.5-9.6c-8.3,1-16.5,0-23-4.9c-4-2.8-6.9-7-8.1-11.7c-8-5.3-15.6-11.2-22.7-17.6h-11.1l0.5,0.5
		C504.5,11,516.5,20.3,529.3,28.1z"/>
	<path class="st2" d="M591.3,8.4c1.4-3.1,3.3-5.8,5.7-8.2V0h-8.7c1,1.2,1.7,2.7,2.1,4.2C590.9,5.6,591.2,7,591.3,8.4z"/>
	<path class="st2" d="M527,17.7c7.6,5,15.5,9.5,23.8,13.4c2.4,1.1,4.9,2.2,7.4,3.2c10.7-1.3,21.8-5.8,30.2-9.2l0.8-0.3
		c-5.5,0.6-11.2,0-15.8-2.2c-12.1,4-32.2,9.4-38.4-5.1c-3.3-7.8,1.5-13.5,8.5-17.4h-11.8C527.2,5.2,525.5,11.6,527,17.7z"/>
	<path class="st2" d="M425.3,96.5c-5.3,0.3-10.6-0.9-15.3-3.5c-16.8-9.4-14.1-31.4-9.8-48.9c-2.3-2.2-4.7-4.2-7.2-6.2
		c-2.4,9.7-3.6,19.7-3.4,29.7c0.4,14.3,6.8,26.5,17.5,32.4h18.2C425.4,98.9,425.3,97.7,425.3,96.5z"/>
	<path class="st2" d="M433,95.1c-2.5,0.8-5.1,1.2-7.7,1.4c0.1,1.2,0.1,2.3,0.1,3.5h7.7C433.1,98.4,433.1,96.8,433,95.1z"/>
	<path class="st2" d="M473,72c-1.1-2.7-2.5-5.3-4-7.8c-7.4,12.4-21.1,26.5-36,31c0.1,1.6,0.1,3.3,0.1,4.9h7.7
		C454,94.6,465,84.1,473,72z"/>
	<path class="st2" d="M597.1,0L597.1,0L597.1,0L597.1,0z"/>
	<path class="st2" d="M618.2,3.2l4-1.9c0.9-0.4,1.8-0.8,2.8-1.2h-3.2c-2.1,0.5-4.3,0.8-6.5,1C616.3,1.7,617.2,2.4,618.2,3.2z"/>
	<path class="st2" d="M612.9,1.1c0.8,0,1.7-0.1,2.5-0.1l-1.3-1H614l-0.2,0.2C613.5,0.5,613.2,0.8,612.9,1.1z"/>
	<path class="st2" d="M618.2,3.2l0.4,0.3c2-0.9,3.9-1.7,5.8-2.4l1.1-1.1H625c-1,0.4-1.9,0.8-2.8,1.2L618.2,3.2z"/>
	<path class="st2" d="M621.9,0h-7.7l1.3,1C617.6,0.8,619.7,0.5,621.9,0z"/>
	<path class="st2" d="M612.9,1.1c0.3-0.3,0.6-0.6,0.9-0.9L614,0h-12.9C605,0.9,609,1.3,612.9,1.1z"/>
	<path class="st2" d="M575.2,100h10.6c-2.7-0.7-5.4-1.4-8-2.2L575.2,100z"/>
	<path class="st2" d="M612.9,1.1c-4,0.2-7.9-0.2-11.8-1.1h-1.7c3.1,1.7,6.2,3.5,9.1,5.5C610,4,611.5,2.6,612.9,1.1z"/>
	<path class="st2" d="M207.7,0h-24.8l-1.1,1C190.5,1.2,199.1,0.9,207.7,0z"/>
	<path class="st2" d="M289.6,98.3c-1.7,0.5-3.4,1.1-5,1.8h5.2C289.7,99.5,289.6,98.9,289.6,98.3z"/>
	<path class="st2" d="M181.8,1l1.1-1h-9.7l-0.7,0.6C175.7,0.9,178.7,1,181.8,1z"/>
	<path class="st2" d="M336.5,97c-1.7-4-5.5-7.3-10.1-9.4c-1,2.3-2.6,4.5-4.5,6.2c3.3,1.2,6.2,3.3,7.1,6.3h4.2
		C334.3,99,335.5,98,336.5,97z"/>
	<path class="st2" d="M173.3,0h-8.1c2.5,0.2,5,0.4,7.5,0.6L173.3,0z"/>
	<path class="st2" d="M136.9,83.3c-3.3,2.4-6.6,4.9-9.8,7.4c-3.7,2.9-7.1,6-10.4,9.3h10.8c4.6-4,9.6-7.6,14.2-10.9
		C140,87.3,138.4,85.3,136.9,83.3z"/>
	<path class="st2" d="M268.4,100h0.7l-0.1-0.3L268.4,100z"/>
	<path class="st2" d="M269,99.7l0.1,0.3h8.2c-0.5-1.3-0.9-2.6-1.2-3.9C273.6,97.2,271.3,98.3,269,99.7z"/>
	<path class="st2" d="M145.3,86.6l-3.6,2.5c3,3.3,6.4,6.2,10,8.8c1,0.7,2,1.4,3,2.1h15.1c-7.7-4.4-14.8-9.6-21.3-15.6
		C147.4,85.2,146.3,85.9,145.3,86.6z"/>
	<path class="st2" d="M611.2,7.4c2.4-1.5,4.8-2.8,7.3-3.9l-0.4-0.3l-7.7,3.6L611.2,7.4z"/>
	<path class="st2" d="M626.3,0.5l1.7-0.5h-2.5l-1.1,1.1C625,0.9,625.6,0.7,626.3,0.5z"/>
	<path class="st2" d="M415.5,0h-0.9c-0.3,0.7-0.6,1.4-0.9,2.2C414.3,1.5,414.9,0.8,415.5,0z"/>
	<path class="st2" d="M403.8,15.2c2.3-3.1,4.6-6.2,6.9-9.3c1-1.3,2-2.5,3-3.7c0.3-0.7,0.6-1.4,0.9-2.2h-8.5c-2,4.7-4,9.4-5.8,14.3
		L403.8,15.2z"/>
	<path class="st2" d="M356.3,85.2c0.4,0.7,0.8,1.5,1.2,2.2c2,4,3.5,8.2,4.5,12.6h8c-1.4-7.9-4.1-15.6-8.3-21.9
		C360,80.6,358.2,82.9,356.3,85.2z"/>
	<path class="st2" d="M475.2,51c0.9-2.3,1.6-4.7,2.3-7.1c-8-5.7-14.7-12.6-17.7-21.7c-2.4-7.3-2.2-15.1,0.6-22.2h-7.7
		C446.3,21.5,458,39,475.2,51z"/>
	<path class="st2" d="M400.3,14.4c1.8-4.9,3.8-9.7,5.8-14.3h-0.3c-3.5,4.4-6.8,8.8-10,13.4C397.3,13.7,398.8,14,400.3,14.4z"/>
	<path class="st2" d="M333.3,100h4.1c-0.1-1.1-0.4-2.1-0.8-3.1C335.5,98,334.3,99,333.3,100z"/>
	<path class="st2" d="M351.5,78.6c-4.5,6.5-9.5,12.7-15,18.4c0.4,1,0.7,2,0.8,3.1h5.8c4.7-4.7,9.1-9.6,13.2-14.8
		C355.1,82.8,353.5,80.5,351.5,78.6z"/>
	<path class="st2" d="M266.3,21.2c0.8,0.1,1.6,0.1,2.5,0.1c2.8-0.7,5.5-1.4,8.3-2.1c6.8-3.6,12-11.2,15.2-19.2h-8.2
		c-2.6,5.4-6.4,10.4-11.3,12.5C263.6,16.5,257,8.2,254.2,0h-7.7C248.9,10.4,254.8,19.7,266.3,21.2z"/>
	<path class="st2" d="M294,89.1c-3.9,1.3-7.7,2.8-11.4,4.4c-0.2,0.7-0.4,1.4-0.6,2c-0.4,1.5-0.5,3-0.4,4.5h3c1.7-0.6,3.4-1.2,5-1.8
		C289.8,95.3,291.5,92.2,294,89.1z"/>
	<path class="st2" d="M631.5,43.2c-3.9,0.6-7.8,1.1-11.7,1.3c-3.6,2.1-8,2.2-11.7,0.2c-4.1-0.1-8.2-0.4-12.3-0.9
		c0.2,0.4,0.4,0.8,0.6,1.2c1.6,2.9,3.8,5.4,6.4,7.3c2.4,0.2,4.9,0.3,7.3,0.3c3.2,0,6.4-0.1,9.7-0.3C624.1,50,628.1,46.9,631.5,43.2z
		"/>
	<path class="st2" d="M631.5,43.2c-3.4,3.7-7.4,6.7-11.7,9.1c11.9-0.8,23.6-3.2,34.8-7.2c-2.2-1.8-4.4-3.7-6.6-5.7
		C642.5,41.1,637,42.4,631.5,43.2z"/>
	<path class="st2" d="M610.1,52.7c-2.5,0-4.9-0.1-7.3-0.3c5.3,3.7,11.3,3,17,0C616.5,52.6,613.3,52.7,610.1,52.7z"/>
	<path class="st2" d="M601.2,31.4c0.7-9,8-15.2,16.2-19.3l-0.2-0.1l-7.8,3.7c-1.8,1.5-3.8,3-5.8,4.3c-2.6,1.6-5.4,2.9-8.4,3.6
		c-3,6-3.4,12.9,0.5,20.3c4.1,0.5,8.2,0.8,12.3,0.9C603.3,42,600.7,36.8,601.2,31.4z"/>
	<path class="st2" d="M661.7,50.7l-1.6-1.2c-1.4-1.1-2.9-2.2-4.3-3.4l-4.4,2.3c-23.4,12.5-45.6,27-66.3,43.6
		c3.1,0.8,6.3,1.5,9.5,2.2c9.9-7.7,20.1-14.9,30.7-21.6C636.5,65.3,648.9,57.2,661.7,50.7z"/>
	<path class="st2" d="M656,36.7c-2.7,1-5.3,2-8,2.8c2.2,2,4.4,3.9,6.6,5.7c2.8-1,5.5-2,8.2-3.2C660.5,40.2,658.2,38.5,656,36.7z"/>
	<path class="st2" d="M679.3,96.7c-3.3,1.3-6.7,2.4-10.1,3.4h6.8C677.1,98.9,678.2,97.8,679.3,96.7z"/>
	<path class="st2" d="M661.7,50.7c2.6-1.3,5.2-2.6,7.9-3.7c-2.1-1.6-4.2-3.1-6.3-4.7c-2.6,1.3-5.1,2.6-7.5,3.8
		c1.4,1.2,2.9,2.3,4.3,3.4L661.7,50.7z"/>
	<path class="st2" d="M662.8,42c-2.7,1.2-5.5,2.2-8.2,3.2l1.2,1c2.4-1.3,4.9-2.6,7.5-3.8L662.8,42z"/>
	<path class="st2" d="M589.3,23.2c0.7,0.3,1.4,0.4,2.2,0.5c1.6-0.7,3.2-1.4,4.9-2.1c0.4-0.7,0.9-1.5,1.4-2.1c0.6-1.8,0.9-3.6,1-5.5
		c-3.2,2.2-6.9,3.5-10.8,4c-0.8,0.1-1.6,0.1-2.3,0l-1.8,0.7C585,20.9,586.9,22.5,589.3,23.2z"/>
	<path class="st2" d="M604.2,9.8c-1.8,0.9-3.6,1.7-5.4,2.5c0,0.6,0,1.1,0,1.7C600.7,12.8,602.5,11.3,604.2,9.8z"/>
	<path class="st2" d="M597.7,19.5c3.7-4.9,8.3-9,13.5-12.1l-0.8-0.6l-6.2,3c-1.7,1.5-3.5,3-5.5,4.2
		C598.7,15.9,598.3,17.7,597.7,19.5z"/>
	<path class="st2" d="M608.6,5.6c-1.4,1.4-2.9,2.9-4.4,4.2l6.2-3C609.8,6.4,609.2,6,608.6,5.6z"/>
	<path class="st2" d="M618.2,3.2c-0.9-0.7-1.8-1.5-2.8-2.1c-0.8,0.1-1.7,0.1-2.5,0.1c-1.4,1.4-2.9,2.9-4.3,4.4
		c0.6,0.4,1.2,0.8,1.8,1.3L618.2,3.2z"/>
	<path class="st2" d="M589.3,23.2c-2.3-0.7-4.3-2.3-5.4-4.4c-2.6,1-5.2,2-7.9,2.9l-2.5,0.8c4.5,2.1,10.2,2.7,15.8,2.2l2.3-0.9
		C590.7,23.6,590,23.4,589.3,23.2z"/>
	<path class="st2" d="M595.8,22.5c-1.2,1.1-2.8,1.5-4.4,1.2l-2.3,0.9c2.1-0.2,4.1-0.6,6.1-1.1C595.4,23.2,595.6,22.8,595.8,22.5z"/>
	<path class="st2" d="M587.9,18c3.9-0.5,7.6-1.8,10.8-4c0-0.6,0-1.1,0-1.7c-4.4,2-8.8,3.9-13.2,5.7C586.3,18.1,587.1,18.1,587.9,18z
		"/>
	<path class="st2" d="M697.2,81c-0.5-0.5-0.9-1-1.4-1.5c-6.1,4.1-12.6,7.5-19.5,10.2c-3.6,3.3-7,6.8-10.4,10.3h3.2
		c3.4-1,6.7-2.1,10.1-3.4C684.9,91,690.9,85.8,697.2,81z"/>
	<path class="st2" d="M719.7,69.7c-0.7,6.2-2.8,12.2-6.2,17.5l-0.2,0.3c0.5,0.7,1,1.5,1.5,2.3c1,1.5,1.9,3,2.7,4.6
		c5.3-7.6,9.3-16.6,10.4-25.6C725.1,68.7,722.3,69,719.7,69.7z"/>
	<path class="st2" d="M585,92c-2.4,1.9-4.8,3.9-7.2,5.9c2.7,0.8,5.3,1.5,8,2.2h1.2c2.4-2,4.9-3.9,7.4-5.8
		C591.3,93.6,588.1,92.8,585,92z"/>
	<path class="st2" d="M698.7,9.8c1.8,1.1,3.5,2.2,5.2,3.4c3.8-4.1,7.2-8.5,10.2-13.2h-9.7c-2.2,3.1-4.6,6.1-7.2,8.9
		C697.7,9.2,698.2,9.5,698.7,9.8z"/>
	<path class="st2" d="M697.2,8.9c-1.8,1.9-3.6,3.8-5.5,5.6c0.5,0.3,1.1,0.6,1.6,0.9c1.8,1,3.5,2.1,5.3,3.3c1.9-1.7,3.6-3.6,5.3-5.4
		c-1.7-1.2-3.5-2.4-5.2-3.4C698.2,9.5,697.7,9.2,697.2,8.9z"/>
	<path class="st2" d="M692.5,76.2c-3.3,2.4-6.4,5-9.2,7.4c-2.3,2-4.6,4-6.8,6.1c6.8-2.7,13.4-6.1,19.4-10.2
		C694.7,78.5,693.6,77.3,692.5,76.2z"/>
	<path class="st2" d="M717.6,39.5c2,4.9,2.1,10.4,0.3,15.4c0.9,2.4,1.5,5,1.8,7.5c1.3-0.3,2.6-0.5,3.9-0.7c1.4-2.7,2.3-5.7,2.8-8.7
		c-1.3-3.8-3.3-7.4-5.9-10.5C719.6,41.5,718.6,40.5,717.6,39.5z"/>
	<path class="st2" d="M625,8.9c1.7-0.6,3.4-1.2,5-1.6c5-1.4,10-2.3,15.2-2.7c0.6-1.5,1.2-3.1,1.8-4.6h-3.2
		c-6.2,3.2-12.8,5.8-19.2,8.5L625,8.9z"/>
	<path class="st2" d="M691.7,14.5c1.9-1.8,3.8-3.7,5.5-5.6c-6.7-3.9-13.9-6.8-21.3-8.9h-20.9c-0.5,1.5-1.1,2.9-1.7,4.3
		C666.8,4.6,680,8.1,691.7,14.5z"/>
	<path class="st2" d="M653.4,4.4c0.6-1.4,1.1-2.9,1.7-4.3H647c-0.6,1.5-1.2,3.1-1.8,4.6C648,4.4,650.7,4.3,653.4,4.4z"/>
	<path class="st2" d="M698.6,18.7c6.9,4.6,13.3,10.5,17.3,17.5c0.6,1.1,1.1,2.2,1.6,3.3c1,1,2,2,2.9,3.1c2.6,3.1,4.6,6.7,5.9,10.5
		c2.6-15.9-8.8-30.2-22.4-39.9C702.3,15.1,700.5,16.9,698.6,18.7z"/>
	<path class="st2" d="M702.7,74.5c-2.2,1.8-4.5,3.5-6.9,5.1c0.5,0.5,0.9,1,1.4,1.5c2.3-1.7,4.7-3.3,7.1-4.8
		C703.8,75.7,703.3,75,702.7,74.5z"/>
	<path class="st2" d="M704.3,76.3c-2.4,1.4-4.8,3.1-7.1,4.8c1.4,1.5,2.8,3,4.1,4.5c2.3-1.6,4.6-3.2,6.8-5
		C706.8,79.1,705.6,77.7,704.3,76.3z"/>
	<path class="st2" d="M699.5,71.3c-2.5,1.6-4.8,3.2-7.1,4.9c1.1,1.1,2.3,2.2,3.4,3.4c2.3-1.6,4.6-3.3,6.9-5.1
		C701.7,73.4,700.6,72.3,699.5,71.3z"/>
	<path class="st2" d="M728,61.5c-0.2-2.9-0.7-5.7-1.7-8.4c-0.5,3-1.5,5.9-2.8,8.7C725,61.6,726.5,61.5,728,61.5z"/>
	<path class="st2" d="M701.3,85.6c2.5,2.8,4.8,5.8,6.9,8.9c1.8-2.2,3.5-4.6,5-7c-1.6-2.4-3.4-4.7-5.2-6.9
		C705.9,82.3,703.6,84,701.3,85.6z"/>
	<path class="st2" d="M676.3,89.8c-25.5,10-54.8,10-81.9,4.4c-2.5,1.9-4.9,3.8-7.3,5.8H666C669.4,96.5,672.8,93.1,676.3,89.8z"/>
	<path class="st2" d="M723.5,61.8c-0.4,0.8-0.8,1.6-1.3,2.4c-0.8,1.3-1.6,2.6-2.5,3.8c0,0.5-0.1,1.1-0.1,1.6c2.7-0.7,5.4-1,8.2-0.9
		c0.3-2.4,0.3-4.8,0.2-7.2C726.5,61.5,725,61.6,723.5,61.8z"/>
	<path class="st2" d="M624.4,1.1l-3.8,4c1.4,1.1,2.7,2.3,4.1,3.5c6.4-2.8,13-5.4,19.2-8.5h-15.9l-1.7,0.5
		C625.6,0.7,625,0.9,624.4,1.1z"/>
</g>
</svg>
