<?xml version="1.0" standalone="no"?>
<!DOCTYPE svg PUBLIC "-//W3C//DTD SVG 20010904//EN"
 "http://www.w3.org/TR/2001/REC-SVG-20010904/DTD/svg10.dtd">
<svg version="1.0" xmlns="http://www.w3.org/2000/svg"
 width="1200.000000pt" height="1200.000000pt" viewBox="0 0 1200.000000 1200.000000"
 preserveAspectRatio="xMidYMid meet">
<metadata>
Created by potrace 1.14, written by Peter Selinger 2001-2017
</metadata>
<g transform="translate(0.000000,1200.000000) scale(0.100000,-0.100000)"
fill="#000000" stroke="none">
<path d="M6578 9955 c-2 -2 -61 -6 -133 -9 -71 -4 -148 -9 -170 -11 -22 -2
-64 -7 -94 -10 -30 -3 -68 -8 -85 -10 -69 -9 -113 -16 -146 -22 -19 -3 -43 -6
-52 -7 -10 0 -18 -4 -18 -9 0 -4 -4 -6 -8 -3 -4 2 -62 -6 -127 -19 -168 -33
-163 -32 -230 -45 -82 -17 -90 -18 -92 -20 -4 -3 -10 -5 -68 -15 -27 -5 -54
-10 -60 -11 -5 -1 -12 -3 -15 -4 -5 -1 -23 -5 -70 -14 -14 -2 -25 -5 -25 -6 0
-1 -9 -3 -20 -5 -36 -5 -82 -15 -172 -36 -48 -12 -97 -23 -108 -25 -32 -6 -89
-18 -97 -20 -5 -1 -9 -3 -10 -4 -2 -1 -12 -4 -23 -5 -11 -2 -58 -13 -105 -24
-47 -12 -92 -23 -100 -25 -47 -11 -114 -31 -185 -54 -44 -14 -84 -27 -90 -28
-5 -1 -37 -12 -70 -24 -33 -11 -64 -22 -70 -23 -12 -3 -68 -24 -110 -42 -25
-11 -97 -36 -115 -40 -16 -5 -67 -26 -80 -35 -8 -5 -33 -19 -55 -31 -22 -12
-42 -25 -45 -29 -3 -3 -14 -10 -24 -13 -10 -4 -17 -9 -15 -11 4 -3 40 1 159
19 25 3 108 22 185 42 77 19 147 36 156 38 10 2 77 19 151 39 73 19 145 37
158 40 14 2 25 5 25 6 0 1 7 3 15 5 8 2 35 9 60 16 25 6 52 12 60 14 8 1 33 7
55 13 22 6 49 13 60 15 11 2 31 7 45 10 47 12 155 37 180 41 14 3 36 7 50 10
39 9 93 19 110 21 8 1 31 5 50 9 19 4 49 9 65 11 17 2 30 5 30 6 0 1 9 3 20 4
22 3 134 22 175 30 53 10 287 46 320 50 64 7 121 15 143 20 20 4 55 9 155 21
17 2 49 6 70 9 20 3 60 7 87 10 72 8 102 11 173 20 193 22 351 30 622 30 146
0 308 -4 360 -8 52 -4 120 -10 150 -12 30 -3 87 -9 125 -15 39 -5 90 -12 115
-15 124 -17 151 -21 300 -51 69 -14 139 -29 155 -34 17 -5 43 -11 58 -14 49
-8 314 -86 362 -106 11 -4 47 -18 80 -30 33 -12 80 -31 104 -42 25 -11 54 -22
65 -24 25 -4 462 -221 479 -238 7 -6 32 -22 57 -35 25 -14 56 -32 70 -41 14
-10 72 -48 130 -86 58 -38 109 -73 115 -77 5 -4 35 -25 65 -47 71 -52 97 -72
118 -90 10 -8 33 -26 52 -40 19 -14 46 -34 60 -46 280 -240 468 -431 651 -663
144 -183 378 -539 394 -601 1 -3 21 -44 43 -93 23 -48 42 -92 42 -98 0 -5 7
-24 16 -40 8 -17 17 -38 19 -47 2 -10 10 -37 18 -62 29 -85 72 -274 83 -365
19 -160 24 -375 11 -500 -4 -38 -10 -92 -12 -120 -3 -27 -7 -59 -9 -70 -2 -11
-9 -56 -16 -100 -13 -89 -14 -90 -35 -195 -19 -92 -23 -114 -31 -143 -3 -12
-7 -31 -8 -42 -1 -11 -6 -30 -10 -42 -4 -12 -9 -31 -11 -43 -8 -39 -46 -175
-82 -290 -20 -63 -38 -119 -39 -125 -1 -5 -19 -55 -39 -110 -20 -55 -38 -104
-40 -110 -1 -5 -9 -27 -19 -47 -9 -21 -16 -40 -16 -42 0 -3 -11 -30 -25 -60
-14 -30 -25 -57 -25 -60 0 -28 -243 -488 -261 -494 -5 -2 -9 -8 -9 -13 0 -8
-78 -132 -103 -164 -4 -5 -31 -42 -60 -81 -53 -71 -104 -138 -122 -158 -5 -6
-35 -40 -65 -76 -80 -96 -246 -259 -315 -310 -33 -25 -69 -53 -79 -63 -11 -9
-24 -17 -28 -17 -5 0 -14 -5 -21 -10 -47 -40 -305 -176 -367 -195 -14 -4 -29
-11 -35 -15 -10 -7 -151 -62 -170 -66 -5 -1 -44 -13 -85 -27 -98 -32 -314 -99
-317 -99 -2 1 -22 -6 -45 -14 -24 -9 -50 -17 -58 -19 -8 -2 -154 -45 -325 -95
-170 -50 -319 -93 -330 -94 -11 -2 -33 -8 -48 -15 -15 -6 -42 -13 -59 -16 -17
-3 -39 -10 -49 -16 -11 -5 -19 -7 -19 -4 0 3 -8 1 -18 -4 -11 -6 -30 -12 -44
-15 -14 -2 -101 -26 -194 -52 -93 -26 -176 -48 -184 -49 -8 -1 -31 -6 -50 -13
-35 -11 -357 -86 -415 -96 -16 -3 -39 -8 -50 -10 -11 -2 -40 -7 -65 -11 -25
-4 -52 -9 -60 -10 -8 -1 -42 -6 -75 -11 -33 -4 -62 -8 -65 -9 -3 -1 -41 -5
-85 -9 -44 -5 -89 -10 -100 -12 -150 -25 -895 -25 -1130 0 -16 2 -66 7 -110
11 -44 4 -89 9 -100 11 -11 2 -40 7 -65 10 -25 3 -56 7 -70 10 -14 3 -37 7
-52 7 -16 1 -28 4 -28 7 0 3 -10 5 -22 6 -24 1 -36 3 -153 29 -38 9 -81 18
-93 21 -13 2 -47 11 -75 19 -29 7 -79 21 -111 30 -63 17 -360 115 -411 136
-16 7 -34 13 -40 15 -5 1 -80 28 -165 59 -85 31 -159 58 -165 60 -5 1 -17 5
-25 8 -23 10 -324 118 -335 121 -5 2 -17 6 -25 9 -8 4 -67 25 -130 48 -193 69
-244 87 -275 100 -16 7 -32 13 -35 13 -3 1 -11 5 -17 9 -7 5 -13 6 -13 3 0 -3
-32 8 -71 25 -40 16 -75 29 -80 29 -5 0 -32 10 -61 23 -29 13 -73 32 -98 42
-79 33 -270 134 -333 177 -127 85 -252 201 -387 358 -12 14 -38 43 -58 66 -20
22 -62 69 -92 104 -30 35 -60 68 -65 74 -6 6 -30 36 -55 66 -25 30 -47 57 -51
60 -14 12 -163 206 -251 325 -117 160 -293 425 -378 570 -117 198 -296 540
-331 630 -61 160 -82 267 -83 420 -1 129 12 232 43 355 37 140 159 423 222
512 10 14 19 29 19 33 0 6 118 184 130 195 3 3 25 32 50 65 25 33 47 62 50 65
3 3 34 39 69 80 74 85 278 289 462 461 251 235 396 441 495 709 34 92 63 146
121 228 74 105 131 161 308 305 6 5 22 16 36 25 15 9 54 36 89 60 34 23 64 42
67 42 4 0 14 6 22 14 59 51 497 258 549 259 6 0 12 5 12 10 0 6 3 8 6 5 3 -4
35 4 70 17 35 13 64 21 64 19 0 -3 8 0 18 5 11 6 30 12 43 15 13 2 65 14 114
26 50 12 99 24 110 26 11 2 31 6 45 9 14 3 45 8 70 11 54 7 63 14 58 45 -2 20
-9 24 -33 23 -39 -2 -173 -14 -205 -19 -14 -2 -38 -6 -55 -9 -51 -7 -129 -28
-141 -37 -6 -5 -13 -7 -16 -4 -6 6 -226 -68 -268 -90 -15 -8 -30 -11 -34 -8
-3 4 -6 1 -6 -5 0 -7 -3 -11 -7 -11 -27 5 -461 -211 -471 -233 -2 -5 -9 -8
-16 -8 -15 0 -205 -130 -225 -154 -7 -9 -18 -16 -23 -16 -12 0 -187 -176 -228
-230 -19 -25 -37 -47 -40 -50 -16 -14 -94 -149 -155 -267 -37 -73 -72 -133
-76 -133 -5 0 -9 -5 -9 -11 0 -34 -177 -225 -320 -346 -47 -39 -97 -82 -111
-95 -14 -13 -52 -45 -84 -73 -32 -27 -63 -55 -69 -60 -18 -17 -139 -117 -186
-155 -145 -115 -315 -321 -417 -505 -24 -43 -99 -197 -113 -230 -7 -18 -17
-42 -55 -130 -7 -16 -23 -61 -35 -100 -12 -38 -24 -77 -27 -85 -7 -17 -8 -23
-17 -60 -3 -14 -10 -43 -15 -65 -9 -37 -14 -67 -27 -150 -9 -57 -11 -260 -4
-315 5 -30 11 -75 15 -100 12 -84 74 -310 110 -403 42 -108 145 -319 192 -395
18 -28 33 -55 34 -60 3 -27 263 -427 378 -582 90 -121 191 -252 249 -321 100
-120 138 -164 159 -185 13 -12 23 -24 23 -27 0 -21 484 -507 505 -507 3 0 31
-21 63 -46 31 -25 66 -54 78 -63 11 -9 36 -25 55 -35 18 -11 36 -22 39 -26 24
-32 393 -213 455 -224 6 -1 15 -4 20 -7 6 -4 28 -12 50 -19 22 -7 54 -18 70
-25 17 -7 53 -20 80 -30 28 -9 57 -19 65 -22 8 -3 20 -7 25 -9 6 -1 107 -37
225 -79 237 -85 337 -120 468 -166 48 -17 94 -33 102 -36 8 -4 18 -7 23 -8 4
-2 8 -3 10 -5 1 -1 9 -3 17 -5 8 -2 29 -9 45 -16 17 -6 35 -13 40 -15 6 -1 42
-14 80 -28 39 -13 134 -48 213 -75 249 -89 415 -148 502 -181 163 -60 195 -71
210 -75 8 -2 16 -4 18 -5 1 -2 5 -3 10 -5 4 -1 14 -4 22 -8 8 -3 49 -15 90
-27 41 -12 82 -24 90 -27 8 -3 20 -7 25 -8 18 -4 120 -25 143 -30 13 -2 31 -6
40 -9 9 -3 37 -7 62 -10 25 -3 59 -8 75 -12 87 -17 638 -28 667 -13 10 6 19 5
23 -1 4 -6 11 -7 17 -4 5 4 24 8 41 9 125 12 233 23 271 29 17 3 54 8 81 12
28 3 59 8 70 10 10 2 37 6 60 10 59 8 303 53 375 68 14 3 36 8 50 11 57 12 71
15 88 19 9 2 40 10 67 16 72 17 70 16 190 50 61 17 117 32 125 34 8 1 22 6 30
9 8 3 33 10 55 15 48 12 403 114 600 172 77 23 147 43 155 45 8 2 34 10 58 19
23 8 42 13 42 10 0 -2 9 0 21 6 11 6 28 13 37 15 32 6 297 97 447 152 199 74
326 127 529 222 59 28 110 51 112 51 14 0 238 132 301 177 157 112 364 313
472 456 19 26 39 47 43 47 4 0 8 6 8 14 0 8 4 16 8 18 13 5 130 177 202 298
77 128 336 644 330 658 0 1 6 15 14 30 8 15 22 45 31 67 9 22 20 49 25 60 34
75 134 355 151 419 4 17 15 56 24 86 9 30 18 66 20 80 2 14 13 68 24 120 11
52 23 109 26 125 2 17 7 41 10 55 2 13 7 42 10 65 3 22 8 51 10 65 12 58 15
76 20 112 14 95 23 149 31 188 6 28 9 45 18 105 4 23 8 52 11 65 16 83 22 374
10 475 -7 66 -14 113 -20 139 -2 12 -7 38 -10 59 -3 21 -9 47 -15 56 -5 10 -7
21 -5 23 12 12 -86 280 -147 403 -66 132 -199 345 -219 353 -5 2 -9 8 -9 14 0
12 -102 138 -162 200 -14 15 -24 28 -22 28 19 0 -309 304 -466 433 -41 33 -82
67 -90 74 -32 28 -379 302 -460 364 -47 35 -139 100 -205 144 -66 44 -121 83
-123 88 -2 4 -8 7 -13 7 -5 0 -37 17 -71 38 -120 73 -278 156 -453 237 -89 41
-272 116 -285 117 -3 0 -13 4 -23 10 -10 5 -26 11 -35 13 -9 3 -65 22 -124 43
-60 22 -108 37 -108 34 0 -2 -6 1 -14 7 -8 6 -18 11 -22 10 -5 -2 -29 3 -54
10 -25 7 -45 12 -45 11 0 -1 -13 4 -30 10 -16 7 -39 14 -50 16 -30 6 -50 11
-160 37 -115 28 -169 39 -260 52 -16 2 -41 7 -55 10 -35 7 -67 13 -125 19 -27
4 -70 9 -95 12 -25 3 -65 7 -90 9 -25 2 -74 6 -110 9 -174 14 -811 31 -822 21z"/>
<path d="M5657 8964 c-3 -4 -62 -8 -129 -10 -68 -2 -132 -5 -143 -7 -26 -5
-43 -52 -28 -75 9 -15 24 -16 109 -13 254 11 738 3 899 -15 22 -2 67 -6 100
-9 33 -3 74 -7 90 -9 115 -14 149 -18 168 -22 12 -2 38 -7 57 -9 19 -3 51 -8
70 -11 19 -4 46 -8 59 -10 13 -1 55 -9 95 -18 39 -8 83 -18 99 -21 59 -11 77
-16 102 -25 14 -5 25 -8 25 -5 0 2 18 -2 40 -10 22 -8 40 -13 40 -11 0 2 21
-3 48 -11 26 -8 57 -16 69 -19 12 -2 86 -25 165 -51 79 -25 148 -47 154 -49 5
-1 30 -11 54 -23 24 -11 49 -21 55 -21 25 0 150 -68 135 -73 -8 -3 -51 -18
-95 -33 -96 -31 -292 -108 -355 -137 -25 -12 -47 -22 -50 -22 -13 -1 -294
-143 -358 -182 -41 -24 -78 -43 -83 -43 -5 0 -9 -4 -9 -10 0 -5 -5 -10 -12
-10 -7 0 -28 -11 -47 -24 -121 -81 -181 -115 -200 -113 -11 1 -21 4 -21 7 0 3
-30 5 -67 4 -38 -1 -68 -2 -68 -3 0 -2 -8 -4 -17 -6 -67 -13 -211 -85 -248
-125 -3 -3 -21 -20 -41 -38 -34 -31 -36 -32 -55 -14 -65 60 -177 116 -275 136
-58 12 -196 13 -226 2 -6 -3 -60 43 -120 102 -107 106 -212 202 -220 202 -4 0
-60 44 -136 106 -9 8 -20 14 -23 14 -3 0 -18 9 -32 21 -83 63 -442 259 -477
259 -8 0 -15 5 -15 12 0 6 -3 9 -6 5 -4 -3 -18 0 -33 7 -59 30 -312 112 -406
131 -11 3 -40 9 -65 14 -187 40 -344 58 -495 55 -180 -3 -287 -25 -399 -82
-150 -78 -249 -230 -248 -381 1 -76 5 -93 35 -161 6 -14 11 -27 11 -30 1 -3
20 -30 42 -60 37 -50 79 -91 158 -157 39 -33 227 -149 254 -157 12 -4 22 -12
22 -17 0 -5 5 -9 11 -9 7 0 49 -18 95 -40 46 -22 87 -40 91 -40 5 0 17 -7 27
-15 19 -14 19 -15 1 -35 -22 -24 -23 -24 -69 -5 -20 8 -38 15 -41 15 -3 0 -19
7 -35 15 -17 9 -30 13 -30 11 0 -3 -10 -2 -23 3 -13 5 -41 12 -61 15 -21 4
-41 8 -45 10 -7 5 -92 16 -166 22 -70 6 -259 6 -336 -1 -119 -10 -174 -16
-189 -20 -8 -2 -33 -7 -55 -10 -23 -3 -52 -8 -65 -11 -14 -2 -38 -7 -55 -10
-51 -9 -68 -13 -135 -29 -36 -9 -73 -18 -83 -20 -10 -2 -27 -7 -37 -10 -10 -3
-28 -8 -39 -10 -29 -7 -47 -12 -111 -30 -30 -9 -66 -18 -79 -21 -13 -3 -37
-12 -52 -20 -16 -8 -31 -14 -34 -14 -29 -1 -169 -65 -232 -107 -108 -73 -154
-140 -159 -231 -2 -52 22 -142 38 -142 4 0 8 -5 8 -11 0 -19 68 -75 131 -109
32 -17 59 -28 59 -24 0 3 6 2 13 -3 10 -9 72 -28 72 -23 0 1 12 -3 26 -9 15
-5 47 -12 70 -16 24 -3 51 -8 59 -10 8 -2 44 -7 80 -10 36 -3 82 -8 102 -11
39 -4 172 -15 220 -18 52 -3 55 2 -97 -136 -33 -30 -89 -80 -124 -110 -143
-123 -219 -208 -262 -293 -31 -60 -56 -161 -54 -212 5 -101 40 -211 90 -287
14 -21 25 -39 25 -41 0 -1 -24 -21 -53 -42 -328 -246 -450 -473 -382 -710 18
-65 78 -163 135 -221 45 -47 150 -124 169 -124 5 0 11 -4 13 -8 3 -9 133 -61
213 -86 67 -21 191 -46 300 -62 22 -3 51 -8 65 -10 14 -3 48 -7 75 -9 28 -3
60 -7 73 -9 12 -3 59 -8 105 -11 45 -4 93 -8 107 -11 131 -21 649 -21 875 0
105 10 181 17 205 21 14 2 50 6 80 10 30 3 66 8 80 11 14 2 39 6 55 8 17 2 71
12 120 21 50 10 101 19 115 22 37 6 332 81 353 88 9 4 17 4 17 1 0 -21 -180
-259 -280 -370 -105 -117 -375 -370 -486 -455 -6 -5 -44 -34 -85 -65 -41 -31
-79 -60 -84 -64 -33 -27 -196 -132 -204 -132 -5 0 -11 -4 -13 -8 -3 -8 -101
-67 -106 -64 -1 2 -10 -4 -18 -13 -9 -8 -21 -15 -29 -15 -7 0 -15 -3 -17 -7
-1 -5 -59 -37 -128 -72 -140 -71 -155 -83 -138 -115 25 -48 41 -45 193 31 133
67 270 146 388 225 48 32 90 58 93 58 3 0 11 6 18 13 8 6 24 19 36 27 20 13
39 28 118 88 37 28 47 36 76 62 l29 25 -14 -25 c-8 -14 -16 -27 -19 -30 -3 -3
-6 -9 -7 -15 -1 -5 -10 -30 -19 -55 -8 -25 -16 -75 -17 -112 -1 -38 -6 -68
-11 -68 -6 0 -5 -5 2 -12 7 -7 12 -21 12 -33 0 -38 51 -130 95 -172 66 -62
137 -85 265 -87 96 -1 202 8 220 19 3 2 17 6 31 8 13 3 44 10 69 17 25 7 50
13 55 15 6 1 17 5 25 8 8 3 65 21 125 40 257 82 351 110 365 112 9 0 20 3 25
6 6 3 28 11 50 17 22 6 69 20 105 31 55 16 69 17 90 6 54 -28 78 -34 155 -38
99 -5 280 32 400 82 189 80 428 222 531 316 22 20 233 109 241 101 2 -2 -2
-10 -10 -17 -7 -8 -14 -17 -15 -21 -2 -4 -5 -13 -7 -20 -31 -89 -19 -163 36
-218 89 -88 244 -94 371 -14 46 29 188 172 188 189 0 4 11 21 24 38 13 18 47
73 75 123 l51 92 78 -24 c42 -14 93 -27 112 -30 19 -3 42 -7 50 -9 90 -25 472
-25 560 0 8 2 29 7 45 10 66 11 83 15 160 39 157 47 330 123 470 206 40 25
187 124 215 146 146 117 355 318 460 443 25 30 50 59 55 65 27 30 136 177 166
226 33 52 118 215 118 225 0 3 10 38 23 78 32 106 31 251 -3 332 -7 17 -12 33
-11 38 1 4 -3 7 -8 7 -6 0 -10 6 -10 14 0 20 -76 102 -124 135 -22 15 -68 36
-100 46 -55 16 -73 20 -117 24 -9 0 -16 7 -16 14 0 6 -4 26 -7 42 -4 17 -9 65
-11 108 -3 76 -39 207 -57 207 -4 0 -8 5 -8 12 0 16 -73 111 -118 152 -63 58
-85 76 -94 76 -4 0 -8 6 -8 14 0 12 11 27 74 99 9 9 16 22 16 27 0 6 5 10 10
10 6 0 10 7 10 15 0 8 3 15 8 15 4 0 12 10 18 23 6 12 27 54 47 92 37 73 58
121 63 143 1 8 6 21 10 30 4 9 8 22 9 27 2 6 8 28 13 50 11 40 15 61 28 145
18 127 8 316 -26 455 -6 28 -13 55 -14 60 -1 6 -5 16 -9 23 -5 6 -6 12 -2 12
3 0 0 10 -7 23 -6 12 -13 28 -14 36 -5 26 -82 176 -118 230 -20 29 -36 54 -36
56 0 9 -116 132 -171 180 -113 101 -337 208 -479 229 -19 2 -48 8 -65 11 -16
4 -57 8 -90 10 -33 2 -62 4 -65 5 -23 7 -335 -11 -335 -19 0 -2 -18 -5 -40 -7
-21 -3 -84 -16 -139 -28 l-99 -24 -66 33 c-131 67 -225 105 -426 174 -82 28
-218 66 -275 77 -14 3 -34 8 -45 11 -21 7 -24 8 -65 16 -14 3 -45 10 -70 15
-25 6 -61 13 -80 16 -19 3 -46 8 -60 11 -29 7 -47 10 -158 31 -45 8 -99 16
-120 18 -20 3 -64 9 -97 15 -60 10 -145 21 -220 26 -22 2 -40 4 -40 5 0 1 -18
3 -40 5 -22 1 -85 6 -140 10 -55 4 -147 8 -205 10 -58 2 -106 4 -107 5 -8 5
-61 3 -70 -3 -7 -4 -14 -4 -17 1 -6 9 -59 8 -75 -3 -6 -3 -11 -2 -11 2 0 10
-58 9 -67 -1 -4 -3 -11 -1 -18 4 -7 5 -15 7 -18 4z m-1737 -318 c113 -12 252
-37 355 -63 33 -8 65 -16 70 -18 132 -31 337 -107 490 -183 137 -68 200 -105
343 -200 109 -73 147 -104 106 -88 -64 26 -138 35 -269 32 -126 -3 -189 -12
-365 -51 -8 -2 -43 -12 -77 -23 -35 -11 -63 -17 -63 -13 0 3 -4 1 -8 -4 -4 -6
-25 -16 -47 -24 -67 -23 -232 -108 -309 -160 -83 -55 -99 -68 -165 -129 -53
-49 -61 -49 -163 -3 -38 17 -71 32 -75 32 -19 4 -243 125 -292 159 -207 141
-292 283 -259 435 36 170 180 276 408 301 30 4 56 8 58 9 4 4 213 -4 262 -9z
m5010 -201 c14 -3 41 -8 60 -11 19 -3 60 -12 90 -21 30 -9 61 -17 67 -19 20
-4 186 -85 199 -98 6 -6 22 -18 35 -26 47 -30 147 -138 198 -213 28 -42 51
-79 51 -82 0 -3 13 -33 29 -67 45 -101 92 -269 100 -360 6 -59 4 -261 -3 -303
-14 -98 -50 -217 -99 -325 -24 -56 -116 -204 -128 -208 -5 -2 -9 -8 -9 -12 0
-5 -15 -26 -34 -46 l-35 -38 -66 32 c-86 43 -223 88 -305 102 -36 5 -76 12
-90 14 -14 3 -35 5 -47 5 -21 1 -21 2 -7 44 8 23 29 58 48 78 39 41 92 132
107 181 34 119 21 180 -85 397 -24 50 -79 98 -154 136 -59 29 -59 31 -66 95
-13 118 -71 254 -164 385 -66 92 -119 147 -219 225 -94 74 -121 96 -115 93 2
-1 16 3 30 8 15 6 45 12 67 15 22 2 51 6 65 9 14 3 57 8 95 11 39 4 71 7 73 9
5 5 285 -4 312 -10z m-705 -120 c82 -52 73 -45 155 -115 182 -154 283 -326
307 -517 l5 -44 -47 6 c-26 3 -57 10 -68 17 -12 6 -23 10 -25 9 -1 -1 -15 0
-30 3 -62 14 -79 17 -117 22 -22 3 -51 7 -65 9 -57 11 -203 18 -315 17 -104
-2 -210 -8 -210 -12 0 0 -22 -3 -50 -5 -27 -2 -95 -13 -150 -25 -110 -23 -110
-22 -177 -43 -27 -8 -48 -13 -48 -10 0 3 -6 1 -12 -4 -14 -11 -68 -27 -80 -25
-5 1 -8 -2 -8 -8 0 -5 -3 -9 -7 -8 -15 4 -52 -11 -243 -100 -19 -9 -37 -19
-40 -22 -3 -3 -18 -12 -35 -20 -38 -19 -128 -72 -135 -80 -3 -3 -18 -14 -35
-24 -16 -11 -56 -39 -88 -63 l-58 -44 -34 17 c-44 21 -52 43 -23 66 13 10 28
18 35 18 6 0 13 3 15 8 2 4 23 23 48 42 88 69 161 156 189 228 16 39 16 114 0
144 -15 28 -6 36 176 143 125 74 453 245 470 245 3 0 30 11 58 24 127 60 508
194 552 195 11 1 52 -19 90 -44z m-2975 -313 c116 -45 174 -126 173 -238 0
-105 -63 -171 -205 -218 -64 -21 -157 -38 -174 -32 -8 3 -14 2 -14 -2 0 -9
-18 -10 -200 -11 -133 -1 -227 3 -285 13 -16 2 -55 7 -85 10 -112 13 -420 90
-420 107 0 6 18 23 80 72 47 38 149 107 158 107 6 0 12 4 14 9 8 21 232 114
368 152 47 13 55 15 105 24 17 3 64 11 105 19 115 21 311 15 380 -12z m324
-153 l70 -67 -58 -27 c-42 -20 -61 -24 -69 -16 -8 8 -8 11 2 11 7 0 10 4 6 9
-3 6 -7 30 -9 55 -2 24 -12 63 -23 86 -25 48 -21 46 81 -51z m1059 -122 c-85
-69 -179 -179 -195 -226 -2 -9 -18 5 -42 38 l-38 51 23 19 c13 11 40 33 59 51
49 44 115 82 169 96 63 16 70 7 24 -29z m-678 -21 c22 -2 49 -7 60 -11 11 -4
34 -12 50 -18 47 -17 135 -75 135 -89 0 -7 -17 -32 -38 -54 -53 -59 -74 -84
-101 -123 l-24 -33 -27 53 c-53 107 -128 229 -140 229 -5 0 -30 44 -30 53 0 3
38 0 115 -7z m825 -47 c-13 -46 -64 -115 -124 -168 -16 -14 -36 -33 -45 -42
-40 -39 -91 -71 -92 -58 -10 90 53 184 191 284 57 41 65 44 71 28 3 -10 3 -30
-1 -44z m-1023 -1 c18 -18 33 -35 33 -39 0 -4 14 -23 30 -41 17 -18 30 -36 30
-40 0 -4 14 -27 30 -51 17 -25 30 -48 30 -51 0 -3 9 -25 19 -49 26 -55 41
-115 31 -119 -11 -4 -139 -222 -179 -305 -37 -75 -45 -81 -143 -102 -105 -24
-253 -31 -357 -19 -92 11 -211 70 -211 104 0 7 -5 14 -11 16 -17 6 -23 100 -9
144 21 65 79 152 149 223 116 119 295 258 392 304 51 24 123 55 129 56 2 1 19
-13 37 -31z m2503 -42 c25 -4 63 -9 85 -12 22 -2 49 -6 60 -8 11 -3 24 -5 30
-5 5 -1 0 -8 -12 -16 -12 -8 -31 -31 -43 -50 -23 -38 -24 -90 -2 -132 15 -27
15 -43 1 -43 -6 0 -16 14 -22 30 -6 17 -15 30 -19 30 -4 0 -8 7 -8 14 0 29
-96 99 -166 122 -55 17 -86 21 -173 18 -58 -1 -122 -5 -141 -9 -75 -12 -187
-37 -240 -53 -30 -9 -59 -15 -63 -14 -4 1 -16 -2 -26 -7 -10 -6 -29 -12 -42
-15 -178 -38 -272 -57 -308 -61 -24 -3 -47 -8 -52 -11 -5 -3 -9 -1 -9 4 0 5
15 17 33 25 74 35 127 56 127 49 0 -4 4 -2 8 3 6 9 171 68 197 71 6 0 17 4 25
7 24 10 92 26 135 32 22 4 47 8 55 10 22 6 88 15 143 19 27 3 50 6 52 8 6 6
328 1 375 -6z m-4803 -82 c99 -16 241 -53 249 -65 3 -5 14 -9 25 -9 27 0 24
-12 -17 -84 -32 -56 -40 -63 -63 -59 -49 8 -136 9 -151 2 -8 -3 -54 -19 -103
-34 -48 -15 -92 -34 -98 -41 -6 -8 -17 -14 -23 -14 -7 0 -54 -28 -106 -63 -90
-59 -121 -82 -160 -117 -9 -8 -41 -35 -71 -59 -50 -41 -91 -79 -171 -154 -36
-34 -53 -38 -102 -27 -22 5 -36 4 -36 -2 0 -5 -5 -6 -10 -3 -6 3 -36 8 -68 11
-31 3 -70 7 -87 10 -16 2 -46 6 -65 9 -58 7 -103 13 -135 19 -16 3 -50 8 -75
11 -87 12 -195 37 -222 51 -15 8 -28 12 -28 9 0 -3 -20 8 -44 25 -75 51 -98
99 -82 170 12 56 153 152 326 223 86 35 341 111 444 131 180 37 283 53 401 65
118 12 379 9 472 -5z m575 -8 c40 -14 84 -27 98 -30 14 -3 50 -12 79 -20 30
-8 96 -22 145 -31 50 -8 100 -17 112 -19 147 -29 590 -28 670 0 15 6 14 2 -7
-22 -58 -64 -76 -87 -112 -147 -71 -117 -94 -243 -60 -329 16 -42 91 -133 101
-123 3 2 17 -4 32 -15 16 -11 35 -20 42 -20 8 0 18 -3 22 -7 3 -4 14 -8 24 -9
9 -1 37 -6 62 -11 73 -13 308 -8 378 9 57 14 62 14 60 -1 -2 -9 -7 -20 -11
-26 -4 -5 -37 -48 -73 -95 -35 -47 -68 -84 -73 -83 -16 4 -65 11 -116 18 -27
3 -66 8 -85 10 -101 14 -456 21 -565 11 -27 -3 -84 -8 -125 -11 -41 -4 -84 -9
-95 -11 -11 -2 -48 -6 -83 -8 -35 -3 -66 -8 -70 -10 -4 -2 -29 -7 -57 -10 -27
-4 -57 -9 -65 -11 -8 -2 -31 -7 -50 -10 -19 -3 -46 -8 -60 -10 -14 -3 -34 -7
-45 -9 -11 -3 -38 -8 -60 -14 l-40 -9 60 61 c151 154 210 416 135 606 -44 111
-127 216 -238 300 l-62 48 26 31 c14 17 28 31 30 31 2 0 36 -11 76 -24z m4640
0 c31 -9 31 -9 1 -116 -21 -76 -31 -94 -47 -81 -10 9 -48 16 -108 20 -5 1 -8
6 -8 11 0 6 -8 19 -18 30 -22 24 -26 70 -9 94 15 20 106 54 140 52 12 -1 34
-6 49 -10z m-2301 -125 c27 -41 49 -77 49 -80 0 -3 -9 -11 -20 -16 -70 -35
-166 -86 -237 -127 -45 -27 -84 -48 -86 -48 -3 0 -5 27 -5 60 1 33 5 60 10 60
5 0 7 4 4 9 -4 5 -3 11 1 13 5 1 30 32 57 68 27 36 70 89 94 118 43 52 45 53
64 35 11 -10 42 -51 69 -92z m2459 48 c0 -5 6 -9 13 -9 15 -1 82 -62 97 -90
11 -20 16 -152 6 -168 -2 -4 -7 -25 -11 -47 -8 -46 -13 -69 -15 -72 -2 -2 -3
-6 -4 -10 -1 -5 -12 -40 -25 -80 -25 -80 -40 -94 -186 -167 l-70 -35 37 33
c43 37 70 92 61 125 -3 12 1 29 9 39 54 66 55 224 1 284 -15 17 -14 24 12 105
16 49 29 93 31 100 3 13 44 6 44 -8z m-644 -20 c28 -14 59 -39 72 -59 l23 -35
-20 -15 c-11 -8 -45 -30 -74 -49 -77 -48 -110 -112 -80 -157 12 -18 11 -23 -2
-34 -8 -7 -15 -10 -15 -6 0 4 -19 -3 -41 -15 -38 -19 -52 -20 -158 -15 -64 4
-134 9 -156 12 -22 3 -56 7 -75 9 -127 16 -183 24 -220 29 -52 7 -131 16 -265
30 -115 12 -228 26 -256 31 -9 2 -38 7 -63 10 -25 4 -46 11 -46 15 0 28 149
79 350 121 149 30 175 36 175 39 0 1 9 3 19 5 11 2 47 11 80 19 96 24 228 54
266 60 19 3 44 7 55 10 11 2 47 7 80 11 33 3 61 8 63 10 2 1 56 2 121 1 102
-2 124 -5 167 -27z m-4292 -60 c205 -157 280 -350 216 -561 -64 -209 -202
-310 -321 -233 -50 33 -108 145 -115 225 l-4 45 63 29 c71 34 130 90 147 140
13 41 7 103 -16 151 -17 37 -79 105 -96 105 -9 0 8 36 47 97 11 18 24 33 29
33 4 0 27 -14 50 -31z m4569 -136 c12 -65 -24 -99 -116 -110 l-49 -6 21 39
c12 21 21 45 21 53 0 29 32 51 75 51 38 0 43 -3 48 -27z m117 8 c0 -6 -4 -13
-10 -16 -5 -3 -10 1 -10 9 0 9 5 16 10 16 6 0 10 -4 10 -9z m-4953 -19 c8 -5
5 -29 -13 -91 -13 -46 -27 -109 -30 -140 -7 -63 -16 -83 -35 -87 -8 -1 -63
-13 -124 -27 -166 -38 -358 -65 -507 -72 -53 -2 -59 5 -24 28 13 9 29 22 37
29 8 8 43 36 79 63 36 27 67 53 68 57 2 4 10 8 17 8 7 0 15 4 17 8 4 11 132
96 217 146 106 62 260 102 298 78z m2861 -34 c31 -66 32 -75 11 -100 -11 -13
-30 -34 -42 -48 -87 -99 -167 -248 -193 -356 -23 -97 -15 -208 22 -299 45
-112 110 -193 256 -317 27 -23 27 -23 9 -51 l-18 -28 -29 38 c-129 170 -419
352 -714 448 -47 16 -86 29 -88 30 -2 2 14 49 35 105 37 100 40 104 138 204
55 55 139 131 186 168 93 73 288 195 326 204 12 4 23 9 23 14 0 6 37 28 51 29
3 1 15 -18 27 -41z m-2732 -49 c19 -27 27 -51 26 -72 -3 -35 -40 -80 -84 -102
l-28 -13 5 36 c9 78 39 192 50 192 1 0 15 -18 31 -41z m4928 24 c6 -20 1 -60
-14 -97 -7 -20 -14 -24 -32 -19 -13 3 -40 8 -61 12 l-39 6 34 25 c18 13 46 39
62 57 34 38 42 40 50 16z m-1889 -99 c48 -8 70 -12 70 -14 0 -2 74 -9 150 -14
33 -2 60 -5 60 -6 0 0 29 -3 65 -5 70 -4 150 -12 189 -20 14 -2 47 -7 75 -11
28 -3 60 -8 71 -9 68 -10 113 -17 136 -21 35 -5 142 -14 249 -20 90 -5 110 -9
110 -21 0 -5 -53 -8 -117 -7 -65 0 -122 -2 -128 -5 -5 -2 -23 -6 -40 -8 -78
-7 -231 -65 -303 -115 -53 -36 -112 -95 -112 -111 0 -6 -7 -19 -16 -28 -11
-13 -17 -39 -18 -84 0 -35 -3 -65 -5 -65 -6 0 -171 120 -205 150 -17 14 -42
36 -57 50 -15 14 -68 63 -119 110 -100 93 -137 150 -137 215 0 49 4 57 25 51
10 -3 35 -8 57 -12z m-231 -82 c3 -5 7 -19 10 -33 2 -13 7 -31 10 -39 3 -8 8
-26 10 -40 3 -14 7 -36 10 -50 30 -137 37 -205 36 -340 -1 -115 -9 -190 -31
-282 l-11 -48 -28 20 c-66 47 -141 134 -174 203 -32 66 -56 154 -51 188 1 8 5
35 8 61 12 98 51 182 140 301 50 66 61 75 71 59z m2031 -23 c2 -3 -18 -30 -46
-61 -47 -54 -67 -65 -134 -74 -36 -5 -165 -13 -165 -9 0 1 25 21 55 44 58 44
139 88 184 101 27 7 98 7 106 -1z m-351 -25 c-21 -14 -51 -37 -66 -51 -38 -36
-92 -21 -99 26 -4 26 1 29 85 36 27 3 51 7 54 10 3 3 19 5 35 5 l30 0 -39 -26z
m-425 -123 c2 -1 -8 -10 -22 -21 -34 -27 -65 -94 -71 -154 -7 -69 17 -133 66
-178 l41 -37 -44 -11 c-24 -7 -52 -14 -61 -16 -10 -2 -28 -7 -40 -10 -52 -13
-184 -11 -223 4 -54 20 -101 67 -121 119 -22 58 -7 111 46 163 32 32 120 84
142 85 3 0 10 3 14 8 4 4 13 7 20 7 7 0 25 5 41 11 15 7 37 13 48 14 69 9 120
18 123 20 3 3 11 2 41 -4z m-4236 -52 c4 -24 9 -48 11 -54 2 -5 7 -23 11 -39
9 -33 21 -57 50 -101 42 -61 81 -89 165 -116 30 -10 48 -19 40 -19 -8 -1 -24
-4 -35 -6 -11 -3 -29 -6 -40 -8 -55 -9 -498 -166 -610 -216 -22 -10 -74 -32
-115 -50 -223 -96 -518 -257 -720 -394 -41 -28 -80 -51 -87 -52 -12 -2 -27 17
-61 78 -50 88 -62 197 -31 286 34 98 56 128 185 257 81 80 150 145 343 328
l55 51 85 2 c94 2 273 12 311 18 14 3 46 7 71 10 86 12 330 64 338 72 13 12
27 -7 34 -47z m3318 -140 c47 -42 73 -63 114 -93 22 -16 45 -34 50 -40 27 -30
285 -188 395 -242 113 -55 327 -136 390 -148 14 -2 48 -10 75 -16 28 -6 61
-14 75 -16 14 -2 35 -6 46 -9 12 -3 52 -8 90 -11 38 -3 89 -14 114 -23 51 -19
111 -20 155 -1 17 7 53 14 80 17 72 5 209 31 290 54 39 11 77 22 85 24 8 2 15
4 15 5 0 1 8 3 18 5 35 7 16 -12 -40 -40 -32 -16 -65 -34 -73 -41 -8 -7 -19
-14 -25 -15 -5 -1 -19 -7 -30 -14 -11 -7 -72 -43 -135 -81 -63 -37 -119 -72
-125 -76 -24 -18 -176 -118 -180 -118 -3 0 -13 -7 -22 -16 -26 -22 -240 -181
-260 -192 -11 -6 -27 -5 -50 4 -18 8 -33 11 -33 8 0 -4 -7 -1 -15 6 -8 7 -15
9 -15 6 0 -4 -8 -2 -18 3 -11 6 -30 12 -43 15 -22 4 -216 74 -264 95 -11 5
-49 21 -85 36 -117 50 -191 85 -497 236 l-302 148 23 86 c13 47 19 85 14 85
-5 0 -6 6 -1 13 8 14 13 36 16 87 1 19 6 41 10 48 5 6 5 12 0 12 -4 0 -8 51
-9 113 -1 61 -4 132 -7 157 -17 124 -24 120 67 32 44 -44 93 -91 107 -103z
m1102 130 c32 -14 32 -14 8 -60 -28 -51 -51 -134 -45 -164 6 -33 -17 -33 -69
-2 -102 62 -102 152 1 214 37 23 68 26 105 12z m245 -66 c59 -37 59 -39 -13
-87 -54 -37 -62 -34 -68 27 -3 28 -9 65 -13 81 -6 26 -5 28 17 21 13 -4 48
-23 77 -42z m739 -27 c74 -6 133 -18 139 -27 3 -5 9 -7 14 -4 9 6 89 -21 179
-61 l63 -28 -53 -48 c-29 -27 -65 -56 -81 -64 -15 -8 -28 -19 -28 -24 0 -6 -3
-9 -7 -8 -5 1 -28 -10 -52 -26 -64 -41 -202 -109 -229 -113 -23 -4 -63 24
-145 98 l-30 28 43 87 c23 49 51 112 61 141 15 38 26 53 42 55 12 2 25 3 29 1
4 -2 28 -5 55 -7z m-233 -53 c-74 -168 -68 -161 -113 -119 -20 19 -56 53 -79
76 -24 23 -42 44 -39 46 6 7 102 33 147 40 19 3 36 7 37 8 1 1 18 3 37 4 l35
3 -25 -58z m-683 -54 c-8 -22 -9 -22 -9 9 1 19 5 29 10 24 5 -5 5 -19 -1 -33z
m389 -20 c19 -16 68 -59 108 -95 l73 -66 -28 -48 c-31 -52 -92 -123 -137 -158
-24 -19 -41 -22 -110 -22 -77 0 -84 2 -108 28 -50 55 -64 143 -34 216 15 37
102 136 118 136 6 0 21 9 35 20 34 26 42 25 83 -11z m-3080 -55 c36 -4 71 -7
78 -7 7 0 11 -3 9 -6 -1 -3 -9 -18 -16 -33 -20 -39 -14 -41 -191 45 l-35 17
45 -5 c25 -3 74 -8 110 -11z m4210 -93 c58 -59 98 -109 120 -151 12 -24 12
-24 -6 -9 -24 21 -70 44 -124 63 -45 15 -195 19 -239 6 -14 -4 -55 -16 -91
-26 -36 -9 -69 -21 -75 -24 -14 -10 -45 -20 -45 -15 0 2 26 18 58 36 74 43
185 123 241 176 l45 41 31 -21 c16 -11 55 -46 85 -76z m-5205 51 c-16 -9 -43
-24 -60 -32 -16 -8 -32 -17 -35 -20 -3 -3 -25 -19 -50 -35 -73 -48 -213 -196
-264 -278 -49 -78 -100 -198 -110 -258 -3 -19 -9 -47 -12 -64 -14 -67 -6 -210
16 -285 10 -34 8 -36 -31 -69 -70 -58 -97 -146 -77 -242 13 -57 96 -136 191
-183 58 -28 65 -34 37 -30 -19 3 -44 7 -55 9 -156 23 -677 169 -800 224 -11 5
-78 32 -150 61 -238 97 -490 237 -600 334 -22 20 -43 36 -46 36 -4 0 -9 6 -12
14 -4 10 28 37 104 86 61 39 127 80 147 91 20 11 51 28 67 38 124 73 266 147
395 205 58 25 114 52 124 57 11 6 47 22 80 34 34 13 117 44 186 70 69 26 130
48 135 49 6 2 44 13 85 26 41 13 77 24 80 25 3 1 12 4 20 7 18 7 285 75 320
82 14 2 59 12 100 21 41 9 91 18 110 21 19 3 53 10 75 14 60 12 62 11 30 -8z
m621 3 c72 -11 168 -35 180 -46 6 -5 16 -9 20 -7 16 5 154 -65 154 -78 0 -11
-256 -402 -271 -414 -3 -3 -13 -18 -22 -35 -27 -49 -47 -71 -55 -59 -10 15
-81 46 -108 48 -13 0 -24 3 -24 6 0 15 -146 -2 -214 -25 -42 -14 -48 -14 -77
0 -35 19 -124 18 -180 -1 -145 -50 -283 -166 -335 -284 -13 -29 -27 -43 -57
-55 -22 -9 -41 -15 -42 -13 -2 2 -6 20 -9 42 -4 21 -9 42 -12 47 -3 5 0 9 6 9
6 0 8 5 5 10 -9 14 -14 110 -6 110 3 0 6 17 6 38 1 47 10 95 30 152 15 45 46
111 55 120 3 3 18 25 33 49 83 127 299 290 447 336 185 57 333 73 476 50z
m801 -60 c286 -103 533 -271 650 -444 l31 -45 -42 -60 c-51 -75 -186 -213
-246 -252 -65 -41 -130 -75 -160 -84 -22 -6 -26 -4 -26 14 -1 70 -27 183 -67
292 -44 120 -137 263 -243 372 -41 42 -75 81 -77 87 -2 5 2 27 9 48 7 20 11
37 9 37 -2 0 2 12 10 27 8 15 12 30 9 35 -11 18 50 6 143 -27z m2313 24 c0 -6
-4 -19 -10 -29 -22 -41 -15 -162 12 -196 16 -22 -19 -23 -118 -3 -107 22 -129
27 -129 29 0 1 -10 3 -22 6 -12 2 -41 11 -65 19 -45 17 -47 18 -90 30 -43 11
-33 21 35 35 34 6 116 32 182 57 66 24 134 47 150 50 17 3 32 7 34 9 8 8 21 4
21 -7z m-2590 -49 c0 -5 -5 -10 -11 -10 -5 0 -7 5 -4 10 3 6 8 10 11 10 2 0 4
-4 4 -10z m3238 -100 l44 -40 -26 -10 c-15 -5 -37 -12 -49 -14 -90 -18 -122
-24 -125 -21 -2 1 9 15 23 31 14 15 35 42 46 61 11 18 26 33 32 33 7 0 31 -18
55 -40z m-3289 -12 c17 -10 17 -16 6 -67 -17 -71 -25 -133 -31 -248 -15 -253
97 -461 281 -523 59 -20 68 -22 172 -29 7 -1 10 -11 7 -28 -3 -16 -7 -39 -9
-53 -2 -14 -4 -25 -5 -25 -1 0 -3 -11 -6 -24 -6 -34 -56 -143 -74 -163 -14
-15 -41 -22 -135 -34 -22 -3 -65 -9 -95 -14 -30 -6 -73 -12 -95 -15 -22 -3
-51 -8 -65 -10 -14 -3 -47 -7 -75 -11 -65 -7 -103 -13 -139 -20 l-28 -6 6 43
c18 116 20 139 20 214 -1 75 -8 165 -18 210 -17 78 -39 143 -70 204 l-35 69
69 99 c38 54 74 103 79 110 6 7 11 14 11 17 0 5 154 244 168 262 5 5 15 20 21
32 14 25 15 26 40 10z m4082 -65 c60 -27 109 -71 138 -126 l24 -45 -27 -54
c-31 -61 -32 -62 -137 -117 l-76 -39 -34 32 c-19 17 -61 54 -94 81 -33 28 -65
55 -72 60 -6 6 -50 39 -98 74 -47 35 -82 68 -78 72 12 11 179 69 227 78 70 14
177 6 227 -16z m-3814 -216 c90 -135 160 -330 167 -466 1 -29 -19 -34 -89 -19
-104 22 -184 80 -227 163 -36 69 -46 128 -42 242 2 59 3 118 4 130 0 12 5 25
10 28 6 4 8 10 5 15 -3 5 -1 29 6 52 l11 42 55 -59 c30 -33 75 -91 100 -128z
m3276 81 c18 -12 37 -27 43 -33 6 -5 26 -21 44 -35 60 -45 155 -124 220 -183
l64 -58 -26 -22 c-15 -12 -40 -32 -55 -44 -16 -12 -50 -41 -77 -66 -37 -33
-69 -50 -130 -70 -45 -15 -90 -28 -101 -30 -11 -2 -27 -7 -35 -10 -39 -15
-248 -37 -370 -39 -108 -1 -285 12 -357 26 -11 3 -42 8 -67 11 -25 4 -46 10
-46 14 0 18 484 351 509 351 5 0 11 4 13 8 4 11 315 196 336 201 2 1 18 -9 35
-21z m-2273 -97 c11 -12 377 -199 487 -248 220 -100 628 -251 658 -244 10 2
-30 -36 -104 -98 -119 -99 -298 -270 -354 -339 l-27 -34 -50 31 c-28 17 -53
31 -55 31 -3 0 -24 9 -48 19 -142 64 -331 95 -584 94 -62 0 -113 2 -113 4 0 3
15 23 33 46 39 48 70 120 86 194 10 50 9 237 -2 279 -21 82 -31 114 -47 149
-30 66 -30 72 -5 124 l25 50 47 -26 c27 -15 50 -29 53 -32z m3211 -137 c73
-23 156 -97 188 -168 20 -43 43 -146 32 -146 -3 0 -6 -17 -6 -38 1 -20 -6 -62
-15 -92 -21 -68 -100 -240 -112 -240 -4 0 -8 -6 -8 -13 0 -7 -9 -23 -20 -35
-11 -12 -20 -26 -20 -32 0 -5 -4 -10 -10 -10 -5 0 -10 -7 -10 -15 0 -8 -4 -15
-8 -15 -4 0 -16 -13 -25 -30 -10 -16 -24 -35 -31 -42 -7 -8 -35 -41 -62 -73
-26 -33 -57 -69 -67 -80 -19 -20 -19 -19 -3 19 9 21 18 48 21 60 2 11 7 32 11
46 20 73 9 321 -17 385 -4 11 -13 38 -20 60 -6 22 -23 63 -36 91 l-25 51 24
39 c29 46 68 130 68 144 0 5 5 10 10 10 6 0 9 3 8 8 -2 6 18 98 28 130 4 13
26 11 105 -14z m-221 -6 c0 -40 -63 -208 -77 -208 -6 0 -22 19 -49 57 -15 22
-14 25 45 84 34 34 61 66 61 71 0 4 5 8 10 8 6 0 10 -6 10 -12z m-3185 -50 c4
-18 9 -40 12 -48 2 -8 6 -28 8 -43 3 -16 7 -33 10 -37 8 -13 7 -147 0 -195 -4
-22 -13 -52 -21 -67 -8 -15 -14 -30 -14 -33 1 -12 -37 -63 -80 -106 -59 -61
-110 -86 -190 -93 -36 -3 -76 -8 -90 -11 -14 -2 -50 -6 -80 -9 -30 -3 -82 -10
-115 -16 -33 -5 -61 -10 -62 -10 0 0 9 22 22 49 28 57 52 147 57 211 3 43 5
45 50 62 25 9 62 24 82 32 20 8 38 14 39 13 1 -1 9 4 17 10 8 7 51 39 96 72
75 56 160 143 213 219 12 17 26 32 30 32 5 0 12 -15 16 -32z m-1675 -7 c8 0
30 -10 48 -21 l33 -20 -51 -68 c-28 -37 -72 -90 -97 -119 l-46 -52 -44 50
c-25 27 -51 49 -58 49 -19 0 -38 27 -29 42 9 15 13 29 17 75 2 18 6 36 10 39
20 20 133 33 217 25z m-390 -11 c0 -5 -4 -10 -10 -10 -9 0 -50 -80 -50 -99 0
-9 -13 -13 -90 -25 -14 -3 -25 -5 -25 -6 0 -1 -13 -4 -29 -6 -16 -3 -38 -10
-48 -15 -13 -7 -18 -6 -17 3 0 15 121 118 137 118 6 0 12 4 14 8 4 11 78 41
101 41 9 1 17 -3 17 -9z m570 -213 c18 -45 34 -93 36 -107 1 -14 7 -45 12 -70
20 -108 -5 -377 -36 -381 -213 -27 -517 -29 -697 -5 -142 19 -371 86 -395 115
-3 3 -18 13 -33 21 -16 8 -42 32 -58 55 -36 47 -35 94 2 144 26 35 45 40 53
13 8 -22 94 -111 132 -135 89 -56 200 -87 295 -81 62 3 148 23 169 39 8 6 28
16 43 23 49 21 140 109 167 162 10 19 42 58 72 87 68 66 115 117 157 170 19
23 37 40 42 38 4 -3 22 -42 39 -88z m4493 34 c20 -26 37 -53 37 -59 0 -13
-162 -177 -225 -227 -27 -22 -52 -43 -55 -46 -4 -5 -202 -152 -290 -216 -142
-102 -336 -230 -338 -224 -4 12 42 109 75 157 32 47 98 125 163 195 25 26 60
66 78 88 71 86 231 251 244 251 13 0 185 84 223 109 17 11 35 20 40 20 6 1 28
-21 48 -48z m-7109 -165 c188 -125 390 -221 670 -321 152 -54 386 -127 471
-147 22 -5 56 -13 75 -18 36 -9 105 -25 150 -35 14 -2 50 -10 80 -17 30 -6 62
-12 70 -13 67 -10 98 -15 115 -19 161 -32 500 -58 771 -58 159 -1 161 -1 156
-22 -7 -29 -50 -96 -62 -97 -15 -2 -20 -3 -83 -22 -112 -34 -250 -68 -255 -62
-3 2 -10 1 -16 -4 -6 -5 -24 -12 -41 -14 -16 -3 -66 -13 -109 -22 -44 -8 -93
-18 -110 -20 -17 -3 -42 -7 -56 -10 -52 -10 -188 -28 -295 -40 -285 -33 -717
-37 -1004 -11 -64 6 -162 17 -191 21 -14 1 -50 6 -80 9 -30 4 -62 9 -70 12 -9
2 -34 6 -55 8 -44 5 -99 14 -130 20 -11 3 -41 8 -67 12 -27 3 -48 10 -48 13 0
4 -9 7 -21 8 -54 4 -203 66 -279 116 -70 46 -145 131 -178 200 -39 81 -43 96
-44 165 -3 148 93 291 306 457 21 17 45 36 52 43 7 6 17 12 22 12 5 0 15 7 22
15 11 13 20 8 67 -35 30 -28 105 -84 167 -124z m2006 102 c8 -9 22 -18 30 -19
23 -4 80 11 80 21 0 15 56 -9 79 -34 11 -12 23 -35 27 -51 5 -28 1 -33 -48
-62 -134 -81 -238 -88 -365 -27 -55 28 -107 92 -96 121 3 8 7 12 10 10 2 -3
25 2 51 10 89 28 177 50 197 49 11 0 27 -8 35 -18z m3650 -93 c72 -16 194 -35
260 -41 147 -14 407 -8 503 12 12 2 37 7 56 10 54 9 71 13 94 20 23 7 13 -6
-94 -121 -125 -135 -169 -187 -223 -258 -76 -103 -113 -182 -122 -262 -2 -22
-6 -45 -8 -51 -4 -12 -231 -154 -246 -154 -4 0 -10 -4 -12 -8 -3 -8 -144 -89
-295 -169 l-82 -44 13 33 c26 67 29 73 32 83 62 191 26 325 -104 390 -65 32
-148 37 -238 14 l-69 -17 -37 41 c-29 31 -35 44 -28 58 19 35 253 261 404 391
22 18 53 45 70 61 32 28 45 29 126 12z m-4014 -70 c10 -16 28 -38 39 -48 27
-24 110 -67 160 -82 39 -13 39 -13 9 -14 -16 -1 -58 8 -92 20 -67 23 -145 88
-176 146 -15 30 -15 33 1 41 13 8 20 5 28 -12 6 -11 20 -34 31 -51z m5602 3
c16 -40 32 -82 36 -93 23 -82 27 -198 9 -283 -14 -66 -69 -205 -84 -210 -5 -2
-9 -10 -9 -18 0 -8 -4 -14 -10 -14 -5 0 -10 -6 -10 -14 0 -25 -148 -164 -219
-206 -116 -69 -198 -93 -323 -95 -93 -1 -114 2 -171 24 -35 14 -82 38 -104 53
-52 34 -109 104 -117 144 -6 29 -4 34 31 55 87 53 278 182 281 190 2 5 8 9 13
9 9 0 68 38 79 51 3 3 28 21 55 40 55 37 118 85 144 109 9 8 39 33 66 55 71
56 117 99 209 192 45 45 84 82 88 82 3 1 20 -32 36 -71z m-2738 -283 c19 -3
44 -8 55 -10 33 -5 79 -16 95 -22 8 -3 23 -8 32 -9 27 -6 163 -68 166 -76 2
-4 8 -8 14 -8 5 0 16 -6 23 -14 12 -12 10 -23 -18 -80 -31 -64 -33 -65 -72
-66 -105 -3 -358 -80 -541 -165 -58 -28 -83 -33 -145 -34 -80 -1 -92 -3 -159
-22 -25 -7 -48 -12 -52 -11 -6 1 -70 -25 -158 -66 -54 -25 -198 -110 -270
-160 l-65 -45 -150 -2 c-82 -1 -159 -5 -170 -8 -11 -2 -42 -8 -70 -11 -59 -8
-241 -50 -306 -71 -25 -9 -54 -17 -65 -19 -10 -3 -73 -23 -139 -46 -66 -23
-124 -42 -130 -44 -46 -13 -247 -104 -255 -116 -3 -3 -14 -10 -25 -14 -20 -7
-9 7 65 83 14 14 50 55 80 91 30 35 60 70 65 76 44 52 145 188 170 232 11 17
23 32 27 32 4 0 8 5 8 10 0 6 15 35 34 64 24 37 43 55 63 60 29 7 272 91 308
106 11 5 45 19 75 31 30 13 98 45 150 72 95 49 105 53 170 63 19 3 53 10 75
16 22 6 51 12 65 14 14 1 70 14 125 29 99 25 128 33 133 34 1 1 4 1 7 1 12 1
143 53 199 79 39 18 79 29 110 29 27 1 51 3 53 6 7 7 381 -1 423 -9z m-1360
-119 c0 -3 -4 -8 -10 -11 -5 -3 -10 -1 -10 4 0 6 5 11 10 11 6 0 10 -2 10 -4z
m1868 -127 c2 -11 -8 -21 -29 -28 -18 -6 -34 -11 -36 -11 -2 0 4 14 12 31 17
32 47 37 53 8z m-2173 -40 c-27 -11 -59 -24 -70 -28 -29 -13 -118 -41 -121
-38 -5 5 29 77 35 73 3 -2 26 -1 51 3 25 3 70 7 100 8 l55 2 -50 -20z m2528
-22 c67 -45 98 -101 93 -169 -4 -50 -13 -76 -65 -178 -79 -155 -66 -141 -200
-205 -64 -30 -77 -33 -89 -21 -12 11 -9 18 15 47 51 60 93 132 109 188 16 51
20 142 9 189 -3 12 -7 30 -9 40 -2 9 -14 39 -25 66 -12 27 -20 50 -19 51 2 1
23 6 48 11 50 11 99 4 133 -19z m-252 -89 c17 -38 24 -74 26 -128 2 -66 -2
-82 -30 -140 -34 -69 -76 -130 -89 -130 -4 0 -12 9 -18 20 -9 16 -7 24 11 43
24 25 53 86 67 137 15 57 7 127 -21 180 -24 46 -24 50 -9 60 30 17 39 11 63
-42z m-354 -1 c-138 -89 -176 -117 -222 -162 l-54 -54 -38 27 c-21 15 -53 35
-72 44 l-35 16 35 15 c55 23 210 79 228 82 9 2 16 4 16 5 0 4 123 38 140 38
19 1 19 0 2 -11z m201 -44 c25 -24 33 -75 21 -125 -6 -27 -15 -48 -19 -48 -4
0 -11 -10 -14 -22 -6 -20 -10 -16 -25 27 -17 49 -28 166 -16 185 7 11 34 2 53
-17z m1203 -68 c24 -48 123 -155 144 -155 7 0 15 -4 17 -8 5 -13 96 -52 159
-68 100 -26 277 -17 342 17 11 7 17 6 17 -1 0 -6 -8 -14 -17 -17 -10 -4 -20
-10 -23 -13 -18 -24 -201 -125 -325 -181 -47 -21 -202 -76 -235 -84 -8 -2 -37
-9 -65 -15 -27 -7 -59 -14 -70 -16 -190 -33 -368 -36 -575 -9 -44 5 -190 47
-195 55 -3 5 9 36 27 69 31 59 36 63 133 113 163 84 208 108 250 134 22 13 49
28 60 33 12 5 63 34 113 65 51 31 94 56 96 56 3 0 28 16 57 35 30 19 57 35 61
35 3 0 17 -20 29 -45z m-1355 -25 c9 -75 12 -95 14 -95 1 0 3 -7 5 -15 2 -8
10 -32 19 -52 15 -36 15 -37 -10 -57 -15 -12 -33 -21 -40 -21 -8 0 -14 -4 -14
-8 0 -16 -101 -56 -137 -55 -40 1 -55 13 -60 45 -2 13 -12 41 -23 64 -11 22
-20 45 -20 51 0 21 99 107 176 154 43 26 80 47 81 46 1 -2 5 -27 9 -57z m-491
-85 c65 -32 120 -79 110 -95 -23 -37 8 -155 49 -189 13 -11 13 -18 2 -49 -21
-58 -49 -112 -58 -112 -4 0 -8 -5 -8 -12 0 -12 -89 -119 -130 -155 -13 -13
-43 -29 -65 -37 -22 -8 -92 -33 -155 -56 -124 -44 -495 -169 -520 -174 -8 -2
-22 -6 -30 -9 -8 -3 -55 -18 -105 -32 -49 -15 -102 -30 -118 -35 -22 -7 -31
-5 -52 16 -55 55 -54 166 2 250 67 99 143 171 143 135 0 -5 12 -12 28 -16 124
-33 187 0 217 115 7 27 11 51 9 53 -3 2 -6 23 -9 45 l-4 41 104 70 c57 39 108
71 114 71 6 0 11 4 11 8 0 5 12 15 27 23 15 8 57 32 93 53 36 22 103 59 150
83 95 49 111 49 195 8z m-379 6 c-3 -5 -36 -27 -73 -49 -38 -22 -119 -76 -181
-121 l-113 -80 -30 18 -30 18 48 35 c59 42 166 98 286 149 103 43 100 42 93
30z m924 -344 c-88 -83 -116 -101 -230 -149 -14 -6 -34 -14 -45 -19 -41 -18
-75 -28 -75 -24 0 2 8 19 18 37 11 18 28 60 39 93 20 57 22 59 60 63 74 6 186
54 268 115 18 14 22 13 40 -6 l19 -20 -94 -90z m-1553 39 c-6 -17 -11 -60 -11
-96 -1 -65 -1 -66 -60 -132 -65 -75 -117 -155 -136 -214 -21 -61 -17 -152 8
-208 12 -27 21 -50 20 -51 -6 -3 -394 -116 -418 -121 -14 -3 -50 -13 -80 -24
-399 -138 -628 -158 -738 -65 -51 44 -85 122 -83 192 1 68 36 171 75 221 33
43 128 133 167 158 24 16 46 31 49 34 13 14 215 110 300 143 171 65 371 121
550 153 8 1 33 5 55 8 22 3 51 8 64 10 13 3 56 8 95 12 39 3 72 7 73 8 1 1 20
2 41 2 l40 0 -11 -30z m146 -28 c-13 -15 -17 -15 -30 -2 -22 22 1 48 27 31 18
-10 18 -13 3 -29z m72 -78 c3 -5 1 -10 -4 -10 -6 0 -11 5 -11 10 0 6 2 10 4
10 3 0 8 -4 11 -10z m1628 -7 c18 -10 33 -19 35 -19 2 -1 -22 -44 -53 -95 -93
-155 -190 -272 -266 -323 -77 -50 -203 -33 -241 32 -30 53 2 128 99 225 37 37
70 67 75 67 9 0 113 45 151 66 15 8 27 13 27 11 0 -2 26 9 58 24 68 33 75 34
115 12z m-1241 -463 c-18 -11 -37 -20 -42 -20 -6 0 -10 -5 -10 -12 0 -6 -3 -8
-7 -5 -3 4 -11 3 -17 -1 -14 -11 -173 -73 -211 -82 -5 -1 -20 -6 -32 -11 -13
-5 -51 -11 -85 -15 -35 -3 -65 -8 -68 -10 -3 -1 -11 1 -18 5 -7 4 8 12 36 20
103 29 428 132 442 141 8 5 22 9 30 9 8 1 0 -8 -18 -19z"/>
</g>
</svg>
